<svg xmlns="http://www.w3.org/2000/svg" xmlns:xlink="http://www.w3.org/1999/xlink" width="500" zoomAndPan="magnify" viewBox="0 0 375 374.999991" height="500" preserveAspectRatio="xMidYMid meet" version="1.0"><path fill="#000000" d="M 175.003906 260.675781 L 178.796875 260.675781 C 176.96875 255.804688 182.242188 251.171875 186.855469 253.824219 L 193.5625 257.707031 L 205.367188 237.285156 C 207.496094 233.535156 199.433594 227.507812 196.1875 225.628906 C 192.925781 223.523438 183.585938 220.074219 181.644531 223.347656 L 179.230469 227.53125 L 186.035156 231.464844 C 188.707031 233.019531 189.640625 236.46875 188.0625 239.136719 C 186.507812 241.828125 183.085938 242.75 180.398438 241.191406 L 173.617188 237.285156 L 160.289062 260.359375 L 160.835938 260.683594 L 175.003906 260.683594 Z M 204.714844 260.910156 C 208.644531 261.84375 211.519531 265.390625 211.519531 269.527344 L 211.519531 283.710938 C 211.519531 283.921875 211.519531 284.148438 211.496094 284.347656 C 211.929688 287.6875 212.132812 290.886719 212.132812 293.925781 C 212.132812 305.070312 209.597656 315.40625 204.988281 324.675781 L 344.523438 324.675781 C 354.863281 324.675781 363.359375 316.195312 363.359375 305.847656 L 363.359375 30.152344 C 363.359375 19.804688 354.871094 11.324219 344.523438 11.324219 L 142.792969 11.324219 C 132.453125 11.324219 123.957031 19.804688 123.957031 30.152344 L 123.957031 202.339844 C 141.300781 203.164062 157.164062 211.457031 167.804688 224.796875 L 171.957031 217.601562 L 171.933594 217.601562 C 174.285156 213.667969 177.894531 211.609375 182.089844 211 C 176.910156 196.214844 183.023438 175.925781 197.863281 169.527344 C 199.78125 168.679688 202.082031 168.929688 203.796875 170.375 C 211.289062 176.726562 215.167969 186.089844 215.78125 195.621094 C 223.65625 192.46875 232.488281 191.78125 240.640625 194.707031 C 242.667969 195.441406 244.019531 197.199219 244.3125 199.207031 L 244.3125 199.183594 C 246.527344 214.601562 232.304688 230.554688 216.804688 233.730469 C 217.300781 236.742188 216.851562 239.992188 215.089844 242.894531 Z M 20.851562 284.371094 L 20.804688 269.515625 C 20.804688 268.011719 21.191406 266.589844 21.851562 265.359375 C 11.96875 258 2.179688 248.40625 1.097656 237.25 C 0.34375 229.34375 4.023438 222.742188 9.910156 217.324219 C 5.09375 209.167969 1.734375 200.214844 5.179688 192.742188 C 7.371094 187.921875 11.777344 185.109375 16.988281 183.601562 C 12.535156 168.109375 25.570312 153.101562 41.546875 155.429688 C 48.390625 156.414062 54.328125 160.546875 57.707031 166.464844 C 69.417969 162.652344 78.1875 163.972656 84.046875 170.488281 C 89.273438 176.289062 91.402344 186.179688 90.394531 200.125 C 95.28125 200.308594 100.023438 201.90625 104.066406 204.785156 L 112.675781 202.890625 L 112.675781 30.152344 C 112.675781 13.566406 126.210938 0.0390625 142.785156 0.0390625 L 344.523438 0.0390625 C 361.097656 0.0390625 374.632812 13.566406 374.632812 30.152344 L 374.632812 305.847656 C 374.632812 322.410156 361.097656 335.960938 344.523438 335.960938 L 198.007812 335.960938 C 164.226562 380.71875 84.425781 384.03125 43.679688 346.035156 C 26.464844 329.980469 17.90625 308.359375 20.851562 284.371094 Z M 200.246094 271.960938 L 32.085938 271.960938 L 32.085938 281.261719 L 200.246094 281.261719 Z M 200.859375 293.925781 C 200.859375 293.464844 200.859375 293.011719 200.835938 292.554688 L 31.539062 292.554688 C 31.289062 310.425781 38.703125 325.980469 51.347656 337.796875 C 84.554688 368.78125 148.15625 368.667969 181.226562 337.796875 C 193.46875 326.390625 200.859375 311.261719 200.859375 293.925781 Z M 147.109375 260.675781 L 149.683594 256.21875 C 148.40625 249.816406 145.007812 244.175781 140.28125 240.039062 C 133.3125 233.960938 123.570312 231.449219 114.375 233.664062 C 113.554688 242.941406 111.386719 251.921875 108.351562 260.675781 Z M 157.011719 243.5 L 161.667969 235.453125 C 150.828125 218.9375 131.582031 210.917969 112.222656 214.382812 C 113.390625 216.828125 114.1875 219.476562 114.527344 222.179688 C 132.082031 219.226562 149.089844 228.117188 157.011719 243.5 Z M 205.789062 218.480469 C 207.65625 219.847656 209.441406 221.40625 210.988281 223.074219 C 221.128906 223.023438 231.714844 213.707031 233.148438 204.355469 C 222.753906 202.710938 210.0625 209.289062 205.789062 218.480469 Z M 195.996094 212.949219 C 197.910156 209.136719 200.8125 205.589844 204.304688 202.574219 C 204.902344 198.417969 204.628906 193.957031 203.371094 189.800781 C 202.503906 186.847656 201.109375 184.085938 199.191406 181.714844 C 191.203125 188.105469 188.394531 204.355469 195.996094 212.949219 Z M 103.277344 231.246094 C 103.488281 228.410156 103.824219 224.871094 103.09375 222.015625 C 101.152344 214.519531 93.484375 209.699219 85.625 211.917969 C 81.859375 212.988281 77.886719 209.910156 78.574219 205.476562 C 80.402344 191.355469 79.417969 182.199219 75.671875 178.039062 C 72.550781 174.542969 66.21875 174.816406 56.75 178.835938 C 53.554688 180.183594 49.882812 178.289062 49.085938 174.929688 C 46.78125 165.191406 33.742188 163.433594 28.839844 172.027344 C 26.601562 175.933594 26.972656 180.84375 29.796875 184.367188 C 32.648438 187.929688 30.207031 193.183594 25.828125 193.507812 C 21.699219 193.828125 16.582031 194.828125 15.398438 197.441406 C 13.683594 201.164062 17.886719 209.296875 21.996094 215.421875 C 23.710938 217.980469 23.066406 221.414062 20.417969 223.234375 C 16.035156 226.273438 11.808594 231.117188 12.292969 236.210938 C 12.515625 238.679688 13.710938 241.355469 15.8125 244.257812 C 19.507812 249.324219 25.875 254.816406 34.894531 260.683594 L 62.289062 260.683594 C 61.242188 256.933594 60.074219 253.1875 58.84375 249.4375 L 41.910156 244.894531 C 38.921875 244.09375 37.140625 241.007812 37.9375 237.992188 C 38.738281 235.003906 41.820312 233.195312 44.832031 234.019531 L 54.164062 236.511719 L 49.101562 224.402344 L 33.671875 220.269531 C 30.660156 219.46875 28.878906 216.359375 29.675781 213.367188 C 30.476562 210.355469 33.558594 208.574219 36.570312 209.371094 L 42.730469 211.039062 C 41.636719 208.847656 40.492188 206.679688 39.332031 204.5 C 37.851562 201.761719 38.875 198.351562 41.613281 196.894531 C 44.347656 195.410156 47.753906 196.433594 49.238281 199.171875 C 50.792969 202.050781 52.296875 204.953125 53.730469 207.855469 L 57.402344 201.800781 C 59.019531 199.148438 62.492188 198.304688 65.140625 199.929688 C 67.789062 201.558594 68.636719 205 67.007812 207.675781 L 59.480469 220.042969 L 64.683594 232.496094 L 67.878906 226.941406 C 69.457031 224.25 72.878906 223.332031 75.570312 224.886719 C 78.265625 226.441406 79.175781 229.890625 77.621094 232.585938 L 69.683594 246.359375 C 71.261719 251.132812 72.671875 255.910156 73.976562 260.683594 L 96.367188 260.683594 C 99.96875 251.234375 102.570312 241.320312 103.277344 231.246094 Z M 274.339844 222.953125 C 271.214844 222.953125 268.703125 220.414062 268.703125 217.308594 C 268.703125 214.183594 271.214844 211.667969 274.339844 211.667969 L 322.066406 211.667969 L 308.988281 187.605469 C 308.394531 186.710938 308.054688 185.640625 308.054688 184.496094 L 308.054688 71.421875 C 308.054688 58.496094 318.605469 47.910156 331.542969 47.910156 C 344.484375 47.910156 355.035156 58.46875 355.035156 71.421875 L 355.035156 184.503906 C 355.035156 185.738281 354.734375 186.558594 354.101562 187.613281 L 336.480469 219.992188 C 335.175781 222.394531 333.082031 222.96875 330.730469 222.96875 L 274.339844 222.96875 Z M 262.605469 247.449219 L 338.117188 247.449219 C 341.238281 247.449219 343.753906 249.988281 343.753906 253.089844 L 343.753906 304.636719 C 343.753906 307.738281 341.238281 310.277344 338.117188 310.277344 L 262.605469 310.277344 C 259.507812 310.277344 256.96875 307.738281 256.96875 304.636719 L 256.96875 253.089844 C 256.96875 249.988281 259.5 247.449219 262.605469 247.449219 Z M 332.480469 258.734375 L 268.242188 258.734375 L 268.242188 298.996094 L 332.480469 298.996094 Z M 156.214844 138.140625 C 153.9375 136.011719 153.800781 132.472656 155.894531 130.191406 C 158.019531 127.925781 161.554688 127.789062 163.832031 129.894531 L 171.386719 136.882812 L 184.375 121.164062 L 150.820312 121.164062 L 150.820312 154.753906 L 184.375 154.753906 L 184.375 138.824219 L 176.226562 148.625 C 174.171875 151.09375 170.476562 151.328125 168.101562 149.152344 Z M 193.121094 110.789062 L 198.917969 103.820312 C 200.90625 101.417969 204.441406 101.101562 206.84375 103.085938 C 209.21875 105.074219 209.53125 108.613281 207.550781 110.992188 L 195.65625 125.277344 L 195.65625 160.394531 C 195.65625 163.523438 193.144531 166.039062 190.019531 166.039062 L 145.191406 166.039062 C 142.082031 166.039062 139.554688 163.523438 139.554688 160.394531 L 139.554688 115.523438 C 139.554688 112.410156 142.089844 109.878906 145.191406 109.878906 L 190.019531 109.878906 C 191.15625 109.871094 192.234375 110.21875 193.121094 110.789062 Z M 217.679688 132.3125 C 214.558594 132.3125 212.042969 129.773438 212.042969 126.671875 C 212.042969 123.542969 214.558594 121.027344 217.679688 121.027344 L 268.148438 121.027344 C 271.269531 121.027344 273.785156 123.542969 273.785156 126.671875 C 273.785156 129.773438 271.269531 132.3125 268.148438 132.3125 Z M 217.679688 154.890625 C 214.558594 154.890625 212.042969 152.375 212.042969 149.273438 C 212.042969 146.144531 214.558594 143.628906 217.679688 143.628906 L 268.148438 143.628906 C 271.269531 143.628906 273.785156 146.144531 273.785156 149.273438 C 273.785156 152.375 271.269531 154.890625 268.148438 154.890625 Z M 156.214844 61.871094 C 153.9375 59.769531 153.800781 56.207031 155.894531 53.941406 C 158.019531 51.660156 161.554688 51.523438 163.832031 53.617188 L 171.386719 60.628906 L 184.375 44.886719 L 150.820312 44.886719 L 150.820312 78.507812 L 184.375 78.507812 L 184.375 62.582031 L 176.226562 72.359375 C 174.171875 74.824219 170.476562 75.074219 168.101562 72.882812 Z M 193.121094 34.546875 L 198.917969 27.558594 C 200.90625 25.179688 204.441406 24.867188 206.84375 26.824219 C 209.21875 28.816406 209.53125 32.355469 207.550781 34.757812 L 195.65625 49.039062 L 195.65625 84.152344 C 195.65625 87.261719 193.144531 89.792969 190.019531 89.792969 L 145.191406 89.792969 C 142.082031 89.792969 139.554688 87.253906 139.554688 84.152344 L 139.554688 39.253906 C 139.554688 36.152344 142.089844 33.636719 145.191406 33.636719 L 190.019531 33.636719 C 191.15625 33.628906 192.234375 33.949219 193.121094 34.546875 Z M 217.679688 56.042969 C 214.558594 56.042969 212.042969 53.53125 212.042969 50.402344 C 212.042969 47.296875 214.558594 44.757812 217.679688 44.757812 L 268.148438 44.757812 C 271.269531 44.757812 273.785156 47.296875 273.785156 50.402344 C 273.785156 53.53125 271.269531 56.042969 268.148438 56.042969 Z M 217.679688 78.644531 C 214.558594 78.644531 212.042969 76.105469 212.042969 73.003906 C 212.042969 69.898438 214.558594 67.359375 217.679688 67.359375 L 268.148438 67.359375 C 271.269531 67.359375 273.785156 69.898438 273.785156 73.003906 C 273.785156 76.105469 271.269531 78.644531 268.148438 78.644531 Z M 327.542969 198.207031 L 331.535156 205.542969 L 339.933594 190.121094 L 323.136719 190.121094 Z M 325.898438 119.011719 C 325.898438 115.910156 328.4375 113.371094 331.535156 113.371094 C 334.636719 113.371094 337.171875 115.910156 337.171875 119.011719 L 337.171875 178.851562 L 343.746094 178.851562 L 343.746094 91.984375 L 319.320312 91.984375 L 319.320312 178.851562 L 325.890625 178.851562 L 325.890625 119.011719 Z M 319.328125 80.703125 L 343.753906 80.703125 L 343.753906 71.421875 C 343.753906 60.710938 330.699219 55.019531 322.914062 62.78125 C 320.699219 65 319.328125 68.0625 319.328125 71.421875 Z M 319.328125 80.703125 " fill-opacity="1" fill-rule="nonzero"/></svg>