<svg width="302" height="102" viewBox="0 0 302 102" fill="none" xmlns="http://www.w3.org/2000/svg">
<mask id="mask0_146414_56" style="mask-type:luminance" maskUnits="userSpaceOnUse" x="0" y="0" width="90" height="18">
<path d="M0 0H89.3478V17.8929H0V0Z" fill="white"/>
</mask>
<g mask="url(#mask0_146414_56)">
<path d="M0 0H89.3861V17.8929H0V0Z" fill="black"/>
</g>
<path d="M10.4429 26.4724L13.5733 28.9142V29.0333H75.7607V28.9142L78.8959 26.4724H10.4429Z" fill="#CF015A"/>
<mask id="mask1_146414_56" style="mask-type:luminance" maskUnits="userSpaceOnUse" x="7" y="6" width="76" height="19">
<path d="M7.16431 6.89355H82.1744V24.0866H7.16431V6.89355Z" fill="white"/>
</mask>
<g mask="url(#mask1_146414_56)">
<path d="M82.1695 6.88965H72.7114V11.643H65.3896V6.88965H56.2326V11.643H49.5226V6.88965H39.8159V11.643H33.1011V6.88965H23.9489V11.643H16.6223V6.88965H7.16418V23.9227H82.1695V6.88965Z" fill="#CF015A"/>
</g>
<path d="M1.30969 16.4817V77.1991L30.4439 91.995L44.9824 99.3837L59.559 91.995L88.6885 77.1991V16.4817H1.30969Z" fill="black"/>
<mask id="mask2_146414_56" style="mask-type:luminance" maskUnits="userSpaceOnUse" x="0" y="15" width="90" height="86">
<path d="M0 15.4282H89.4673V100.623H0V15.4282Z" fill="white"/>
</mask>
<g mask="url(#mask2_146414_56)">
<path d="M44.9823 100.608L29.727 92.8509L0.00012207 77.7571V15.4578H90.0027V77.7571L60.2759 92.8509L44.9823 100.608ZM2.61914 76.6553L31.1608 91.1349L44.9823 98.1737L58.8612 91.1349L87.3789 76.6553V17.5013H2.61914V76.6553Z" fill="black"/>
</g>
<path d="M8.19153 17.2261V67.9157L32.5131 80.2699L44.6523 86.4377L56.8203 80.2699L81.1418 67.9157V17.2261H8.19153Z" fill="white"/>
<mask id="mask3_146414_56" style="mask-type:luminance" maskUnits="userSpaceOnUse" x="7" y="16" width="76" height="72">
<path d="M7.09717 16.3479H82.4371V87.8598H7.09717V16.3479Z" fill="white"/>
</mask>
<g mask="url(#mask3_146414_56)">
<path d="M44.6525 87.4619L31.9159 80.9851L7.09729 68.3853V16.3743H82.2365V68.3853L57.4179 80.9851L44.6525 87.4619ZM9.28618 67.4622L33.1107 79.5521L44.6525 85.4295L56.2374 79.5521L80.0476 67.4622V18.0791H9.28618V67.4622Z" fill="white"/>
</g>
<path d="M166.289 30.3844C166.289 34.5049 165.486 37.8773 163.88 40.4977C162.279 43.1108 160.128 45.0352 157.418 46.271C154.709 47.4993 151.702 48.1135 148.4 48.1135H130.86V12.6702H148.4C151.702 12.6702 154.709 13.2881 157.418 14.5238C160.128 15.7522 162.279 17.6766 163.88 20.2971C165.486 22.9101 166.289 26.2713 166.289 30.3844ZM139.434 18.5402V42.2398H146.006C148.037 42.2398 149.929 41.8713 151.688 41.1305C153.442 40.3861 154.862 39.1466 155.942 37.4083C157.031 35.67 157.576 33.3287 157.576 30.3844C157.576 27.4512 157.05 25.1137 156.004 23.3754C154.967 21.6371 153.581 20.3976 151.846 19.6531C150.121 18.9124 148.175 18.5402 146.006 18.5402H139.434ZM168.693 12.6702H196.838V18.1828H177.267V27.6039H190.854V33.0681H177.267V42.6008H196.838V48.1135H168.693V12.6702ZM196.312 12.6702H205.091L213.742 40.066L213.995 43.55L214.33 40.066L222.899 12.6702H231.678L219.979 48.1135H208.074L196.312 12.6702ZM244.864 19.8541L267.499 30.1871V35.6514L244.864 45.9881V39.4592L259.627 32.9192L244.864 26.3941V19.8541Z" stroke="black" stroke-width="18.5999"/>
<path d="M166.28 30.3957C166.28 34.5162 165.477 37.8848 163.872 40.5053C162.275 43.1183 160.125 45.039 157.41 46.2673C154.705 47.4994 151.704 48.1136 148.406 48.1136H130.857V12.6628H148.406C151.704 12.6628 154.705 13.2845 157.41 14.524C160.125 15.756 162.275 17.6804 163.872 20.3009C165.477 22.9139 166.28 26.2788 166.28 30.3957ZM139.44 18.544V42.2324H145.997C148.033 42.2324 149.935 41.8676 151.694 41.1306C153.453 40.3862 154.872 39.1467 155.957 37.4084C157.037 35.6738 157.582 33.3362 157.582 30.3957C157.582 27.4588 157.056 25.1212 156.015 23.3829C154.968 21.6372 153.577 20.3977 151.847 19.6607C150.112 18.9162 148.162 18.544 145.997 18.544H139.44Z" fill="white"/>
<path d="M168.688 12.6628H196.828V18.1867H177.272V27.6114H190.864V33.0757H177.272V42.5898H196.828V48.1136H168.688V12.6628Z" fill="white"/>
<path d="M196.311 12.6628H205.085L213.726 40.0586L213.994 43.5575L214.319 40.0586L222.902 12.6628H231.677L219.977 48.1136H208.087L196.311 12.6628Z" fill="white"/>
<path d="M244.863 19.8542L267.497 30.1872V35.6515L244.863 45.9845V39.4482L259.621 32.9268L244.863 26.3905V19.8542Z" fill="white"/>
<path d="M23.9012 63.4156C21.4733 65.6192 22.0134 68.9729 25.0482 70.7075C26.1904 71.3365 27.5382 71.6492 28.819 71.6492C30.9745 71.6492 33.063 70.8117 34.2721 69.2335L42.3586 58.9526L36.6331 51.7166L23.9012 63.4156Z" fill="#040606"/>
<mask id="mask4_146414_56" style="mask-type:luminance" maskUnits="userSpaceOnUse" x="49" y="21" width="21" height="32">
<path d="M49.0735 21.8157H69.672V52.0255H49.0735V21.8157Z" fill="white"/>
</mask>
<g mask="url(#mask4_146414_56)">
<path d="M58.5938 51.5604C60.6776 48.6199 64.2524 43.4832 66.6755 38.808C69.5669 33.3549 70.5801 26.7963 68.764 23.0703C68.1618 21.7638 65.863 21.5516 64.7925 22.7055L50.579 37.9742C50.7128 39.7572 50.3735 41.5922 49.432 43.2673L58.5938 51.5604Z" fill="#040606"/>
</g>
<mask id="mask5_146414_56" style="mask-type:luminance" maskUnits="userSpaceOnUse" x="14" y="21" width="55" height="52">
<path d="M14.8156 21.5889H68.6489V72.0366H14.8156V21.5889Z" fill="white"/>
</mask>
<g mask="url(#mask5_146414_56)">
<path d="M44.3798 43.6875C47.1422 40.598 47.0705 36.2914 43.9066 33.1945L33.0625 22.4446C32.317 21.7634 31.0409 21.6034 30.0994 22.1282L29.8987 22.2324C28.9572 22.8094 28.7517 23.859 29.4877 24.5923L39.8634 34.9811C40.609 35.7182 40.4035 36.8162 39.4619 37.3411C38.5157 37.8659 37.1727 37.7058 36.494 36.9725L26.2569 26.3232C25.583 25.5899 24.2353 25.4336 23.2938 25.9547L23.0261 26.1147C22.0799 26.6358 21.8839 27.6855 22.553 28.4188L32.4556 39.2841C33.1295 40.0174 32.9287 41.067 31.9824 41.5919C30.974 42.1688 29.6263 41.9604 28.9524 41.1713L19.4561 30.3097C18.7822 29.5206 17.4344 29.368 16.426 29.8928L16.2253 29.997C15.2838 30.5219 15.0783 31.5194 15.6852 32.2527L25.4492 43.6354C28.2785 46.9407 33.5357 48.2547 38.1142 47.2013L55.4915 69.2333C57.4462 71.7049 61.7571 72.3861 64.7919 70.6552C67.8172 68.9244 68.3572 65.5632 65.9341 63.3596L44.3798 43.6875Z" fill="#040606"/>
</g>
<path d="M115.51 43.237L92.8751 32.9003V27.436L115.51 17.103V23.643L100.809 30.1681L115.51 36.7081V43.237Z" stroke="black" stroke-width="18.5999"/>
<path d="M115.506 43.234L92.8717 32.901V27.4367L115.506 17.1038V23.64L100.805 30.1763L115.506 36.6977V43.234Z" fill="white"/>
<path d="M156.397 7.94484L122.789 44.3931L113.938 41.3856L147.546 4.93726L156.397 7.94484Z" fill="#CF015A"/>
<path d="M213.059 74.6307C213.059 78.755 212.251 82.1236 210.645 84.7441C209.049 87.3571 206.894 89.2815 204.184 90.5173C201.474 91.7456 198.468 92.3598 195.17 92.3598H177.63V56.9165H195.17C198.468 56.9165 201.474 57.5344 204.184 58.7702C206.894 59.9985 209.049 61.9229 210.645 64.5434C212.251 67.1564 213.059 70.5213 213.059 74.6307ZM186.199 62.7902V86.4898H192.771C194.802 86.4898 196.699 86.1176 198.453 85.3769C200.212 84.6324 201.627 83.3929 202.707 81.6546C203.797 79.9163 204.341 77.575 204.341 74.6307C204.341 71.6976 203.82 69.3637 202.769 67.6217C201.737 65.8834 200.346 64.6439 198.611 63.9032C196.886 63.1587 194.941 62.7902 192.771 62.7902H186.199ZM224.032 62.7902V92.3598H215.458V56.9165H224.032V62.7902ZM248.086 62.7902H240.085C238.489 62.7902 237.256 63.1252 236.386 63.8027C235.521 64.4801 235.086 65.3884 235.086 66.5348C235.086 68.7942 236.472 70.2422 239.244 70.8861L248.927 73.3205C251.881 74.0649 254.112 75.2374 255.627 76.8455C257.152 78.446 257.912 80.564 257.912 83.1993C257.912 86.0692 256.798 88.3137 254.562 89.9366C252.33 91.5521 249.348 92.3598 245.61 92.3598H228.132V86.4898H244.243C245.854 86.4898 247.092 86.1511 247.962 85.4736C248.827 84.7999 249.261 83.888 249.261 82.7415C249.261 80.4747 247.876 79.0267 245.104 78.3902L235.406 75.9558C232.462 75.2151 230.24 74.0426 228.739 72.4457C227.244 70.8377 226.498 68.7161 226.498 66.077C226.498 63.1773 227.616 60.9254 229.848 59.3285C232.08 57.7205 235.038 56.9165 238.723 56.9165H254.657V62.7902H248.086ZM268.235 71.7013H283.964V56.9165H292.676V92.3598H283.964V77.575H268.235V92.3598H259.661V56.9165H268.235V71.7013Z" stroke="black" stroke-width="18.5999"/>
<path d="M213.047 74.6427C213.047 78.7633 212.244 82.1319 210.638 84.7524C209.042 87.3654 206.891 89.2861 204.177 90.5144C201.472 91.7465 198.47 92.3607 195.173 92.3607H177.623V56.9099H195.173C198.47 56.9099 201.472 57.5315 204.177 58.771C206.891 60.0031 209.042 61.9275 210.638 64.548C212.244 67.161 213.047 70.5259 213.047 74.6427ZM186.207 62.7911V86.4795H192.764C194.8 86.4795 196.702 86.1147 198.461 85.3777C200.22 84.6333 201.639 83.3937 202.724 81.6555C203.804 79.9209 204.349 77.5833 204.349 74.6427C204.349 71.7059 203.823 69.3683 202.781 67.63C201.735 65.8843 200.344 64.6448 198.614 63.9077C196.879 63.1633 194.929 62.7911 192.764 62.7911H186.207Z" fill="white"/>
<path d="M224.038 62.7911V92.3607H215.455V56.9099H224.038V62.7911Z" fill="white"/>
<path d="M248.08 62.7911H240.089C238.484 62.7911 237.246 63.1298 236.381 63.8035C235.511 64.481 235.081 65.3892 235.081 66.5282C235.081 68.7913 236.467 70.2467 239.248 70.8907L248.94 73.3176C251.885 74.0621 254.112 75.2383 255.631 76.8463C257.146 78.4469 257.906 80.5611 257.906 83.189C257.906 86.07 256.788 88.3183 254.561 89.9337C252.329 91.5529 249.347 92.3607 245.614 92.3607H228.122V86.4795H244.257C245.863 86.4795 247.096 86.1445 247.966 85.467C248.831 84.7933 249.265 83.8851 249.265 82.7424C249.265 80.4792 247.875 79.0275 245.098 78.3799L235.406 75.953C232.462 75.2085 230.235 74.0397 228.734 72.4392C227.243 70.8311 226.497 68.7132 226.497 66.0815C226.497 63.1745 227.611 60.9225 229.843 59.3219C232.084 57.7139 235.047 56.9099 238.732 56.9099H254.656V62.7911H248.08Z" fill="white"/>
<path d="M268.239 71.6947H283.973V56.9099H292.69V92.3607H283.973V77.5759H268.239V92.3607H259.656V56.9099H268.239V71.6947Z" fill="white"/>
</svg>
