<svg width="16" height="25" viewBox="0 0 16 25" fill="none" xmlns="http://www.w3.org/2000/svg">
<g id="Clip path group">
<mask id="mask0_146414_162" style="mask-type:luminance" maskUnits="userSpaceOnUse" x="0" y="0" width="16" height="25">
<g id="37c4288ef8">
<path id="Vector" d="M0 0H15.1756V25H0V0Z" fill="white"/>
</g>
</mask>
<g mask="url(#mask0_146414_162)">
<g id="Group">
<path id="Vector_2" d="M7.38272 1.07833L7.66883 6.86324C7.72893 8.073 7.22072 9.24095 6.29511 10.0209C5.29307 10.8655 4.78291 12.1582 4.94622 13.4594C5.43156 17.3252 5.77123 22.3524 5.77123 22.9906C5.77123 24.0442 4.91813 24.8986 3.86579 24.8986C2.81345 24.8986 1.96035 24.0442 1.96035 22.9906C1.96035 22.3524 2.30002 17.3317 2.78471 13.4666C2.94736 12.1706 2.44047 10.8818 1.44561 10.0379L1.42602 10.0209C0.506938 9.24095 0.00265316 8.07692 0.0620961 6.87173L0.348859 1.07833C0.36519 0.744533 0.640848 0.481939 0.974643 0.481939C1.32085 0.481939 1.60108 0.762823 1.60108 1.10903V5.93436C1.60108 6.34915 1.93683 6.68491 2.35098 6.68491C2.76512 6.68491 3.10022 6.34915 3.10022 5.93436V1.24816C3.10022 0.824879 3.44316 0.481939 3.86579 0.481939C4.28842 0.481939 4.63136 0.824879 4.63136 1.24816V5.93436C4.63136 6.34915 4.96712 6.68491 5.38126 6.68491C5.7954 6.68491 6.1305 6.34915 6.1305 5.93436V1.10903C6.1305 0.762823 6.41139 0.481939 6.75694 0.481939C7.09139 0.481939 7.36639 0.744533 7.38272 1.07833ZM14.4101 0.0495075V0.0410156C14.3989 0.0410156 14.3859 0.0449348 14.3748 0.0455882C14.3598 0.0449348 14.346 0.0410156 14.3304 0.0410156C14.2768 0.0410156 14.2298 0.0612655 14.1795 0.0704105C14.1775 0.0710637 14.1755 0.0710636 14.1736 0.0717169C14.0854 0.0887005 14.0051 0.115483 13.9286 0.157289C12.8541 0.661574 11.029 3.25551 10.3222 8.68114C10.0923 10.4461 10.1641 11.9394 10.2915 12.9859C10.4124 13.9801 10.978 14.8645 11.8142 15.4139C12.2205 15.6804 12.451 16.1455 12.4184 16.6308L12.014 23.2094C11.9481 24.2108 12.8227 25.0443 13.8587 24.8771C14.6328 24.7516 15.1756 24.0351 15.1756 23.2499V0.887588C15.1756 0.447318 14.8386 0.090007 14.4101 0.0495075Z" fill="#FA96C1"/>
</g>
</g>
</g>
</svg>
