<svg xmlns="http://www.w3.org/2000/svg" xmlns:xlink="http://www.w3.org/1999/xlink" width="500" zoomAndPan="magnify" viewBox="0 0 375 374.999991" height="500" preserveAspectRatio="xMidYMid meet" version="1.0"><defs><clipPath id="62723e39cd"><path d="M 37 36 L 338 36 L 338 337.386719 L 37 337.386719 Z M 37 36 " clip-rule="nonzero"/></clipPath></defs><g clip-path="url(#62723e39cd)"><path fill="#100f0d" d="M 317.765625 217.085938 C 323.289062 217.085938 327.789062 221.589844 327.789062 227.113281 C 327.789062 232.632812 323.289062 237.136719 317.765625 237.136719 L 317.765625 247.160156 C 323.289062 247.160156 327.789062 251.664062 327.789062 257.1875 C 327.789062 262.707031 323.289062 267.210938 317.765625 267.210938 L 317.765625 277.234375 C 323.289062 277.234375 327.789062 281.738281 327.789062 287.261719 C 327.789062 292.78125 323.289062 297.285156 317.765625 297.285156 L 317.765625 307.308594 C 323.289062 307.308594 327.789062 311.8125 327.789062 317.335938 C 327.789062 322.855469 323.289062 327.359375 317.765625 327.359375 C 312.246094 327.359375 307.742188 322.855469 307.742188 317.335938 L 297.714844 317.335938 C 297.714844 322.855469 293.210938 327.359375 287.691406 327.359375 C 282.167969 327.359375 277.667969 322.855469 277.667969 317.335938 L 267.640625 317.335938 C 267.640625 322.855469 263.136719 327.359375 257.617188 327.359375 C 252.09375 327.359375 247.59375 322.855469 247.59375 317.335938 L 237.566406 317.335938 C 237.566406 322.855469 233.0625 327.359375 227.542969 327.359375 C 222.019531 327.359375 217.515625 322.855469 217.515625 317.335938 L 207.492188 317.335938 C 207.492188 322.855469 202.988281 327.359375 197.46875 327.359375 C 191.945312 327.359375 187.441406 322.855469 187.441406 317.335938 L 177.417969 317.335938 C 177.417969 322.855469 172.914062 327.359375 167.394531 327.359375 C 161.871094 327.359375 157.367188 322.855469 157.367188 317.335938 L 147.34375 317.335938 C 147.34375 322.855469 142.839844 327.359375 137.316406 327.359375 C 131.796875 327.359375 127.292969 322.855469 127.292969 317.335938 C 127.292969 311.8125 131.796875 307.308594 137.316406 307.308594 L 137.316406 297.285156 C 131.796875 297.285156 127.292969 292.78125 127.292969 287.261719 C 127.292969 281.738281 131.796875 277.234375 137.316406 277.234375 L 137.316406 267.210938 C 131.796875 267.210938 127.292969 262.707031 127.292969 257.1875 C 127.292969 251.664062 131.796875 247.160156 137.316406 247.160156 L 137.316406 237.136719 C 131.796875 237.136719 127.292969 232.632812 127.292969 227.113281 C 127.292969 221.589844 131.796875 217.085938 137.316406 217.085938 L 137.316406 207.0625 C 131.796875 207.0625 127.292969 202.558594 127.292969 197.035156 C 127.292969 191.515625 131.796875 187.011719 137.316406 187.011719 C 142.839844 187.011719 147.34375 191.515625 147.34375 197.035156 L 157.367188 197.035156 C 157.367188 191.515625 161.871094 187.011719 167.394531 187.011719 C 172.914062 187.011719 177.417969 191.515625 177.417969 197.035156 L 187.441406 197.035156 C 187.441406 191.515625 191.945312 187.011719 197.46875 187.011719 C 202.988281 187.011719 207.492188 191.515625 207.492188 197.035156 L 217.515625 197.035156 C 217.515625 191.515625 222.019531 187.011719 227.542969 187.011719 C 233.0625 187.011719 237.566406 191.515625 237.566406 197.035156 L 247.59375 197.035156 C 247.59375 191.515625 252.09375 187.011719 257.617188 187.011719 C 263.136719 187.011719 267.640625 191.515625 267.640625 197.035156 L 277.667969 197.035156 C 277.667969 191.515625 282.167969 187.011719 287.691406 187.011719 C 293.210938 187.011719 297.714844 191.515625 297.714844 197.035156 L 307.742188 197.035156 C 307.742188 191.515625 312.246094 187.011719 317.765625 187.011719 C 323.289062 187.011719 327.789062 191.515625 327.789062 197.035156 C 327.789062 202.558594 323.289062 207.0625 317.765625 207.0625 Z M 120.910156 215.636719 L 120.910156 215.578125 C 118.246094 215.578125 115.722656 214.523438 113.824219 212.640625 C 111.921875 210.742188 110.886719 208.21875 110.886719 205.554688 C 110.886719 202.871094 111.921875 200.347656 113.824219 198.464844 L 106.734375 191.378906 C 102.957031 195.15625 96.355469 195.15625 92.558594 191.378906 C 90.679688 189.480469 89.621094 186.953125 89.621094 184.289062 C 89.621094 181.609375 90.679688 179.082031 92.558594 177.203125 L 85.472656 170.113281 C 81.574219 174.011719 75.210938 174.011719 71.296875 170.113281 C 67.398438 166.199219 67.398438 159.835938 71.296875 155.917969 L 64.207031 148.851562 C 60.410156 152.628906 53.828125 152.628906 50.03125 148.851562 C 48.132812 146.953125 47.09375 144.425781 47.09375 141.742188 C 47.09375 139.082031 48.132812 136.554688 50.03125 134.65625 C 53.828125 130.875 60.410156 130.875 64.207031 134.65625 L 71.296875 127.585938 C 67.398438 123.671875 67.398438 117.308594 71.296875 113.390625 C 75.191406 109.476562 81.574219 109.496094 85.472656 113.390625 L 92.558594 106.304688 C 90.679688 104.425781 89.621094 101.898438 89.621094 99.214844 C 89.621094 96.554688 90.679688 94.027344 92.558594 92.128906 C 96.355469 88.347656 102.957031 88.347656 106.734375 92.128906 L 113.824219 85.039062 C 109.90625 81.144531 109.90625 74.78125 113.824219 70.863281 C 117.738281 66.96875 124.101562 66.949219 128.019531 70.863281 L 135.085938 63.777344 C 133.207031 61.878906 132.148438 59.371094 132.148438 56.6875 C 132.148438 54.007812 133.207031 51.5 135.085938 49.601562 C 138.882812 45.820312 145.484375 45.820312 149.28125 49.601562 C 151.160156 51.5 152.199219 54.007812 152.199219 56.6875 C 152.199219 59.371094 151.160156 61.878906 149.28125 63.777344 L 156.351562 70.863281 C 160.265625 66.96875 166.628906 66.949219 170.546875 70.863281 C 174.441406 74.78125 174.441406 81.144531 170.546875 85.039062 L 177.632812 92.128906 C 181.410156 88.347656 188.011719 88.347656 191.808594 92.128906 C 193.6875 94.027344 194.746094 96.554688 194.746094 99.214844 C 194.746094 101.898438 193.6875 104.425781 191.808594 106.304688 L 198.898438 113.390625 C 202.675781 109.613281 209.273438 109.613281 213.074219 113.390625 C 216.988281 117.308594 216.988281 123.671875 213.074219 127.585938 L 220.160156 134.65625 C 224.058594 130.757812 230.441406 130.757812 234.335938 134.65625 C 236.234375 136.554688 237.273438 139.082031 237.273438 141.742188 C 237.273438 144.425781 236.234375 146.953125 234.335938 148.851562 L 241.425781 155.917969 C 245.222656 152.140625 251.820312 152.140625 255.601562 155.917969 C 259.515625 159.835938 259.515625 166.199219 255.601562 170.113281 L 262.6875 177.203125 C 266.585938 173.285156 272.949219 173.285156 276.863281 177.203125 L 280.40625 173.660156 L 276.882812 177.203125 C 277.511719 177.847656 278.019531 178.574219 278.449219 179.335938 C 276.238281 180.511719 274.277344 182.058594 272.652344 183.917969 C 268.972656 179.707031 263.628906 176.988281 257.617188 176.988281 C 251.605469 176.988281 246.261719 179.707031 242.578125 183.917969 C 238.898438 179.707031 233.554688 176.988281 227.542969 176.988281 C 221.53125 176.988281 216.1875 179.707031 212.503906 183.917969 C 208.824219 179.707031 203.476562 176.988281 197.46875 176.988281 C 191.457031 176.988281 186.109375 179.707031 182.429688 183.917969 C 178.75 179.707031 173.402344 176.988281 167.394531 176.988281 C 161.382812 176.988281 156.035156 179.707031 152.355469 183.917969 C 148.675781 179.707031 143.328125 176.988281 137.316406 176.988281 C 126.253906 176.988281 117.269531 185.972656 117.269531 197.035156 C 117.269531 203.046875 119.988281 208.394531 124.199219 212.074219 C 122.964844 213.152344 121.851562 214.304688 120.910156 215.636719 Z M 337.816406 197.035156 C 337.816406 185.972656 328.828125 176.988281 317.765625 176.988281 C 311.753906 176.988281 306.410156 179.707031 302.730469 183.917969 C 299.203125 179.886719 294.152344 177.28125 288.453125 177.066406 C 287.457031 174.5 285.96875 172.113281 283.953125 170.113281 C 279.703125 165.847656 274.003906 163.984375 268.425781 164.378906 C 268.796875 158.796875 266.9375 153.101562 262.6875 148.851562 C 258.574219 144.71875 252.78125 142.917969 247.140625 143.289062 C 247.179688 142.761719 247.296875 142.273438 247.296875 141.742188 C 247.296875 136.398438 245.222656 131.367188 241.425781 127.585938 C 237.15625 123.320312 231.457031 121.457031 225.878906 121.832031 C 226.269531 116.269531 224.410156 110.550781 220.160156 106.304688 C 216.046875 102.191406 210.253906 100.390625 204.613281 100.742188 C 204.652344 100.234375 204.769531 99.746094 204.769531 99.214844 C 204.769531 93.851562 202.675781 88.820312 198.898438 85.039062 C 194.765625 80.929688 188.96875 79.128906 183.332031 79.480469 C 183.78125 73.839844 181.921875 68.085938 177.632812 63.777344 C 173.382812 59.527344 167.667969 57.667969 162.105469 58.039062 C 162.125 57.589844 162.222656 57.160156 162.222656 56.6875 C 162.222656 51.324219 160.148438 46.292969 156.351562 42.511719 C 148.773438 34.933594 135.574219 34.933594 128.019531 42.511719 C 124.21875 46.292969 122.125 51.324219 122.125 56.6875 C 122.125 57.160156 122.242188 57.589844 122.261719 58.039062 C 116.699219 57.667969 110.984375 59.527344 106.734375 63.777344 C 102.445312 68.085938 100.585938 73.859375 101.015625 79.480469 C 95.378906 79.128906 89.582031 80.929688 85.472656 85.039062 C 81.691406 88.820312 79.597656 93.851562 79.597656 99.214844 C 79.597656 99.6875 79.714844 100.117188 79.734375 100.566406 C 74.152344 100.195312 68.457031 102.054688 64.207031 106.304688 C 59.898438 110.613281 58.058594 116.386719 58.488281 122.027344 C 52.851562 121.65625 47.054688 123.457031 42.945312 127.585938 C 39.164062 131.367188 37.070312 136.398438 37.070312 141.742188 C 37.070312 147.109375 39.164062 152.140625 42.945312 155.917969 C 46.722656 159.71875 51.753906 161.792969 57.121094 161.792969 C 57.589844 161.792969 58.019531 161.695312 58.46875 161.675781 C 58.097656 167.238281 59.957031 172.953125 64.207031 177.203125 C 68.125 181.097656 73.253906 183.058594 78.382812 183.058594 C 78.832031 183.058594 79.285156 182.957031 79.734375 182.917969 C 79.714844 183.390625 79.597656 183.820312 79.597656 184.289062 C 79.597656 189.636719 81.691406 194.667969 85.472656 198.464844 C 89.25 202.246094 94.28125 204.339844 99.648438 204.339844 C 100.117188 204.339844 100.546875 204.222656 100.996094 204.203125 C 100.957031 204.652344 100.859375 205.085938 100.859375 205.554688 C 100.859375 210.917969 102.957031 215.949219 106.734375 219.730469 C 109.691406 222.6875 113.410156 224.566406 117.445312 225.269531 C 117.40625 225.878906 117.269531 226.464844 117.269531 227.113281 C 117.269531 233.121094 119.988281 238.46875 124.199219 242.148438 C 119.988281 245.828125 117.269531 251.175781 117.269531 257.1875 C 117.269531 263.195312 119.988281 268.542969 124.199219 272.222656 C 119.988281 275.90625 117.269531 281.25 117.269531 287.261719 C 117.269531 293.273438 119.988281 298.617188 124.199219 302.296875 C 119.988281 305.980469 117.269531 311.324219 117.269531 317.335938 C 117.269531 328.398438 126.253906 337.386719 137.316406 337.386719 C 143.328125 337.386719 148.675781 334.664062 152.355469 330.453125 C 156.035156 334.664062 161.382812 337.386719 167.394531 337.386719 C 173.402344 337.386719 178.75 334.664062 182.429688 330.453125 C 186.109375 334.664062 191.457031 337.386719 197.46875 337.386719 C 203.476562 337.386719 208.824219 334.664062 212.503906 330.453125 C 216.1875 334.664062 221.53125 337.386719 227.542969 337.386719 C 233.554688 337.386719 238.898438 334.664062 242.578125 330.453125 C 246.261719 334.664062 251.605469 337.386719 257.617188 337.386719 C 263.628906 337.386719 268.972656 334.664062 272.652344 330.453125 C 276.335938 334.664062 281.679688 337.386719 287.691406 337.386719 C 293.703125 337.386719 299.046875 334.664062 302.730469 330.453125 C 306.410156 334.664062 311.753906 337.386719 317.765625 337.386719 C 328.828125 337.386719 337.816406 328.398438 337.816406 317.335938 C 337.816406 311.324219 335.09375 305.980469 330.882812 302.296875 C 335.09375 298.617188 337.816406 293.273438 337.816406 287.261719 C 337.816406 281.25 335.09375 275.90625 330.882812 272.222656 C 335.09375 268.542969 337.816406 263.195312 337.816406 257.1875 C 337.816406 251.175781 335.09375 245.828125 330.882812 242.148438 C 335.09375 238.46875 337.816406 233.121094 337.816406 227.113281 C 337.816406 221.101562 335.09375 215.753906 330.882812 212.074219 C 335.09375 208.394531 337.816406 203.046875 337.816406 197.035156 " fill-opacity="1" fill-rule="nonzero"/></g><path fill="#100f0d" d="M 162.378906 222.097656 L 172.40625 222.097656 L 172.40625 212.074219 L 162.378906 212.074219 L 162.378906 222.097656 " fill-opacity="1" fill-rule="nonzero"/><path fill="#100f0d" d="M 162.378906 247.160156 L 172.40625 247.160156 L 172.40625 237.136719 L 162.378906 237.136719 L 162.378906 247.160156 " fill-opacity="1" fill-rule="nonzero"/><path fill="#100f0d" d="M 162.378906 277.234375 L 172.40625 277.234375 L 172.40625 267.210938 L 162.378906 267.210938 L 162.378906 277.234375 " fill-opacity="1" fill-rule="nonzero"/><path fill="#100f0d" d="M 162.378906 302.296875 L 172.40625 302.296875 L 172.40625 292.273438 L 162.378906 292.273438 L 162.378906 302.296875 " fill-opacity="1" fill-rule="nonzero"/><path fill="#100f0d" d="M 192.453125 222.097656 L 202.480469 222.097656 L 202.480469 212.074219 L 192.453125 212.074219 L 192.453125 222.097656 " fill-opacity="1" fill-rule="nonzero"/><path fill="#100f0d" d="M 192.453125 247.160156 L 202.480469 247.160156 L 202.480469 237.136719 L 192.453125 237.136719 L 192.453125 247.160156 " fill-opacity="1" fill-rule="nonzero"/><path fill="#100f0d" d="M 192.453125 277.234375 L 202.480469 277.234375 L 202.480469 267.210938 L 192.453125 267.210938 L 192.453125 277.234375 " fill-opacity="1" fill-rule="nonzero"/><path fill="#100f0d" d="M 192.453125 302.296875 L 202.480469 302.296875 L 202.480469 292.273438 L 192.453125 292.273438 L 192.453125 302.296875 " fill-opacity="1" fill-rule="nonzero"/><path fill="#100f0d" d="M 222.53125 222.097656 L 232.554688 222.097656 L 232.554688 212.074219 L 222.53125 212.074219 L 222.53125 222.097656 " fill-opacity="1" fill-rule="nonzero"/><path fill="#100f0d" d="M 222.53125 247.160156 L 232.554688 247.160156 L 232.554688 237.136719 L 222.53125 237.136719 L 222.53125 247.160156 " fill-opacity="1" fill-rule="nonzero"/><path fill="#100f0d" d="M 222.53125 277.234375 L 232.554688 277.234375 L 232.554688 267.210938 L 222.53125 267.210938 L 222.53125 277.234375 " fill-opacity="1" fill-rule="nonzero"/><path fill="#100f0d" d="M 222.53125 302.296875 L 232.554688 302.296875 L 232.554688 292.273438 L 222.53125 292.273438 L 222.53125 302.296875 " fill-opacity="1" fill-rule="nonzero"/><path fill="#100f0d" d="M 252.605469 222.097656 L 262.628906 222.097656 L 262.628906 212.074219 L 252.605469 212.074219 L 252.605469 222.097656 " fill-opacity="1" fill-rule="nonzero"/><path fill="#100f0d" d="M 252.605469 247.160156 L 262.628906 247.160156 L 262.628906 237.136719 L 252.605469 237.136719 L 252.605469 247.160156 " fill-opacity="1" fill-rule="nonzero"/><path fill="#100f0d" d="M 252.605469 277.234375 L 262.628906 277.234375 L 262.628906 267.210938 L 252.605469 267.210938 L 252.605469 277.234375 " fill-opacity="1" fill-rule="nonzero"/><path fill="#100f0d" d="M 252.605469 302.296875 L 262.628906 302.296875 L 262.628906 292.273438 L 252.605469 292.273438 L 252.605469 302.296875 " fill-opacity="1" fill-rule="nonzero"/><path fill="#100f0d" d="M 282.679688 222.097656 L 292.703125 222.097656 L 292.703125 212.074219 L 282.679688 212.074219 L 282.679688 222.097656 " fill-opacity="1" fill-rule="nonzero"/><path fill="#100f0d" d="M 282.679688 247.160156 L 292.703125 247.160156 L 292.703125 237.136719 L 282.679688 237.136719 L 282.679688 247.160156 " fill-opacity="1" fill-rule="nonzero"/><path fill="#100f0d" d="M 282.679688 277.234375 L 292.703125 277.234375 L 292.703125 267.210938 L 282.679688 267.210938 L 282.679688 277.234375 " fill-opacity="1" fill-rule="nonzero"/><path fill="#100f0d" d="M 282.679688 302.296875 L 292.703125 302.296875 L 292.703125 292.273438 L 282.679688 292.273438 L 282.679688 302.296875 " fill-opacity="1" fill-rule="nonzero"/><path fill="#100f0d" d="M 156.351562 92.128906 L 149.28125 85.039062 L 142.175781 92.128906 L 149.28125 99.214844 L 156.351562 92.128906 " fill-opacity="1" fill-rule="nonzero"/><path fill="#100f0d" d="M 138.648438 109.847656 L 131.542969 102.761719 L 124.453125 109.847656 L 131.542969 116.9375 L 138.648438 109.847656 " fill-opacity="1" fill-rule="nonzero"/><path fill="#100f0d" d="M 117.367188 131.113281 L 110.277344 124.023438 L 103.191406 131.113281 L 110.277344 138.21875 L 117.367188 131.113281 " fill-opacity="1" fill-rule="nonzero"/><path fill="#100f0d" d="M 85.472656 148.851562 L 92.558594 155.917969 L 99.648438 148.851562 L 92.558594 141.742188 L 85.472656 148.851562 " fill-opacity="1" fill-rule="nonzero"/><path fill="#100f0d" d="M 177.632812 113.390625 L 170.546875 106.304688 L 163.457031 113.390625 L 170.546875 120.480469 L 177.632812 113.390625 " fill-opacity="1" fill-rule="nonzero"/><path fill="#100f0d" d="M 145.71875 131.113281 L 152.824219 138.21875 L 159.914062 131.113281 L 152.824219 124.023438 L 145.71875 131.113281 " fill-opacity="1" fill-rule="nonzero"/><path fill="#100f0d" d="M 138.648438 152.394531 L 131.542969 145.289062 L 124.453125 152.394531 L 131.542969 159.484375 L 138.648438 152.394531 " fill-opacity="1" fill-rule="nonzero"/><path fill="#100f0d" d="M 113.824219 163.027344 L 106.734375 170.113281 L 113.824219 177.203125 L 120.910156 170.113281 L 113.824219 163.027344 " fill-opacity="1" fill-rule="nonzero"/><path fill="#100f0d" d="M 198.898438 134.65625 L 191.808594 127.585938 L 184.722656 134.65625 L 191.808594 141.742188 L 198.898438 134.65625 " fill-opacity="1" fill-rule="nonzero"/><path fill="#100f0d" d="M 166.980469 152.394531 L 174.089844 159.484375 L 181.175781 152.394531 L 174.089844 145.289062 L 166.980469 152.394531 " fill-opacity="1" fill-rule="nonzero"/><path fill="#100f0d" d="M 220.160156 155.917969 L 213.074219 148.851562 L 205.984375 155.917969 L 213.074219 163.027344 L 220.160156 155.917969 " fill-opacity="1" fill-rule="nonzero"/></svg>