<svg xmlns="http://www.w3.org/2000/svg" xmlns:xlink="http://www.w3.org/1999/xlink" width="500" zoomAndPan="magnify" viewBox="0 0 375 374.999991" height="500" preserveAspectRatio="xMidYMid meet" version="1.0"><defs><clipPath id="13972e2af5"><path d="M 0 64.6875 L 374.917969 64.6875 L 374.917969 337.6875 L 0 337.6875 Z M 0 64.6875 " clip-rule="nonzero"/></clipPath></defs><g clip-path="url(#13972e2af5)"><path fill="#000000" d="M 167.007812 232.898438 L 166.945312 232.929688 C 166.71875 233.113281 166.460938 233.234375 166.175781 233.28125 C 165.984375 233.335938 165.789062 233.347656 165.589844 233.320312 C 165.535156 233.339844 165.523438 233.347656 165.578125 233.324219 C 165.425781 233.40625 165.269531 233.4375 165.101562 233.414062 C 164.933594 233.390625 164.789062 233.316406 164.667969 233.199219 C 164.546875 233.078125 164.472656 232.933594 164.449219 232.765625 C 164.425781 232.597656 164.453125 232.4375 164.535156 232.289062 C 164.628906 232.105469 164.75 231.945312 164.902344 231.808594 C 164.933594 231.773438 164.945312 231.769531 164.949219 231.769531 C 164.980469 231.730469 165.011719 231.691406 165.039062 231.652344 C 165.238281 231.464844 165.472656 231.367188 165.746094 231.355469 C 166.214844 231.273438 166.625 231.386719 166.980469 231.699219 C 166.988281 231.703125 167 231.707031 167.007812 231.710938 C 167.109375 231.773438 167.191406 231.859375 167.25 231.964844 C 167.3125 232.070312 167.339844 232.183594 167.339844 232.304688 C 167.339844 232.425781 167.3125 232.539062 167.25 232.644531 C 167.191406 232.75 167.109375 232.835938 167.007812 232.898438 Z M 180.308594 244.527344 C 180.128906 244.402344 179.929688 244.324219 179.714844 244.285156 C 179.582031 244.246094 179.449219 244.242188 179.3125 244.269531 C 179.175781 244.292969 179.054688 244.347656 178.945312 244.433594 C 178.835938 244.515625 178.75 244.621094 178.6875 244.742188 C 178.628906 244.867188 178.597656 244.996094 178.597656 245.136719 C 178.597656 245.273438 178.628906 245.402344 178.6875 245.527344 C 178.75 245.652344 178.835938 245.753906 178.945312 245.839844 C 179.054688 245.921875 179.175781 245.976562 179.3125 246.003906 C 179.449219 246.03125 179.582031 246.023438 179.714844 245.988281 C 179.929688 245.945312 180.125 245.863281 180.308594 245.742188 C 180.464844 245.667969 180.597656 245.558594 180.703125 245.421875 C 180.820312 245.230469 180.820312 245.039062 180.703125 244.847656 C 180.597656 244.710938 180.464844 244.601562 180.308594 244.527344 Z M 194.253906 245.027344 L 194.261719 245.03125 L 194.257812 245.027344 Z M 191.414062 235.390625 C 191.507812 235.605469 191.453125 235.554688 191.25 235.234375 C 191.167969 235.164062 191.136719 235.140625 191.136719 235.152344 C 190.789062 234.699219 190.332031 234.480469 189.761719 234.492188 C 188.976562 234.527344 188.230469 234.710938 187.519531 235.050781 C 187.410156 235.117188 187.308594 235.195312 187.21875 235.289062 C 187.128906 235.382812 187.050781 235.484375 186.988281 235.597656 C 186.921875 235.710938 186.875 235.828125 186.839844 235.953125 C 186.808594 236.082031 186.792969 236.207031 186.792969 236.335938 C 186.792969 236.464844 186.808594 236.59375 186.839844 236.71875 C 186.875 236.84375 186.921875 236.964844 186.988281 237.078125 C 187.050781 237.1875 187.128906 237.292969 187.21875 237.386719 C 187.308594 237.476562 187.410156 237.558594 187.519531 237.625 C 187.890625 237.8125 188.277344 237.957031 188.679688 238.054688 C 189.203125 238.136719 189.722656 238.121094 190.238281 238.007812 C 190.542969 237.929688 190.808594 237.777344 191.03125 237.550781 C 191.253906 237.328125 191.40625 237.0625 191.488281 236.757812 C 191.265625 237.515625 191.589844 236.53125 191.589844 236.523438 C 191.625 236.339844 191.644531 236.15625 191.652344 235.96875 C 191.660156 235.742188 191.578125 235.550781 191.414062 235.390625 Z M 219.855469 256.382812 C 219.832031 256.375 219.808594 256.367188 219.789062 256.355469 L 219.78125 256.355469 C 219.539062 256.28125 219.292969 256.234375 219.039062 256.210938 C 218.808594 256.210938 218.585938 256.253906 218.371094 256.34375 C 218.15625 256.433594 217.964844 256.558594 217.800781 256.726562 C 217.636719 256.890625 217.511719 257.078125 217.421875 257.292969 C 217.332031 257.507812 217.289062 257.730469 217.289062 257.964844 C 217.289062 258.195312 217.332031 258.421875 217.421875 258.636719 C 217.511719 258.851562 217.636719 259.039062 217.800781 259.203125 C 217.964844 259.367188 218.15625 259.496094 218.371094 259.585938 C 218.585938 259.671875 218.808594 259.71875 219.039062 259.71875 C 219.488281 259.703125 219.898438 259.574219 220.273438 259.332031 C 220.414062 259.253906 220.539062 259.160156 220.652344 259.042969 C 220.851562 258.84375 220.988281 258.605469 221.058594 258.332031 C 221.132812 258.058594 221.128906 257.785156 221.050781 257.511719 C 220.855469 256.917969 220.457031 256.542969 219.855469 256.382812 Z M 230.4375 226.109375 C 230.667969 225.90625 230.933594 225.773438 231.234375 225.710938 C 231.417969 225.65625 231.507812 225.53125 231.507812 225.339844 C 231.507812 225.148438 231.417969 225.023438 231.234375 224.964844 C 230.691406 224.773438 230.195312 224.855469 229.742188 225.210938 C 229.046875 225.726562 229.90625 226.703125 230.4375 226.109375 Z M 194.257812 245.027344 C 194.667969 245.050781 194.226562 244.960938 194.257812 245.027344 Z M 216.488281 236.792969 C 216.367188 236.628906 216.207031 236.523438 216.007812 236.476562 C 215.800781 236.445312 215.589844 236.425781 215.378906 236.421875 C 215.105469 236.429688 214.875 236.53125 214.683594 236.730469 C 214.492188 236.925781 214.394531 237.160156 214.394531 237.4375 C 214.394531 237.710938 214.492188 237.949219 214.683594 238.144531 C 214.875 238.34375 215.105469 238.445312 215.378906 238.453125 C 215.570312 238.449219 215.757812 238.433594 215.941406 238.40625 C 216.160156 238.363281 216.339844 238.257812 216.476562 238.085938 L 216.484375 238.078125 C 216.597656 238.011719 216.6875 237.921875 216.753906 237.808594 C 216.820312 237.691406 216.851562 237.570312 216.851562 237.4375 C 216.851562 237.304688 216.820312 237.183594 216.753906 237.066406 C 216.691406 236.953125 216.601562 236.863281 216.488281 236.792969 Z M 195.011719 245.066406 C 194.871094 245.101562 194.84375 245.125 194.90625 245.140625 C 194.859375 245.132812 194.8125 245.128906 194.765625 245.128906 C 194.601562 245.066406 194.433594 245.035156 194.261719 245.03125 C 194.273438 245.042969 194.28125 245.066406 194.378906 245.105469 C 194.128906 244.988281 193.867188 244.921875 193.589844 244.898438 C 193.320312 244.789062 193.042969 244.761719 192.753906 244.820312 C 192.46875 244.875 192.21875 245.007812 192.011719 245.210938 C 191.777344 245.441406 191.640625 245.722656 191.597656 246.050781 C 191.554688 246.375 191.617188 246.679688 191.785156 246.964844 C 191.828125 247.019531 191.871094 247.070312 191.914062 247.125 C 191.996094 247.324219 192.105469 247.503906 192.246094 247.667969 C 192.371094 247.796875 192.507812 247.902344 192.660156 247.996094 C 192.8125 248.085938 192.972656 248.15625 193.144531 248.207031 C 193.3125 248.257812 193.488281 248.285156 193.664062 248.292969 C 193.839844 248.300781 194.015625 248.285156 194.191406 248.25 C 194.363281 248.210938 194.53125 248.152344 194.6875 248.074219 C 194.847656 247.996094 194.992188 247.898438 195.128906 247.785156 C 195.261719 247.667969 195.382812 247.539062 195.484375 247.394531 C 195.585938 247.25 195.667969 247.09375 195.730469 246.929688 C 195.800781 246.832031 195.851562 246.722656 195.882812 246.609375 C 195.894531 246.527344 195.90625 246.441406 195.917969 246.363281 C 195.925781 246.335938 195.933594 246.320312 195.949219 246.285156 C 196.101562 246.007812 196.101562 245.730469 195.949219 245.449219 C 195.851562 245.285156 195.71875 245.167969 195.542969 245.097656 C 195.371094 245.023438 195.191406 245.015625 195.011719 245.066406 Z M 210.507812 247.71875 C 209.5625 247.355469 208.601562 247.304688 207.621094 247.570312 C 206.863281 247.628906 206.183594 247.886719 205.582031 248.351562 C 205.417969 248.503906 205.289062 248.679688 205.199219 248.886719 C 205.105469 249.09375 205.0625 249.308594 205.0625 249.535156 C 205.0625 249.757812 205.105469 249.972656 205.199219 250.179688 C 205.289062 250.386719 205.417969 250.566406 205.582031 250.714844 C 206.183594 251.179688 206.863281 251.441406 207.621094 251.496094 C 208.601562 251.761719 209.5625 251.714844 210.507812 251.347656 C 210.667969 251.253906 210.808594 251.144531 210.9375 251.011719 C 211.066406 250.882812 211.175781 250.738281 211.265625 250.578125 C 211.355469 250.417969 211.421875 250.25 211.46875 250.074219 C 211.515625 249.894531 211.539062 249.714844 211.539062 249.535156 C 211.539062 249.351562 211.515625 249.171875 211.46875 248.992188 C 211.421875 248.816406 211.355469 248.648438 211.265625 248.488281 C 211.175781 248.328125 211.066406 248.183594 210.9375 248.054688 C 210.808594 247.921875 210.667969 247.8125 210.507812 247.71875 Z M 220.570312 278.125 C 220.566406 278.011719 220.523438 277.914062 220.4375 277.832031 C 220.355469 277.753906 220.257812 277.710938 220.140625 277.710938 C 220.023438 277.710938 219.925781 277.753906 219.84375 277.832031 C 219.757812 277.914062 219.714844 278.011719 219.710938 278.125 C 218.976562 283.730469 219.339844 289.535156 219.375 295.171875 C 219.414062 300.847656 219.617188 306.566406 220.152344 312.21875 C 220.152344 312.3125 220.191406 312.394531 220.257812 312.464844 C 220.328125 312.53125 220.410156 312.5625 220.507812 312.5625 C 220.605469 312.5625 220.6875 312.53125 220.757812 312.464844 C 220.824219 312.394531 220.863281 312.3125 220.863281 312.21875 C 221.3125 306.542969 221.449219 300.863281 221.273438 295.171875 C 221.164062 289.53125 221.320312 283.722656 220.570312 278.125 Z M 205.472656 139.121094 C 205.824219 139.121094 206.15625 139.035156 206.460938 138.867188 C 206.769531 138.699219 207.019531 138.464844 207.207031 138.167969 C 207.523438 137.703125 207.582031 137.210938 207.390625 136.683594 C 207.378906 136.613281 207.375 136.539062 207.359375 136.46875 C 207.289062 136.199219 207.152344 135.964844 206.957031 135.769531 C 206.757812 135.570312 206.523438 135.4375 206.253906 135.363281 C 205.886719 135.257812 205.53125 135.289062 205.1875 135.464844 C 205.171875 135.464844 205.15625 135.46875 205.140625 135.472656 C 204.976562 135.539062 204.8125 135.605469 204.648438 135.679688 C 204.183594 136.039062 204.152344 136.0625 204.558594 135.75 C 204.210938 135.964844 203.960938 136.257812 203.808594 136.636719 C 203.65625 137.011719 203.628906 137.398438 203.730469 137.792969 C 203.839844 138.183594 204.054688 138.5 204.378906 138.746094 C 204.703125 138.992188 205.066406 139.117188 205.472656 139.121094 Z M 118.460938 247.90625 C 118.324219 247.792969 118.183594 247.6875 118.035156 247.59375 C 117.742188 247.402344 117.421875 247.285156 117.078125 247.234375 C 116.761719 247.164062 116.464844 247.042969 116.148438 246.96875 C 115.816406 246.898438 115.457031 246.933594 115.140625 246.851562 C 115.054688 246.828125 114.964844 246.828125 114.878906 246.851562 C 114.792969 246.875 114.71875 246.917969 114.65625 246.980469 C 114.59375 247.046875 114.550781 247.121094 114.527344 247.207031 C 114.503906 247.292969 114.503906 247.378906 114.523438 247.464844 C 114.632812 247.863281 114.832031 248.210938 115.121094 248.507812 C 115.410156 248.804688 115.753906 249.011719 116.148438 249.128906 C 116.546875 249.265625 116.957031 249.347656 117.378906 249.367188 C 117.824219 249.398438 118.195312 249.050781 118.554688 248.867188 C 118.632812 248.820312 118.691406 248.757812 118.734375 248.683594 C 118.777344 248.605469 118.800781 248.523438 118.800781 248.433594 C 118.800781 248.34375 118.777344 248.261719 118.734375 248.183594 C 118.691406 248.109375 118.632812 248.046875 118.554688 248 C 118.597656 248.109375 118.570312 248.078125 118.460938 247.90625 Z M 232.230469 247.816406 C 232.179688 247.8125 232.128906 247.804688 232.082031 247.796875 C 231.761719 247.597656 231.410156 247.484375 231.035156 247.457031 C 230.660156 247.429688 230.300781 247.492188 229.953125 247.640625 C 229.625 247.773438 229.300781 247.921875 228.988281 248.089844 C 228.882812 248.132812 228.09375 248.640625 228.492188 248.394531 C 228.273438 248.53125 228.109375 248.714844 227.996094 248.945312 C 227.886719 249.179688 227.847656 249.425781 227.878906 249.679688 C 227.914062 249.9375 228.011719 250.164062 228.179688 250.359375 C 228.347656 250.554688 228.554688 250.691406 228.800781 250.765625 C 229.535156 250.960938 230.265625 250.96875 231 250.78125 C 231.503906 250.625 231.929688 250.347656 232.277344 249.949219 C 232.550781 249.664062 232.691406 249.328125 232.695312 248.929688 C 232.6875 249.242188 232.722656 248.839844 232.765625 248.746094 C 232.816406 248.648438 232.84375 248.546875 232.839844 248.4375 C 232.839844 248.328125 232.8125 248.226562 232.757812 248.128906 C 232.703125 248.035156 232.628906 247.960938 232.535156 247.902344 C 232.441406 247.847656 232.339844 247.816406 232.230469 247.816406 Z M 108.914062 245.003906 C 102.523438 242.640625 95.816406 240.976562 89.316406 238.925781 C 83.648438 237.132812 77.03125 234.039062 71.046875 233.996094 C 70.976562 233.996094 70.929688 234.03125 70.914062 234.101562 C 70.894531 234.171875 70.914062 234.222656 70.976562 234.261719 C 73.320312 235.59375 76.054688 236.140625 78.613281 236.957031 C 82.058594 238.054688 85.5 239.167969 88.9375 240.300781 C 95.375 242.402344 101.929688 244.933594 108.640625 245.996094 C 108.777344 246.03125 108.902344 246.011719 109.023438 245.941406 C 109.144531 245.871094 109.222656 245.769531 109.257812 245.632812 C 109.296875 245.5 109.28125 245.371094 109.214844 245.25 C 109.148438 245.128906 109.046875 245.046875 108.914062 245.003906 Z M 309.28125 236.792969 C 319.84375 233.925781 330.199219 227.542969 338.933594 221.125 C 339.15625 220.964844 338.964844 220.609375 338.71875 220.757812 C 329.039062 226.476562 318.976562 230.984375 308.917969 235.925781 C 308.429688 236.171875 308.777344 236.929688 309.28125 236.792969 Z M 160.855469 225.523438 C 160.503906 224.96875 160.03125 224.546875 159.441406 224.257812 C 159.25 224.148438 159.046875 224.078125 158.824219 224.046875 C 158.605469 224.019531 158.390625 224.03125 158.175781 224.085938 C 157.960938 224.144531 157.765625 224.238281 157.589844 224.375 C 157.414062 224.507812 157.269531 224.671875 157.15625 224.863281 C 157.042969 225.054688 156.972656 225.261719 156.945312 225.480469 C 156.914062 225.699219 156.925781 225.917969 156.980469 226.132812 C 157.039062 226.34375 157.132812 226.542969 157.265625 226.71875 C 157.402344 226.894531 157.5625 227.039062 157.753906 227.152344 C 158.261719 227.4375 158.800781 227.636719 159.371094 227.75 C 159.566406 227.773438 160.25 227.648438 159.757812 227.699219 C 160.132812 227.671875 160.457031 227.535156 160.742188 227.292969 C 160.96875 227.132812 161.117188 226.917969 161.1875 226.648438 C 161.261719 226.320312 161.199219 226.023438 160.992188 225.757812 C 160.953125 225.675781 160.910156 225.597656 160.855469 225.523438 Z M 179.519531 143.6875 C 179.722656 143.679688 179.914062 143.636719 180.101562 143.554688 C 180.285156 143.472656 180.449219 143.359375 180.589844 143.214844 C 180.730469 143.066406 180.839844 142.902344 180.914062 142.714844 C 180.992188 142.523438 181.03125 142.328125 181.03125 142.128906 C 181.03125 141.925781 180.992188 141.730469 180.914062 141.542969 C 180.839844 141.351562 180.730469 141.1875 180.589844 141.042969 C 180.449219 140.894531 180.285156 140.78125 180.101562 140.699219 C 179.914062 140.617188 179.722656 140.574219 179.519531 140.566406 C 179.316406 140.574219 179.121094 140.617188 178.9375 140.699219 C 178.75 140.78125 178.589844 140.894531 178.449219 141.042969 C 178.304688 141.1875 178.199219 141.351562 178.121094 141.542969 C 178.046875 141.730469 178.007812 141.925781 178.007812 142.128906 C 178.007812 142.328125 178.046875 142.527344 178.121094 142.714844 C 178.199219 142.902344 178.304688 143.066406 178.449219 143.214844 C 178.589844 143.359375 178.75 143.472656 178.9375 143.554688 C 179.121094 143.636719 179.316406 143.679688 179.519531 143.6875 Z M 160.539062 241.730469 C 160.417969 241.609375 160.28125 241.519531 160.121094 241.460938 C 159.964844 241.402344 159.804688 241.375 159.636719 241.382812 C 159.46875 241.390625 159.308594 241.433594 159.15625 241.507812 C 159.007812 241.582031 158.878906 241.6875 158.773438 241.816406 C 158.664062 241.945312 158.585938 242.089844 158.542969 242.253906 C 158.496094 242.414062 158.484375 242.578125 158.507812 242.746094 C 158.527344 242.910156 158.585938 243.066406 158.671875 243.210938 C 158.761719 243.351562 158.875 243.472656 159.011719 243.566406 C 159.148438 243.664062 159.300781 243.726562 159.46875 243.757812 C 159.632812 243.792969 159.796875 243.789062 159.960938 243.75 C 160.125 243.714844 160.273438 243.644531 160.410156 243.542969 C 160.542969 243.445312 160.652344 243.320312 160.734375 243.175781 C 160.921875 242.828125 160.980469 242.460938 160.902344 242.070312 C 160.878906 241.851562 160.757812 241.738281 160.539062 241.730469 Z M 189.738281 136.933594 C 189.921875 136.933594 190.101562 136.894531 190.273438 136.824219 C 190.445312 136.753906 190.597656 136.652344 190.726562 136.519531 C 190.859375 136.386719 190.960938 136.238281 191.03125 136.066406 C 191.101562 135.894531 191.136719 135.714844 191.136719 135.527344 C 191.136719 135.34375 191.101562 135.164062 191.027344 134.992188 C 190.957031 134.820312 190.855469 134.667969 190.726562 134.539062 C 190.59375 134.40625 190.441406 134.304688 190.269531 134.234375 C 190.097656 134.164062 189.917969 134.128906 189.734375 134.128906 C 189.546875 134.128906 189.371094 134.164062 189.199219 134.234375 C 189.027344 134.304688 188.875 134.40625 188.742188 134.539062 C 188.613281 134.667969 188.511719 134.820312 188.441406 134.992188 C 188.367188 135.164062 188.332031 135.34375 188.332031 135.53125 C 188.335938 135.714844 188.371094 135.894531 188.445312 136.066406 C 188.515625 136.234375 188.617188 136.386719 188.75 136.519531 C 188.878906 136.648438 189.03125 136.75 189.203125 136.824219 C 189.375 136.894531 189.550781 136.929688 189.738281 136.933594 Z M 191.28125 154.882812 C 191.414062 155.015625 191.570312 155.121094 191.75 155.191406 C 191.925781 155.265625 192.109375 155.300781 192.300781 155.300781 C 192.492188 155.300781 192.675781 155.265625 192.851562 155.191406 C 193.03125 155.121094 193.1875 155.015625 193.320312 154.882812 C 193.605469 154.605469 193.851562 154.300781 194.054688 153.957031 C 194.203125 153.585938 194.230469 153.523438 194.144531 153.773438 C 194.230469 153.625 194.300781 153.464844 194.355469 153.300781 C 194.433594 153.070312 194.4375 152.835938 194.371094 152.601562 C 194.378906 152.589844 194.382812 152.574219 194.386719 152.5625 C 194.417969 152.453125 194.417969 152.339844 194.386719 152.226562 C 194.355469 152.117188 194.300781 152.019531 194.21875 151.9375 C 194.136719 151.855469 194.039062 151.800781 193.929688 151.769531 C 193.816406 151.738281 193.707031 151.738281 193.59375 151.769531 C 193.578125 151.777344 193.5625 151.78125 193.546875 151.785156 C 193.316406 151.738281 193.085938 151.742188 192.859375 151.800781 C 192.726562 151.84375 192.597656 151.898438 192.46875 151.960938 C 192.441406 151.976562 192.410156 151.996094 192.382812 152.011719 C 192.632812 151.925781 192.570312 151.953125 192.199219 152.101562 C 191.859375 152.304688 191.554688 152.550781 191.28125 152.835938 C 191.144531 152.96875 191.039062 153.128906 190.96875 153.304688 C 190.894531 153.480469 190.859375 153.667969 190.859375 153.859375 C 190.859375 154.050781 190.894531 154.234375 190.96875 154.410156 C 191.039062 154.589844 191.144531 154.746094 191.28125 154.882812 Z M 183.425781 157.707031 C 184.265625 158.125 185.125 158.160156 186 157.8125 C 187.0625 157.414062 188.105469 156.300781 187.761719 155.058594 C 187.578125 154.578125 187.269531 154.199219 186.839844 153.925781 C 186.40625 153.648438 185.9375 153.527344 185.425781 153.558594 C 184.882812 153.582031 184.375 153.726562 183.898438 153.992188 C 183.425781 154.257812 183.039062 154.617188 182.734375 155.070312 C 182.605469 155.289062 182.523438 155.527344 182.488281 155.78125 C 182.457031 156.035156 182.46875 156.285156 182.535156 156.53125 C 182.601562 156.777344 182.710938 157.003906 182.863281 157.207031 C 183.015625 157.410156 183.203125 157.578125 183.425781 157.707031 Z M 197.0625 149.265625 C 197.542969 149.289062 198 149.191406 198.425781 148.964844 C 198.75 148.773438 199.015625 148.515625 199.21875 148.195312 C 199.296875 148.066406 199.351562 147.933594 199.390625 147.785156 C 199.625 147.367188 199.671875 146.925781 199.519531 146.464844 C 199.425781 146.160156 199.253906 145.910156 199.003906 145.714844 C 198.753906 145.519531 198.46875 145.414062 198.152344 145.394531 C 198.085938 145.375 198.019531 145.347656 197.953125 145.324219 C 197.660156 145.257812 197.363281 145.234375 197.0625 145.253906 C 196.796875 145.257812 196.542969 145.308594 196.296875 145.410156 C 196.050781 145.511719 195.835938 145.65625 195.648438 145.84375 C 195.460938 146.03125 195.316406 146.25 195.214844 146.492188 C 195.113281 146.738281 195.0625 146.996094 195.0625 147.261719 C 195.0625 147.527344 195.113281 147.78125 195.214844 148.027344 C 195.316406 148.273438 195.460938 148.488281 195.648438 148.675781 C 195.835938 148.863281 196.050781 149.007812 196.296875 149.109375 C 196.542969 149.214844 196.796875 149.265625 197.0625 149.265625 Z M 102.136719 204.652344 C 102.125 204.667969 102.121094 204.683594 102.109375 204.695312 C 102.121094 204.679688 102.128906 204.667969 102.136719 204.652344 Z M 91.800781 170.238281 C 91.238281 170.1875 90.703125 170.292969 90.203125 170.558594 C 89.699219 170.820312 89.308594 171.195312 89.023438 171.6875 C 88.753906 172.179688 88.683594 172.695312 88.820312 173.242188 C 88.910156 173.585938 89.082031 173.882812 89.335938 174.132812 C 89.585938 174.386719 89.882812 174.558594 90.226562 174.648438 C 90.652344 174.738281 91.078125 174.746094 91.507812 174.679688 C 91.773438 174.625 92.25 174.527344 92.378906 174.496094 C 92.746094 174.394531 93.066406 174.210938 93.335938 173.941406 C 93.605469 173.667969 93.792969 173.351562 93.894531 172.984375 C 94.007812 172.597656 94.007812 172.214844 93.894531 171.828125 C 93.753906 171.363281 93.496094 170.984375 93.109375 170.691406 C 92.722656 170.398438 92.289062 170.246094 91.800781 170.238281 Z M 232.222656 230.988281 C 232.191406 231.054688 232.15625 231.121094 232.121094 231.183594 C 231.929688 231.207031 231.773438 231.292969 231.648438 231.4375 C 231.519531 231.578125 231.457031 231.746094 231.457031 231.9375 C 231.460938 232.074219 231.496094 232.203125 231.566406 232.320312 C 231.636719 232.4375 231.730469 232.53125 231.851562 232.597656 C 231.96875 232.667969 232.097656 232.703125 232.234375 232.703125 C 232.371094 232.707031 232.5 232.671875 232.617188 232.605469 C 233.3125 232.300781 233.246094 231.550781 232.96875 230.988281 C 232.929688 230.921875 232.875 230.871094 232.808594 230.832031 C 232.742188 230.796875 232.671875 230.777344 232.59375 230.777344 C 232.519531 230.777344 232.449219 230.796875 232.382812 230.832031 C 232.316406 230.871094 232.261719 230.921875 232.222656 230.988281 Z M 84.351562 189.589844 C 84.363281 189.628906 84.371094 189.648438 84.386719 189.675781 L 84.378906 189.675781 C 84.363281 189.625 84.335938 189.566406 84.300781 189.484375 C 84.253906 189.425781 84.207031 189.371094 84.152344 189.320312 C 84.128906 189.175781 84.070312 189.054688 83.96875 188.949219 C 83.863281 188.84375 83.734375 188.785156 83.585938 188.769531 C 83.4375 188.753906 83.300781 188.785156 83.175781 188.867188 C 83.085938 188.886719 83 188.898438 82.910156 188.917969 C 82.457031 189.039062 82.171875 189.324219 82.050781 189.777344 C 81.988281 190.054688 82.015625 190.324219 82.125 190.585938 C 82.238281 190.847656 82.417969 191.050781 82.664062 191.195312 C 82.90625 191.34375 83.171875 191.402344 83.457031 191.375 C 83.738281 191.347656 83.988281 191.242188 84.203125 191.054688 C 84.027344 191.238281 84.371094 190.90625 84.417969 190.851562 C 84.523438 190.753906 84.589844 190.632812 84.628906 190.492188 C 84.632812 190.460938 84.636719 190.441406 84.640625 190.417969 C 84.730469 190.285156 84.746094 190.140625 84.695312 189.988281 C 84.644531 189.835938 84.542969 189.730469 84.390625 189.675781 C 84.382812 189.648438 84.367188 189.617188 84.351562 189.589844 Z M 100.410156 188.496094 C 100.402344 188.585938 100.390625 188.605469 100.367188 188.554688 C 99.8125 189.296875 100.917969 190.394531 101.65625 189.84375 C 101.882812 189.707031 102.039062 189.511719 102.125 189.257812 C 102.175781 189.046875 102.148438 188.84375 102.042969 188.648438 C 102.003906 188.554688 101.824219 188.242188 101.992188 188.554688 C 101.886719 188.375 101.734375 188.246094 101.539062 188.171875 C 101.449219 188.09375 101.347656 188.039062 101.230469 188.015625 C 101.113281 187.988281 101 187.992188 100.886719 188.027344 C 100.769531 188.058594 100.671875 188.117188 100.585938 188.203125 C 100.503906 188.285156 100.445312 188.382812 100.410156 188.496094 Z M 91.648438 174.660156 C 91.597656 174.667969 91.554688 174.671875 91.507812 174.679688 C 91.28125 174.726562 91.207031 174.742188 91.648438 174.660156 Z M 131.460938 201.261719 C 132.457031 201.097656 133.859375 200.414062 134.117188 199.320312 C 134.1875 199.191406 134.222656 199.050781 134.230469 198.90625 L 134.234375 198.898438 C 134.429688 198.457031 134.101562 197.75 133.523438 197.972656 C 133.496094 197.984375 133.460938 197.988281 133.433594 198 C 133.382812 197.996094 133.332031 197.996094 133.277344 198 C 132.679688 197.945312 132.113281 198.058594 131.582031 198.339844 C 131.347656 198.417969 131.121094 198.511719 130.902344 198.625 C 130.660156 198.777344 130.4375 198.953125 130.234375 199.15625 C 130.03125 199.359375 129.914062 199.601562 129.875 199.886719 C 129.839844 200.167969 129.894531 200.433594 130.039062 200.683594 C 130.1875 200.921875 130.390625 201.097656 130.65625 201.203125 C 130.917969 201.3125 131.1875 201.328125 131.460938 201.261719 Z M 140.175781 185.089844 C 140.710938 185.246094 141.214844 185.179688 141.691406 184.898438 C 142.054688 184.703125 142.300781 184.414062 142.4375 184.027344 C 142.625 183.761719 142.757812 183.472656 142.835938 183.160156 C 142.855469 183.03125 142.871094 182.902344 142.890625 182.769531 C 142.886719 182.734375 142.882812 182.703125 142.878906 182.671875 C 142.894531 182.570312 142.894531 182.464844 142.882812 182.363281 C 142.886719 182.34375 142.894531 182.320312 142.898438 182.300781 C 142.9375 182.160156 142.9375 182.019531 142.898438 181.878906 C 142.859375 181.738281 142.789062 181.613281 142.6875 181.511719 C 142.585938 181.40625 142.460938 181.335938 142.320312 181.296875 C 142.179688 181.257812 142.039062 181.257812 141.898438 181.296875 C 141.875 181.304688 141.855469 181.3125 141.835938 181.316406 C 141.796875 181.308594 141.757812 181.304688 141.71875 181.304688 C 141.664062 181.3125 141.613281 181.316406 141.5625 181.324219 C 141.519531 181.320312 141.476562 181.3125 141.425781 181.308594 C 141.015625 181.324219 140.640625 181.445312 140.296875 181.671875 C 140.195312 181.707031 140.101562 181.75 140.007812 181.800781 C 139.683594 181.996094 139.429688 182.265625 139.253906 182.601562 C 139.125 182.824219 139.050781 183.0625 139.03125 183.320312 C 139.007812 183.574219 139.042969 183.824219 139.128906 184.0625 C 139.21875 184.304688 139.355469 184.515625 139.539062 184.695312 C 139.722656 184.871094 139.933594 185.003906 140.175781 185.089844 Z M 72.867188 184.703125 C 72.5 184.683594 72.136719 184.714844 71.78125 184.789062 C 71.519531 184.800781 71.300781 184.898438 71.125 185.082031 C 70.945312 185.269531 70.855469 185.492188 70.855469 185.75 C 70.855469 186.007812 70.945312 186.230469 71.125 186.417969 C 71.300781 186.601562 71.519531 186.699219 71.78125 186.710938 C 71.871094 186.71875 71.960938 186.726562 72.054688 186.734375 L 72.179688 186.75 C 72.375 186.796875 72.578125 186.816406 72.78125 186.804688 C 73.347656 186.742188 73.972656 186.40625 73.972656 185.75 C 73.945312 185.460938 73.828125 185.21875 73.617188 185.019531 C 73.40625 184.820312 73.15625 184.714844 72.867188 184.703125 Z M 142.980469 177.792969 C 143.515625 178.015625 144.019531 177.953125 144.484375 177.613281 C 144.539062 177.585938 144.597656 177.558594 144.652344 177.535156 C 144.757812 177.472656 144.835938 177.390625 144.894531 177.289062 C 144.953125 177.183594 144.984375 177.074219 144.984375 176.953125 C 144.984375 176.832031 144.953125 176.722656 144.894531 176.617188 C 144.835938 176.515625 144.757812 176.433594 144.652344 176.371094 C 144.597656 176.34375 144.539062 176.316406 144.484375 176.289062 C 144.019531 175.949219 143.515625 175.886719 142.980469 176.109375 C 142.796875 176.164062 142.644531 176.273438 142.527344 176.425781 C 142.414062 176.582031 142.355469 176.757812 142.355469 176.953125 C 142.355469 177.144531 142.414062 177.320312 142.527344 177.476562 C 142.644531 177.632812 142.796875 177.738281 142.980469 177.792969 Z M 101.21875 181.027344 C 100.914062 181.101562 100.664062 181.265625 100.472656 181.515625 C 100.429688 181.570312 100.390625 181.628906 100.359375 181.6875 C 100.347656 181.699219 100.339844 181.710938 100.332031 181.726562 C 100.269531 181.832031 100.222656 181.941406 100.191406 182.058594 C 100.175781 182.117188 100.164062 182.179688 100.160156 182.242188 C 100.15625 182.253906 100.152344 182.265625 100.152344 182.28125 C 100.148438 182.335938 100.144531 182.394531 100.144531 182.449219 C 100.144531 182.507812 100.148438 182.5625 100.152344 182.621094 C 100.152344 182.632812 100.15625 182.648438 100.160156 182.660156 C 100.164062 182.722656 100.175781 182.785156 100.191406 182.84375 C 100.222656 182.960938 100.269531 183.070312 100.332031 183.175781 C 100.339844 183.1875 100.347656 183.199219 100.359375 183.214844 C 100.390625 183.273438 100.429688 183.328125 100.472656 183.382812 C 100.664062 183.636719 100.914062 183.800781 101.21875 183.875 C 101.613281 184.027344 102.019531 184.074219 102.4375 184.015625 C 102.859375 183.957031 103.234375 183.796875 103.570312 183.539062 C 103.714844 183.394531 103.824219 183.226562 103.902344 183.039062 C 103.980469 182.851562 104.019531 182.652344 104.019531 182.449219 C 104.019531 182.246094 103.980469 182.050781 103.902344 181.859375 C 103.824219 181.671875 103.714844 181.503906 103.570312 181.359375 C 103.234375 181.105469 102.855469 180.945312 102.4375 180.886719 C 102.019531 180.824219 101.613281 180.875 101.21875 181.027344 Z M 116.265625 192.238281 C 115.882812 192.214844 115.503906 192.25 115.136719 192.355469 C 114.640625 192.488281 114.238281 192.761719 113.929688 193.167969 C 113.621094 193.578125 113.464844 194.035156 113.464844 194.546875 C 113.464844 195.058594 113.621094 195.519531 113.929688 195.925781 C 114.238281 196.335938 114.640625 196.605469 115.136719 196.742188 C 115.714844 196.894531 116.292969 196.894531 116.871094 196.746094 C 117.265625 196.640625 117.601562 196.445312 117.890625 196.160156 C 118.175781 195.875 118.371094 195.535156 118.476562 195.144531 C 118.632812 194.523438 118.554688 193.933594 118.246094 193.375 C 118.039062 193.023438 117.757812 192.746094 117.40625 192.542969 C 117.050781 192.339844 116.671875 192.238281 116.265625 192.238281 Z M 118.230469 198.441406 C 118.21875 198.429688 118.195312 198.421875 118.179688 198.410156 C 118.136719 198.367188 118.085938 198.328125 118.035156 198.292969 C 117.972656 198.253906 117.640625 198.066406 117.832031 198.191406 C 117.460938 197.988281 117.070312 197.9375 116.660156 198.039062 C 116.628906 198.046875 116.597656 198.058594 116.566406 198.066406 C 116.824219 198.035156 116.761719 198.042969 116.375 198.09375 C 116.199219 198.144531 116.042969 198.222656 115.898438 198.335938 C 115.578125 198.574219 115.335938 198.878906 115.167969 199.242188 C 115.039062 199.484375 114.988281 199.738281 115.023438 200.007812 C 115.058594 200.277344 115.171875 200.511719 115.359375 200.710938 C 115.472656 200.820312 115.605469 200.910156 115.753906 200.96875 C 115.902344 201.03125 116.054688 201.058594 116.214844 201.058594 C 116.375 201.058594 116.527344 201.03125 116.675781 200.96875 C 116.824219 200.910156 116.957031 200.820312 117.070312 200.710938 C 117.09375 200.683594 117.117188 200.660156 117.140625 200.640625 C 117.144531 200.648438 117.625 200.234375 117.472656 200.378906 C 117.519531 200.328125 117.570312 200.285156 117.621094 200.238281 C 117.675781 200.164062 117.730469 200.089844 117.789062 200.015625 C 117.796875 200.011719 117.800781 200.007812 117.804688 200.003906 C 117.9375 199.878906 118.050781 199.734375 118.144531 199.574219 C 118.148438 199.574219 118.160156 199.554688 118.1875 199.519531 C 118.210938 199.492188 118.230469 199.464844 118.246094 199.441406 C 118.332031 199.382812 118.398438 199.3125 118.445312 199.222656 C 118.496094 199.132812 118.519531 199.039062 118.515625 198.9375 C 118.515625 198.835938 118.488281 198.738281 118.4375 198.652344 C 118.386719 198.5625 118.320312 198.492188 118.230469 198.441406 Z M 102.324219 202.671875 C 102.21875 202.566406 102.097656 202.484375 101.960938 202.421875 C 101.816406 202.3125 101.714844 202.242188 101.886719 202.386719 L 101.875 202.382812 C 101.707031 202.246094 101.523438 202.128906 101.332031 202.027344 C 100.679688 201.699219 99.984375 201.5625 99.257812 201.621094 C 98.980469 201.621094 98.710938 201.671875 98.453125 201.78125 C 98.199219 201.886719 97.972656 202.035156 97.773438 202.230469 C 97.578125 202.429688 97.425781 202.65625 97.320312 202.910156 C 97.214844 203.167969 97.160156 203.433594 97.160156 203.710938 C 97.160156 203.988281 97.214844 204.257812 97.320312 204.511719 C 97.425781 204.769531 97.578125 204.996094 97.773438 205.191406 C 97.972656 205.386719 98.199219 205.539062 98.453125 205.644531 C 98.710938 205.75 98.980469 205.804688 99.257812 205.800781 C 99.972656 205.847656 100.65625 205.71875 101.308594 205.425781 C 101.777344 205.066406 101.847656 205.007812 101.523438 205.253906 C 101.777344 205.101562 101.980469 204.902344 102.136719 204.652344 C 102.273438 204.511719 102.375 204.351562 102.445312 204.167969 C 102.457031 204.152344 102.46875 204.136719 102.480469 204.125 C 102.464844 204.148438 102.738281 203.296875 102.648438 203.574219 C 102.699219 203.402344 102.695312 203.234375 102.636719 203.070312 C 102.574219 202.902344 102.472656 202.769531 102.324219 202.671875 Z M 256.144531 229.097656 C 256.09375 228.980469 256.007812 228.902344 255.882812 228.859375 C 255.832031 228.820312 255.796875 228.753906 255.730469 228.722656 C 255.640625 228.683594 255.542969 228.644531 255.453125 228.601562 C 255.101562 228.554688 255.035156 228.546875 255.257812 228.578125 C 254.933594 228.5 254.625 228.542969 254.332031 228.699219 C 254.070312 228.851562 253.894531 229.074219 253.796875 229.359375 C 253.703125 229.644531 253.714844 229.929688 253.832031 230.207031 C 253.949219 230.484375 254.144531 230.691406 254.414062 230.824219 C 254.6875 230.953125 254.96875 230.980469 255.257812 230.898438 C 255.324219 230.890625 255.386719 230.878906 255.453125 230.871094 C 255.601562 230.828125 255.738281 230.761719 255.863281 230.664062 C 255.984375 230.566406 256.085938 230.453125 256.160156 230.316406 C 256.238281 230.179688 256.285156 230.035156 256.304688 229.882812 C 256.324219 229.726562 256.3125 229.574219 256.269531 229.425781 C 256.238281 229.3125 256.195312 229.203125 256.144531 229.097656 Z M 246.5 241.300781 C 246.285156 241.304688 246.078125 241.351562 245.882812 241.433594 C 245.683594 241.519531 245.511719 241.640625 245.359375 241.792969 C 245.207031 241.945312 245.089844 242.121094 245.007812 242.316406 C 244.925781 242.515625 244.882812 242.722656 244.878906 242.9375 C 244.878906 243.152344 244.917969 243.363281 245.003906 243.5625 C 245.085938 243.761719 245.203125 243.941406 245.355469 244.09375 C 245.511719 244.246094 245.6875 244.367188 245.886719 244.449219 C 246.089844 244.53125 246.296875 244.574219 246.515625 244.574219 C 246.71875 244.566406 246.917969 244.539062 247.113281 244.488281 C 247.3125 244.433594 247.496094 244.347656 247.664062 244.222656 C 247.828125 244.101562 247.964844 243.953125 248.074219 243.777344 C 248.183594 243.605469 248.257812 243.414062 248.296875 243.214844 C 248.332031 243.011719 248.332031 242.808594 248.292969 242.605469 C 248.253906 242.402344 248.179688 242.214844 248.070312 242.042969 C 247.957031 241.867188 247.820312 241.71875 247.652344 241.597656 C 247.488281 241.476562 247.304688 241.390625 247.105469 241.339844 C 246.90625 241.289062 246.703125 241.273438 246.5 241.300781 Z M 296.886719 197.21875 C 296.53125 197.222656 296.199219 197.304688 295.882812 197.464844 C 295.769531 197.554688 295.652344 197.644531 295.535156 197.734375 C 295.503906 197.769531 295.480469 197.804688 295.457031 197.835938 C 295.289062 197.972656 295.160156 198.136719 295.066406 198.332031 C 294.976562 198.527344 294.929688 198.730469 294.929688 198.945312 C 294.929688 199.160156 294.976562 199.367188 295.066406 199.5625 C 295.160156 199.753906 295.289062 199.921875 295.457031 200.054688 C 295.480469 200.089844 295.503906 200.121094 295.535156 200.160156 C 295.875 200.480469 296.277344 200.644531 296.746094 200.660156 C 297.234375 200.695312 297.6875 200.585938 298.101562 200.324219 C 298.21875 200.253906 298.328125 200.167969 298.421875 200.066406 C 298.519531 199.96875 298.597656 199.855469 298.667969 199.734375 C 298.734375 199.617188 298.785156 199.488281 298.820312 199.355469 C 298.855469 199.21875 298.871094 199.085938 298.871094 198.945312 C 298.871094 198.808594 298.855469 198.671875 298.820312 198.539062 C 298.785156 198.402344 298.734375 198.277344 298.667969 198.15625 C 298.597656 198.035156 298.519531 197.925781 298.421875 197.824219 C 298.328125 197.726562 298.21875 197.640625 298.101562 197.566406 C 297.730469 197.335938 297.324219 197.21875 296.886719 197.21875 Z M 297.71875 185.144531 C 298.339844 185.28125 298.882812 185.128906 299.34375 184.691406 C 299.457031 184.578125 299.539062 184.445312 299.589844 184.292969 C 299.640625 184.140625 299.65625 183.984375 299.632812 183.824219 C 299.613281 183.664062 299.558594 183.515625 299.472656 183.382812 C 299.382812 183.25 299.269531 183.140625 299.132812 183.058594 C 299.015625 182.996094 298.894531 182.945312 298.769531 182.910156 C 298.785156 182.914062 298.75 182.910156 298.695312 182.90625 C 298.472656 182.605469 298.171875 182.453125 297.800781 182.445312 C 297.5 182.453125 297.242188 182.5625 297.027344 182.777344 C 296.816406 182.992188 296.703125 183.25 296.699219 183.550781 L 296.691406 183.644531 C 296.707031 183.417969 296.691406 183.488281 296.648438 183.851562 C 296.65625 184.089844 296.714844 184.3125 296.832031 184.519531 C 297.039062 184.855469 297.335938 185.0625 297.71875 185.144531 Z M 238.960938 246.09375 C 238.886719 245.84375 238.71875 245.71875 238.457031 245.71875 C 238.195312 245.71875 238.027344 245.84375 237.953125 246.09375 C 237.886719 246.320312 237.828125 246.550781 237.769531 246.777344 C 237.742188 246.882812 237.738281 246.992188 237.757812 247.101562 C 237.777344 247.210938 237.824219 247.308594 237.890625 247.398438 C 237.957031 247.488281 238.042969 247.554688 238.140625 247.605469 C 238.242188 247.65625 238.347656 247.679688 238.457031 247.679688 C 238.570312 247.679688 238.675781 247.65625 238.773438 247.605469 C 238.875 247.554688 238.957031 247.488281 239.023438 247.398438 C 239.089844 247.308594 239.136719 247.210938 239.15625 247.101562 C 239.179688 246.992188 239.171875 246.882812 239.144531 246.777344 C 239.085938 246.550781 239.023438 246.320312 238.960938 246.09375 Z M 246.515625 241.292969 C 246.507812 241.296875 246.503906 241.296875 246.5 241.300781 C 246.414062 241.296875 246.328125 241.304688 246.242188 241.320312 C 246.335938 241.3125 246.425781 241.304688 246.515625 241.292969 Z M 275.089844 190.9375 C 276.011719 191.023438 276.867188 190.828125 277.664062 190.359375 C 277.929688 190.25 278.140625 190.074219 278.300781 189.835938 C 278.460938 189.597656 278.539062 189.335938 278.539062 189.050781 C 278.539062 188.761719 278.460938 188.5 278.300781 188.261719 C 278.140625 188.023438 277.929688 187.851562 277.664062 187.742188 C 276.867188 187.269531 276.011719 187.074219 275.089844 187.160156 C 274.839844 187.160156 274.597656 187.207031 274.367188 187.304688 C 274.136719 187.398438 273.929688 187.535156 273.753906 187.714844 C 273.578125 187.890625 273.441406 188.09375 273.34375 188.328125 C 273.25 188.558594 273.203125 188.800781 273.203125 189.050781 C 273.203125 189.300781 273.25 189.539062 273.34375 189.773438 C 273.441406 190.003906 273.578125 190.207031 273.753906 190.386719 C 273.929688 190.5625 274.136719 190.699219 274.367188 190.792969 C 274.597656 190.890625 274.839844 190.9375 275.089844 190.9375 Z M 295.054688 191.910156 C 295.101562 191.917969 295.144531 191.925781 295.191406 191.929688 C 295.546875 192.085938 295.867188 192.039062 296.164062 191.789062 C 296.457031 191.539062 296.554688 191.230469 296.460938 190.855469 C 296.382812 190.5625 296.230469 190.316406 296 190.117188 C 295.886719 190.015625 295.757812 189.960938 295.605469 189.960938 C 295.453125 189.960938 295.320312 190.015625 295.207031 190.117188 C 295.148438 190.167969 295.089844 190.21875 295.039062 190.273438 C 295.039062 190.269531 294.695312 190.746094 294.929688 190.449219 C 294.855469 190.546875 294.792969 190.652344 294.746094 190.769531 C 294.664062 190.855469 294.609375 190.957031 294.578125 191.074219 C 294.550781 191.191406 294.550781 191.308594 294.582031 191.425781 C 294.613281 191.542969 294.671875 191.644531 294.753906 191.730469 C 294.839844 191.816406 294.941406 191.875 295.054688 191.910156 Z M 261.414062 186.726562 C 261.816406 186.828125 262.210938 186.800781 262.597656 186.644531 C 262.984375 186.488281 263.285156 186.230469 263.5 185.875 C 263.691406 185.59375 263.777344 185.28125 263.753906 184.941406 C 263.75 184.835938 263.738281 184.726562 263.714844 184.621094 C 263.722656 184.125 263.546875 183.703125 263.195312 183.355469 C 262.902344 183.058594 262.550781 182.886719 262.136719 182.832031 C 261.722656 182.777344 261.335938 182.855469 260.976562 183.066406 C 260.65625 183.25 260.402344 183.5 260.210938 183.820312 C 260.023438 184.136719 259.925781 184.484375 259.921875 184.851562 C 259.929688 185.296875 260.070312 185.695312 260.347656 186.042969 C 260.625 186.390625 260.980469 186.621094 261.414062 186.726562 Z M 253.214844 179.003906 C 253.402344 179.0625 253.589844 179.101562 253.785156 179.117188 C 255.15625 179.1875 255.15625 176.917969 253.785156 176.988281 C 253.589844 177 253.402344 177.039062 253.214844 177.097656 C 253.003906 177.160156 252.835938 177.28125 252.703125 177.457031 C 252.574219 177.632812 252.507812 177.832031 252.507812 178.050781 C 252.507812 178.269531 252.574219 178.46875 252.703125 178.644531 C 252.835938 178.820312 253.003906 178.941406 253.214844 179.003906 Z M 70.089844 176.820312 C 69.597656 176.535156 69.070312 176.402344 68.503906 176.421875 C 68.234375 176.414062 67.980469 176.46875 67.734375 176.578125 C 67.492188 176.691406 67.285156 176.851562 67.113281 177.054688 C 66.945312 177.261719 66.828125 177.496094 66.761719 177.757812 C 66.699219 178.015625 66.695312 178.277344 66.753906 178.539062 C 66.894531 178.972656 67.136719 179.339844 67.476562 179.640625 C 67.816406 179.941406 68.207031 180.140625 68.652344 180.230469 C 68.871094 180.289062 69.089844 180.308594 69.316406 180.289062 C 69.542969 180.269531 69.757812 180.207031 69.960938 180.109375 C 70.164062 180.011719 70.34375 179.878906 70.5 179.714844 C 70.65625 179.550781 70.777344 179.363281 70.863281 179.15625 C 70.953125 178.949219 71 178.730469 71.011719 178.503906 C 71.019531 178.277344 70.988281 178.058594 70.917969 177.84375 C 70.84375 177.628906 70.738281 177.433594 70.59375 177.257812 C 70.453125 177.082031 70.285156 176.933594 70.089844 176.820312 Z M 281.703125 195.804688 C 282.035156 195.933594 282.375 195.964844 282.722656 195.902344 C 283.070312 195.839844 283.378906 195.691406 283.644531 195.453125 C 283.761719 195.332031 283.855469 195.195312 283.921875 195.039062 C 283.988281 194.878906 284.019531 194.71875 284.019531 194.546875 C 284.019531 194.375 283.988281 194.214844 283.921875 194.054688 C 283.855469 193.898438 283.761719 193.761719 283.644531 193.640625 C 283.378906 193.402344 283.070312 193.253906 282.722656 193.191406 C 282.375 193.128906 282.035156 193.160156 281.703125 193.292969 C 281.425781 193.375 281.203125 193.535156 281.03125 193.765625 C 280.859375 194 280.773438 194.257812 280.773438 194.546875 C 280.773438 194.835938 280.859375 195.097656 281.03125 195.328125 C 281.203125 195.5625 281.425781 195.71875 281.703125 195.804688 Z M 374.773438 158.695312 C 374.710938 159.230469 374.53125 159.726562 374.226562 160.171875 C 373.921875 160.621094 373.527344 160.96875 373.050781 161.222656 C 368.214844 163.667969 364.820312 167.746094 361.226562 172.066406 L 359.578125 174.027344 C 358.179688 175.785156 356.933594 177.640625 355.832031 179.597656 C 355.066406 180.882812 354.28125 182.191406 353.414062 183.457031 L 353.480469 183.457031 C 354.015625 183.457031 354.546875 183.421875 355.074219 183.359375 C 359.09375 182.78125 362.925781 181.605469 366.574219 179.828125 C 367.0625 179.601562 367.574219 179.488281 368.109375 179.484375 C 368.460938 179.484375 368.808594 179.542969 369.144531 179.652344 C 369.484375 179.761719 369.792969 179.921875 370.082031 180.132812 C 370.367188 180.34375 370.613281 180.589844 370.820312 180.878906 C 371.027344 181.167969 371.183594 181.480469 371.292969 181.820312 C 371.402344 182.167969 371.453125 182.523438 371.449219 182.890625 C 371.445312 183.253906 371.382812 183.609375 371.261719 183.953125 C 371.140625 184.300781 370.972656 184.617188 370.75 184.90625 C 370.527344 185.195312 370.265625 185.445312 369.964844 185.648438 C 366.121094 188.441406 363.390625 192.308594 360.5 196.402344 C 358.058594 199.855469 355.550781 203.410156 352.304688 206.261719 C 353.753906 207.320312 354.960938 208.613281 355.917969 210.136719 C 358.09375 214.148438 356.6875 217.667969 355.328125 221.070312 L 355.128906 221.570312 C 351.476562 230.757812 347.578125 240.011719 343.8125 248.960938 L 342.589844 251.863281 C 338.476562 261.652344 334.351562 271.429688 330.207031 281.191406 C 330.101562 281.4375 329.996094 281.769531 329.871094 282.136719 C 329.328125 283.792969 328.648438 285.851562 327.089844 286.605469 L 227.191406 335.402344 C 224.011719 336.957031 220.652344 337.714844 217.113281 337.675781 C 211.855469 337.675781 206.558594 336.078125 201.585938 334.441406 C 195.019531 332.273438 188.304688 330.195312 181.808594 328.183594 L 180.785156 327.867188 C 139.351562 315 97.109375 302.257812 56.257812 289.933594 L 48.363281 287.550781 L 47.914062 287.429688 C 46.828125 287.152344 45.191406 286.726562 44.570312 285.289062 C 41.3125 277.6875 38.066406 270.085938 34.835938 262.484375 L 34.320312 261.277344 C 29.589844 250.179688 24.855469 239.074219 20.214844 227.933594 L 19.800781 226.953125 C 18.152344 223.066406 15.207031 216.117188 15.976562 211.199219 C 8.851562 207.4375 4.554688 197.25 5.101562 189.859375 C 5.421875 186.144531 6.308594 182.574219 7.757812 179.140625 C 9.207031 175.710938 11.148438 172.585938 13.585938 169.769531 C 9.585938 164.207031 5.746094 160.40625 1.550781 157.859375 C 1.03125 157.539062 0.625 157.109375 0.335938 156.570312 C 0.0429688 156.035156 -0.09375 155.460938 -0.0820312 154.847656 C -0.0742188 154.257812 0.078125 153.710938 0.382812 153.203125 C 0.683594 152.699219 1.09375 152.304688 1.613281 152.019531 C 5.09375 150.105469 8.792969 149.488281 12.371094 148.886719 C 14.730469 148.554688 17.050781 148.039062 19.328125 147.335938 C 24.488281 145.59375 28.359375 141.347656 32.097656 137.234375 C 32.871094 136.386719 33.640625 135.542969 34.414062 134.722656 C 42.703125 125.980469 52.835938 122.480469 63.558594 118.777344 L 63.839844 118.679688 C 69.054688 116.890625 74.507812 114.839844 78.8125 111.28125 C 81.386719 109.238281 83.574219 106.84375 85.375 104.089844 L 85.898438 103.226562 C 86.648438 101.769531 87.640625 100.503906 88.871094 99.425781 C 90.570312 98.105469 92.925781 97.4375 95.871094 97.4375 C 98.980469 97.523438 102.023438 98.019531 105 98.933594 L 105.300781 99.015625 C 110.101562 100.367188 114.671875 101.652344 118.957031 104.085938 C 119.582031 102.210938 120.597656 100.582031 122 99.191406 C 123.066406 98.160156 123.859375 96.945312 124.375 95.554688 C 125.386719 92.039062 126.4375 89.179688 129.863281 87.027344 C 131.679688 85.898438 133.089844 84.386719 134.089844 82.492188 C 134.800781 81.128906 135.761719 79.972656 136.972656 79.023438 C 138.164062 78.246094 139.4375 77.644531 140.796875 77.210938 C 141.265625 77.039062 141.746094 76.867188 142.230469 76.667969 C 143.214844 76.175781 144.050781 75.492188 144.730469 74.621094 C 145.230469 74.054688 145.765625 73.519531 146.335938 73.019531 C 148.375 71.289062 150.65625 70.90625 152.667969 70.570312 C 154.195312 70.4375 155.621094 69.988281 156.949219 69.226562 C 159.75 67.335938 161.972656 66.246094 165.054688 66.246094 C 165.773438 66.25 166.488281 66.300781 167.199219 66.402344 C 167.46875 66.4375 167.738281 66.457031 168.007812 66.457031 C 169.371094 66.378906 170.695312 66.105469 171.976562 65.632812 C 173.515625 65.078125 175.101562 64.765625 176.734375 64.695312 C 177.355469 64.691406 177.96875 64.757812 178.578125 64.894531 C 179.511719 65.125 180.429688 65.417969 181.328125 65.769531 C 182.519531 66.296875 183.765625 66.613281 185.066406 66.71875 C 185.792969 66.6875 186.339844 66.632812 186.886719 66.574219 C 187.765625 66.472656 188.648438 66.414062 189.535156 66.398438 C 190.101562 66.398438 190.664062 66.4375 191.222656 66.527344 C 193.417969 66.984375 195.445312 67.839844 197.304688 69.085938 C 198.847656 70.125 200.523438 70.855469 202.335938 71.277344 C 206.96875 72.078125 209.058594 74.066406 212.078125 77.242188 C 213.242188 78.324219 214.546875 79.191406 216 79.835938 C 217.921875 80.683594 219.609375 81.871094 221.050781 83.398438 C 221.855469 84.398438 222.496094 85.492188 222.976562 86.683594 C 223.28125 87.40625 223.644531 88.097656 224.066406 88.761719 C 224.730469 89.628906 225.5 90.386719 226.378906 91.039062 C 227.0625 91.578125 227.714844 92.160156 228.328125 92.785156 C 229.8125 94.230469 230.828125 95.949219 231.371094 97.949219 C 231.503906 98.503906 231.605469 99.085938 231.707031 99.679688 C 231.84375 100.972656 232.207031 102.195312 232.800781 103.351562 C 232.800781 103.351562 233.957031 105.113281 234.1875 105.46875 C 235.171875 105.320312 236.15625 105.160156 237.148438 105 C 241.023438 104.269531 244.929688 103.851562 248.875 103.746094 C 250.582031 103.738281 252.277344 103.871094 253.964844 104.144531 C 258.898438 104.964844 262.480469 107.070312 266.269531 109.300781 C 267.703125 110.144531 269.164062 111.003906 270.75 111.816406 C 276.078125 114.542969 282.101562 114.882812 288.476562 115.25 C 296.109375 115.683594 304.003906 116.136719 310.625 121.03125 C 313.527344 123.179688 315.675781 126.003906 317.753906 128.730469 C 319.261719 130.839844 320.945312 132.800781 322.800781 134.609375 C 325.011719 136.707031 327.453125 138.492188 330.128906 139.957031 C 332.800781 141.421875 335.617188 142.519531 338.578125 143.253906 C 341.09375 143.84375 343.632812 144.34375 346.160156 144.839844 C 355.769531 146.726562 365.707031 148.675781 373.75 155.804688 C 374.148438 156.171875 374.441406 156.609375 374.621094 157.121094 C 374.800781 157.632812 374.851562 158.15625 374.773438 158.695312 Z M 224.867188 330.753906 C 257.234375 314.941406 289.605469 299.132812 321.984375 283.316406 C 322.695312 282.964844 323.40625 282.621094 324.117188 282.269531 C 325.085938 280 326.046875 277.734375 327.011719 275.464844 C 331.558594 264.71875 336.09375 253.964844 340.609375 243.207031 C 344.257812 234.480469 348.097656 225.785156 351.371094 216.910156 C 351.5 216.632812 351.605469 216.347656 351.679688 216.050781 C 351.753906 215.753906 351.800781 215.453125 351.816406 215.148438 C 351.835938 214.84375 351.824219 214.539062 351.785156 214.238281 C 351.742188 213.9375 351.675781 213.640625 351.578125 213.351562 C 351.484375 213.0625 351.359375 212.78125 351.210938 212.515625 C 351.0625 212.25 350.890625 212 350.691406 211.769531 C 350.496094 211.535156 350.277344 211.320312 350.042969 211.128906 C 349.804688 210.9375 349.550781 210.769531 349.28125 210.625 C 348.296875 209.957031 347.253906 209.402344 346.148438 208.960938 C 345.941406 208.875 345.730469 208.804688 345.511719 208.75 C 345.382812 208.769531 345.253906 208.785156 345.121094 208.785156 L 345.117188 208.785156 C 344.148438 209.238281 343.1875 209.6875 342.230469 210.140625 C 328.433594 216.636719 314.636719 223.132812 300.84375 229.628906 C 300.617188 229.828125 300.359375 229.953125 300.058594 229.996094 C 300.050781 230.003906 300.050781 230.003906 300.042969 230.003906 C 300.042969 230.007812 300.039062 230.011719 300.035156 230.011719 C 293.847656 232.921875 287.660156 235.832031 281.46875 238.746094 C 270.054688 244.121094 258.644531 249.5 247.234375 254.878906 C 236.917969 259.738281 226.675781 265.839844 214.933594 265.707031 C 202.867188 265.574219 190.796875 260.832031 179.292969 257.40625 C 159.3125 251.457031 139.324219 245.503906 119.328125 239.554688 C 115.300781 238.351562 111.269531 237.152344 107.242188 235.957031 C 79.054688 227.570312 50.867188 219.179688 22.679688 210.792969 C 17.855469 211.332031 24.890625 225.699219 26.097656 228.585938 C 29.980469 237.859375 33.925781 247.121094 37.863281 256.378906 C 41.535156 265.015625 45.222656 273.648438 48.914062 282.277344 C 49.148438 282.347656 49.382812 282.414062 49.617188 282.488281 C 51.726562 283.125 53.835938 283.761719 55.9375 284.394531 C 75.109375 290.179688 94.277344 295.980469 113.4375 301.796875 C 136.195312 308.714844 158.941406 315.675781 181.671875 322.679688 C 188.71875 324.871094 195.765625 327.042969 202.777344 329.351562 C 210.007812 331.734375 217.535156 334.335938 224.867188 330.753906 Z M 20.796875 152.332031 C 16.3125 153.617188 11.441406 153.746094 7.027344 155.296875 C 11.363281 158.703125 15.078125 162.691406 18.171875 167.257812 C 18.742188 166.742188 19.332031 166.234375 19.929688 165.753906 C 20.765625 165.097656 22.265625 164.957031 22.808594 166.128906 C 25.066406 171.035156 27.214844 176.167969 30.945312 180.179688 C 33.632812 183.074219 36.828125 182.5625 40.523438 182.332031 C 43.933594 182.121094 46.078125 183.726562 48.609375 185.867188 C 49.097656 186.296875 49.628906 186.664062 50.199219 186.972656 C 50.125 186.664062 50.140625 186.359375 50.242188 186.058594 C 50.007812 185.597656 49.980469 185.121094 50.152344 184.636719 C 49.933594 184.183594 49.910156 183.722656 50.082031 183.25 C 49.921875 182.824219 49.925781 182.402344 50.09375 181.980469 L 50.09375 181.972656 C 49.5 180.65625 50.261719 178.425781 50.65625 177.230469 C 51.609375 174.746094 52.027344 172.171875 51.902344 169.511719 C 51.664062 167.40625 51.851562 165.339844 52.472656 163.316406 C 53.097656 161.480469 54.417969 160.015625 55.375 158.375 C 56.570312 156.332031 56.757812 154.226562 57.335938 152.066406 C 54.789062 147.234375 51.777344 142.710938 48.300781 138.5 C 47.824219 137.945312 48.589844 137.144531 49.109375 137.691406 C 52.417969 141.1875 55.992188 145.078125 58.257812 149.449219 C 58.722656 148.347656 59.371094 147.371094 60.207031 146.519531 C 61.777344 144.964844 63.925781 143.605469 65.039062 141.667969 C 67.003906 138.234375 68.242188 134.839844 71.960938 132.941406 C 74.015625 131.890625 76.136719 131.019531 77.714844 129.269531 C 78.964844 127.875 80.148438 126.246094 81.722656 125.1875 C 83.515625 124.0625 85.457031 123.34375 87.546875 123.027344 C 89.949219 122.511719 92.160156 121.550781 94.175781 120.148438 C 95.410156 119.339844 96.734375 118.742188 98.15625 118.359375 C 99.578125 117.972656 101.023438 117.816406 102.492188 117.894531 C 101.601562 114.242188 99.96875 110.496094 97.167969 107.921875 C 97.046875 107.789062 97.027344 107.648438 97.121094 107.492188 C 97.210938 107.335938 97.34375 107.28125 97.519531 107.324219 C 101.417969 108.464844 103.503906 114.117188 104.535156 117.601562 C 104.570312 117.703125 104.582031 117.804688 104.578125 117.910156 C 104.640625 117.910156 104.695312 117.910156 104.757812 117.914062 C 108.925781 117.980469 112.777344 115.289062 116.910156 116.027344 C 117.523438 114.417969 118.28125 112.882812 119.183594 111.414062 C 119.308594 111.175781 119.417969 110.929688 119.511719 110.675781 C 114.214844 106.648438 107.535156 104.558594 101.058594 103.335938 C 99.269531 102.992188 93.648438 101.855469 92.03125 103.535156 C 90.515625 105.101562 89.582031 107.28125 88.234375 109.011719 C 81.6875 117.4375 72.441406 121.328125 62.59375 124.589844 C 57.554688 126.261719 52.402344 127.890625 47.78125 130.550781 C 42.371094 133.667969 38.511719 138.066406 34.285156 142.5625 C 30.554688 146.519531 26.179688 150.796875 20.796875 152.332031 Z M 120.425781 117.070312 C 122.253906 117.578125 124.105469 117.726562 125.988281 117.507812 C 127.882812 117.148438 129.71875 117.332031 131.503906 118.058594 C 133.476562 119.015625 135.335938 120.871094 137.542969 121.246094 C 139.640625 121.597656 141.703125 121.628906 143.703125 122.398438 C 145.261719 123.167969 146.589844 124.226562 147.6875 125.574219 C 149.59375 127.546875 151.609375 128.21875 154.085938 129.179688 C 158.308594 130.8125 158.6875 135.359375 162.203125 137.605469 C 165.703125 139.832031 167.589844 141.652344 168.890625 145.65625 C 170.292969 149.941406 174.496094 151.921875 175.324219 156.519531 C 175.800781 159.175781 175.742188 161.339844 177.230469 163.734375 C 178.085938 165.042969 178.75 166.445312 179.222656 167.933594 L 179.222656 167.941406 C 179.507812 167.773438 179.800781 167.589844 180.09375 167.40625 C 181.921875 166.25 183.867188 165.132812 186.085938 164.992188 C 188.746094 164.824219 191.691406 165.550781 194.285156 164.824219 C 196.117188 164.3125 197.722656 163.859375 199.269531 163.578125 C 200.058594 161.800781 201.386719 160.507812 202.261719 158.792969 C 203.363281 156.636719 203.027344 154.113281 203.914062 151.871094 C 204.5 150.382812 205.78125 149.355469 206.957031 148.34375 C 208.675781 146.863281 209.371094 145.164062 210.109375 143.066406 C 211.570312 138.910156 215.890625 139.019531 217.9375 135.667969 C 219.773438 132.652344 221.269531 130.742188 224.785156 129.765625 C 228.414062 128.761719 230.160156 125.453125 233.488281 124.230469 C 233.050781 122.765625 232.324219 121.421875 231.996094 119.914062 C 231.652344 118.125 231.558594 116.324219 231.722656 114.507812 C 231.8125 113.160156 231.574219 111.867188 231.003906 110.636719 C 230.71875 110.382812 230.554688 110.0625 230.507812 109.679688 C 229.605469 108.109375 228.40625 106.707031 227.664062 104.640625 C 227.035156 102.890625 226.917969 101.035156 226.339844 99.28125 C 225.558594 96.898438 223.8125 95.878906 222.066406 94.289062 C 220.832031 93.226562 219.84375 91.96875 219.097656 90.519531 C 218.433594 89.164062 217.789062 87.171875 216.59375 86.179688 C 213.640625 83.746094 210.242188 83.085938 207.640625 80.050781 C 206.074219 78.210938 204.675781 76.953125 202.199219 76.527344 C 200.738281 76.3125 199.300781 75.988281 197.890625 75.550781 C 196.332031 75.03125 195.074219 73.921875 193.714844 73.058594 C 191.304688 71.527344 189.355469 71.714844 186.636719 71.855469 C 184.878906 72.011719 183.160156 71.8125 181.484375 71.261719 C 180.09375 70.761719 178.183594 69.753906 176.675781 69.914062 C 174.511719 70.140625 172.589844 71.261719 170.484375 71.695312 C 168.738281 72.054688 167.0625 71.453125 165.332031 71.386719 C 161.714844 71.261719 159.792969 74.570312 156.386719 75.066406 C 154.277344 75.375 151.535156 75.148438 149.929688 76.789062 C 148.949219 77.925781 147.898438 78.988281 146.773438 79.984375 C 144.105469 82.042969 140.324219 81.953125 138.578125 85.140625 C 137.140625 87.808594 135.125 89.929688 132.53125 91.503906 C 129.550781 93.539062 129.820312 97.214844 127.902344 100.023438 C 126.96875 101.378906 125.34375 102.324219 124.558594 103.761719 C 123.601562 105.519531 123.804688 107.5 123.636719 109.4375 C 123.382812 112.347656 121.242188 114.371094 120.425781 117.070312 Z M 286.464844 223.160156 C 283.566406 226.851562 282.046875 231.292969 279.992188 235.414062 C 286.042969 232.5625 292.097656 229.714844 298.152344 226.867188 C 299.253906 223.460938 300.648438 220.023438 300.796875 216.460938 C 294.652344 217.578125 286.6875 219.921875 283.917969 212.570312 C 282.144531 207.855469 279.390625 205.238281 274.296875 204.304688 C 270.523438 203.746094 266.726562 203.546875 262.914062 203.707031 C 263 204.058594 263.113281 204.398438 263.226562 204.738281 C 264.054688 207.042969 265.710938 208.777344 266.738281 210.964844 C 268.964844 215.707031 267.308594 220.757812 268.898438 225.679688 C 269.425781 227.304688 270.449219 229.753906 269.96875 231.511719 C 269.925781 231.6875 269.851562 231.851562 269.753906 232.003906 C 269.929688 232.304688 270.011719 232.628906 270 232.976562 C 269.992188 233.324219 269.890625 233.640625 269.695312 233.929688 C 269.863281 234.238281 269.9375 234.5625 269.917969 234.914062 C 269.898438 235.261719 269.785156 235.578125 269.582031 235.859375 C 269.75 236.167969 269.816406 236.5 269.789062 236.847656 C 269.757812 237.199219 269.636719 237.511719 269.417969 237.789062 C 269.574219 238.085938 269.636719 238.402344 269.609375 238.738281 C 269.578125 239.070312 269.457031 239.371094 269.25 239.636719 C 269.378906 239.875 269.429688 240.128906 269.398438 240.398438 C 271.496094 239.410156 273.59375 238.425781 275.691406 237.4375 C 278.433594 232.167969 281.546875 226.582031 285.695312 222.386719 C 286.199219 221.875 286.882812 222.621094 286.464844 223.160156 Z M 266.53125 229.90625 C 266.320312 229.90625 265.433594 226.84375 265.367188 226.652344 C 264.589844 224.527344 264.222656 222.335938 264.273438 220.074219 C 264.429688 217.15625 264.675781 214.460938 263.03125 211.855469 C 262.007812 210.347656 261.078125 208.785156 260.246094 207.164062 C 258.296875 203.066406 258.875 199.269531 255.175781 195.976562 C 253.613281 194.746094 252.28125 193.300781 251.175781 191.644531 C 250.261719 190.078125 249.59375 188.308594 248.550781 186.820312 C 246.113281 183.300781 241.417969 182.621094 238.539062 179.480469 C 236.847656 177.632812 235.214844 175.300781 232.667969 174.605469 C 230.917969 174.121094 229.035156 173.933594 227.328125 173.316406 C 223.15625 171.828125 220.199219 168.351562 215.496094 168.601562 C 213.28125 168.71875 210.96875 168.964844 208.792969 168.359375 C 206.71875 167.785156 204.214844 166.476562 202.027344 166.644531 C 199.269531 166.847656 196.761719 168.082031 194.066406 168.585938 C 191.816406 169.011719 189.558594 168.441406 187.3125 168.578125 C 182.886719 168.859375 179.933594 172.648438 175.671875 173.609375 C 173.230469 174.152344 170.382812 174.398438 168.519531 176.261719 C 167.230469 177.539062 166.132812 179.070312 164.746094 180.25 C 161.566406 182.960938 156.992188 183.859375 154.949219 187.757812 C 153.15625 191.128906 150.863281 194.113281 148.070312 196.71875 C 144.804688 200.007812 145.527344 204.34375 143.351562 208.132812 C 142.246094 210.054688 140.273438 212.148438 139.859375 214.371094 C 139.417969 216.730469 139.960938 218.980469 139.789062 221.328125 C 139.515625 223.554688 139.015625 225.730469 138.296875 227.855469 C 138.0625 228.691406 137.164062 229.746094 138.019531 230.136719 C 138.242188 230.285156 138.441406 230.457031 138.621094 230.65625 C 138.902344 230.941406 139.074219 231.28125 139.132812 231.679688 C 139.191406 232.078125 139.125 232.457031 138.9375 232.808594 C 139.097656 233.082031 139.1875 233.375 139.199219 233.6875 C 139.210938 234.003906 139.148438 234.304688 139.007812 234.585938 C 139.183594 234.851562 139.28125 235.144531 139.304688 235.464844 C 139.324219 235.785156 139.265625 236.085938 139.125 236.375 C 139.316406 236.632812 139.425781 236.917969 139.457031 237.238281 C 139.484375 237.558594 139.429688 237.859375 139.289062 238.148438 C 139.496094 238.417969 139.621094 238.722656 139.667969 239.0625 C 139.710938 239.402344 139.667969 239.730469 139.535156 240.046875 C 139.746094 240.292969 139.875 240.578125 139.925781 240.898438 C 139.976562 241.21875 139.941406 241.527344 139.816406 241.828125 C 155.867188 246.609375 171.917969 251.386719 187.972656 256.164062 C 190.945312 257.046875 193.921875 257.933594 196.902344 258.824219 C 201.796875 260.28125 206.566406 261.660156 211.722656 261.941406 C 219.617188 262.363281 226.425781 260.644531 233.480469 257.320312 C 243.953125 252.386719 254.425781 247.449219 264.898438 242.515625 C 264.703125 242.363281 264.53125 242.191406 264.378906 242 C 264.175781 241.6875 264.089844 241.34375 264.117188 240.976562 C 264.144531 240.605469 264.28125 240.28125 264.527344 240.003906 C 264.394531 239.6875 264.347656 239.363281 264.390625 239.027344 C 264.433594 238.691406 264.558594 238.386719 264.765625 238.117188 C 264.625 237.828125 264.570312 237.523438 264.601562 237.203125 C 264.628906 236.882812 264.742188 236.59375 264.933594 236.335938 C 264.792969 236.054688 264.734375 235.753906 264.753906 235.4375 C 264.773438 235.125 264.867188 234.832031 265.042969 234.570312 C 264.902344 234.289062 264.839844 233.988281 264.851562 233.671875 C 264.867188 233.355469 264.957031 233.0625 265.125 232.796875 C 264.933594 232.441406 264.871094 232.066406 264.925781 231.671875 C 264.984375 231.273438 265.152344 230.933594 265.433594 230.644531 C 265.753906 230.328125 266.117188 230.082031 266.53125 229.90625 Z M 136.671875 212.378906 C 137.019531 211.433594 137.476562 210.546875 138.039062 209.714844 C 134.324219 209.578125 131.082031 208.125 127.25 207.277344 C 120.875 205.859375 117.535156 209.921875 113.738281 214.171875 C 110.976562 217.269531 107.125 219.269531 102.875 218.066406 C 100.652344 217.398438 98.636719 216.335938 96.828125 214.878906 C 97.730469 217.003906 98.726562 219.082031 99.8125 221.117188 C 102.03125 225.25 104.5625 229.871094 108.566406 232.53125 L 108.582031 232.53125 C 115.867188 234.695312 123.15625 236.863281 130.441406 239.035156 C 129.425781 236.589844 129.183594 233.457031 128.832031 231.25 C 128.253906 226.824219 127.414062 222.449219 126.316406 218.121094 C 126.183594 217.664062 126.886719 217.34375 127.097656 217.789062 C 129.054688 221.90625 130.003906 226.230469 131.046875 230.644531 C 131.609375 233.011719 132.144531 235.425781 132.941406 237.730469 C 133.230469 238.457031 133.445312 239.203125 133.585938 239.972656 C 133.941406 240.078125 134.292969 240.183594 134.648438 240.289062 C 134.65625 240.074219 134.710938 239.875 134.816406 239.6875 C 134.601562 239.421875 134.476562 239.121094 134.445312 238.78125 C 134.414062 238.4375 134.476562 238.117188 134.640625 237.816406 C 134.421875 237.542969 134.296875 237.226562 134.265625 236.875 C 134.234375 236.523438 134.304688 236.191406 134.472656 235.882812 C 134.265625 235.597656 134.15625 235.28125 134.136719 234.929688 C 134.113281 234.582031 134.191406 234.253906 134.363281 233.945312 C 134.167969 233.652344 134.066406 233.332031 134.058594 232.980469 C 134.046875 232.628906 134.128906 232.300781 134.304688 231.996094 C 134.296875 231.984375 134.28125 231.964844 134.273438 231.953125 C 133.671875 230.933594 134.121094 229.144531 134.421875 228.089844 C 135.324219 224.898438 136.230469 222.1875 136.046875 218.816406 C 135.828125 216.628906 136.035156 214.484375 136.671875 212.378906 Z M 235.371094 127.441406 C 234.496094 127.527344 233.742188 127.875 233.101562 128.476562 C 231.152344 130.398438 229.582031 132.246094 226.84375 133.007812 C 224.382812 133.679688 222.953125 134.472656 221.601562 136.695312 C 220.910156 137.929688 220.023438 139.003906 218.949219 139.921875 C 217.816406 140.828125 216.417969 141.253906 215.253906 142.082031 C 213.28125 143.484375 213.386719 145.707031 212.324219 147.625 C 211.613281 148.910156 210.6875 150.015625 209.546875 150.9375 C 208.660156 151.621094 207.960938 152.460938 207.453125 153.457031 C 206.945312 154.457031 206.675781 155.515625 206.644531 156.636719 C 206.339844 159.484375 204.683594 161.121094 203.429688 163.308594 C 204.777344 163.414062 206.09375 163.679688 207.378906 164.105469 C 212.171875 165.65625 217.613281 163.71875 222.085938 166.269531 C 224.089844 167.421875 226.039062 169.167969 228.300781 169.78125 C 230.421875 170.359375 232.582031 170.683594 234.652344 171.429688 C 238.964844 172.984375 241.074219 177.683594 245.152344 179.746094 C 246.949219 180.570312 248.546875 181.683594 249.945312 183.082031 C 251.34375 184.480469 252.453125 186.078125 253.28125 187.875 C 255.378906 191.902344 260.039062 194.09375 261.578125 198.382812 C 261.773438 198.925781 261.933594 199.476562 262.070312 200.039062 C 269.058594 199.984375 278.242188 199.355469 283.566406 204.714844 C 284.902344 205.976562 285.90625 207.464844 286.578125 209.171875 C 286.941406 210.585938 287.570312 211.875 288.453125 213.039062 C 294.761719 207.445312 301.238281 201.683594 308.601562 197.480469 C 310.558594 196.460938 312.574219 195.558594 314.636719 194.773438 C 314.335938 194.34375 313.832031 194.050781 313.582031 193.535156 C 313.375 193.175781 313.296875 192.785156 313.351562 192.375 C 313.40625 191.960938 313.582031 191.609375 313.875 191.3125 C 313.914062 191.285156 313.949219 191.253906 313.984375 191.234375 C 313.800781 190.878906 313.734375 190.503906 313.792969 190.109375 C 313.855469 189.714844 314.023438 189.375 314.308594 189.09375 C 314.320312 189.078125 314.339844 189.066406 314.359375 189.054688 C 314.15625 188.699219 314.082031 188.316406 314.136719 187.90625 C 314.191406 187.5 314.363281 187.152344 314.652344 186.859375 C 314.644531 186.847656 314.636719 186.835938 314.628906 186.828125 C 314.425781 186.480469 314.347656 186.101562 314.394531 185.703125 C 314.4375 185.300781 314.601562 184.953125 314.878906 184.65625 C 314.851562 184.628906 314.828125 184.597656 314.804688 184.570312 C 314.601562 184.230469 314.523438 183.867188 314.5625 183.472656 C 314.601562 183.078125 314.753906 182.738281 315.019531 182.445312 C 314.972656 182.402344 314.929688 182.359375 314.894531 182.3125 C 314.683594 181.949219 314.605469 181.5625 314.660156 181.152344 C 314.710938 180.738281 314.886719 180.382812 315.179688 180.089844 C 316.246094 178.800781 316.191406 179.34375 315.515625 177.449219 C 314.847656 175.914062 314.394531 174.316406 314.160156 172.65625 C 314.039062 170.75 314.425781 168.886719 314.34375 166.996094 C 314.222656 164.429688 312.835938 162.917969 311.570312 160.859375 C 309.636719 157.714844 310.109375 152.714844 307.496094 150.199219 C 305.480469 148.257812 303.144531 146.6875 301.867188 144.105469 C 301.132812 142.617188 300.492188 140.492188 299.199219 139.386719 C 297.78125 138.152344 296.085938 137.617188 294.480469 136.714844 C 291.617188 135.113281 290.070312 131.523438 287.238281 130.183594 C 283.707031 128.515625 280.136719 128.667969 276.796875 126.363281 C 274.769531 124.964844 273.03125 124.078125 270.480469 124.277344 C 268.976562 124.433594 267.464844 124.480469 265.953125 124.414062 C 264.269531 124.296875 262.742188 123.550781 261.160156 123.058594 C 258.574219 122.253906 257.074219 122.796875 254.640625 123.621094 C 250.859375 124.921875 246.953125 122.738281 243.550781 125.066406 C 242.242188 126.039062 240.796875 126.730469 239.21875 127.140625 C 238.347656 127.292969 237.472656 127.363281 236.589844 127.347656 L 236.582031 127.347656 C 236.1875 127.503906 235.785156 127.535156 235.371094 127.441406 Z M 122.3125 121.386719 C 120.480469 121.328125 118.875 120.324219 117.144531 119.882812 C 114.433594 119.1875 112.464844 120.179688 109.929688 120.902344 C 106.140625 121.980469 101.199219 120.242188 97.824219 122.210938 C 94.660156 124.046875 92.175781 125.820312 88.523438 126.5625 C 86.144531 127.039062 84.101562 127.617188 82.421875 129.488281 C 81.289062 130.828125 80.074219 132.09375 78.78125 133.277344 C 75.898438 135.75 72.035156 136.082031 70.160156 139.761719 C 68.746094 142.785156 66.800781 145.421875 64.328125 147.664062 C 63.441406 148.367188 62.699219 149.203125 62.101562 150.171875 C 61.507812 151.136719 61.09375 152.175781 60.863281 153.285156 C 60.617188 155.042969 60.167969 156.746094 59.507812 158.394531 C 58.746094 159.992188 57.683594 161.359375 56.796875 162.886719 C 55.515625 165.074219 55.417969 167.039062 55.566406 169.511719 C 55.800781 173.382812 54.246094 176.46875 53.722656 180.085938 C 53.871094 180.144531 54.011719 180.21875 54.144531 180.308594 C 54.328125 180.421875 54.484375 180.5625 54.617188 180.730469 C 54.75 180.898438 54.851562 181.082031 54.921875 181.285156 C 54.988281 181.488281 55.019531 181.699219 55.015625 181.910156 C 55.011719 182.125 54.96875 182.332031 54.894531 182.53125 C 55.132812 182.988281 55.164062 183.457031 54.988281 183.941406 C 55.171875 184.351562 55.195312 184.769531 55.054688 185.199219 C 55.246094 185.609375 55.277344 186.03125 55.148438 186.464844 L 55.148438 186.476562 C 55.324219 186.832031 55.375 187.207031 55.304688 187.597656 C 55.769531 187.558594 56.277344 187.523438 56.824219 187.496094 C 60.550781 187.289062 64.894531 187.691406 67.585938 190.683594 C 70.226562 193.632812 70.929688 197.378906 73.054688 200.597656 C 76.015625 205.082031 80.953125 204.167969 85.648438 204.027344 C 88.292969 203.949219 90.710938 204.230469 92.242188 206.3125 C 92.769531 206.269531 93.21875 206.4375 93.589844 206.8125 C 96.941406 210.207031 102.097656 216.578125 107.621094 214.363281 C 111.257812 212.90625 112.902344 208.683594 115.949219 206.410156 C 119.285156 203.917969 123.199219 202.621094 127.347656 203.542969 C 131.644531 204.496094 135.636719 206.761719 140.167969 205.976562 C 140.203125 205.96875 140.238281 205.964844 140.273438 205.964844 C 140.910156 204.15625 141.425781 202.316406 141.820312 200.441406 C 142.292969 198.339844 143.257812 196.492188 144.710938 194.898438 C 146.34375 193.257812 148.539062 191.824219 149.71875 189.796875 C 151.777344 186.253906 153.121094 182.757812 156.941406 180.746094 C 159.480469 179.421875 161.734375 178.25 163.675781 176.078125 C 164.921875 174.671875 166.277344 172.941406 168.011719 172.082031 C 169.8125 171.265625 171.683594 170.675781 173.625 170.308594 C 174.445312 170.128906 175.246094 169.878906 176.027344 169.5625 C 175.867188 169.367188 175.757812 169.148438 175.691406 168.90625 C 174.671875 165.492188 172.234375 163.207031 171.941406 159.480469 C 171.929688 158.207031 171.671875 156.988281 171.171875 155.820312 C 170.667969 154.648438 169.960938 153.621094 169.046875 152.738281 C 167.921875 151.660156 166.992188 150.433594 166.253906 149.0625 C 165.464844 147.515625 165.367188 145.574219 164.429688 144.113281 C 163.242188 142.273438 161.226562 141.394531 159.507812 140.15625 C 156.4375 137.964844 155.910156 133.636719 152.128906 132.332031 C 149.125 131.339844 146.535156 129.691406 144.363281 127.394531 C 141.367188 124.472656 137.566406 125.828125 134.195312 123.910156 C 132.558594 122.972656 130.414062 120.953125 128.429688 121.003906 C 126.378906 121.058594 124.367188 121.453125 122.3125 121.386719 Z M 12.554688 199.855469 C 14.613281 202.925781 16.957031 206.652344 20.832031 207.414062 C 21.363281 207.253906 21.90625 207.164062 22.460938 207.136719 C 22.46875 207.136719 22.480469 207.128906 22.488281 207.128906 L 22.527344 207.128906 C 22.726562 207.082031 22.929688 207.078125 23.132812 207.121094 C 23.351562 207.136719 23.554688 207.191406 23.75 207.289062 C 24.484375 207.507812 25.21875 207.726562 25.953125 207.945312 C 24.984375 201.703125 24.234375 195.496094 21.914062 189.53125 C 21.738281 189.074219 22.496094 188.757812 22.699219 189.199219 C 25.390625 195.410156 27.183594 201.867188 28.082031 208.578125 C 39.503906 211.976562 50.925781 215.375 62.34375 218.769531 C 60.554688 212.453125 61.007812 204.757812 56.367188 199.710938 C 56.261719 199.597656 56.210938 199.46875 56.214844 199.316406 C 56.21875 199.167969 56.273438 199.039062 56.378906 198.929688 C 56.484375 198.824219 56.613281 198.769531 56.765625 198.765625 C 56.914062 198.765625 57.046875 198.816406 57.15625 198.917969 C 63.089844 203.796875 62.394531 212.507812 64.796875 219.179688 C 64.835938 219.289062 64.859375 219.402344 64.859375 219.519531 C 65.277344 219.644531 65.691406 219.769531 66.109375 219.890625 C 77.714844 223.347656 89.320312 226.800781 100.925781 230.25 C 96.28125 224.429688 93.289062 216.628906 90.992188 209.964844 C 90.691406 209.957031 90.417969 209.867188 90.167969 209.699219 C 89.917969 209.53125 89.734375 209.308594 89.613281 209.035156 C 88.085938 206.035156 79.914062 208.191406 77.050781 207.621094 C 75.957031 207.394531 74.925781 207.007812 73.953125 206.453125 C 74.304688 207.363281 74.65625 208.261719 75.035156 209.117188 C 76.332031 212.066406 77.523438 214.984375 79.074219 217.8125 C 79.125 217.902344 79.136719 218 79.109375 218.097656 C 79.082031 218.199219 79.019531 218.277344 78.929688 218.328125 C 78.839844 218.382812 78.746094 218.398438 78.644531 218.371094 C 78.542969 218.347656 78.464844 218.292969 78.410156 218.203125 C 75.246094 213.515625 71.464844 207.949219 69.800781 202.289062 C 69.675781 202.066406 69.539062 201.84375 69.421875 201.605469 C 67.296875 197.304688 65.839844 191.320312 59.960938 191.117188 C 56.957031 191.015625 53.171875 192.214844 50.25 191.285156 C 47.257812 190.332031 45.457031 186.605469 42.445312 186.019531 C 39.488281 185.441406 36.3125 186.570312 33.300781 185.941406 C 31.4375 185.503906 29.824219 184.613281 28.460938 183.273438 C 29.023438 185.390625 29.691406 187.480469 30.46875 189.53125 C 32.460938 194.128906 34.917969 198.464844 37.835938 202.539062 C 37.921875 202.667969 37.761719 202.796875 37.640625 202.734375 C 33.613281 200.746094 30.859375 195.125 29.175781 191.210938 C 27.523438 187.367188 25.25 182.8125 24.730469 178.496094 C 23.15625 175.769531 21.765625 172.949219 20.5625 170.039062 C 15.59375 174.597656 11.667969 180.71875 10.597656 187.40625 C 9.945312 191.492188 10.175781 196.308594 12.554688 199.855469 Z M 360.933594 187.503906 C 356.933594 188.8125 352.871094 189.046875 348.746094 188.214844 C 344.742188 187.269531 340.257812 184.992188 336.074219 185.882812 C 332.832031 186.664062 329.964844 188.167969 327.484375 190.398438 C 325.085938 192.390625 322.683594 194.886719 319.847656 196.261719 C 316.726562 197.78125 313.449219 198.851562 310.445312 200.648438 C 304.171875 204.574219 298.304688 209.039062 292.847656 214.042969 C 296.113281 213.820312 299.308594 212.941406 302.5625 212.507812 C 303.632812 212.363281 304.292969 213.457031 304.394531 214.339844 C 304.796875 217.898438 303.820312 221.335938 302.71875 224.707031 C 309.636719 221.449219 316.554688 218.195312 323.472656 214.9375 C 323.832031 214.070312 324.382812 213.253906 324.867188 212.304688 C 325.804688 210.480469 326.683594 208.636719 327.570312 206.789062 C 329.296875 203.191406 330.964844 199.332031 333.679688 196.359375 C 333.699219 196.339844 333.738281 196.359375 333.726562 196.386719 C 332.117188 200.492188 330.359375 204.515625 328.871094 208.671875 C 328.441406 209.871094 328.035156 211.484375 327.484375 213.046875 C 333.101562 210.40625 338.714844 207.761719 344.328125 205.121094 C 344.609375 204.988281 344.90625 204.910156 345.214844 204.878906 L 345.226562 204.878906 C 352.191406 201.125 355.996094 193.71875 360.933594 187.503906 Z M 368.214844 157.992188 C 358.132812 150.507812 345.4375 151.4375 333.914062 147.289062 C 328.726562 145.492188 324.085938 142.761719 319.992188 139.097656 C 315.855469 135.308594 313.152344 130.308594 309.054688 126.53125 C 298.65625 116.941406 282.335938 122.785156 270.210938 117.316406 C 263.9375 114.496094 259.121094 109.636719 251.910156 109.113281 C 246.199219 108.695312 240.613281 109.742188 234.992188 110.582031 C 235.363281 111.867188 235.496094 113.175781 235.390625 114.507812 C 235.160156 117.851562 236.382812 120.53125 237.078125 123.535156 C 238.746094 123.351562 240.289062 122.804688 241.703125 121.898438 C 242.023438 121.6875 242.351562 121.476562 242.683594 121.273438 C 242.601562 120.445312 242.5625 119.613281 242.570312 118.78125 C 242.476562 117.398438 242.464844 116.019531 242.53125 114.636719 C 242.535156 114.464844 242.59375 114.320312 242.707031 114.195312 C 242.820312 114.070312 242.960938 113.996094 243.128906 113.972656 C 243.296875 113.949219 243.449219 113.984375 243.59375 114.074219 C 243.734375 114.164062 243.832031 114.289062 243.882812 114.453125 C 244.308594 115.863281 244.5625 117.308594 244.644531 118.78125 C 244.695312 119.273438 244.792969 119.785156 244.863281 120.296875 C 245.085938 120.238281 245.3125 120.195312 245.542969 120.167969 C 247.804688 119.933594 250.488281 121.175781 252.625 120.449219 C 254.148438 119.917969 255.671875 119.085938 257.292969 118.910156 C 261.484375 118.445312 265.074219 121.046875 269.339844 120.707031 C 271.371094 120.429688 273.363281 120.609375 275.316406 121.246094 C 277.273438 121.945312 278.710938 123.527344 280.546875 124.429688 C 283.988281 126.128906 288.128906 125.519531 290.980469 128.492188 C 292.402344 129.972656 293.644531 132.046875 295.472656 133.0625 C 297.199219 134.039062 299.039062 134.765625 300.695312 135.875 C 303.410156 137.699219 303.84375 141.003906 305.652344 143.421875 C 306.019531 142.703125 306.441406 142.011719 306.8125 141.34375 C 307.683594 139.804688 308.578125 138.277344 309.417969 136.722656 C 309.757812 136.097656 310.65625 136.644531 310.359375 137.269531 C 309.59375 138.871094 308.761719 140.4375 307.984375 142.03125 C 307.5625 142.890625 307.21875 143.804688 306.820312 144.683594 C 309.519531 147.242188 312.058594 149.140625 312.792969 153.09375 C 313.128906 155.574219 313.988281 157.863281 315.371094 159.953125 C 316.257812 161.234375 317.414062 162.738281 317.699219 164.328125 C 317.941406 166.351562 317.96875 168.375 317.78125 170.40625 C 317.722656 172.65625 318.398438 174.378906 319.046875 176.472656 C 319.378906 177.402344 319.628906 178.351562 319.792969 179.324219 C 320.574219 177.765625 321.375 176.269531 322.078125 174.90625 C 324.71875 169.789062 327.511719 164.621094 331.300781 160.253906 C 331.519531 160 331.898438 160.324219 331.75 160.601562 C 329.046875 165.675781 325.964844 170.527344 323.511719 175.742188 C 322.117188 178.703125 320.773438 181.699219 319.652344 184.773438 C 319.636719 184.816406 319.621094 184.867188 319.601562 184.914062 C 319.582031 185.292969 319.460938 185.640625 319.25 185.953125 C 319.210938 186.066406 319.171875 186.179688 319.136719 186.289062 C 319.339844 186.648438 319.417969 187.035156 319.363281 187.445312 C 319.308594 187.855469 319.132812 188.207031 318.84375 188.496094 C 318.828125 188.511719 318.816406 188.523438 318.800781 188.535156 C 318.804688 188.542969 318.8125 188.558594 318.820312 188.574219 C 319.027344 188.933594 319.105469 189.320312 319.050781 189.734375 C 318.996094 190.144531 318.820312 190.5 318.527344 190.792969 C 318.496094 190.824219 318.460938 190.851562 318.425781 190.875 C 318.621094 191.230469 318.695312 191.609375 318.648438 192.011719 C 318.597656 192.414062 318.433594 192.765625 318.152344 193.058594 C 318.433594 192.890625 318.714844 192.714844 318.976562 192.53125 C 321.597656 190.734375 323.910156 188.542969 326.417969 186.59375 C 331.246094 182.832031 336.800781 181.136719 342.828125 182.765625 C 344.003906 183.082031 345.167969 183.433594 346.324219 183.753906 C 350.550781 179.984375 352.890625 173.96875 356.507812 169.605469 C 360.039062 165.339844 363.570312 161 368.214844 157.992188 Z M 368.214844 157.992188 " fill-opacity="1" fill-rule="nonzero"/></g></svg>