<svg xmlns="http://www.w3.org/2000/svg" xmlns:xlink="http://www.w3.org/1999/xlink" width="500" zoomAndPan="magnify" viewBox="0 0 375 374.999991" height="500" preserveAspectRatio="xMidYMid meet" version="1.0"><defs><clipPath id="ef3b8e479d"><path d="M 42 289 L 188 289 L 188 328.125 L 42 328.125 Z M 42 289 " clip-rule="nonzero"/></clipPath><clipPath id="27f1c89f93"><path d="M 31 46.875 L 344 46.875 L 344 266 L 31 266 Z M 31 46.875 " clip-rule="nonzero"/></clipPath></defs><path fill="#000000" d="M 237.003906 107.804688 C 225.011719 96.898438 206.96875 90.644531 187.511719 90.644531 C 168.058594 90.644531 150.023438 96.898438 138.03125 107.792969 L 129.617188 98.535156 C 143.886719 85.574219 164.992188 78.144531 187.511719 78.144531 C 210.035156 78.144531 231.148438 85.589844 245.414062 98.550781 Z M 237.003906 107.804688 " fill-opacity="1" fill-rule="nonzero"/><path fill="#000000" d="M 187.507812 121.898438 C 158.894531 121.898438 132.109375 113.019531 115.839844 98.140625 L 124.277344 88.910156 C 138.296875 101.742188 161.9375 109.390625 187.507812 109.390625 C 213.078125 109.390625 236.71875 101.734375 250.738281 88.910156 L 259.175781 98.140625 C 242.910156 113.011719 216.117188 121.898438 187.507812 121.898438 Z M 187.507812 121.898438 " fill-opacity="1" fill-rule="nonzero"/><path fill="#000000" d="M 187.507812 303.144531 C 82.371094 303.144531 0.0117188 266.082031 0.0117188 218.769531 C 0.0117188 197.925781 16.304688 178.109375 45.886719 162.957031 L 51.585938 174.078125 C 26.386719 186.988281 12.511719 202.859375 12.511719 218.769531 C 12.511719 257.730469 92.648438 290.648438 187.507812 290.648438 C 282.367188 290.648438 362.503906 257.730469 362.503906 218.769531 C 362.503906 202.859375 348.621094 186.988281 323.40625 174.066406 L 329.105469 162.945312 C 358.699219 178.101562 375.003906 197.933594 375.003906 218.769531 C 375.003906 266.082031 292.640625 303.144531 187.507812 303.144531 Z M 187.507812 303.144531 " fill-opacity="1" fill-rule="nonzero"/><path fill="#000000" d="M 27.199219 293.285156 C 23.371094 291.121094 19.691406 288.832031 16.246094 286.5 L 23.28125 276.160156 C 26.433594 278.304688 29.832031 280.410156 33.363281 282.410156 Z M 27.199219 293.285156 " fill-opacity="1" fill-rule="nonzero"/><g clip-path="url(#ef3b8e479d)"><path fill="#000000" d="M 187.507812 328.144531 C 133.445312 328.144531 80.597656 318.265625 42.519531 301.027344 L 47.675781 289.640625 C 84.199219 306.167969 135.167969 315.644531 187.507812 315.644531 Z M 187.507812 328.144531 " fill-opacity="1" fill-rule="nonzero"/></g><g clip-path="url(#27f1c89f93)"><path fill="#000000" d="M 187.507812 265.648438 C 111.761719 265.648438 31.261719 245.933594 31.261719 209.398438 C 31.261719 207.175781 31.585938 204.9375 32.222656 202.742188 L 63.65625 95.226562 C 71.839844 67.226562 123.929688 46.902344 187.507812 46.902344 C 251.082031 46.902344 303.21875 67.226562 311.355469 95.226562 L 342.789062 202.742188 C 343.4375 204.875 343.75 207.007812 343.75 209.398438 C 343.75 245.933594 263.25 265.648438 187.507812 265.648438 Z M 187.507812 59.398438 C 124.691406 59.398438 81.304688 79.402344 75.65625 98.730469 L 44.222656 206.246094 C 43.917969 207.296875 43.761719 208.363281 43.761719 209.398438 C 43.761719 230.085938 102.792969 253.148438 187.507812 253.148438 C 272.21875 253.148438 331.25 230.085938 331.25 209.398438 C 331.25 208.242188 331.121094 207.34375 330.808594 206.316406 L 299.351562 98.722656 C 293.734375 79.394531 250.367188 59.398438 187.5 59.398438 Z M 187.507812 59.398438 " fill-opacity="1" fill-rule="nonzero"/></g><path fill="#000000" d="M 143.753906 221.898438 C 124.027344 221.898438 121.773438 197.9375 119.777344 176.808594 C 117.78125 155.636719 115.644531 140.648438 106.257812 140.648438 C 101.675781 140.648438 98.007812 149.351562 94.46875 157.777344 C 89.46875 169.632812 83.25 184.398438 68.761719 184.398438 C 55.453125 184.398438 47.148438 165.53125 45.613281 161.742188 L 57.195312 157.046875 C 60 163.910156 65.652344 171.898438 68.753906 171.898438 C 74.507812 171.898438 78.257812 164.035156 82.9375 152.925781 C 87.832031 141.3125 93.375 128.15625 106.25 128.15625 C 127.734375 128.15625 130.113281 153.382812 132.21875 175.636719 C 134.078125 195.402344 136 209.40625 143.753906 209.40625 C 151.015625 209.40625 156.085938 198.152344 160.980469 187.285156 C 166.863281 174.222656 173.53125 159.40625 187.507812 159.40625 C 200.394531 159.40625 206.570312 171.59375 211.535156 181.382812 C 216.289062 190.757812 219.792969 196.90625 225.003906 196.90625 C 231.140625 196.90625 232.855469 191.914062 234.878906 176.917969 C 236.59375 164.257812 238.941406 146.910156 256.25 146.910156 C 267.351562 146.910156 274.183594 153.097656 279.667969 158.0625 C 284.867188 162.769531 288.328125 165.652344 293.746094 165.652344 C 301.078125 165.652344 309.359375 150.574219 312.648438 140.382812 L 324.550781 144.203125 C 323.4375 147.675781 313.109375 178.160156 293.746094 178.160156 C 283.230469 178.160156 276.601562 172.152344 271.277344 167.332031 C 265.855469 162.417969 262.230469 159.40625 256.25 159.40625 C 250.78125 159.40625 249.210938 164.199219 247.265625 178.59375 C 245.503906 191.59375 243.101562 209.40625 225.003906 209.40625 C 211.726562 209.40625 205.441406 197.003906 200.382812 187.039062 C 195.75 177.894531 192.355469 171.90625 187.507812 171.90625 C 181.609375 171.90625 176.917969 182.332031 172.375 192.414062 C 166.15625 206.238281 159.109375 221.902344 143.753906 221.902344 Z M 143.753906 221.898438 " fill-opacity="1" fill-rule="nonzero"/><path fill="#000000" d="M 156.253906 198.453125 L 168.753906 198.453125 L 168.753906 258.707031 L 156.253906 258.707031 Z M 156.253906 198.453125 " fill-opacity="1" fill-rule="nonzero"/><path fill="#000000" d="M 104.75 250.929688 L 111.59375 221.898438 L 123.765625 224.765625 L 116.921875 253.796875 Z M 104.75 250.929688 " fill-opacity="1" fill-rule="nonzero"/><path fill="#000000" d="M 65.082031 239.339844 L 76.28125 197.382812 L 88.351562 200.605469 L 77.148438 242.5625 Z M 65.082031 239.339844 " fill-opacity="1" fill-rule="nonzero"/><path fill="#000000" d="M 206.257812 221.898438 L 218.757812 221.898438 L 218.757812 258.707031 L 206.257812 258.707031 Z M 206.257812 221.898438 " fill-opacity="1" fill-rule="nonzero"/><path fill="#000000" d="M 248.371094 212.558594 L 260.542969 209.695312 L 270.253906 250.957031 L 258.078125 253.824219 Z M 248.371094 212.558594 " fill-opacity="1" fill-rule="nonzero"/><path fill="#000000" d="M 278.898438 171.410156 L 290.96875 168.195312 L 309.925781 239.335938 L 297.855469 242.554688 Z M 278.898438 171.410156 " fill-opacity="1" fill-rule="nonzero"/><path fill="#000000" d="M 93.757812 109.398438 L 81.257812 109.398438 L 81.257812 121.898438 L 93.757812 121.898438 Z M 93.757812 109.398438 " fill-opacity="1" fill-rule="nonzero"/><path fill="#000000" d="M 156.253906 165.648438 L 143.753906 165.648438 L 143.753906 178.148438 L 156.253906 178.148438 Z M 156.253906 165.648438 " fill-opacity="1" fill-rule="nonzero"/><path fill="#000000" d="M 168.761719 134.394531 L 156.253906 134.394531 L 156.253906 146.894531 L 168.761719 146.894531 Z M 168.761719 134.394531 " fill-opacity="1" fill-rule="nonzero"/><path fill="#000000" d="M 225.003906 140.648438 L 212.503906 140.648438 L 212.503906 153.148438 L 225.003906 153.148438 Z M 225.003906 140.648438 " fill-opacity="1" fill-rule="nonzero"/><path fill="#000000" d="M 281.253906 90.652344 L 268.753906 90.652344 L 268.753906 103.152344 L 281.253906 103.152344 Z M 281.253906 90.652344 " fill-opacity="1" fill-rule="nonzero"/><path fill="#000000" d="M 300.007812 134.394531 L 287.507812 134.394531 L 287.507812 146.894531 L 300.007812 146.894531 Z M 300.007812 134.394531 " fill-opacity="1" fill-rule="nonzero"/><path fill="#000000" d="M 268.753906 121.898438 L 256.253906 121.898438 L 256.253906 134.394531 L 268.753906 134.394531 Z M 268.753906 121.898438 " fill-opacity="1" fill-rule="nonzero"/></svg>