<svg xmlns="http://www.w3.org/2000/svg" xmlns:xlink="http://www.w3.org/1999/xlink" width="500" zoomAndPan="magnify" viewBox="0 0 375 374.999991" height="500" preserveAspectRatio="xMidYMid meet" version="1.0"><defs><clipPath id="17c3b4d0c6"><path d="M 261 98 L 340.871094 98 L 340.871094 340.871094 L 261 340.871094 Z M 261 98 " clip-rule="nonzero"/></clipPath><clipPath id="91bcce2a81"><path d="M 34.121094 34.121094 L 272 34.121094 L 272 340.871094 L 34.121094 340.871094 Z M 34.121094 34.121094 " clip-rule="nonzero"/></clipPath></defs><g clip-path="url(#17c3b4d0c6)"><path fill="#000000" d="M 316.316406 247.3125 L 321.082031 128.125 L 321.082031 118.230469 C 321.082031 117.582031 321.050781 116.9375 320.984375 116.289062 C 320.921875 115.644531 320.828125 115.003906 320.699219 114.371094 C 320.574219 113.734375 320.417969 113.105469 320.230469 112.484375 C 320.039062 111.867188 319.824219 111.257812 319.574219 110.65625 C 319.328125 110.058594 319.050781 109.472656 318.746094 108.902344 C 318.4375 108.328125 318.105469 107.773438 317.746094 107.234375 C 317.386719 106.695312 317 106.175781 316.589844 105.675781 C 316.179688 105.175781 315.742188 104.695312 315.285156 104.238281 C 314.828125 103.777344 314.347656 103.34375 313.847656 102.933594 C 313.34375 102.519531 312.824219 102.136719 312.285156 101.777344 C 311.746094 101.414062 311.191406 101.082031 310.621094 100.777344 C 310.046875 100.472656 309.464844 100.195312 308.863281 99.945312 C 308.265625 99.699219 307.65625 99.480469 307.035156 99.292969 C 306.414062 99.105469 305.789062 98.945312 305.152344 98.820312 C 304.515625 98.695312 303.875 98.597656 303.230469 98.535156 C 302.585938 98.472656 301.9375 98.441406 301.289062 98.441406 C 300.644531 98.441406 299.996094 98.472656 299.351562 98.535156 C 298.707031 98.597656 298.066406 98.695312 297.429688 98.820312 C 296.792969 98.945312 296.167969 99.105469 295.546875 99.292969 C 294.925781 99.480469 294.316406 99.699219 293.71875 99.945312 C 293.117188 100.195312 292.535156 100.472656 291.960938 100.777344 C 291.390625 101.082031 290.835938 101.414062 290.296875 101.777344 C 289.757812 102.136719 289.238281 102.519531 288.734375 102.933594 C 288.234375 103.34375 287.753906 103.777344 287.296875 104.238281 C 286.839844 104.695312 286.402344 105.175781 285.992188 105.675781 C 285.582031 106.175781 285.195312 106.695312 284.835938 107.234375 C 284.476562 107.773438 284.144531 108.328125 283.835938 108.902344 C 283.53125 109.472656 283.253906 110.058594 283.007812 110.65625 C 282.757812 111.257812 282.539062 111.867188 282.351562 112.484375 C 282.164062 113.105469 282.007812 113.734375 281.882812 114.371094 C 281.753906 115.003906 281.660156 115.644531 281.597656 116.289062 C 281.53125 116.9375 281.5 117.582031 281.5 118.230469 L 281.5 128.324219 L 286.261719 247.3125 C 285.410156 247.464844 284.566406 247.652344 283.730469 247.875 C 282.898438 248.097656 282.074219 248.359375 281.261719 248.65625 C 280.449219 248.949219 279.652344 249.28125 278.867188 249.644531 C 278.085938 250.011719 277.320312 250.410156 276.570312 250.84375 C 275.820312 251.273438 275.09375 251.738281 274.386719 252.234375 C 273.679688 252.730469 272.992188 253.253906 272.332031 253.8125 C 271.667969 254.367188 271.03125 254.949219 270.421875 255.5625 C 269.808594 256.171875 269.226562 256.808594 268.671875 257.46875 C 268.113281 258.132812 267.589844 258.816406 267.09375 259.523438 C 266.597656 260.234375 266.132812 260.960938 265.699219 261.710938 C 265.265625 262.457031 264.867188 263.222656 264.503906 264.007812 C 264.136719 264.789062 263.804688 265.585938 263.507812 266.398438 C 263.214844 267.210938 262.953125 268.035156 262.730469 268.867188 C 262.503906 269.703125 262.316406 270.546875 262.167969 271.398438 C 262.015625 272.25 261.902344 273.105469 261.824219 273.964844 C 261.75 274.824219 261.710938 275.6875 261.710938 276.554688 L 261.710938 281.429688 C 261.679688 285.058594 261.921875 288.667969 262.429688 292.257812 C 262.9375 295.851562 263.707031 299.382812 264.742188 302.859375 C 265.777344 306.335938 267.0625 309.71875 268.601562 313.003906 C 270.140625 316.289062 271.914062 319.441406 273.921875 322.460938 C 283.609375 336.84375 293.332031 340.871094 301.207031 340.871094 C 303.617188 340.863281 305.976562 340.503906 308.28125 339.792969 C 328.175781 333.730469 340.871094 304.144531 340.871094 286.449219 L 340.871094 276.554688 C 340.871094 275.6875 340.832031 274.824219 340.757812 273.964844 C 340.679688 273.105469 340.566406 272.246094 340.414062 271.398438 C 340.265625 270.546875 340.078125 269.703125 339.851562 268.867188 C 339.628906 268.035156 339.367188 267.210938 339.070312 266.398438 C 338.773438 265.585938 338.445312 264.789062 338.078125 264.003906 C 337.710938 263.222656 337.3125 262.457031 336.882812 261.707031 C 336.449219 260.960938 335.984375 260.230469 335.488281 259.523438 C 334.992188 258.816406 334.464844 258.132812 333.910156 257.46875 C 333.355469 256.808594 332.769531 256.171875 332.160156 255.558594 C 331.546875 254.949219 330.910156 254.367188 330.25 253.808594 C 329.585938 253.253906 328.902344 252.730469 328.191406 252.234375 C 327.484375 251.738281 326.757812 251.273438 326.007812 250.839844 C 325.257812 250.410156 324.492188 250.011719 323.710938 249.644531 C 322.925781 249.28125 322.128906 248.949219 321.316406 248.652344 C 320.503906 248.359375 319.679688 248.097656 318.847656 247.875 C 318.011719 247.648438 317.167969 247.464844 316.316406 247.3125 Z M 330.976562 286.449219 C 330.976562 302.355469 318.929688 326.207031 305.390625 330.34375 C 297.550781 332.738281 289.726562 328.226562 282.140625 316.933594 C 280.40625 314.320312 278.871094 311.589844 277.542969 308.75 C 276.214844 305.90625 275.105469 302.980469 274.214844 299.972656 C 273.320312 296.964844 272.65625 293.90625 272.21875 290.796875 C 271.78125 287.691406 271.578125 284.570312 271.605469 281.429688 L 271.605469 276.554688 C 271.605469 275.90625 271.636719 275.257812 271.699219 274.613281 C 271.765625 273.96875 271.859375 273.328125 271.984375 272.691406 C 272.113281 272.054688 272.269531 271.429688 272.457031 270.808594 C 272.644531 270.1875 272.863281 269.578125 273.113281 268.980469 C 273.359375 268.378906 273.636719 267.796875 273.941406 267.222656 C 274.246094 266.652344 274.582031 266.097656 274.941406 265.558594 C 275.300781 265.019531 275.6875 264.5 276.097656 264 C 276.507812 263.496094 276.945312 263.015625 277.402344 262.558594 C 277.859375 262.101562 278.339844 261.667969 278.839844 261.253906 C 279.34375 260.84375 279.863281 260.457031 280.402344 260.097656 C 280.941406 259.738281 281.496094 259.40625 282.066406 259.097656 C 282.636719 258.792969 283.222656 258.515625 283.824219 258.269531 C 284.421875 258.019531 285.03125 257.804688 285.652344 257.613281 C 286.269531 257.425781 286.898438 257.269531 287.535156 257.144531 C 288.171875 257.015625 288.8125 256.921875 289.457031 256.859375 C 290.101562 256.792969 290.746094 256.761719 291.394531 256.761719 C 291.730469 256.761719 292.058594 256.730469 292.386719 256.664062 C 292.710938 256.597656 293.027344 256.5 293.335938 256.367188 C 293.644531 256.238281 293.933594 256.078125 294.207031 255.886719 C 294.480469 255.699219 294.734375 255.484375 294.964844 255.246094 C 295.195312 255.003906 295.402344 254.742188 295.582031 254.460938 C 295.757812 254.179688 295.90625 253.882812 296.023438 253.570312 C 296.144531 253.261719 296.230469 252.941406 296.28125 252.609375 C 296.335938 252.28125 296.355469 251.949219 296.34375 251.617188 L 291.394531 128.125 L 291.394531 118.230469 C 291.394531 117.582031 291.460938 116.9375 291.585938 116.300781 C 291.710938 115.664062 291.898438 115.042969 292.148438 114.445312 C 292.398438 113.84375 292.703125 113.273438 293.0625 112.734375 C 293.425781 112.191406 293.835938 111.691406 294.292969 111.234375 C 294.753906 110.773438 295.253906 110.363281 295.792969 110.003906 C 296.332031 109.640625 296.902344 109.335938 297.503906 109.089844 C 298.105469 108.839844 298.722656 108.652344 299.359375 108.527344 C 299.996094 108.398438 300.640625 108.335938 301.289062 108.335938 C 301.941406 108.335938 302.585938 108.398438 303.222656 108.527344 C 303.859375 108.652344 304.476562 108.839844 305.078125 109.089844 C 305.679688 109.335938 306.25 109.640625 306.789062 110.003906 C 307.328125 110.363281 307.828125 110.773438 308.289062 111.234375 C 308.746094 111.691406 309.15625 112.191406 309.519531 112.734375 C 309.878906 113.273438 310.183594 113.84375 310.433594 114.445312 C 310.679688 115.042969 310.871094 115.664062 310.996094 116.300781 C 311.121094 116.9375 311.1875 117.582031 311.1875 118.230469 L 311.1875 127.929688 L 306.238281 251.617188 C 306.226562 251.949219 306.246094 252.28125 306.300781 252.609375 C 306.351562 252.941406 306.4375 253.261719 306.558594 253.570312 C 306.675781 253.882812 306.824219 254.179688 307 254.460938 C 307.179688 254.742188 307.382812 255.003906 307.617188 255.246094 C 307.847656 255.484375 308.101562 255.699219 308.375 255.886719 C 308.648438 256.078125 308.9375 256.238281 309.246094 256.367188 C 309.550781 256.5 309.871094 256.597656 310.195312 256.664062 C 310.523438 256.730469 310.851562 256.761719 311.1875 256.761719 C 311.835938 256.761719 312.480469 256.792969 313.125 256.859375 C 313.769531 256.921875 314.410156 257.015625 315.046875 257.144531 C 315.683594 257.269531 316.3125 257.425781 316.929688 257.613281 C 317.550781 257.804688 318.160156 258.019531 318.757812 258.269531 C 319.359375 258.515625 319.945312 258.792969 320.515625 259.097656 C 321.085938 259.40625 321.640625 259.738281 322.179688 260.097656 C 322.71875 260.457031 323.238281 260.84375 323.742188 261.253906 C 324.242188 261.667969 324.722656 262.101562 325.179688 262.558594 C 325.636719 263.015625 326.074219 263.496094 326.484375 264 C 326.894531 264.5 327.28125 265.019531 327.640625 265.558594 C 328 266.097656 328.335938 266.652344 328.640625 267.222656 C 328.945312 267.796875 329.222656 268.378906 329.46875 268.980469 C 329.71875 269.578125 329.9375 270.1875 330.125 270.808594 C 330.3125 271.429688 330.46875 272.054688 330.597656 272.691406 C 330.722656 273.328125 330.816406 273.96875 330.882812 274.613281 C 330.945312 275.257812 330.976562 275.90625 330.976562 276.554688 Z M 330.976562 286.449219 " fill-opacity="1" fill-rule="nonzero"/></g><g clip-path="url(#91bcce2a81)"><path fill="#000000" d="M 261.746094 117.671875 L 258.304688 147.914062 L 244.195312 147.914062 C 244.847656 147.195312 245.460938 146.441406 246.039062 145.660156 C 246.617188 144.878906 247.152344 144.070312 247.652344 143.234375 C 248.148438 142.402344 248.601562 141.542969 249.015625 140.664062 C 249.429688 139.785156 249.796875 138.886719 250.121094 137.96875 C 250.445312 137.054688 250.722656 136.125 250.957031 135.179688 C 251.1875 134.234375 251.375 133.28125 251.511719 132.320312 C 251.652344 131.359375 251.742188 130.390625 251.785156 129.421875 C 251.828125 128.449219 251.824219 127.480469 251.769531 126.507812 C 251.71875 125.539062 251.617188 124.574219 251.46875 123.613281 C 251.320312 122.652344 251.125 121.699219 250.882812 120.757812 C 250.644531 119.816406 250.355469 118.890625 250.023438 117.976562 C 249.6875 117.066406 249.3125 116.171875 248.890625 115.296875 C 248.46875 114.417969 248.003906 113.566406 247.5 112.738281 C 246.992188 111.90625 246.445312 111.105469 245.863281 110.328125 C 245.277344 109.550781 244.65625 108.804688 243.996094 108.089844 C 243.339844 107.375 242.644531 106.695312 241.921875 106.050781 L 241.921875 93.492188 C 241.921875 93.167969 241.886719 92.847656 241.824219 92.527344 C 241.761719 92.207031 241.667969 91.898438 241.542969 91.597656 C 241.417969 91.300781 241.265625 91.015625 241.085938 90.742188 C 240.90625 90.472656 240.699219 90.222656 240.472656 89.992188 C 240.242188 89.765625 239.992188 89.558594 239.722656 89.378906 C 239.449219 89.199219 239.164062 89.046875 238.867188 88.921875 C 238.566406 88.796875 238.257812 88.703125 237.9375 88.640625 C 237.617188 88.578125 237.296875 88.546875 236.972656 88.546875 L 226.523438 88.546875 C 226.71875 87.648438 226.859375 86.746094 226.953125 85.832031 C 227.046875 84.921875 227.085938 84.007812 227.078125 83.089844 C 227.066406 82.175781 227.003906 81.261719 226.894531 80.351562 C 226.78125 79.441406 226.617188 78.542969 226.402344 77.648438 C 226.191406 76.757812 225.925781 75.882812 225.617188 75.019531 C 225.304688 74.160156 224.945312 73.316406 224.539062 72.496094 C 224.132812 71.671875 223.679688 70.878906 223.183594 70.105469 C 222.6875 69.335938 222.152344 68.59375 221.574219 67.882812 C 220.992188 67.171875 220.378906 66.496094 219.722656 65.855469 C 219.066406 65.214844 218.378906 64.613281 217.65625 64.046875 C 216.933594 63.484375 216.183594 62.960938 215.402344 62.480469 C 214.621094 62.003906 213.816406 61.566406 212.984375 61.179688 C 212.15625 60.789062 211.304688 60.449219 210.4375 60.152344 C 209.570312 59.859375 208.6875 59.613281 207.792969 59.417969 C 206.898438 59.226562 205.992188 59.082031 205.082031 58.988281 C 204.171875 58.894531 203.257812 58.851562 202.339844 58.859375 C 201.167969 58.863281 200.007812 58.734375 198.863281 58.472656 C 197.71875 58.214844 196.617188 57.832031 195.5625 57.324219 C 194.503906 56.8125 193.515625 56.195312 192.597656 55.460938 C 191.683594 54.730469 190.859375 53.90625 190.128906 52.988281 C 188.957031 51.515625 187.707031 50.117188 186.378906 48.789062 C 185.050781 47.460938 183.652344 46.210938 182.183594 45.039062 C 180.714844 43.867188 179.183594 42.78125 177.59375 41.78125 C 176 40.78125 174.359375 39.875 172.664062 39.0625 C 170.972656 38.25 169.238281 37.53125 167.464844 36.914062 C 165.691406 36.292969 163.886719 35.777344 162.054688 35.359375 C 160.222656 34.945312 158.371094 34.632812 156.503906 34.425781 C 154.636719 34.21875 152.761719 34.117188 150.882812 34.121094 L 142.96875 34.121094 C 142.417969 34.121094 141.878906 34.210938 141.359375 34.390625 C 140.835938 34.570312 140.359375 34.832031 139.921875 35.171875 C 139.488281 35.511719 139.121094 35.910156 138.820312 36.375 C 138.519531 36.835938 138.304688 37.335938 138.167969 37.871094 C 137.855469 39.117188 137.453125 40.332031 136.96875 41.523438 C 136.480469 42.710938 135.914062 43.859375 135.265625 44.96875 C 134.621094 46.078125 133.898438 47.136719 133.101562 48.140625 C 132.304688 49.148438 131.441406 50.097656 130.511719 50.984375 C 129.582031 51.867188 128.597656 52.6875 127.550781 53.433594 C 126.507812 54.179688 125.417969 54.851562 124.277344 55.445312 C 123.140625 56.039062 121.964844 56.550781 120.757812 56.980469 C 119.546875 57.410156 118.3125 57.753906 117.054688 58.007812 C 114.214844 58.574219 111.347656 58.855469 108.453125 58.859375 L 103.386719 58.859375 C 102.578125 58.859375 101.769531 58.902344 100.964844 58.980469 C 100.15625 59.0625 99.359375 59.179688 98.5625 59.339844 C 97.769531 59.5 96.984375 59.695312 96.210938 59.929688 C 95.433594 60.167969 94.671875 60.441406 93.925781 60.75 C 93.175781 61.0625 92.445312 61.40625 91.730469 61.789062 C 91.019531 62.171875 90.324219 62.585938 89.652344 63.039062 C 88.976562 63.488281 88.328125 63.96875 87.703125 64.484375 C 87.074219 64.996094 86.476562 65.542969 85.902344 66.113281 C 85.332031 66.6875 84.789062 67.285156 84.273438 67.910156 C 83.761719 68.539062 83.277344 69.1875 82.828125 69.859375 C 82.378906 70.535156 81.960938 71.226562 81.578125 71.941406 C 81.199219 72.65625 80.851562 73.386719 80.539062 74.136719 C 80.230469 74.882812 79.957031 75.644531 79.722656 76.417969 C 79.484375 77.195312 79.289062 77.980469 79.128906 78.773438 C 78.972656 79.566406 78.851562 80.367188 78.773438 81.171875 C 78.691406 81.980469 78.652344 82.789062 78.648438 83.597656 C 78.660156 86.28125 79.097656 88.894531 79.96875 91.4375 C 80.835938 93.976562 82.089844 96.3125 83.726562 98.441406 L 83.597656 98.441406 C 82.171875 98.4375 80.753906 98.539062 79.339844 98.738281 C 77.929688 98.941406 76.539062 99.246094 75.171875 99.648438 C 73.800781 100.050781 72.46875 100.550781 71.175781 101.144531 C 69.878906 101.742188 68.632812 102.425781 67.433594 103.203125 C 66.238281 103.976562 65.101562 104.835938 64.03125 105.773438 C 62.957031 106.714844 61.957031 107.726562 61.027344 108.808594 C 60.101562 109.890625 59.257812 111.035156 58.496094 112.242188 C 57.734375 113.449219 57.0625 114.703125 56.480469 116.003906 C 55.898438 117.308594 55.414062 118.644531 55.027344 120.015625 C 54.640625 121.390625 54.351562 122.78125 54.164062 124.195312 C 53.980469 125.609375 53.894531 127.03125 53.914062 128.457031 C 53.929688 129.882812 54.050781 131.300781 54.273438 132.710938 C 54.496094 134.117188 54.820312 135.503906 55.242188 136.867188 C 55.667969 138.226562 56.183594 139.550781 56.800781 140.839844 C 57.414062 142.125 58.117188 143.363281 58.910156 144.546875 C 59.703125 145.734375 60.578125 146.855469 61.53125 147.914062 L 47.421875 147.914062 L 43.957031 117.671875 L 34.132812 118.789062 L 56.097656 311.910156 C 56.210938 312.894531 56.367188 313.875 56.570312 314.84375 C 56.769531 315.816406 57.015625 316.777344 57.304688 317.726562 C 57.59375 318.675781 57.925781 319.609375 58.300781 320.527344 C 58.671875 321.449219 59.089844 322.347656 59.542969 323.230469 C 60 324.109375 60.496094 324.96875 61.03125 325.804688 C 61.566406 326.640625 62.136719 327.449219 62.746094 328.234375 C 63.351562 329.019531 63.996094 329.773438 64.671875 330.5 C 65.347656 331.222656 66.058594 331.917969 66.796875 332.578125 C 67.539062 333.238281 68.308594 333.863281 69.105469 334.457031 C 69.902344 335.046875 70.722656 335.597656 71.570312 336.113281 C 72.417969 336.628906 73.289062 337.105469 74.179688 337.542969 C 75.070312 337.980469 75.980469 338.375 76.90625 338.726562 C 77.835938 339.082031 78.777344 339.390625 79.730469 339.660156 C 80.6875 339.929688 81.652344 340.152344 82.628906 340.332031 C 83.605469 340.511719 84.585938 340.644531 85.574219 340.738281 C 86.5625 340.828125 87.554688 340.871094 88.546875 340.871094 L 217.183594 340.871094 C 218.175781 340.871094 219.164062 340.828125 220.152344 340.738281 C 221.140625 340.644531 222.121094 340.511719 223.097656 340.332031 C 224.074219 340.152344 225.039062 339.929688 225.996094 339.660156 C 226.949219 339.390625 227.890625 339.082031 228.820312 338.726562 C 229.746094 338.375 230.65625 337.980469 231.546875 337.542969 C 232.4375 337.105469 233.308594 336.628906 234.15625 336.113281 C 235.003906 335.597656 235.824219 335.046875 236.621094 334.457031 C 237.417969 333.863281 238.1875 333.238281 238.929688 332.578125 C 239.667969 331.917969 240.378906 331.222656 241.054688 330.5 C 241.730469 329.773438 242.375 329.019531 242.984375 328.234375 C 243.589844 327.449219 244.164062 326.640625 244.695312 325.804688 C 245.230469 324.96875 245.726562 324.109375 246.183594 323.230469 C 246.640625 322.347656 247.054688 321.449219 247.429688 320.527344 C 247.800781 319.609375 248.132812 318.675781 248.421875 317.726562 C 248.710938 316.777344 248.957031 315.816406 249.15625 314.84375 C 249.359375 313.875 249.515625 312.894531 249.628906 311.910156 L 271.570312 118.789062 Z M 202.339844 118.230469 L 182.550781 118.230469 C 181.902344 118.230469 181.253906 118.199219 180.609375 118.136719 C 179.964844 118.070312 179.324219 117.976562 178.6875 117.851562 C 178.050781 117.722656 177.425781 117.566406 176.804688 117.378906 C 176.183594 117.191406 175.574219 116.972656 174.976562 116.722656 C 174.375 116.476562 173.792969 116.199219 173.21875 115.894531 C 172.648438 115.589844 172.09375 115.253906 171.554688 114.894531 C 171.015625 114.535156 170.496094 114.148438 169.996094 113.738281 C 169.492188 113.328125 169.011719 112.890625 168.554688 112.433594 C 168.097656 111.976562 167.660156 111.496094 167.25 110.996094 C 166.839844 110.492188 166.453125 109.972656 166.09375 109.433594 C 165.734375 108.894531 165.402344 108.339844 165.09375 107.769531 C 164.789062 107.199219 164.511719 106.613281 164.265625 106.011719 C 164.015625 105.414062 163.800781 104.804688 163.609375 104.183594 C 163.421875 103.566406 163.265625 102.9375 163.140625 102.300781 C 163.011719 101.664062 162.917969 101.023438 162.855469 100.378906 C 162.789062 99.734375 162.757812 99.089844 162.757812 98.441406 L 162.757812 78.648438 L 182.550781 78.648438 C 183.195312 78.648438 183.84375 78.679688 184.488281 78.746094 C 185.132812 78.808594 185.773438 78.902344 186.410156 79.03125 C 187.046875 79.15625 187.671875 79.3125 188.292969 79.503906 C 188.914062 79.691406 189.523438 79.910156 190.121094 80.15625 C 190.722656 80.40625 191.304688 80.679688 191.878906 80.988281 C 192.449219 81.292969 193.003906 81.625 193.542969 81.984375 C 194.082031 82.34375 194.601562 82.730469 195.105469 83.140625 C 195.605469 83.554688 196.085938 83.988281 196.542969 84.445312 C 197 84.90625 197.4375 85.382812 197.847656 85.886719 C 198.257812 86.386719 198.644531 86.90625 199.003906 87.445312 C 199.363281 87.984375 199.695312 88.539062 200.003906 89.109375 C 200.308594 89.683594 200.585938 90.269531 200.832031 90.867188 C 201.082031 91.464844 201.300781 92.074219 201.488281 92.695312 C 201.675781 93.316406 201.832031 93.945312 201.960938 94.578125 C 202.085938 95.214844 202.179688 95.855469 202.242188 96.5 C 202.308594 97.144531 202.339844 97.792969 202.339844 98.441406 Z M 212.234375 108.335938 C 212.234375 107.6875 212.296875 107.042969 212.425781 106.40625 C 212.550781 105.769531 212.738281 105.148438 212.988281 104.546875 C 213.238281 103.949219 213.542969 103.378906 213.902344 102.835938 C 214.261719 102.296875 214.671875 101.796875 215.132812 101.339844 C 215.59375 100.878906 216.09375 100.46875 216.632812 100.109375 C 217.171875 99.746094 217.742188 99.441406 218.34375 99.195312 C 218.941406 98.945312 219.5625 98.757812 220.199219 98.628906 C 220.835938 98.503906 221.480469 98.441406 222.128906 98.441406 L 232.023438 98.441406 L 232.023438 108.335938 C 232.023438 108.984375 231.960938 109.628906 231.835938 110.265625 C 231.707031 110.902344 231.519531 111.523438 231.273438 112.121094 C 231.023438 112.722656 230.71875 113.292969 230.355469 113.832031 C 229.996094 114.371094 229.585938 114.871094 229.125 115.332031 C 228.667969 115.792969 228.167969 116.203125 227.628906 116.5625 C 227.085938 116.921875 226.515625 117.230469 225.917969 117.476562 C 225.316406 117.726562 224.699219 117.914062 224.058594 118.039062 C 223.421875 118.167969 222.78125 118.230469 222.128906 118.230469 L 212.234375 118.230469 Z M 88.546875 83.597656 C 88.546875 82.621094 88.640625 81.65625 88.832031 80.703125 C 89.019531 79.746094 89.300781 78.816406 89.675781 77.917969 C 90.046875 77.015625 90.503906 76.160156 91.046875 75.351562 C 91.589844 74.539062 92.203125 73.792969 92.890625 73.101562 C 93.582031 72.414062 94.332031 71.796875 95.140625 71.257812 C 95.953125 70.714844 96.808594 70.257812 97.707031 69.882812 C 98.609375 69.511719 99.535156 69.230469 100.492188 69.039062 C 101.449219 68.851562 102.414062 68.753906 103.386719 68.753906 L 108.453125 68.753906 C 112 68.753906 115.511719 68.40625 118.988281 67.710938 C 120.542969 67.394531 122.070312 66.984375 123.570312 66.472656 C 125.074219 65.964844 126.539062 65.359375 127.960938 64.664062 C 129.386719 63.96875 130.761719 63.183594 132.085938 62.3125 C 133.414062 61.441406 134.675781 60.488281 135.882812 59.457031 C 137.085938 58.421875 138.21875 57.316406 139.28125 56.140625 C 140.34375 54.964844 141.328125 53.726562 142.234375 52.421875 C 143.140625 51.121094 143.960938 49.765625 144.691406 48.359375 C 145.425781 46.953125 146.066406 45.503906 146.613281 44.015625 L 150.882812 44.015625 C 153.910156 44.011719 156.902344 44.34375 159.855469 45.011719 C 162.808594 45.683594 165.648438 46.671875 168.375 47.984375 C 171.105469 49.296875 173.652344 50.894531 176.019531 52.785156 C 178.386719 54.671875 180.515625 56.796875 182.402344 59.167969 C 183.59375 60.664062 184.9375 62.011719 186.433594 63.207031 C 187.933594 64.402344 189.542969 65.417969 191.269531 66.246094 C 192.996094 67.078125 194.792969 67.703125 196.664062 68.128906 C 198.53125 68.550781 200.421875 68.757812 202.339844 68.753906 C 202.960938 68.746094 203.578125 68.773438 204.195312 68.84375 C 204.8125 68.910156 205.421875 69.019531 206.023438 69.164062 C 206.628906 69.308594 207.21875 69.496094 207.796875 69.714844 C 208.378906 69.9375 208.941406 70.195312 209.488281 70.488281 C 210.035156 70.78125 210.558594 71.109375 211.066406 71.46875 C 211.570312 71.828125 212.050781 72.21875 212.503906 72.640625 C 212.960938 73.0625 213.386719 73.511719 213.785156 73.988281 C 214.183594 74.464844 214.546875 74.964844 214.882812 75.488281 C 215.21875 76.007812 215.515625 76.550781 215.78125 77.113281 C 216.046875 77.671875 216.277344 78.25 216.46875 78.839844 C 216.660156 79.429688 216.8125 80.027344 216.929688 80.636719 C 217.042969 81.246094 217.121094 81.863281 217.15625 82.480469 C 217.195312 83.101562 217.191406 83.71875 217.148438 84.339844 C 217.109375 84.957031 217.027344 85.574219 216.90625 86.179688 C 216.785156 86.789062 216.628906 87.386719 216.429688 87.976562 C 216.234375 88.566406 216.003906 89.140625 215.734375 89.699219 C 214.222656 90.203125 212.792969 90.878906 211.441406 91.726562 C 211.066406 90.105469 210.554688 88.53125 209.914062 86.996094 C 209.269531 85.460938 208.503906 83.992188 207.613281 82.585938 C 206.726562 81.179688 205.726562 79.859375 204.613281 78.621094 C 203.503906 77.382812 202.296875 76.246094 200.992188 75.210938 C 199.691406 74.175781 198.3125 73.257812 196.855469 72.453125 C 195.398438 71.652344 193.886719 70.972656 192.316406 70.425781 C 190.746094 69.875 189.144531 69.460938 187.503906 69.179688 C 185.863281 68.898438 184.210938 68.757812 182.550781 68.753906 L 157.8125 68.753906 C 157.484375 68.753906 157.164062 68.785156 156.847656 68.851562 C 156.527344 68.914062 156.21875 69.007812 155.917969 69.132812 C 155.617188 69.253906 155.332031 69.40625 155.0625 69.589844 C 154.792969 69.769531 154.542969 69.972656 154.3125 70.203125 C 154.082031 70.433594 153.878906 70.683594 153.699219 70.953125 C 153.515625 71.222656 153.363281 71.507812 153.238281 71.808594 C 153.117188 72.109375 153.023438 72.417969 152.957031 72.738281 C 152.894531 73.054688 152.863281 73.378906 152.863281 73.703125 L 152.863281 98.441406 L 103.386719 98.441406 C 102.414062 98.441406 101.449219 98.34375 100.492188 98.15625 C 99.535156 97.964844 98.609375 97.683594 97.707031 97.308594 C 96.808594 96.9375 95.953125 96.480469 95.140625 95.9375 C 94.332031 95.398438 93.582031 94.78125 92.890625 94.09375 C 92.203125 93.402344 91.589844 92.652344 91.046875 91.84375 C 90.503906 91.035156 90.046875 90.179688 89.675781 89.277344 C 89.300781 88.378906 89.019531 87.449219 88.832031 86.492188 C 88.640625 85.539062 88.546875 84.570312 88.546875 83.597656 Z M 197.390625 157.8125 L 197.390625 147.914062 L 83.597656 147.914062 C 82.949219 147.914062 82.300781 147.882812 81.65625 147.820312 C 81.011719 147.757812 80.371094 147.664062 79.738281 147.535156 C 79.101562 147.410156 78.472656 147.25 77.851562 147.0625 C 77.230469 146.875 76.621094 146.65625 76.023438 146.410156 C 75.425781 146.160156 74.839844 145.882812 74.269531 145.578125 C 73.695312 145.273438 73.140625 144.941406 72.601562 144.582031 C 72.0625 144.21875 71.542969 143.835938 71.042969 143.421875 C 70.542969 143.011719 70.0625 142.578125 69.605469 142.121094 C 69.144531 141.660156 68.710938 141.179688 68.300781 140.679688 C 67.886719 140.179688 67.503906 139.660156 67.140625 139.121094 C 66.78125 138.582031 66.449219 138.027344 66.144531 137.453125 C 65.839844 136.882812 65.5625 136.296875 65.3125 135.699219 C 65.066406 135.101562 64.847656 134.492188 64.660156 133.871094 C 64.472656 133.25 64.3125 132.621094 64.1875 131.988281 C 64.0625 131.351562 63.964844 130.710938 63.902344 130.066406 C 63.839844 129.421875 63.808594 128.773438 63.808594 128.125 C 63.808594 127.476562 63.839844 126.832031 63.902344 126.1875 C 63.964844 125.539062 64.0625 124.902344 64.1875 124.265625 C 64.3125 123.628906 64.472656 123 64.660156 122.378906 C 64.847656 121.761719 65.066406 121.152344 65.3125 120.550781 C 65.5625 119.953125 65.839844 119.367188 66.144531 118.796875 C 66.449219 118.226562 66.78125 117.667969 67.140625 117.128906 C 67.503906 116.59375 67.886719 116.070312 68.300781 115.570312 C 68.710938 115.070312 69.144531 114.589844 69.605469 114.132812 C 70.0625 113.671875 70.542969 113.238281 71.042969 112.828125 C 71.542969 112.417969 72.0625 112.03125 72.601562 111.671875 C 73.140625 111.308594 73.695312 110.976562 74.269531 110.671875 C 74.839844 110.367188 75.425781 110.089844 76.023438 109.839844 C 76.621094 109.59375 77.230469 109.375 77.851562 109.1875 C 78.472656 109 79.101562 108.84375 79.738281 108.714844 C 80.371094 108.589844 81.011719 108.496094 81.65625 108.429688 C 82.300781 108.367188 82.949219 108.335938 83.597656 108.335938 L 154.59375 108.335938 C 155.101562 109.773438 155.71875 111.160156 156.441406 112.503906 C 157.164062 113.847656 157.984375 115.125 158.902344 116.339844 C 159.820312 117.558594 160.828125 118.695312 161.921875 119.757812 C 163.015625 120.816406 164.1875 121.789062 165.429688 122.667969 C 166.675781 123.550781 167.976562 124.328125 169.34375 125.007812 C 170.707031 125.6875 172.113281 126.261719 173.566406 126.722656 C 175.019531 127.1875 176.496094 127.535156 178.003906 127.769531 C 179.511719 128.003906 181.023438 128.125 182.550781 128.125 L 222.128906 128.125 C 223.859375 128.121094 225.558594 127.890625 227.226562 127.4375 C 228.894531 126.988281 230.476562 126.328125 231.972656 125.457031 C 233.46875 124.589844 234.828125 123.542969 236.046875 122.316406 C 237.265625 121.09375 238.308594 119.730469 239.167969 118.230469 C 240.980469 121.28125 241.898438 124.578125 241.921875 128.125 C 241.921875 128.773438 241.886719 129.421875 241.824219 130.066406 C 241.761719 130.710938 241.667969 131.351562 241.539062 131.988281 C 241.414062 132.621094 241.257812 133.25 241.066406 133.871094 C 240.878906 134.492188 240.660156 135.101562 240.414062 135.699219 C 240.164062 136.296875 239.890625 136.882812 239.582031 137.453125 C 239.277344 138.027344 238.945312 138.582031 238.585938 139.121094 C 238.226562 139.660156 237.839844 140.179688 237.429688 140.679688 C 237.015625 141.179688 236.582031 141.660156 236.125 142.121094 C 235.664062 142.578125 235.1875 143.011719 234.683594 143.421875 C 234.183594 143.835938 233.664062 144.21875 233.125 144.582031 C 232.585938 144.941406 232.03125 145.273438 231.457031 145.578125 C 230.886719 145.882812 230.300781 146.160156 229.703125 146.410156 C 229.105469 146.65625 228.496094 146.875 227.875 147.0625 C 227.253906 147.25 226.625 147.410156 225.992188 147.535156 C 225.355469 147.664062 224.714844 147.757812 224.070312 147.820312 C 223.425781 147.882812 222.777344 147.914062 222.128906 147.914062 L 207.285156 147.914062 L 207.285156 157.8125 L 257.183594 157.8125 L 247.289062 244.808594 C 247.003906 243.867188 246.863281 242.902344 246.867188 241.921875 L 246.867188 232.023438 C 246.867188 231.375 246.835938 230.730469 246.773438 230.085938 C 246.707031 229.441406 246.613281 228.800781 246.488281 228.164062 C 246.359375 227.527344 246.203125 226.898438 246.015625 226.28125 C 245.828125 225.660156 245.609375 225.050781 245.359375 224.453125 C 245.113281 223.851562 244.835938 223.265625 244.53125 222.695312 C 244.226562 222.125 243.890625 221.570312 243.53125 221.03125 C 243.171875 220.492188 242.785156 219.972656 242.375 219.46875 C 241.964844 218.96875 241.53125 218.488281 241.070312 218.03125 C 240.613281 217.574219 240.132812 217.136719 239.632812 216.726562 C 239.132812 216.316406 238.609375 215.929688 238.070312 215.570312 C 237.535156 215.210938 236.976562 214.875 236.40625 214.570312 C 235.835938 214.265625 235.25 213.988281 234.652344 213.742188 C 234.050781 213.492188 233.441406 213.273438 232.820312 213.085938 C 232.203125 212.898438 231.574219 212.742188 230.9375 212.613281 C 230.300781 212.488281 229.660156 212.394531 229.015625 212.328125 C 228.371094 212.265625 227.726562 212.234375 227.078125 212.234375 C 226.429688 212.234375 225.78125 212.265625 225.136719 212.328125 C 224.492188 212.394531 223.851562 212.488281 223.214844 212.613281 C 222.582031 212.742188 221.953125 212.898438 221.332031 213.085938 C 220.710938 213.273438 220.101562 213.492188 219.503906 213.742188 C 218.90625 213.988281 218.320312 214.265625 217.75 214.570312 C 217.175781 214.875 216.621094 215.210938 216.082031 215.570312 C 215.542969 215.929688 215.023438 216.316406 214.523438 216.726562 C 214.019531 217.136719 213.542969 217.574219 213.082031 218.03125 C 212.625 218.488281 212.191406 218.96875 211.777344 219.46875 C 211.367188 219.972656 210.980469 220.492188 210.621094 221.03125 C 210.261719 221.570312 209.929688 222.125 209.625 222.695312 C 209.316406 223.265625 209.042969 223.851562 208.792969 224.453125 C 208.546875 225.050781 208.328125 225.660156 208.140625 226.28125 C 207.949219 226.898438 207.792969 227.527344 207.667969 228.164062 C 207.539062 228.800781 207.445312 229.441406 207.382812 230.085938 C 207.320312 230.730469 207.285156 231.375 207.285156 232.023438 L 207.285156 241.921875 C 207.285156 242.570312 207.222656 243.214844 207.097656 243.851562 C 206.96875 244.488281 206.78125 245.105469 206.535156 245.707031 C 206.285156 246.308594 205.980469 246.878906 205.621094 247.417969 C 205.257812 247.957031 204.847656 248.457031 204.390625 248.917969 C 203.929688 249.375 203.429688 249.785156 202.890625 250.148438 C 202.347656 250.507812 201.777344 250.8125 201.179688 251.0625 C 200.578125 251.3125 199.960938 251.5 199.320312 251.625 C 198.683594 251.75 198.042969 251.816406 197.390625 251.816406 C 196.742188 251.816406 196.097656 251.75 195.460938 251.625 C 194.824219 251.5 194.207031 251.3125 193.605469 251.0625 C 193.003906 250.8125 192.433594 250.507812 191.894531 250.148438 C 191.355469 249.785156 190.855469 249.375 190.394531 248.917969 C 189.933594 248.457031 189.523438 247.957031 189.164062 247.417969 C 188.804688 246.878906 188.5 246.308594 188.25 245.707031 C 188 245.105469 187.8125 244.488281 187.6875 243.851562 C 187.558594 243.214844 187.496094 242.570312 187.496094 241.921875 L 187.496094 232.023438 C 187.496094 231.375 187.464844 230.730469 187.402344 230.085938 C 187.335938 229.441406 187.242188 228.800781 187.117188 228.164062 C 186.988281 227.527344 186.832031 226.898438 186.644531 226.28125 C 186.457031 225.660156 186.238281 225.050781 185.988281 224.453125 C 185.742188 223.851562 185.464844 223.265625 185.160156 222.695312 C 184.855469 222.125 184.519531 221.570312 184.160156 221.03125 C 183.800781 220.492188 183.414062 219.972656 183.003906 219.46875 C 182.59375 218.96875 182.160156 218.488281 181.699219 218.03125 C 181.242188 217.574219 180.761719 217.136719 180.261719 216.726562 C 179.761719 216.316406 179.238281 215.929688 178.703125 215.570312 C 178.164062 215.210938 177.605469 214.875 177.035156 214.570312 C 176.464844 214.265625 175.878906 213.988281 175.28125 213.742188 C 174.679688 213.492188 174.070312 213.273438 173.449219 213.085938 C 172.832031 212.898438 172.203125 212.742188 171.566406 212.613281 C 170.929688 212.488281 170.292969 212.394531 169.644531 212.328125 C 169 212.265625 168.355469 212.234375 167.707031 212.234375 C 167.058594 212.234375 166.410156 212.265625 165.765625 212.328125 C 165.121094 212.394531 164.480469 212.488281 163.84375 212.613281 C 163.210938 212.742188 162.582031 212.898438 161.960938 213.085938 C 161.339844 213.273438 160.730469 213.492188 160.132812 213.742188 C 159.535156 213.988281 158.949219 214.265625 158.378906 214.570312 C 157.804688 214.875 157.25 215.210938 156.710938 215.570312 C 156.171875 215.929688 155.652344 216.316406 155.152344 216.726562 C 154.652344 217.136719 154.171875 217.574219 153.710938 218.03125 C 153.253906 218.488281 152.820312 218.96875 152.40625 219.46875 C 151.996094 219.972656 151.609375 220.492188 151.25 221.03125 C 150.890625 221.570312 150.558594 222.125 150.253906 222.695312 C 149.945312 223.265625 149.671875 223.851562 149.421875 224.453125 C 149.175781 225.050781 148.957031 225.660156 148.769531 226.28125 C 148.578125 226.898438 148.421875 227.527344 148.296875 228.164062 C 148.167969 228.800781 148.074219 229.441406 148.011719 230.085938 C 147.949219 230.730469 147.914062 231.375 147.914062 232.023438 L 147.914062 241.921875 C 147.914062 242.570312 147.851562 243.214844 147.726562 243.851562 C 147.597656 244.488281 147.410156 245.105469 147.164062 245.707031 C 146.914062 246.308594 146.609375 246.878906 146.25 247.417969 C 145.886719 247.957031 145.476562 248.457031 145.019531 248.917969 C 144.558594 249.375 144.058594 249.785156 143.519531 250.148438 C 142.976562 250.507812 142.40625 250.8125 141.808594 251.0625 C 141.207031 251.3125 140.589844 251.5 139.953125 251.625 C 139.3125 251.75 138.671875 251.816406 138.019531 251.816406 C 137.371094 251.816406 136.726562 251.75 136.089844 251.625 C 135.453125 251.5 134.835938 251.3125 134.234375 251.0625 C 133.632812 250.8125 133.0625 250.507812 132.523438 250.148438 C 131.984375 249.785156 131.484375 249.375 131.023438 248.917969 C 130.5625 248.457031 130.152344 247.957031 129.792969 247.417969 C 129.433594 246.878906 129.128906 246.308594 128.878906 245.707031 C 128.628906 245.105469 128.441406 244.488281 128.316406 243.851562 C 128.1875 243.214844 128.125 242.570312 128.125 241.921875 L 128.125 232.023438 C 128.125 231.375 128.09375 230.730469 128.03125 230.085938 C 127.96875 229.441406 127.871094 228.800781 127.746094 228.164062 C 127.617188 227.527344 127.460938 226.898438 127.273438 226.28125 C 127.085938 225.660156 126.867188 225.050781 126.621094 224.453125 C 126.371094 223.851562 126.09375 223.265625 125.789062 222.695312 C 125.484375 222.125 125.152344 221.570312 124.789062 221.03125 C 124.429688 220.492188 124.042969 219.972656 123.632812 219.46875 C 123.222656 218.96875 122.789062 218.488281 122.328125 218.03125 C 121.871094 217.574219 121.390625 217.136719 120.890625 216.726562 C 120.390625 216.316406 119.871094 215.929688 119.332031 215.570312 C 118.792969 215.210938 118.234375 214.875 117.664062 214.570312 C 117.09375 214.265625 116.507812 213.988281 115.910156 213.742188 C 115.308594 213.492188 114.699219 213.273438 114.082031 213.085938 C 113.460938 212.898438 112.832031 212.742188 112.195312 212.613281 C 111.558594 212.488281 110.921875 212.394531 110.273438 212.328125 C 109.628906 212.265625 108.984375 212.234375 108.335938 212.234375 C 107.6875 212.234375 107.039062 212.265625 106.394531 212.328125 C 105.75 212.394531 105.109375 212.488281 104.472656 212.613281 C 103.839844 212.742188 103.210938 212.898438 102.589844 213.085938 C 101.96875 213.273438 101.359375 213.492188 100.761719 213.742188 C 100.164062 213.988281 99.578125 214.265625 99.007812 214.570312 C 98.433594 214.875 97.878906 215.210938 97.339844 215.570312 C 96.800781 215.929688 96.28125 216.316406 95.78125 216.726562 C 95.28125 217.136719 94.800781 217.574219 94.339844 218.03125 C 93.882812 218.488281 93.449219 218.96875 93.039062 219.46875 C 92.625 219.972656 92.242188 220.492188 91.878906 221.03125 C 91.519531 221.570312 91.1875 222.125 90.882812 222.695312 C 90.578125 223.265625 90.300781 223.851562 90.050781 224.453125 C 89.804688 225.050781 89.585938 225.660156 89.398438 226.28125 C 89.210938 226.898438 89.050781 227.527344 88.925781 228.164062 C 88.796875 228.800781 88.703125 229.441406 88.640625 230.085938 C 88.578125 230.730469 88.546875 231.375 88.546875 232.023438 L 88.546875 241.921875 C 88.546875 242.570312 88.480469 243.214844 88.355469 243.851562 C 88.226562 244.488281 88.039062 245.105469 87.792969 245.707031 C 87.542969 246.308594 87.238281 246.878906 86.878906 247.417969 C 86.515625 247.957031 86.105469 248.457031 85.648438 248.917969 C 85.1875 249.375 84.6875 249.785156 84.148438 250.148438 C 83.605469 250.507812 83.035156 250.8125 82.4375 251.0625 C 81.835938 251.3125 81.21875 251.5 80.582031 251.625 C 79.941406 251.75 79.300781 251.816406 78.648438 251.816406 C 78 251.816406 77.355469 251.75 76.71875 251.625 C 76.082031 251.5 75.464844 251.3125 74.863281 251.0625 C 74.261719 250.8125 73.691406 250.507812 73.152344 250.148438 C 72.613281 249.785156 72.113281 249.375 71.652344 248.917969 C 71.195312 248.457031 70.785156 247.957031 70.421875 247.417969 C 70.0625 246.878906 69.757812 246.308594 69.507812 245.707031 C 69.257812 245.105469 69.070312 244.488281 68.945312 243.851562 C 68.816406 243.214844 68.753906 242.570312 68.753906 241.921875 L 68.753906 232.023438 C 68.757812 230.976562 68.679688 229.929688 68.519531 228.894531 C 68.355469 227.855469 68.109375 226.839844 67.785156 225.839844 C 67.460938 224.84375 67.054688 223.878906 66.574219 222.945312 C 66.09375 222.011719 65.542969 221.121094 64.921875 220.277344 C 64.296875 219.433594 63.613281 218.640625 62.863281 217.90625 C 62.113281 217.171875 61.308594 216.5 60.453125 215.894531 C 59.59375 215.289062 58.695312 214.753906 57.753906 214.292969 C 56.808594 213.828125 55.835938 213.445312 54.832031 213.140625 L 48.542969 157.8125 Z M 64.851562 301.289062 L 56.21875 225.332031 C 57.0625 226.242188 57.710938 227.273438 58.167969 228.429688 C 58.625 229.585938 58.855469 230.78125 58.859375 232.023438 L 58.859375 241.921875 C 58.859375 242.566406 58.890625 243.214844 58.953125 243.859375 C 59.019531 244.503906 59.113281 245.144531 59.238281 245.78125 C 59.367188 246.417969 59.523438 247.042969 59.710938 247.664062 C 59.898438 248.285156 60.117188 248.894531 60.367188 249.492188 C 60.613281 250.09375 60.890625 250.675781 61.195312 251.25 C 61.5 251.820312 61.835938 252.375 62.195312 252.914062 C 62.554688 253.453125 62.941406 253.972656 63.351562 254.476562 C 63.761719 254.976562 64.199219 255.457031 64.65625 255.914062 C 65.113281 256.371094 65.59375 256.808594 66.09375 257.21875 C 66.597656 257.628906 67.117188 258.015625 67.65625 258.375 C 68.195312 258.734375 68.75 259.066406 69.320312 259.375 C 69.890625 259.679688 70.476562 259.957031 71.078125 260.203125 C 71.675781 260.453125 72.285156 260.671875 72.90625 260.859375 C 73.523438 261.046875 74.152344 261.203125 74.789062 261.328125 C 75.425781 261.457031 76.066406 261.550781 76.710938 261.613281 C 77.355469 261.679688 78 261.710938 78.648438 261.710938 C 79.296875 261.710938 79.945312 261.679688 80.589844 261.613281 C 81.234375 261.550781 81.875 261.457031 82.511719 261.328125 C 83.144531 261.203125 83.773438 261.046875 84.394531 260.859375 C 85.015625 260.671875 85.625 260.453125 86.222656 260.203125 C 86.820312 259.957031 87.40625 259.679688 87.980469 259.375 C 88.550781 259.066406 89.105469 258.734375 89.644531 258.375 C 90.183594 258.015625 90.703125 257.628906 91.203125 257.21875 C 91.707031 256.808594 92.183594 256.371094 92.644531 255.914062 C 93.101562 255.457031 93.535156 254.976562 93.949219 254.476562 C 94.359375 253.972656 94.746094 253.453125 95.105469 252.914062 C 95.464844 252.375 95.796875 251.820312 96.101562 251.25 C 96.410156 250.675781 96.6875 250.09375 96.933594 249.492188 C 97.183594 248.894531 97.398438 248.285156 97.589844 247.664062 C 97.777344 247.042969 97.933594 246.417969 98.058594 245.78125 C 98.1875 245.144531 98.28125 244.503906 98.34375 243.859375 C 98.410156 243.214844 98.441406 242.566406 98.441406 241.921875 L 98.441406 232.023438 C 98.441406 231.375 98.503906 230.730469 98.628906 230.09375 C 98.757812 229.457031 98.945312 228.839844 99.195312 228.238281 C 99.441406 227.636719 99.746094 227.066406 100.109375 226.527344 C 100.46875 225.988281 100.878906 225.488281 101.339844 225.027344 C 101.796875 224.570312 102.296875 224.160156 102.835938 223.796875 C 103.378906 223.4375 103.949219 223.132812 104.546875 222.882812 C 105.148438 222.632812 105.769531 222.445312 106.40625 222.320312 C 107.042969 222.191406 107.6875 222.128906 108.335938 222.128906 C 108.984375 222.128906 109.628906 222.191406 110.265625 222.320312 C 110.902344 222.445312 111.523438 222.632812 112.121094 222.882812 C 112.722656 223.132812 113.292969 223.4375 113.832031 223.796875 C 114.371094 224.160156 114.871094 224.570312 115.332031 225.027344 C 115.792969 225.488281 116.203125 225.988281 116.5625 226.527344 C 116.921875 227.066406 117.230469 227.636719 117.476562 228.238281 C 117.726562 228.839844 117.914062 229.457031 118.039062 230.09375 C 118.167969 230.730469 118.230469 231.375 118.230469 232.023438 L 118.230469 241.921875 C 118.230469 242.566406 118.261719 243.214844 118.324219 243.859375 C 118.390625 244.503906 118.484375 245.144531 118.609375 245.78125 C 118.738281 246.417969 118.894531 247.042969 119.082031 247.664062 C 119.269531 248.285156 119.488281 248.894531 119.738281 249.492188 C 119.984375 250.09375 120.261719 250.675781 120.566406 251.25 C 120.871094 251.820312 121.207031 252.375 121.566406 252.914062 C 121.925781 253.453125 122.3125 253.972656 122.722656 254.476562 C 123.132812 254.976562 123.570312 255.457031 124.027344 255.914062 C 124.484375 256.371094 124.964844 256.808594 125.464844 257.21875 C 125.96875 257.628906 126.488281 258.015625 127.027344 258.375 C 127.566406 258.734375 128.121094 259.066406 128.691406 259.375 C 129.261719 259.679688 129.847656 259.957031 130.449219 260.203125 C 131.046875 260.453125 131.65625 260.671875 132.277344 260.859375 C 132.894531 261.046875 133.523438 261.203125 134.160156 261.328125 C 134.796875 261.457031 135.4375 261.550781 136.082031 261.613281 C 136.726562 261.679688 137.371094 261.710938 138.019531 261.710938 C 138.667969 261.710938 139.316406 261.679688 139.960938 261.613281 C 140.605469 261.550781 141.246094 261.457031 141.882812 261.328125 C 142.515625 261.203125 143.144531 261.046875 143.765625 260.859375 C 144.386719 260.671875 144.996094 260.453125 145.59375 260.203125 C 146.191406 259.957031 146.777344 259.679688 147.351562 259.375 C 147.921875 259.066406 148.476562 258.734375 149.015625 258.375 C 149.554688 258.015625 150.074219 257.628906 150.574219 257.21875 C 151.078125 256.808594 151.554688 256.371094 152.015625 255.914062 C 152.472656 255.457031 152.90625 254.976562 153.320312 254.476562 C 153.730469 253.972656 154.117188 253.453125 154.476562 252.914062 C 154.835938 252.375 155.167969 251.820312 155.472656 251.25 C 155.78125 250.675781 156.054688 250.09375 156.304688 249.492188 C 156.550781 248.894531 156.769531 248.285156 156.957031 247.664062 C 157.148438 247.042969 157.304688 246.417969 157.429688 245.78125 C 157.558594 245.144531 157.652344 244.503906 157.714844 243.859375 C 157.78125 243.214844 157.8125 242.566406 157.8125 241.921875 L 157.8125 232.023438 C 157.8125 231.375 157.875 230.730469 158 230.09375 C 158.128906 229.457031 158.316406 228.839844 158.5625 228.238281 C 158.8125 227.636719 159.117188 227.066406 159.480469 226.527344 C 159.839844 225.988281 160.25 225.488281 160.710938 225.027344 C 161.167969 224.570312 161.667969 224.160156 162.207031 223.796875 C 162.75 223.4375 163.320312 223.132812 163.917969 222.882812 C 164.519531 222.632812 165.136719 222.445312 165.777344 222.320312 C 166.414062 222.191406 167.054688 222.128906 167.707031 222.128906 C 168.355469 222.128906 169 222.191406 169.636719 222.320312 C 170.273438 222.445312 170.894531 222.632812 171.492188 222.882812 C 172.09375 223.132812 172.664062 223.4375 173.203125 223.796875 C 173.742188 224.160156 174.242188 224.570312 174.703125 225.027344 C 175.164062 225.488281 175.574219 225.988281 175.933594 226.527344 C 176.292969 227.066406 176.597656 227.636719 176.847656 228.238281 C 177.097656 228.839844 177.285156 229.457031 177.410156 230.09375 C 177.539062 230.730469 177.601562 231.375 177.601562 232.023438 L 177.601562 241.921875 C 177.601562 242.566406 177.632812 243.214844 177.695312 243.859375 C 177.761719 244.503906 177.855469 245.144531 177.980469 245.78125 C 178.109375 246.417969 178.265625 247.042969 178.453125 247.664062 C 178.640625 248.285156 178.859375 248.894531 179.109375 249.492188 C 179.355469 250.09375 179.632812 250.675781 179.9375 251.25 C 180.242188 251.820312 180.578125 252.375 180.9375 252.914062 C 181.296875 253.453125 181.683594 253.972656 182.09375 254.476562 C 182.503906 254.976562 182.941406 255.457031 183.398438 255.914062 C 183.855469 256.371094 184.335938 256.808594 184.835938 257.21875 C 185.339844 257.628906 185.859375 258.015625 186.398438 258.375 C 186.9375 258.734375 187.492188 259.066406 188.0625 259.375 C 188.632812 259.679688 189.21875 259.957031 189.816406 260.203125 C 190.417969 260.453125 191.027344 260.671875 191.648438 260.859375 C 192.265625 261.046875 192.894531 261.203125 193.53125 261.328125 C 194.167969 261.457031 194.808594 261.550781 195.453125 261.613281 C 196.097656 261.679688 196.742188 261.710938 197.390625 261.710938 C 198.039062 261.710938 198.6875 261.679688 199.332031 261.613281 C 199.976562 261.550781 200.617188 261.457031 201.253906 261.328125 C 201.886719 261.203125 202.515625 261.046875 203.136719 260.859375 C 203.757812 260.671875 204.367188 260.453125 204.964844 260.203125 C 205.5625 259.957031 206.148438 259.679688 206.722656 259.375 C 207.292969 259.066406 207.847656 258.734375 208.386719 258.375 C 208.925781 258.015625 209.445312 257.628906 209.945312 257.21875 C 210.449219 256.808594 210.925781 256.371094 211.386719 255.914062 C 211.84375 255.457031 212.277344 254.976562 212.691406 254.476562 C 213.101562 253.972656 213.488281 253.453125 213.847656 252.914062 C 214.207031 252.375 214.539062 251.820312 214.84375 251.25 C 215.152344 250.675781 215.425781 250.09375 215.675781 249.492188 C 215.921875 248.894531 216.140625 248.285156 216.328125 247.664062 C 216.519531 247.042969 216.675781 246.417969 216.800781 245.78125 C 216.929688 245.144531 217.023438 244.503906 217.085938 243.859375 C 217.148438 243.214844 217.183594 242.566406 217.183594 241.921875 L 217.183594 232.023438 C 217.183594 231.375 217.246094 230.730469 217.371094 230.09375 C 217.5 229.457031 217.6875 228.839844 217.933594 228.238281 C 218.183594 227.636719 218.488281 227.066406 218.851562 226.527344 C 219.210938 225.988281 219.621094 225.488281 220.082031 225.027344 C 220.539062 224.570312 221.039062 224.160156 221.578125 223.796875 C 222.121094 223.4375 222.691406 223.132812 223.289062 222.882812 C 223.890625 222.632812 224.507812 222.445312 225.148438 222.320312 C 225.785156 222.191406 226.425781 222.128906 227.078125 222.128906 C 227.726562 222.128906 228.371094 222.191406 229.007812 222.320312 C 229.644531 222.445312 230.265625 222.632812 230.863281 222.882812 C 231.464844 223.132812 232.035156 223.4375 232.574219 223.796875 C 233.113281 224.160156 233.613281 224.570312 234.074219 225.027344 C 234.535156 225.488281 234.945312 225.988281 235.304688 226.527344 C 235.664062 227.066406 235.96875 227.636719 236.21875 228.238281 C 236.46875 228.839844 236.65625 229.457031 236.78125 230.09375 C 236.910156 230.730469 236.972656 231.375 236.972656 232.023438 L 236.972656 241.921875 C 236.972656 243.542969 237.171875 245.140625 237.566406 246.714844 C 237.960938 248.292969 238.542969 249.792969 239.308594 251.226562 C 240.074219 252.65625 241.003906 253.972656 242.09375 255.175781 C 243.1875 256.375 244.410156 257.425781 245.757812 258.328125 L 240.875 301.289062 Z M 217.183594 330.976562 L 88.546875 330.976562 C 87.175781 330.976562 85.820312 330.855469 84.472656 330.609375 C 83.125 330.363281 81.8125 330 80.53125 329.515625 C 79.253906 329.035156 78.027344 328.441406 76.851562 327.738281 C 75.679688 327.035156 74.578125 326.230469 73.550781 325.328125 C 72.523438 324.421875 71.582031 323.4375 70.734375 322.363281 C 69.882812 321.289062 69.136719 320.152344 68.492188 318.941406 C 67.851562 317.734375 67.320312 316.480469 66.902344 315.175781 C 66.488281 313.875 66.191406 312.542969 66.015625 311.1875 L 239.714844 311.1875 C 239.535156 312.542969 239.242188 313.875 238.824219 315.175781 C 238.40625 316.480469 237.875 317.734375 237.234375 318.941406 C 236.589844 320.152344 235.84375 321.289062 234.992188 322.363281 C 234.144531 323.4375 233.203125 324.421875 232.175781 325.328125 C 231.148438 326.230469 230.046875 327.035156 228.875 327.738281 C 227.703125 328.441406 226.472656 329.035156 225.195312 329.515625 C 223.914062 330 222.601562 330.363281 221.253906 330.609375 C 219.90625 330.855469 218.550781 330.976562 217.183594 330.976562 Z M 217.183594 330.976562 " fill-opacity="1" fill-rule="nonzero"/></g></svg>