<svg xmlns="http://www.w3.org/2000/svg" xmlns:xlink="http://www.w3.org/1999/xlink" width="500" zoomAndPan="magnify" viewBox="0 0 375 374.999991" height="500" preserveAspectRatio="xMidYMid meet" version="1.0"><defs><clipPath id="6720a2e71d"><path d="M 0 217 L 375 217 L 375 336.421875 L 0 336.421875 Z M 0 217 " clip-rule="nonzero"/></clipPath></defs><path fill="#000000" d="M 235.386719 243.363281 C 234.503906 243.359375 233.628906 243.273438 232.757812 243.101562 C 231.890625 242.925781 231.050781 242.671875 230.230469 242.332031 C 229.414062 241.992188 228.640625 241.578125 227.902344 241.085938 C 227.167969 240.59375 226.488281 240.035156 225.863281 239.410156 C 225.234375 238.78125 224.675781 238.101562 224.1875 237.367188 C 223.695312 236.628906 223.277344 235.855469 222.941406 235.035156 C 222.601562 234.21875 222.34375 233.375 222.171875 232.507812 C 221.996094 231.640625 221.910156 230.765625 221.910156 229.878906 L 221.910156 189.785156 C 221.910156 189.226562 221.703125 188.757812 221.289062 188.382812 C 220.875 188.015625 220.390625 187.851562 219.839844 187.886719 C 209.019531 188.699219 199.613281 189.03125 187.335938 189.03125 C 115.5 189.03125 41.195312 171.328125 41.195312 141.707031 C 41.195312 120.824219 80.117188 103.191406 140.363281 96.785156 L 140.707031 96.765625 L 140.746094 103.339844 C 86.128906 109.160156 47.765625 124.949219 47.765625 141.707031 C 47.765625 161.386719 103.847656 182.457031 187.335938 182.457031 C 199.441406 182.457031 208.703125 182.132812 219.304688 181.339844 C 219.886719 181.289062 220.472656 181.300781 221.050781 181.375 C 221.632812 181.445312 222.203125 181.578125 222.757812 181.769531 C 223.3125 181.957031 223.839844 182.203125 224.34375 182.503906 C 224.847656 182.804688 225.3125 183.152344 225.746094 183.550781 C 226.175781 183.945312 226.5625 184.382812 226.902344 184.859375 C 227.242188 185.339844 227.53125 185.84375 227.765625 186.382812 C 228.003906 186.917969 228.179688 187.472656 228.300781 188.046875 C 228.421875 188.621094 228.480469 189.203125 228.480469 189.789062 L 228.480469 229.882812 C 228.484375 230.335938 228.53125 230.78125 228.621094 231.222656 C 228.710938 231.667969 228.84375 232.097656 229.019531 232.511719 C 229.195312 232.929688 229.40625 233.324219 229.660156 233.699219 C 229.914062 234.074219 230.199219 234.417969 230.519531 234.738281 C 230.839844 235.054688 231.1875 235.339844 231.5625 235.589844 C 231.941406 235.839844 232.335938 236.050781 232.753906 236.222656 C 233.171875 236.394531 233.601562 236.527344 234.046875 236.613281 C 234.488281 236.703125 234.9375 236.746094 235.386719 236.746094 C 235.839844 236.746094 236.285156 236.703125 236.730469 236.613281 C 237.171875 236.527344 237.601562 236.394531 238.019531 236.222656 C 238.4375 236.050781 238.835938 235.839844 239.210938 235.589844 C 239.585938 235.339844 239.933594 235.054688 240.253906 234.738281 C 240.574219 234.417969 240.863281 234.074219 241.113281 233.699219 C 241.367188 233.324219 241.582031 232.929688 241.757812 232.511719 C 241.929688 232.097656 242.0625 231.667969 242.15625 231.222656 C 242.246094 230.78125 242.292969 230.335938 242.296875 229.882812 L 242.296875 209.125 C 242.296875 208.550781 242.351562 207.980469 242.464844 207.417969 C 242.574219 206.855469 242.742188 206.308594 242.960938 205.777344 C 243.179688 205.246094 243.449219 204.742188 243.769531 204.265625 C 244.089844 203.785156 244.449219 203.34375 244.855469 202.9375 C 245.261719 202.53125 245.703125 202.171875 246.183594 201.851562 C 246.660156 201.53125 247.164062 201.261719 247.695312 201.042969 C 248.226562 200.824219 248.773438 200.65625 249.335938 200.542969 C 249.898438 200.433594 250.46875 200.375 251.042969 200.375 C 251.617188 200.375 252.183594 200.433594 252.746094 200.542969 C 253.3125 200.65625 253.859375 200.824219 254.386719 201.042969 C 254.917969 201.261719 255.421875 201.53125 255.898438 201.851562 C 256.378906 202.171875 256.820312 202.53125 257.226562 202.9375 C 257.632812 203.34375 257.996094 203.785156 258.3125 204.265625 C 258.632812 204.742188 258.902344 205.246094 259.121094 205.777344 C 259.339844 206.308594 259.507812 206.855469 259.621094 207.417969 C 259.730469 207.980469 259.789062 208.550781 259.789062 209.125 L 259.789062 219.6875 C 259.789062 220.117188 259.828125 220.542969 259.914062 220.960938 C 259.996094 221.382812 260.121094 221.792969 260.285156 222.191406 C 260.449219 222.585938 260.652344 222.964844 260.890625 223.324219 C 261.128906 223.679688 261.398438 224.011719 261.703125 224.3125 C 262.007812 224.617188 262.339844 224.890625 262.695312 225.128906 C 263.054688 225.367188 263.429688 225.570312 263.828125 225.734375 C 264.222656 225.898438 264.632812 226.023438 265.054688 226.105469 C 265.476562 226.1875 265.902344 226.230469 266.332031 226.230469 C 266.761719 226.230469 267.1875 226.1875 267.609375 226.105469 C 268.027344 226.023438 268.4375 225.898438 268.835938 225.734375 C 269.230469 225.570312 269.609375 225.367188 269.964844 225.128906 C 270.324219 224.890625 270.652344 224.617188 270.957031 224.3125 C 271.261719 224.011719 271.53125 223.679688 271.773438 223.324219 C 272.011719 222.964844 272.210938 222.585938 272.375 222.191406 C 272.539062 221.792969 272.664062 221.382812 272.75 220.960938 C 272.832031 220.542969 272.875 220.117188 272.875 219.6875 L 272.875 182.007812 C 272.875 181.410156 272.921875 180.816406 273.019531 180.226562 C 273.117188 179.640625 273.265625 179.0625 273.457031 178.5 C 273.648438 177.933594 273.886719 177.386719 274.167969 176.863281 C 274.449219 176.335938 274.773438 175.835938 275.136719 175.363281 C 275.503906 174.890625 275.902344 174.453125 276.339844 174.046875 C 276.773438 173.636719 277.242188 173.269531 277.738281 172.941406 C 278.234375 172.609375 278.757812 172.324219 279.300781 172.078125 C 279.84375 171.832031 280.40625 171.636719 280.980469 171.484375 L 282.730469 171.023438 C 310.375 163.265625 326.90625 152.300781 326.90625 141.703125 C 326.90625 124.945312 288.542969 109.160156 233.617188 103.320312 L 233.945312 100.222656 L 233.925781 96.765625 L 234.3125 96.78125 C 294.554688 103.1875 333.480469 120.820312 333.480469 141.703125 C 333.480469 155.828125 316.066406 168.492188 284.453125 177.363281 L 282.65625 177.839844 C 282.195312 177.960938 281.765625 178.152344 281.371094 178.414062 C 280.976562 178.679688 280.632812 178.996094 280.339844 179.375 C 280.050781 179.75 279.828125 180.164062 279.675781 180.617188 C 279.523438 181.066406 279.445312 181.527344 279.445312 182.003906 L 279.445312 219.683594 C 279.445312 220.542969 279.363281 221.398438 279.195312 222.242188 C 279.027344 223.085938 278.777344 223.90625 278.449219 224.703125 C 278.117188 225.5 277.714844 226.253906 277.238281 226.972656 C 276.757812 227.6875 276.214844 228.351562 275.605469 228.960938 C 274.996094 229.566406 274.335938 230.113281 273.617188 230.589844 C 272.902344 231.070312 272.144531 231.472656 271.351562 231.804688 C 270.554688 232.132812 269.734375 232.382812 268.890625 232.550781 C 268.046875 232.71875 267.195312 232.800781 266.332031 232.800781 C 265.472656 232.800781 264.617188 232.71875 263.773438 232.550781 C 262.929688 232.382812 262.109375 232.132812 261.3125 231.804688 C 260.519531 231.472656 259.761719 231.070312 259.046875 230.589844 C 258.332031 230.113281 257.667969 229.566406 257.058594 228.960938 C 256.449219 228.351562 255.90625 227.6875 255.429688 226.972656 C 254.949219 226.253906 254.546875 225.5 254.214844 224.703125 C 253.886719 223.90625 253.636719 223.085938 253.46875 222.242188 C 253.300781 221.398438 253.21875 220.542969 253.21875 219.683594 L 253.21875 209.121094 C 253.21875 208.835938 253.164062 208.554688 253.050781 208.289062 C 252.941406 208.023438 252.785156 207.789062 252.582031 207.582031 C 252.375 207.378906 252.140625 207.222656 251.875 207.113281 C 251.609375 207 251.332031 206.945312 251.042969 206.945312 C 250.753906 206.945312 250.476562 207 250.210938 207.113281 C 249.945312 207.222656 249.707031 207.378906 249.503906 207.582031 C 249.300781 207.789062 249.144531 208.023438 249.03125 208.289062 C 248.921875 208.554688 248.867188 208.835938 248.867188 209.121094 L 248.867188 229.878906 C 248.867188 230.765625 248.777344 231.640625 248.605469 232.507812 C 248.433594 233.375 248.175781 234.21875 247.835938 235.035156 C 247.496094 235.855469 247.082031 236.632812 246.589844 237.367188 C 246.097656 238.101562 245.539062 238.785156 244.914062 239.410156 C 244.289062 240.035156 243.609375 240.59375 242.871094 241.085938 C 242.136719 241.578125 241.359375 241.992188 240.542969 242.332031 C 239.726562 242.671875 238.882812 242.925781 238.015625 243.101562 C 237.148438 243.273438 236.273438 243.359375 235.386719 243.363281 Z M 235.386719 243.363281 " fill-opacity="1" fill-rule="nonzero"/><g clip-path="url(#6720a2e71d)"><path fill="#000000" d="M 187.335938 336.582031 C 82.246094 336.582031 -0.0742188 304.792969 -0.0742188 264.207031 C -0.0742188 246.507812 15.226562 230.234375 44.167969 217.140625 L 46.875 223.128906 C 20.835938 234.910156 6.496094 249.496094 6.496094 264.210938 C 6.496094 299.878906 89.308594 330.011719 187.335938 330.011719 C 285.363281 330.011719 368.175781 299.878906 368.175781 264.210938 C 368.175781 249.5 353.835938 234.910156 327.796875 223.128906 L 330.503906 217.140625 C 359.449219 230.234375 374.746094 246.507812 374.746094 264.207031 C 374.746094 304.792969 292.425781 336.582031 187.335938 336.582031 Z M 187.335938 336.582031 " fill-opacity="1" fill-rule="nonzero"/></g><path fill="#000000" d="M 276.9375 215.921875 L 275.382812 209.535156 C 292.589844 205.34375 306.46875 199.90625 315.519531 193.8125 C 320.710938 190.285156 326.90625 184.714844 326.90625 178.222656 C 326.90625 171.761719 320.710938 166.195312 315.511719 162.664062 L 319.199219 157.226562 C 328.675781 163.660156 333.476562 170.722656 333.476562 178.222656 C 333.476562 185.746094 328.675781 192.820312 319.199219 199.253906 C 309.5 205.785156 294.890625 211.546875 276.9375 215.921875 Z M 276.9375 215.921875 " fill-opacity="1" fill-rule="nonzero"/><path fill="#000000" d="M 187.335938 225.546875 C 160.273438 225.738281 133.46875 223.222656 106.917969 217.992188 C 84.636719 213.382812 66.847656 206.90625 55.484375 199.265625 C 45.996094 192.824219 41.191406 185.746094 41.191406 178.222656 C 41.191406 170.722656 45.996094 163.660156 55.46875 157.226562 L 59.160156 162.664062 C 53.960938 166.195312 47.761719 171.761719 47.761719 178.222656 C 47.761719 184.714844 53.960938 190.285156 59.160156 193.820312 C 69.8125 200.980469 86.792969 207.117188 108.253906 211.558594 C 134.363281 216.695312 160.726562 219.167969 187.335938 218.972656 C 200.203125 218.972656 212.84375 218.460938 224.90625 217.457031 L 225.453125 224.007812 C 213.210938 225.027344 200.386719 225.546875 187.335938 225.546875 Z M 187.335938 225.546875 " fill-opacity="1" fill-rule="nonzero"/><path fill="#000000" d="M 107.59375 181.507812 L 107.554688 181.507812 L 107.554688 174.933594 Z M 107.59375 181.507812 " fill-opacity="1" fill-rule="nonzero"/><path fill="#000000" d="M 187.335938 262.117188 C 130.933594 262.117188 79.164062 251.769531 55.441406 235.757812 C 45.988281 229.347656 41.195312 222.289062 41.195312 214.777344 C 41.195312 207.234375 46 200.175781 55.480469 193.792969 L 59.152344 199.246094 C 53.957031 202.742188 47.765625 208.277344 47.765625 214.777344 C 47.765625 219.976562 51.585938 225.203125 59.121094 230.316406 C 81.828125 245.640625 132.15625 255.546875 187.335938 255.546875 C 242.511719 255.546875 292.84375 245.640625 315.550781 230.308594 C 323.085938 225.203125 326.90625 219.976562 326.90625 214.777344 C 326.90625 208.273438 320.714844 202.742188 315.519531 199.246094 L 319.191406 193.792969 C 328.671875 200.175781 333.476562 207.234375 333.476562 214.777344 C 333.476562 222.289062 328.683594 229.347656 319.234375 235.753906 C 295.507812 251.769531 243.734375 262.117188 187.335938 262.117188 Z M 187.335938 262.117188 " fill-opacity="1" fill-rule="nonzero"/><path fill="#000000" d="M 187.335938 298.632812 C 115.5 298.632812 41.195312 280.925781 41.195312 251.292969 C 41.195312 243.78125 45.988281 236.722656 55.4375 230.3125 L 59.125 235.753906 C 51.585938 240.867188 47.765625 246.09375 47.765625 251.292969 C 47.765625 270.980469 103.847656 292.0625 187.335938 292.0625 C 270.824219 292.0625 326.90625 270.980469 326.90625 251.292969 C 326.90625 246.09375 323.085938 240.867188 315.546875 235.753906 L 319.234375 230.3125 C 328.683594 236.722656 333.476562 243.78125 333.476562 251.292969 C 333.476562 280.925781 259.171875 298.632812 187.335938 298.632812 Z M 187.335938 298.632812 " fill-opacity="1" fill-rule="nonzero"/><path fill="#000000" d="M 187.3125 126.914062 C 186.6875 126.914062 186.097656 126.773438 185.539062 126.488281 L 139.6875 103.511719 C 139.003906 103.195312 138.457031 102.722656 138.046875 102.089844 C 137.636719 101.457031 137.425781 100.765625 137.414062 100.011719 C 137.402344 99.257812 137.59375 98.558594 137.984375 97.914062 C 138.375 97.269531 138.90625 96.78125 139.578125 96.441406 L 185.5625 73.441406 C 186.109375 73.167969 186.691406 73.03125 187.300781 73.03125 C 187.914062 73.027344 188.496094 73.164062 189.042969 73.433594 L 235.09375 96.441406 C 235.742188 96.789062 236.261719 97.273438 236.648438 97.902344 C 237.035156 98.527344 237.238281 99.210938 237.257812 99.949219 C 237.257812 100.335938 237.203125 100.714844 237.089844 101.089844 C 236.980469 101.460938 236.816406 101.804688 236.597656 102.128906 C 236.382812 102.453125 236.125 102.734375 235.824219 102.980469 C 235.523438 103.226562 235.195312 103.421875 234.835938 103.570312 L 189.066406 126.5 C 188.515625 126.773438 187.929688 126.910156 187.3125 126.914062 Z M 188.472656 120.605469 L 188.503906 120.621094 Z M 147.253906 99.949219 L 187.316406 120.023438 L 227.425781 99.945312 L 187.316406 79.914062 Z M 232.152344 97.578125 C 232.046875 97.621094 231.945312 97.671875 231.847656 97.730469 Z M 232.152344 97.578125 " fill-opacity="1" fill-rule="nonzero"/><path fill="#000000" d="M 187.308594 151.699219 C 186.691406 151.699219 186.109375 151.5625 185.5625 151.289062 L 139.578125 128.289062 C 138.914062 127.960938 138.382812 127.480469 137.992188 126.847656 C 137.601562 126.214844 137.410156 125.527344 137.414062 124.78125 L 143.984375 124.78125 C 143.976562 124.285156 143.84375 123.820312 143.582031 123.398438 C 143.320312 122.972656 142.96875 122.644531 142.523438 122.414062 L 187.316406 144.816406 L 232.152344 122.410156 C 231.710938 122.640625 231.355469 122.96875 231.09375 123.394531 C 230.832031 123.820312 230.695312 124.28125 230.6875 124.78125 L 237.257812 124.78125 C 237.253906 125.480469 237.074219 126.128906 236.726562 126.734375 C 236.378906 127.339844 235.90625 127.820312 235.304688 128.175781 L 189.066406 151.289062 C 188.511719 151.5625 187.925781 151.699219 187.308594 151.699219 Z M 187.308594 151.699219 " fill-opacity="1" fill-rule="nonzero"/><path fill="#000000" d="M 137.414062 99.945312 L 143.984375 99.945312 L 143.984375 124.78125 L 137.414062 124.78125 Z M 137.414062 99.945312 " fill-opacity="1" fill-rule="nonzero"/><path fill="#000000" d="M 230.675781 99.957031 L 237.246094 99.957031 L 237.246094 124.769531 L 230.675781 124.769531 Z M 230.675781 99.957031 " fill-opacity="1" fill-rule="nonzero"/><path fill="#000000" d="M 74.828125 144.417969 L 70.617188 139.367188 C 73.78125 136.71875 77.148438 134.351562 80.714844 132.273438 L 84.007812 137.960938 C 80.765625 139.851562 77.703125 142.003906 74.828125 144.417969 Z M 74.828125 144.417969 " fill-opacity="1" fill-rule="nonzero"/><path fill="#000000" d="M 89.511719 135.03125 L 86.667969 129.101562 C 97.035156 124.152344 107.941406 121.230469 119.390625 120.332031 L 119.683594 126.898438 C 109.136719 127.789062 99.078125 130.496094 89.511719 135.03125 Z M 89.511719 135.03125 " fill-opacity="1" fill-rule="nonzero"/><path fill="#000000" d="M 90.5625 82.613281 C 89.871094 82.613281 89.179688 82.578125 88.492188 82.507812 C 87.800781 82.441406 87.117188 82.339844 86.441406 82.207031 C 85.761719 82.070312 85.089844 81.902344 84.429688 81.703125 C 83.765625 81.5 83.117188 81.269531 82.476562 81.003906 C 81.839844 80.738281 81.214844 80.441406 80.605469 80.117188 C 79.992188 79.789062 79.402344 79.433594 78.824219 79.050781 C 78.25 78.667969 77.695312 78.253906 77.160156 77.816406 C 76.625 77.378906 76.113281 76.914062 75.625 76.421875 C 75.136719 75.933594 74.671875 75.421875 74.234375 74.886719 C 73.792969 74.351562 73.382812 73.796875 72.996094 73.222656 C 72.613281 72.644531 72.257812 72.054688 71.933594 71.441406 C 71.605469 70.832031 71.308594 70.207031 71.046875 69.570312 C 70.78125 68.929688 70.546875 68.277344 70.347656 67.617188 C 70.144531 66.953125 69.976562 66.285156 69.84375 65.605469 C 69.707031 64.925781 69.605469 64.242188 69.539062 63.554688 C 69.472656 62.867188 69.4375 62.175781 69.4375 61.484375 C 69.4375 60.792969 69.472656 60.101562 69.539062 59.414062 C 69.605469 58.722656 69.707031 58.039062 69.84375 57.359375 C 69.976562 56.683594 70.144531 56.011719 70.347656 55.347656 C 70.546875 54.6875 70.78125 54.035156 71.042969 53.398438 C 71.308594 52.757812 71.605469 52.132812 71.929688 51.523438 C 72.257812 50.914062 72.613281 50.320312 72.996094 49.746094 C 73.382812 49.167969 73.792969 48.613281 74.230469 48.078125 C 74.671875 47.542969 75.132812 47.03125 75.625 46.542969 C 76.113281 46.054688 76.625 45.589844 77.160156 45.148438 C 77.695312 44.710938 78.25 44.300781 78.824219 43.914062 C 79.398438 43.53125 79.992188 43.175781 80.601562 42.847656 C 81.210938 42.523438 81.835938 42.226562 82.476562 41.960938 C 83.113281 41.695312 83.765625 41.464844 84.425781 41.261719 C 85.089844 41.0625 85.761719 40.894531 86.4375 40.757812 C 87.117188 40.625 87.800781 40.523438 88.488281 40.453125 C 89.175781 40.386719 89.867188 40.351562 90.558594 40.351562 C 91.25 40.351562 91.941406 40.386719 92.628906 40.453125 C 93.316406 40.523438 94 40.625 94.679688 40.757812 C 95.359375 40.894531 96.027344 41.0625 96.691406 41.261719 C 97.351562 41.464844 98.003906 41.695312 98.640625 41.960938 C 99.28125 42.226562 99.90625 42.523438 100.515625 42.847656 C 101.125 43.175781 101.71875 43.53125 102.292969 43.914062 C 102.871094 44.296875 103.425781 44.710938 103.960938 45.148438 C 104.496094 45.589844 105.007812 46.050781 105.496094 46.542969 C 105.984375 47.03125 106.449219 47.542969 106.886719 48.078125 C 107.328125 48.613281 107.738281 49.167969 108.121094 49.742188 C 108.507812 50.320312 108.863281 50.910156 109.1875 51.523438 C 109.515625 52.132812 109.808594 52.757812 110.074219 53.394531 C 110.339844 54.035156 110.570312 54.6875 110.773438 55.347656 C 110.972656 56.011719 111.140625 56.679688 111.277344 57.359375 C 111.410156 58.039062 111.511719 58.722656 111.582031 59.410156 C 111.648438 60.101562 111.683594 60.789062 111.683594 61.480469 C 111.679688 62.175781 111.648438 62.863281 111.578125 63.550781 C 111.507812 64.242188 111.40625 64.925781 111.273438 65.601562 C 111.136719 66.28125 110.96875 66.949219 110.765625 67.613281 C 110.566406 68.273438 110.332031 68.925781 110.066406 69.5625 C 109.800781 70.203125 109.507812 70.828125 109.179688 71.4375 C 108.855469 72.046875 108.5 72.640625 108.113281 73.214844 C 107.730469 73.789062 107.320312 74.34375 106.878906 74.878906 C 106.441406 75.414062 105.976562 75.925781 105.488281 76.414062 C 105 76.902344 104.488281 77.367188 103.953125 77.808594 C 103.417969 78.246094 102.863281 78.65625 102.289062 79.042969 C 101.714844 79.425781 101.121094 79.78125 100.511719 80.109375 C 99.902344 80.433594 99.277344 80.730469 98.640625 80.996094 C 98 81.261719 97.351562 81.496094 96.6875 81.695312 C 96.027344 81.898438 95.359375 82.066406 94.679688 82.199219 C 94 82.335938 93.320312 82.4375 92.628906 82.507812 C 91.941406 82.574219 91.253906 82.609375 90.5625 82.613281 Z M 90.5625 46.925781 C 89.605469 46.925781 88.660156 47.019531 87.722656 47.207031 C 86.785156 47.390625 85.875 47.667969 84.992188 48.035156 C 84.109375 48.398438 83.269531 48.847656 82.476562 49.378906 C 81.683594 49.910156 80.945312 50.511719 80.269531 51.1875 C 79.59375 51.863281 78.992188 52.601562 78.460938 53.394531 C 77.929688 54.1875 77.480469 55.027344 77.117188 55.910156 C 76.75 56.792969 76.472656 57.703125 76.289062 58.640625 C 76.101562 59.578125 76.007812 60.527344 76.007812 61.480469 C 76.007812 62.4375 76.101562 63.382812 76.289062 64.320312 C 76.472656 65.257812 76.75 66.167969 77.117188 67.050781 C 77.480469 67.933594 77.929688 68.773438 78.460938 69.570312 C 78.992188 70.363281 79.59375 71.097656 80.269531 71.773438 C 80.945312 72.449219 81.679688 73.054688 82.476562 73.585938 C 83.269531 74.117188 84.109375 74.566406 84.992188 74.929688 C 85.875 75.296875 86.78125 75.570312 87.71875 75.757812 C 88.65625 75.945312 89.605469 76.039062 90.558594 76.039062 C 91.515625 76.039062 92.460938 75.945312 93.398438 75.757812 C 94.335938 75.574219 95.246094 75.296875 96.128906 74.929688 C 97.011719 74.566406 97.847656 74.117188 98.644531 73.585938 C 99.4375 73.054688 100.171875 72.449219 100.847656 71.773438 C 101.523438 71.097656 102.128906 70.363281 102.660156 69.570312 C 103.191406 68.773438 103.636719 67.9375 104.003906 67.054688 C 104.371094 66.167969 104.644531 65.257812 104.832031 64.320312 C 105.019531 63.382812 105.109375 62.4375 105.109375 61.480469 C 105.109375 60.527344 105.015625 59.582031 104.828125 58.644531 C 104.640625 57.707031 104.363281 56.796875 104 55.914062 C 103.632812 55.03125 103.183594 54.195312 102.652344 53.398438 C 102.121094 52.605469 101.519531 51.871094 100.84375 51.195312 C 100.167969 50.519531 99.433594 49.917969 98.640625 49.386719 C 97.847656 48.855469 97.007812 48.40625 96.125 48.039062 C 95.246094 47.671875 94.335938 47.394531 93.398438 47.207031 C 92.460938 47.023438 91.515625 46.925781 90.5625 46.925781 Z M 90.5625 46.925781 " fill-opacity="1" fill-rule="nonzero"/><path fill="#000000" d="M 361.910156 189.558594 C 361.910156 190.015625 361.867188 190.46875 361.777344 190.917969 C 361.6875 191.363281 361.554688 191.800781 361.382812 192.222656 C 361.207031 192.644531 360.992188 193.046875 360.738281 193.425781 C 360.484375 193.804688 360.195312 194.15625 359.875 194.480469 C 359.550781 194.804688 359.199219 195.089844 358.820312 195.347656 C 358.4375 195.601562 358.039062 195.8125 357.617188 195.988281 C 357.195312 196.164062 356.757812 196.296875 356.308594 196.386719 C 355.863281 196.472656 355.410156 196.519531 354.953125 196.519531 C 354.496094 196.519531 354.042969 196.472656 353.59375 196.386719 C 353.148438 196.296875 352.710938 196.164062 352.289062 195.988281 C 351.867188 195.8125 351.46875 195.601562 351.085938 195.347656 C 350.707031 195.089844 350.355469 194.804688 350.03125 194.480469 C 349.710938 194.15625 349.421875 193.804688 349.167969 193.425781 C 348.914062 193.046875 348.699219 192.644531 348.523438 192.222656 C 348.347656 191.800781 348.21875 191.363281 348.128906 190.917969 C 348.039062 190.46875 347.996094 190.015625 347.996094 189.558594 C 347.996094 189.101562 348.039062 188.648438 348.128906 188.199219 C 348.21875 187.75 348.347656 187.316406 348.523438 186.894531 C 348.699219 186.472656 348.914062 186.070312 349.167969 185.691406 C 349.421875 185.3125 349.710938 184.960938 350.03125 184.636719 C 350.355469 184.3125 350.707031 184.023438 351.085938 183.769531 C 351.46875 183.515625 351.867188 183.300781 352.289062 183.128906 C 352.710938 182.953125 353.148438 182.820312 353.59375 182.730469 C 354.042969 182.640625 354.496094 182.597656 354.953125 182.597656 C 355.410156 182.597656 355.863281 182.640625 356.308594 182.730469 C 356.757812 182.820312 357.195312 182.953125 357.617188 183.128906 C 358.039062 183.300781 358.4375 183.515625 358.820312 183.769531 C 359.199219 184.023438 359.550781 184.3125 359.875 184.636719 C 360.195312 184.960938 360.484375 185.3125 360.738281 185.691406 C 360.992188 186.070312 361.207031 186.472656 361.382812 186.894531 C 361.554688 187.316406 361.6875 187.75 361.777344 188.199219 C 361.867188 188.648438 361.910156 189.101562 361.910156 189.558594 Z M 361.910156 189.558594 " fill-opacity="1" fill-rule="nonzero"/><path fill="#000000" d="M 24.089844 150.304688 C 24.089844 150.761719 24.042969 151.214844 23.953125 151.664062 C 23.863281 152.109375 23.734375 152.546875 23.558594 152.96875 C 23.382812 153.390625 23.167969 153.792969 22.914062 154.171875 C 22.660156 154.550781 22.371094 154.902344 22.050781 155.226562 C 21.726562 155.550781 21.375 155.839844 20.996094 156.09375 C 20.617188 156.347656 20.214844 156.5625 19.792969 156.734375 C 19.371094 156.910156 18.933594 157.042969 18.488281 157.132812 C 18.039062 157.222656 17.585938 157.265625 17.128906 157.265625 C 16.671875 157.265625 16.21875 157.222656 15.773438 157.132812 C 15.324219 157.042969 14.890625 156.910156 14.464844 156.734375 C 14.042969 156.5625 13.644531 156.347656 13.261719 156.09375 C 12.882812 155.839844 12.53125 155.550781 12.210938 155.226562 C 11.886719 154.902344 11.597656 154.550781 11.34375 154.171875 C 11.089844 153.792969 10.875 153.390625 10.699219 152.96875 C 10.527344 152.546875 10.394531 152.109375 10.304688 151.664062 C 10.214844 151.214844 10.171875 150.761719 10.171875 150.304688 C 10.171875 149.847656 10.214844 149.394531 10.304688 148.945312 C 10.394531 148.5 10.527344 148.0625 10.699219 147.640625 C 10.875 147.21875 11.089844 146.816406 11.34375 146.4375 C 11.597656 146.058594 11.886719 145.707031 12.210938 145.382812 C 12.53125 145.058594 12.882812 144.769531 13.261719 144.515625 C 13.644531 144.261719 14.042969 144.050781 14.464844 143.875 C 14.890625 143.699219 15.324219 143.566406 15.773438 143.476562 C 16.21875 143.390625 16.671875 143.34375 17.128906 143.34375 C 17.585938 143.34375 18.039062 143.390625 18.488281 143.476562 C 18.933594 143.566406 19.371094 143.699219 19.792969 143.875 C 20.214844 144.050781 20.617188 144.261719 20.996094 144.515625 C 21.375 144.769531 21.726562 145.058594 22.050781 145.382812 C 22.371094 145.707031 22.660156 146.058594 22.914062 146.4375 C 23.167969 146.816406 23.382812 147.21875 23.558594 147.640625 C 23.734375 148.0625 23.863281 148.5 23.953125 148.945312 C 24.042969 149.394531 24.089844 149.847656 24.089844 150.304688 Z M 24.089844 150.304688 " fill-opacity="1" fill-rule="nonzero"/><path fill="#000000" d="M 255.316406 54.957031 L 261.886719 54.957031 L 261.886719 83.601562 L 255.316406 83.601562 Z M 255.316406 54.957031 " fill-opacity="1" fill-rule="nonzero"/><path fill="#000000" d="M 244.285156 65.988281 L 272.921875 65.988281 L 272.921875 72.5625 L 244.285156 72.5625 Z M 244.285156 65.988281 " fill-opacity="1" fill-rule="nonzero"/></svg>