<svg xmlns="http://www.w3.org/2000/svg" xmlns:xlink="http://www.w3.org/1999/xlink" width="500" zoomAndPan="magnify" viewBox="0 0 375 374.999991" height="500" preserveAspectRatio="xMidYMid meet" version="1.0"><defs><clipPath id="9317ad2e98"><path d="M 2 189 L 373 189 L 373 363.382812 L 2 363.382812 Z M 2 189 " clip-rule="nonzero"/></clipPath><clipPath id="63d34795f3"><path d="M 141 55.132812 L 178 55.132812 L 178 161 L 141 161 Z M 141 55.132812 " clip-rule="nonzero"/></clipPath><clipPath id="496a0823f1"><path d="M 194 55.132812 L 231 55.132812 L 231 161 L 194 161 Z M 194 55.132812 " clip-rule="nonzero"/></clipPath><clipPath id="adf39464e8"><path d="M 246 55.132812 L 283 55.132812 L 283 160 L 246 160 Z M 246 55.132812 " clip-rule="nonzero"/></clipPath></defs><g clip-path="url(#9317ad2e98)"><path fill="#000000" d="M 371.101562 296.371094 C 365.933594 269.09375 342.492188 241.714844 306.785156 221.253906 C 271.71875 201.164062 228.242188 189.640625 187.5 189.640625 C 146.757812 189.640625 103.28125 201.164062 68.214844 221.253906 C 32.507812 241.714844 9.066406 269.09375 3.898438 296.371094 C -0.0078125 316.992188 2.964844 333.421875 12.726562 345.199219 C 22.492188 356.976562 38.398438 363.214844 58.710938 363.214844 L 242.644531 363.214844 C 243.023438 363.214844 243.398438 363.175781 243.773438 363.101562 C 244.144531 363.027344 244.507812 362.917969 244.859375 362.773438 C 245.210938 362.628906 245.542969 362.449219 245.859375 362.238281 C 246.175781 362.027344 246.46875 361.789062 246.738281 361.519531 C 247.003906 361.25 247.246094 360.957031 247.457031 360.640625 C 247.667969 360.328125 247.847656 359.992188 247.992188 359.640625 C 248.136719 359.289062 248.246094 358.929688 248.320312 358.554688 C 248.394531 358.183594 248.433594 357.808594 248.433594 357.429688 C 248.433594 357.046875 248.394531 356.671875 248.320312 356.300781 C 248.246094 355.925781 248.136719 355.566406 247.992188 355.214844 C 247.847656 354.863281 247.667969 354.53125 247.457031 354.214844 C 247.246094 353.898438 247.003906 353.605469 246.738281 353.335938 C 246.46875 353.066406 246.175781 352.828125 245.859375 352.617188 C 245.542969 352.40625 245.210938 352.226562 244.859375 352.082031 C 244.507812 351.9375 244.144531 351.828125 243.773438 351.753906 C 243.398438 351.679688 243.023438 351.640625 242.644531 351.640625 L 58.710938 351.640625 C 37.546875 351.640625 26.871094 344.121094 21.644531 337.816406 C 14.183594 328.820312 12.042969 315.597656 15.277344 298.523438 C 21.5 265.667969 57.871094 234.710938 104.515625 216.871094 C 101.21875 219.75 98.007812 222.710938 94.886719 225.746094 C 85.398438 235.117188 77.433594 245.632812 70.992188 257.304688 C 70.730469 257.808594 70.496094 258.324219 70.285156 258.851562 C 70.078125 259.378906 69.894531 259.914062 69.738281 260.457031 C 69.578125 261.003906 69.449219 261.554688 69.347656 262.113281 C 69.242188 262.667969 69.167969 263.230469 69.121094 263.796875 C 69.074219 264.359375 69.050781 264.925781 69.058594 265.492188 C 69.066406 266.058594 69.101562 266.625 69.164062 267.1875 C 69.230469 267.75 69.320312 268.308594 69.4375 268.863281 C 69.554688 269.417969 69.699219 269.96875 69.871094 270.507812 C 70.042969 271.046875 70.238281 271.578125 70.464844 272.101562 C 70.6875 272.621094 70.933594 273.128906 71.207031 273.625 C 71.480469 274.125 71.777344 274.605469 72.097656 275.074219 C 72.421875 275.539062 72.761719 275.992188 73.128906 276.425781 C 73.492188 276.859375 73.878906 277.273438 74.285156 277.671875 C 74.6875 278.066406 75.113281 278.441406 75.554688 278.796875 C 75.996094 279.152344 76.457031 279.484375 76.929688 279.796875 C 77.40625 280.105469 77.894531 280.390625 78.398438 280.652344 C 78.902344 280.914062 79.417969 281.152344 79.941406 281.363281 C 80.46875 281.574219 81.003906 281.761719 81.546875 281.921875 C 82.09375 282.078125 82.644531 282.210938 83.199219 282.316406 C 83.757812 282.421875 84.320312 282.5 84.882812 282.550781 C 85.449219 282.601562 86.015625 282.621094 86.582031 282.617188 C 87.148438 282.613281 87.714844 282.578125 88.28125 282.519531 C 88.84375 282.460938 89.402344 282.371094 89.957031 282.253906 C 90.515625 282.140625 91.0625 282 91.605469 281.828125 C 92.144531 281.660156 92.675781 281.464844 93.199219 281.246094 C 93.722656 281.023438 94.234375 280.777344 94.730469 280.507812 C 95.230469 280.234375 95.710938 279.941406 96.183594 279.621094 C 96.652344 279.304688 97.105469 278.960938 97.539062 278.601562 C 97.976562 278.238281 98.394531 277.855469 98.792969 277.449219 C 99.191406 277.046875 99.566406 276.625 99.925781 276.183594 C 100.28125 275.742188 100.617188 275.285156 100.929688 274.8125 C 101.238281 274.339844 101.527344 273.851562 101.792969 273.351562 C 106.539062 264.957031 112.328125 257.363281 119.171875 250.570312 C 120.402344 249.367188 121.683594 248.152344 122.980469 246.957031 C 123.265625 246.703125 123.519531 246.421875 123.746094 246.113281 C 123.976562 245.808594 124.167969 245.480469 124.332031 245.136719 C 124.496094 244.789062 124.621094 244.433594 124.714844 244.0625 C 124.808594 243.691406 124.859375 243.316406 124.878906 242.933594 C 124.894531 242.550781 124.875 242.171875 124.816406 241.796875 C 124.761719 241.417969 124.667969 241.050781 124.535156 240.691406 C 124.40625 240.332031 124.242188 239.988281 124.042969 239.664062 C 123.84375 239.335938 123.613281 239.035156 123.355469 238.753906 C 123.097656 238.472656 122.8125 238.21875 122.503906 237.996094 C 122.195312 237.769531 121.867188 237.578125 121.523438 237.417969 C 121.175781 237.257812 120.816406 237.132812 120.445312 237.042969 C 120.074219 236.953125 119.695312 236.902344 119.316406 236.886719 C 118.933594 236.875 118.554688 236.898438 118.175781 236.957031 C 117.800781 237.019531 117.433594 237.113281 117.074219 237.25 C 116.714844 237.382812 116.375 237.546875 116.050781 237.75 C 115.726562 237.949219 115.421875 238.179688 115.144531 238.441406 C 113.757812 239.714844 112.394531 241.011719 111.078125 242.296875 C 103.34375 249.921875 96.835938 258.476562 91.546875 267.960938 C 91.300781 268.433594 90.996094 268.859375 90.632812 269.246094 C 90.269531 269.632812 89.859375 269.960938 89.40625 270.238281 C 88.949219 270.511719 88.46875 270.71875 87.957031 270.859375 C 87.445312 271.003906 86.925781 271.074219 86.394531 271.070312 C 85.453125 271.074219 84.566406 270.855469 83.734375 270.414062 C 83.398438 270.242188 83.082031 270.035156 82.789062 269.796875 C 82.492188 269.558594 82.222656 269.296875 81.976562 269.007812 C 81.734375 268.714844 81.519531 268.40625 81.339844 268.074219 C 81.15625 267.742188 81.007812 267.394531 80.894531 267.035156 C 80.777344 266.671875 80.699219 266.304688 80.660156 265.925781 C 80.617188 265.550781 80.609375 265.175781 80.644531 264.796875 C 80.675781 264.417969 80.742188 264.046875 80.847656 263.683594 C 80.953125 263.320312 81.09375 262.96875 81.265625 262.632812 C 87.121094 252.050781 94.359375 242.511719 102.976562 234.023438 C 113.195312 224.054688 124.253906 215.121094 136.148438 207.222656 C 147.023438 204.695312 158.023438 202.957031 169.148438 202 C 156.730469 208.160156 144.894531 215.285156 133.640625 223.375 C 133.332031 223.597656 133.050781 223.847656 132.792969 224.128906 C 132.535156 224.40625 132.308594 224.707031 132.109375 225.03125 C 131.910156 225.355469 131.746094 225.695312 131.613281 226.054688 C 131.480469 226.410156 131.386719 226.773438 131.328125 227.148438 C 131.269531 227.523438 131.246094 227.902344 131.261719 228.28125 C 131.273438 228.660156 131.328125 229.035156 131.414062 229.40625 C 131.503906 229.773438 131.628906 230.128906 131.785156 230.476562 C 131.945312 230.820312 132.136719 231.148438 132.359375 231.453125 C 132.582031 231.761719 132.835938 232.042969 133.113281 232.300781 C 133.390625 232.558594 133.691406 232.789062 134.015625 232.988281 C 134.339844 233.183594 134.679688 233.351562 135.039062 233.480469 C 135.394531 233.613281 135.757812 233.710938 136.132812 233.769531 C 136.511719 233.828125 136.886719 233.851562 137.265625 233.835938 C 137.648438 233.824219 138.019531 233.773438 138.390625 233.683594 C 138.761719 233.59375 139.117188 233.472656 139.464844 233.3125 C 139.808594 233.15625 140.136719 232.964844 140.441406 232.742188 C 158.664062 219.691406 178.289062 209.292969 199.324219 201.546875 C 203.117188 201.753906 206.902344 202.058594 210.679688 202.464844 C 201.613281 207.867188 193.082031 214.019531 185.09375 220.917969 C 175.363281 229.472656 166.765625 239.050781 159.308594 249.644531 C 158.996094 250.113281 158.710938 250.601562 158.445312 251.097656 C 158.183594 251.597656 157.945312 252.109375 157.730469 252.632812 C 157.519531 253.15625 157.332031 253.6875 157.171875 254.226562 C 157.007812 254.769531 156.875 255.316406 156.765625 255.871094 C 156.65625 256.425781 156.578125 256.984375 156.523438 257.546875 C 156.46875 258.105469 156.445312 258.671875 156.445312 259.234375 C 156.449219 259.800781 156.476562 260.363281 156.535156 260.925781 C 156.589844 261.484375 156.671875 262.042969 156.785156 262.597656 C 156.894531 263.152344 157.03125 263.699219 157.199219 264.238281 C 157.363281 264.777344 157.550781 265.308594 157.769531 265.832031 C 157.984375 266.351562 158.226562 266.863281 158.492188 267.359375 C 158.757812 267.859375 159.046875 268.339844 159.359375 268.8125 C 159.671875 269.28125 160.007812 269.734375 160.367188 270.171875 C 160.722656 270.609375 161.101562 271.027344 161.5 271.429688 C 161.898438 271.828125 162.316406 272.207031 162.75 272.566406 C 163.1875 272.925781 163.636719 273.265625 164.105469 273.582031 C 164.574219 273.894531 165.058594 274.1875 165.554688 274.457031 C 166.050781 274.726562 166.558594 274.96875 167.082031 275.1875 C 167.601562 275.40625 168.132812 275.597656 168.671875 275.765625 C 169.210938 275.933594 169.757812 276.074219 170.3125 276.1875 C 170.863281 276.300781 171.421875 276.386719 171.984375 276.449219 C 172.542969 276.507812 173.109375 276.539062 173.671875 276.542969 C 174.238281 276.546875 174.800781 276.527344 175.363281 276.476562 C 175.925781 276.425781 176.484375 276.347656 177.039062 276.242188 C 177.597656 276.136719 178.144531 276.007812 178.6875 275.847656 C 179.230469 275.6875 179.761719 275.503906 180.285156 275.292969 C 180.808594 275.085938 181.324219 274.847656 181.824219 274.589844 C 182.324219 274.328125 182.8125 274.042969 183.285156 273.734375 C 183.757812 273.429688 184.21875 273.097656 184.660156 272.746094 C 185.097656 272.394531 185.523438 272.019531 185.925781 271.625 C 186.332031 271.230469 186.714844 270.820312 187.082031 270.386719 C 187.445312 269.957031 187.789062 269.507812 188.109375 269.042969 C 193.894531 260.96875 200.503906 253.640625 207.949219 247.058594 C 217.261719 238.925781 228.964844 231.332031 242.730469 224.496094 C 243.074219 224.328125 243.398438 224.128906 243.703125 223.894531 C 244.003906 223.664062 244.285156 223.40625 244.535156 223.121094 C 244.789062 222.832031 245.011719 222.523438 245.203125 222.195312 C 245.394531 221.863281 245.550781 221.519531 245.671875 221.15625 C 245.796875 220.796875 245.882812 220.425781 245.933594 220.046875 C 245.980469 219.667969 245.996094 219.289062 245.96875 218.910156 C 245.945312 218.527344 245.882812 218.152344 245.78125 217.785156 C 245.679688 217.417969 245.546875 217.0625 245.375 216.71875 C 245.207031 216.378906 245.003906 216.054688 244.769531 215.753906 C 244.539062 215.453125 244.277344 215.175781 243.988281 214.925781 C 243.699219 214.675781 243.390625 214.457031 243.058594 214.265625 C 242.726562 214.078125 242.378906 213.921875 242.015625 213.804688 C 241.652344 213.683594 241.28125 213.597656 240.902344 213.550781 C 240.523438 213.503906 240.144531 213.496094 239.761719 213.523438 C 239.382812 213.554688 239.007812 213.617188 238.640625 213.71875 C 238.273438 213.824219 237.917969 213.960938 237.578125 214.132812 C 222.921875 221.414062 210.390625 229.5625 200.328125 238.347656 C 192.136719 245.582031 184.867188 253.652344 178.527344 262.554688 C 177.984375 263.351562 177.289062 263.976562 176.4375 264.429688 C 175.585938 264.878906 174.675781 265.105469 173.710938 265.105469 C 173.1875 265.101562 172.671875 265.03125 172.167969 264.890625 C 171.664062 264.75 171.1875 264.542969 170.738281 264.273438 C 170.289062 264.003906 169.886719 263.679688 169.523438 263.296875 C 169.164062 262.917969 168.863281 262.496094 168.617188 262.035156 C 168.371094 261.574219 168.191406 261.085938 168.074219 260.574219 C 167.960938 260.0625 167.917969 259.546875 167.945312 259.023438 C 167.972656 258.5 168.066406 257.992188 168.234375 257.496094 C 168.398438 256.996094 168.625 256.53125 168.917969 256.097656 C 175.800781 246.332031 183.734375 237.507812 192.714844 229.628906 C 202.835938 220.785156 215.191406 212.589844 229.453125 205.242188 C 248.566406 208.851562 266.960938 214.714844 284.640625 222.820312 C 282.035156 224.496094 279.457031 226.25 276.910156 228.089844 C 266.4375 235.71875 257 244.46875 248.601562 254.335938 C 248.242188 254.777344 247.90625 255.234375 247.589844 255.707031 C 247.277344 256.179688 246.984375 256.667969 246.71875 257.171875 C 246.453125 257.671875 246.210938 258.1875 245.996094 258.710938 C 245.777344 259.238281 245.589844 259.773438 245.425781 260.316406 C 245.261719 260.863281 245.125 261.414062 245.015625 261.96875 C 244.90625 262.527344 244.824219 263.089844 244.773438 263.65625 C 244.71875 264.222656 244.691406 264.789062 244.691406 265.355469 C 244.695312 265.925781 244.722656 266.492188 244.78125 267.058594 C 244.839844 267.621094 244.921875 268.183594 245.035156 268.742188 C 245.148438 269.296875 245.289062 269.847656 245.453125 270.390625 C 245.621094 270.933594 245.8125 271.46875 246.03125 271.992188 C 246.253906 272.515625 246.496094 273.03125 246.765625 273.53125 C 247.035156 274.03125 247.328125 274.515625 247.644531 274.988281 C 247.960938 275.460938 248.300781 275.914062 248.664062 276.351562 C 249.027344 276.792969 249.410156 277.210938 249.8125 277.613281 C 250.214844 278.011719 250.636719 278.394531 251.078125 278.753906 C 251.519531 279.113281 251.976562 279.449219 252.449219 279.761719 C 252.921875 280.078125 253.410156 280.367188 253.914062 280.636719 C 254.414062 280.902344 254.929688 281.144531 255.453125 281.359375 C 255.980469 281.574219 256.515625 281.765625 257.058594 281.929688 C 257.605469 282.09375 258.15625 282.230469 258.714844 282.339844 C 259.273438 282.449219 259.832031 282.53125 260.398438 282.585938 C 260.964844 282.640625 261.53125 282.664062 262.101562 282.664062 C 262.671875 282.664062 263.238281 282.632812 263.804688 282.578125 C 264.371094 282.519531 264.929688 282.433594 265.488281 282.324219 C 266.046875 282.210938 266.597656 282.070312 267.140625 281.90625 C 267.683594 281.738281 268.21875 281.546875 268.742188 281.328125 C 269.269531 281.109375 269.78125 280.867188 270.28125 280.597656 C 270.78125 280.328125 271.269531 280.035156 271.742188 279.71875 C 272.214844 279.402344 272.667969 279.0625 273.109375 278.699219 C 273.546875 278.339844 273.964844 277.957031 274.367188 277.554688 C 274.769531 277.152344 275.148438 276.730469 275.507812 276.289062 C 282.007812 268.777344 289.265625 262.082031 297.277344 256.210938 C 304.25 251.132812 311.671875 246.835938 319.550781 243.324219 C 341.082031 259.355469 355.953125 278.589844 359.726562 298.523438 C 362.960938 315.597656 360.816406 328.820312 353.359375 337.816406 C 348.128906 344.125 337.453125 351.640625 316.292969 351.640625 L 265.800781 351.640625 C 265.417969 351.640625 265.042969 351.679688 264.671875 351.753906 C 264.296875 351.828125 263.9375 351.9375 263.585938 352.082031 C 263.234375 352.226562 262.898438 352.40625 262.582031 352.617188 C 262.265625 352.828125 261.976562 353.066406 261.707031 353.335938 C 261.4375 353.605469 261.199219 353.898438 260.984375 354.214844 C 260.773438 354.53125 260.597656 354.863281 260.453125 355.214844 C 260.304688 355.566406 260.195312 355.925781 260.121094 356.300781 C 260.046875 356.671875 260.011719 357.046875 260.011719 357.429688 C 260.011719 357.808594 260.046875 358.183594 260.121094 358.554688 C 260.195312 358.929688 260.304688 359.289062 260.453125 359.640625 C 260.597656 359.992188 260.773438 360.328125 260.984375 360.640625 C 261.199219 360.957031 261.4375 361.25 261.707031 361.519531 C 261.976562 361.789062 262.265625 362.027344 262.582031 362.238281 C 262.898438 362.449219 263.234375 362.628906 263.585938 362.773438 C 263.9375 362.917969 264.296875 363.027344 264.671875 363.101562 C 265.042969 363.175781 265.417969 363.214844 265.800781 363.214844 L 316.289062 363.214844 C 336.601562 363.214844 352.5 356.984375 362.269531 345.199219 C 372.039062 333.414062 375.007812 316.992188 371.101562 296.371094 Z M 290.484375 246.839844 C 281.660156 253.292969 273.683594 260.664062 266.554688 268.953125 C 266.003906 269.628906 265.335938 270.148438 264.546875 270.523438 C 263.757812 270.894531 262.929688 271.078125 262.058594 271.078125 C 260.6875 271.082031 259.46875 270.648438 258.410156 269.773438 C 258.113281 269.535156 257.847656 269.269531 257.605469 268.976562 C 257.363281 268.683594 257.152344 268.371094 256.972656 268.035156 C 256.792969 267.703125 256.648438 267.355469 256.539062 266.992188 C 256.425781 266.628906 256.351562 266.257812 256.3125 265.882812 C 256.273438 265.503906 256.273438 265.128906 256.308594 264.75 C 256.34375 264.371094 256.417969 264 256.523438 263.636719 C 256.632812 263.273438 256.777344 262.925781 256.953125 262.589844 C 257.128906 262.253906 257.339844 261.941406 257.578125 261.644531 C 265.328125 252.550781 274.035156 244.492188 283.699219 237.464844 C 287.933594 234.394531 292.316406 231.550781 296.84375 228.929688 C 300.878906 231.109375 304.769531 233.386719 308.527344 235.765625 C 302.226562 238.992188 296.214844 242.683594 290.488281 246.839844 Z M 290.484375 246.839844 " fill-opacity="1" fill-rule="nonzero"/></g><g clip-path="url(#63d34795f3)"><path fill="#000000" d="M 155.695312 112.128906 C 161.484375 117.640625 166.058594 121.992188 166.058594 131.082031 C 166.058594 140.175781 161.484375 144.527344 155.695312 150.035156 C 155.417969 150.296875 155.167969 150.582031 154.945312 150.894531 C 154.722656 151.203125 154.53125 151.535156 154.375 151.882812 C 154.21875 152.230469 154.097656 152.589844 154.011719 152.960938 C 153.925781 153.332031 153.878906 153.710938 153.867188 154.09375 C 153.859375 154.472656 153.882812 154.851562 153.949219 155.230469 C 154.011719 155.605469 154.113281 155.972656 154.25 156.328125 C 154.386719 156.683594 154.558594 157.023438 154.761719 157.347656 C 154.964844 157.667969 155.199219 157.96875 155.464844 158.246094 C 155.726562 158.523438 156.015625 158.769531 156.328125 158.988281 C 156.640625 159.207031 156.96875 159.394531 157.320312 159.550781 C 157.667969 159.703125 158.03125 159.820312 158.402344 159.902344 C 158.777344 159.988281 159.152344 160.03125 159.535156 160.039062 C 159.917969 160.046875 160.296875 160.019531 160.671875 159.953125 C 161.046875 159.882812 161.414062 159.78125 161.769531 159.640625 C 162.125 159.503906 162.464844 159.328125 162.785156 159.121094 C 163.105469 158.917969 163.40625 158.679688 163.679688 158.414062 C 169.898438 152.5 177.636719 145.132812 177.636719 131.082031 C 177.636719 117.03125 169.898438 109.667969 163.679688 103.75 C 157.890625 98.238281 153.316406 93.886719 153.316406 84.796875 C 153.316406 75.707031 157.890625 71.351562 163.679688 65.84375 C 163.953125 65.582031 164.203125 65.296875 164.421875 64.984375 C 164.640625 64.675781 164.824219 64.34375 164.980469 63.996094 C 165.132812 63.648438 165.25 63.292969 165.335938 62.921875 C 165.417969 62.550781 165.464844 62.175781 165.472656 61.796875 C 165.484375 61.414062 165.457031 61.039062 165.390625 60.664062 C 165.324219 60.289062 165.222656 59.925781 165.085938 59.570312 C 164.949219 59.214844 164.78125 58.878906 164.578125 58.558594 C 164.375 58.238281 164.140625 57.9375 163.878906 57.664062 C 163.617188 57.390625 163.332031 57.140625 163.019531 56.921875 C 162.710938 56.703125 162.378906 56.519531 162.03125 56.363281 C 161.683594 56.210938 161.328125 56.089844 160.957031 56.007812 C 160.585938 55.925781 160.210938 55.878906 159.828125 55.867188 C 159.449219 55.859375 159.070312 55.886719 158.699219 55.953125 C 158.324219 56.015625 157.957031 56.117188 157.605469 56.253906 C 157.25 56.390625 156.910156 56.5625 156.589844 56.765625 C 156.269531 56.96875 155.96875 57.199219 155.695312 57.460938 C 149.476562 63.378906 141.738281 70.742188 141.738281 84.792969 C 141.738281 98.847656 149.476562 106.210938 155.695312 112.128906 Z M 155.695312 112.128906 " fill-opacity="1" fill-rule="nonzero"/></g><g clip-path="url(#496a0823f1)"><path fill="#000000" d="M 208.183594 112.128906 C 213.972656 117.640625 218.546875 121.992188 218.546875 131.082031 C 218.546875 140.175781 213.972656 144.527344 208.183594 150.035156 C 207.90625 150.296875 207.65625 150.582031 207.433594 150.894531 C 207.210938 151.203125 207.023438 151.535156 206.867188 151.882812 C 206.707031 152.230469 206.585938 152.589844 206.503906 152.960938 C 206.417969 153.332031 206.367188 153.710938 206.359375 154.09375 C 206.347656 154.472656 206.375 154.851562 206.4375 155.230469 C 206.503906 155.605469 206.601562 155.972656 206.738281 156.328125 C 206.875 156.683594 207.046875 157.023438 207.25 157.347656 C 207.457031 157.667969 207.6875 157.96875 207.953125 158.246094 C 208.214844 158.523438 208.503906 158.769531 208.816406 158.988281 C 209.128906 159.207031 209.460938 159.394531 209.808594 159.550781 C 210.160156 159.703125 210.519531 159.820312 210.894531 159.902344 C 211.265625 159.988281 211.644531 160.03125 212.023438 160.039062 C 212.40625 160.046875 212.785156 160.019531 213.160156 159.953125 C 213.539062 159.882812 213.902344 159.78125 214.257812 159.640625 C 214.613281 159.503906 214.953125 159.328125 215.273438 159.121094 C 215.597656 158.917969 215.894531 158.679688 216.167969 158.414062 C 222.386719 152.5 230.125 145.132812 230.125 131.082031 C 230.125 117.03125 222.386719 109.667969 216.167969 103.75 C 210.378906 98.238281 205.804688 93.886719 205.804688 84.796875 C 205.804688 75.707031 210.378906 71.351562 216.167969 65.84375 C 216.445312 65.582031 216.691406 65.296875 216.910156 64.984375 C 217.128906 64.675781 217.316406 64.34375 217.46875 63.996094 C 217.625 63.648438 217.742188 63.292969 217.828125 62.921875 C 217.910156 62.550781 217.957031 62.175781 217.964844 61.792969 C 217.976562 61.414062 217.949219 61.039062 217.882812 60.664062 C 217.816406 60.289062 217.71875 59.925781 217.582031 59.570312 C 217.441406 59.214844 217.273438 58.875 217.070312 58.554688 C 216.867188 58.234375 216.632812 57.9375 216.371094 57.660156 C 216.109375 57.386719 215.824219 57.140625 215.511719 56.921875 C 215.199219 56.703125 214.871094 56.515625 214.523438 56.359375 C 214.175781 56.207031 213.816406 56.089844 213.445312 56.003906 C 213.074219 55.921875 212.699219 55.875 212.320312 55.867188 C 211.9375 55.855469 211.5625 55.886719 211.1875 55.949219 C 210.8125 56.015625 210.449219 56.117188 210.09375 56.253906 C 209.738281 56.390625 209.398438 56.558594 209.078125 56.761719 C 208.757812 56.964844 208.460938 57.199219 208.183594 57.460938 C 201.964844 63.378906 194.230469 70.742188 194.230469 84.792969 C 194.230469 98.839844 201.964844 106.210938 208.183594 112.128906 Z M 208.183594 112.128906 " fill-opacity="1" fill-rule="nonzero"/></g><g clip-path="url(#adf39464e8)"><path fill="#000000" d="M 260.671875 112.128906 C 266.460938 117.640625 271.035156 121.992188 271.035156 131.082031 C 271.035156 140.175781 266.460938 144.527344 260.671875 150.035156 C 260.402344 150.296875 260.15625 150.585938 259.941406 150.894531 C 259.726562 151.207031 259.542969 151.535156 259.390625 151.882812 C 259.238281 152.226562 259.125 152.585938 259.042969 152.953125 C 258.960938 153.324219 258.917969 153.699219 258.910156 154.074219 C 258.902344 154.453125 258.929688 154.828125 258.996094 155.199219 C 259.0625 155.574219 259.164062 155.9375 259.300781 156.289062 C 259.4375 156.640625 259.605469 156.976562 259.808594 157.296875 C 260.011719 157.613281 260.242188 157.910156 260.503906 158.183594 C 260.765625 158.460938 261.050781 158.703125 261.359375 158.921875 C 261.667969 159.140625 261.996094 159.328125 262.339844 159.480469 C 262.6875 159.632812 263.042969 159.753906 263.414062 159.835938 C 263.78125 159.921875 264.15625 159.96875 264.535156 159.980469 C 264.910156 159.988281 265.289062 159.964844 265.660156 159.902344 C 266.035156 159.835938 266.398438 159.738281 266.75 159.605469 C 267.105469 159.472656 267.441406 159.304688 267.761719 159.105469 C 268.082031 158.902344 268.382812 158.675781 268.65625 158.414062 C 274.875 152.496094 282.613281 145.132812 282.613281 131.082031 C 282.613281 117.03125 274.875 109.667969 268.65625 103.75 C 262.867188 98.238281 258.296875 93.886719 258.296875 84.796875 C 258.296875 75.703125 262.867188 71.351562 268.65625 65.84375 C 268.933594 65.582031 269.179688 65.292969 269.398438 64.984375 C 269.617188 64.671875 269.804688 64.34375 269.957031 63.996094 C 270.113281 63.648438 270.230469 63.289062 270.3125 62.917969 C 270.398438 62.550781 270.445312 62.175781 270.453125 61.792969 C 270.460938 61.414062 270.433594 61.039062 270.371094 60.664062 C 270.304688 60.289062 270.203125 59.925781 270.066406 59.570312 C 269.929688 59.214844 269.761719 58.878906 269.558594 58.554688 C 269.355469 58.234375 269.121094 57.9375 268.859375 57.664062 C 268.597656 57.386719 268.308594 57.140625 268 56.921875 C 267.6875 56.703125 267.359375 56.515625 267.011719 56.363281 C 266.664062 56.207031 266.304688 56.089844 265.933594 56.007812 C 265.5625 55.921875 265.1875 55.878906 264.808594 55.867188 C 264.425781 55.859375 264.050781 55.886719 263.675781 55.949219 C 263.300781 56.015625 262.9375 56.117188 262.582031 56.253906 C 262.226562 56.390625 261.890625 56.558594 261.566406 56.761719 C 261.246094 56.964844 260.949219 57.199219 260.671875 57.460938 C 254.453125 63.378906 246.71875 70.742188 246.71875 84.792969 C 246.71875 98.839844 254.453125 106.210938 260.671875 112.128906 Z M 260.671875 112.128906 " fill-opacity="1" fill-rule="nonzero"/></g></svg>