<svg xmlns="http://www.w3.org/2000/svg" xmlns:xlink="http://www.w3.org/1999/xlink" width="500" zoomAndPan="magnify" viewBox="0 0 375 374.999991" height="500" preserveAspectRatio="xMidYMid meet" version="1.0"><defs><clipPath id="a59a17516d"><path d="M 33.761719 86 L 323 86 L 323 375 L 33.761719 375 Z M 33.761719 86 " clip-rule="nonzero"/></clipPath></defs><path fill="#100f0d" d="M 114.675781 152.890625 C 110.5625 152.890625 107.214844 156.238281 107.214844 160.347656 C 107.214844 164.460938 110.5625 167.808594 114.675781 167.808594 C 118.789062 167.808594 122.132812 164.460938 122.132812 160.347656 C 122.132812 156.238281 118.789062 152.890625 114.675781 152.890625 Z M 114.675781 174.585938 C 106.824219 174.585938 100.433594 168.199219 100.433594 160.347656 C 100.433594 152.496094 106.824219 146.113281 114.675781 146.113281 C 122.527344 146.113281 128.914062 152.496094 128.914062 160.347656 C 128.914062 168.199219 122.527344 174.585938 114.675781 174.585938 " fill-opacity="1" fill-rule="nonzero"/><path fill="#100f0d" d="M 119.941406 226.9375 C 115.828125 226.9375 112.484375 230.285156 112.484375 234.398438 C 112.484375 238.511719 115.828125 241.855469 119.941406 241.855469 C 124.054688 241.855469 127.402344 238.511719 127.402344 234.398438 C 127.402344 230.285156 124.054688 226.9375 119.941406 226.9375 Z M 119.941406 248.636719 C 112.089844 248.636719 105.703125 242.246094 105.703125 234.398438 C 105.703125 226.546875 112.089844 220.15625 119.941406 220.15625 C 127.792969 220.15625 134.183594 226.546875 134.183594 234.398438 C 134.183594 242.246094 127.792969 248.636719 119.941406 248.636719 " fill-opacity="1" fill-rule="nonzero"/><path fill="#100f0d" d="M 154.996094 318.328125 C 150.882812 318.328125 147.535156 321.671875 147.535156 325.785156 C 147.535156 329.898438 150.882812 333.246094 154.996094 333.246094 C 159.109375 333.246094 162.453125 329.898438 162.453125 325.785156 C 162.453125 321.671875 159.109375 318.328125 154.996094 318.328125 Z M 154.996094 340.023438 C 147.140625 340.023438 140.753906 333.636719 140.753906 325.785156 C 140.753906 317.933594 147.140625 311.546875 154.996094 311.546875 C 162.847656 311.546875 169.234375 317.933594 169.234375 325.785156 C 169.234375 333.636719 162.847656 340.023438 154.996094 340.023438 " fill-opacity="1" fill-rule="nonzero"/><path fill="#100f0d" d="M 148.875 263.453125 C 144.761719 263.453125 141.414062 266.800781 141.414062 270.910156 C 141.414062 275.023438 144.761719 278.371094 148.875 278.371094 C 152.988281 278.371094 156.332031 275.023438 156.332031 270.910156 C 156.332031 266.800781 152.988281 263.453125 148.875 263.453125 Z M 148.875 285.148438 C 141.023438 285.148438 134.632812 278.761719 134.632812 270.910156 C 134.632812 263.058594 141.023438 256.671875 148.875 256.671875 C 156.726562 256.671875 163.113281 263.058594 163.113281 270.910156 C 163.113281 278.761719 156.726562 285.148438 148.875 285.148438 " fill-opacity="1" fill-rule="nonzero"/><path fill="#100f0d" d="M 225.355469 274.300781 C 221.246094 274.300781 217.898438 277.648438 217.898438 281.757812 C 217.898438 285.871094 221.246094 289.21875 225.355469 289.21875 C 229.472656 289.21875 232.816406 285.871094 232.816406 281.757812 C 232.816406 277.648438 229.472656 274.300781 225.355469 274.300781 Z M 225.355469 295.996094 C 217.507812 295.996094 211.117188 289.613281 211.117188 281.757812 C 211.117188 273.910156 217.507812 267.523438 225.355469 267.523438 C 233.210938 267.523438 239.597656 273.910156 239.597656 281.757812 C 239.597656 289.613281 233.210938 295.996094 225.355469 295.996094 " fill-opacity="1" fill-rule="nonzero"/><path fill="#100f0d" d="M 154.996094 139.3125 C 153.488281 139.3125 152.265625 140.539062 152.265625 142.042969 C 152.265625 143.546875 153.488281 144.773438 154.996094 144.773438 C 156.5 144.773438 157.726562 143.546875 157.726562 142.042969 C 157.726562 140.539062 156.5 139.3125 154.996094 139.3125 Z M 154.996094 151.550781 C 149.75 151.550781 145.484375 147.285156 145.484375 142.042969 C 145.484375 136.800781 149.75 132.53125 154.996094 132.53125 C 160.238281 132.53125 164.503906 136.800781 164.503906 142.042969 C 164.503906 147.285156 160.238281 151.550781 154.996094 151.550781 " fill-opacity="1" fill-rule="nonzero"/><path fill="#100f0d" d="M 203.660156 318.328125 C 202.152344 318.328125 200.929688 319.550781 200.929688 321.058594 C 200.929688 322.5625 202.152344 323.785156 203.660156 323.785156 C 205.164062 323.785156 206.390625 322.5625 206.390625 321.058594 C 206.390625 319.550781 205.164062 318.328125 203.660156 318.328125 Z M 203.660156 330.566406 C 198.414062 330.566406 194.148438 326.300781 194.148438 321.058594 C 194.148438 315.8125 198.414062 311.546875 203.660156 311.546875 C 208.902344 311.546875 213.167969 315.8125 213.167969 321.058594 C 213.167969 326.300781 208.902344 330.566406 203.660156 330.566406 " fill-opacity="1" fill-rule="nonzero"/><path fill="#100f0d" d="M 120.792969 298.484375 C 119.289062 298.484375 118.066406 299.707031 118.066406 301.210938 C 118.066406 302.71875 119.289062 303.941406 120.792969 303.941406 C 122.300781 303.941406 123.527344 302.71875 123.527344 301.210938 C 123.527344 299.707031 122.300781 298.484375 120.792969 298.484375 Z M 120.792969 310.71875 C 115.550781 310.71875 111.285156 306.453125 111.285156 301.210938 C 111.285156 295.96875 115.550781 291.703125 120.792969 291.703125 C 126.039062 291.703125 130.304688 295.96875 130.304688 301.210938 C 130.304688 306.453125 126.039062 310.71875 120.792969 310.71875 " fill-opacity="1" fill-rule="nonzero"/><path fill="#100f0d" d="M 85.140625 254.757812 C 83.632812 254.757812 82.410156 255.980469 82.410156 257.484375 C 82.410156 258.992188 83.632812 260.214844 85.140625 260.214844 C 86.644531 260.214844 87.867188 258.992188 87.867188 257.484375 C 87.867188 255.980469 86.644531 254.757812 85.140625 254.757812 Z M 85.140625 266.996094 C 79.894531 266.996094 75.628906 262.726562 75.628906 257.484375 C 75.628906 252.242188 79.894531 247.976562 85.140625 247.976562 C 90.382812 247.976562 94.648438 252.242188 94.648438 257.484375 C 94.648438 262.726562 90.382812 266.996094 85.140625 266.996094 " fill-opacity="1" fill-rule="nonzero"/><path fill="#100f0d" d="M 85.140625 202.738281 C 83.632812 202.738281 82.410156 203.960938 82.410156 205.46875 C 82.410156 206.972656 83.632812 208.195312 85.140625 208.195312 C 86.644531 208.195312 87.867188 206.972656 87.867188 205.46875 C 87.867188 203.960938 86.644531 202.738281 85.140625 202.738281 Z M 85.140625 214.976562 C 79.894531 214.976562 75.628906 210.710938 75.628906 205.46875 C 75.628906 200.222656 79.894531 195.957031 85.140625 195.957031 C 90.382812 195.957031 94.648438 200.222656 94.648438 205.46875 C 94.648438 210.710938 90.382812 214.976562 85.140625 214.976562 " fill-opacity="1" fill-rule="nonzero"/><path fill="#100f0d" d="M 161.117188 181.039062 C 159.609375 181.039062 158.386719 182.265625 158.386719 183.765625 C 158.386719 185.273438 159.609375 186.5 161.117188 186.5 C 162.621094 186.5 163.84375 185.273438 163.84375 183.765625 C 163.84375 182.265625 162.621094 181.039062 161.117188 181.039062 Z M 161.117188 193.277344 C 155.871094 193.277344 151.605469 189.011719 151.605469 183.765625 C 151.605469 178.527344 155.871094 174.257812 161.117188 174.257812 C 166.359375 174.257812 170.625 178.527344 170.625 183.765625 C 170.625 189.011719 166.359375 193.277344 161.117188 193.277344 " fill-opacity="1" fill-rule="nonzero"/><g clip-path="url(#a59a17516d)"><path fill="#100f0d" d="M 178.085938 375.003906 C 158.628906 375.003906 139.734375 371.191406 121.933594 363.660156 C 104.753906 356.394531 89.332031 346 76.097656 332.761719 C 67.132812 323.796875 59.410156 313.753906 53.148438 302.90625 C 50.1875 297.785156 47.511719 292.410156 45.195312 286.925781 C 37.667969 269.132812 33.851562 250.238281 33.851562 230.78125 C 33.851562 211.320312 37.667969 192.429688 45.195312 174.636719 C 47.511719 169.152344 50.1875 163.773438 53.148438 158.652344 C 59.410156 147.808594 67.132812 137.765625 76.097656 128.800781 C 89.332031 115.5625 104.753906 105.164062 121.933594 97.898438 C 139.734375 90.371094 158.628906 86.558594 178.085938 86.558594 C 179.957031 86.558594 181.476562 88.074219 181.476562 89.945312 C 181.476562 91.816406 179.957031 93.335938 178.085938 93.335938 C 159.539062 93.335938 141.535156 96.972656 124.574219 104.144531 C 108.203125 111.066406 93.507812 120.976562 80.890625 133.59375 C 72.34375 142.140625 64.988281 151.710938 59.019531 162.042969 C 56.199219 166.925781 53.648438 172.050781 51.441406 177.273438 C 44.265625 194.230469 40.628906 212.230469 40.628906 230.78125 C 40.628906 249.328125 44.265625 267.328125 51.441406 284.285156 C 53.648438 289.511719 56.199219 294.636719 59.019531 299.515625 C 64.984375 309.851562 72.34375 319.421875 80.890625 327.96875 C 93.507812 340.585938 108.203125 350.492188 124.574219 357.414062 C 141.535156 364.589844 159.539062 368.222656 178.085938 368.222656 C 196.628906 368.222656 214.632812 364.589844 231.59375 357.417969 C 247.964844 350.492188 262.660156 340.585938 275.28125 327.96875 C 283.824219 319.421875 291.183594 309.851562 297.148438 299.519531 C 299.972656 294.632812 302.523438 289.511719 304.726562 284.285156 C 311.90625 267.328125 315.539062 249.328125 315.539062 230.78125 C 315.539062 212.234375 311.90625 194.230469 304.730469 177.277344 C 302.523438 172.050781 299.972656 166.925781 297.148438 162.042969 C 296.214844 160.425781 296.769531 158.351562 298.390625 157.414062 C 300.011719 156.476562 302.082031 157.03125 303.023438 158.652344 C 305.980469 163.777344 308.660156 169.152344 310.976562 174.636719 C 318.503906 192.429688 322.320312 211.320312 322.320312 230.78125 C 322.320312 250.238281 318.503906 269.132812 310.976562 286.925781 C 308.660156 292.40625 305.980469 297.785156 303.023438 302.90625 C 296.757812 313.753906 289.039062 323.796875 280.074219 332.761719 C 266.835938 346 251.417969 356.394531 234.234375 363.660156 C 216.4375 371.191406 197.542969 375.003906 178.085938 375.003906 " fill-opacity="1" fill-rule="nonzero"/></g><path fill="#100f0d" d="M 178.085938 354.144531 C 156.046875 354.144531 134.414062 348.257812 115.53125 337.128906 C 97.199219 326.324219 81.878906 310.886719 71.226562 292.472656 C 60.425781 273.804688 54.714844 252.472656 54.714844 230.78125 C 54.714844 209.089844 60.425781 187.757812 71.226562 169.089844 C 81.878906 150.675781 97.199219 135.234375 115.53125 124.429688 C 134.414062 113.300781 156.046875 107.417969 178.085938 107.417969 C 179.957031 107.417969 181.476562 108.9375 181.476562 110.808594 C 181.476562 112.683594 179.957031 114.199219 178.085938 114.199219 C 136.59375 114.199219 97.898438 136.53125 77.097656 172.484375 C 66.890625 190.121094 61.496094 210.277344 61.496094 230.78125 C 61.496094 251.28125 66.890625 271.441406 77.097656 289.078125 C 97.898438 325.027344 136.59375 347.359375 178.085938 347.359375 C 219.578125 347.359375 258.273438 325.027344 279.074219 289.078125 C 289.28125 271.441406 294.675781 251.28125 294.675781 230.78125 C 294.675781 210.277344 289.28125 190.121094 279.074219 172.484375 C 278.136719 170.863281 278.6875 168.789062 280.308594 167.851562 C 281.929688 166.914062 284.003906 167.46875 284.945312 169.089844 C 295.746094 187.757812 301.457031 209.089844 301.457031 230.78125 C 301.457031 252.472656 295.746094 273.804688 284.945312 292.472656 C 274.289062 310.886719 258.972656 326.324219 240.640625 337.128906 C 221.753906 348.257812 200.125 354.144531 178.085938 354.144531 " fill-opacity="1" fill-rule="nonzero"/><path fill="#100f0d" d="M 178.085938 375.003906 C 176.210938 375.003906 174.695312 373.488281 174.695312 371.617188 L 174.695312 89.945312 C 174.695312 88.074219 176.210938 86.558594 178.085938 86.558594 C 179.957031 86.558594 181.476562 88.074219 181.476562 89.945312 L 181.476562 371.617188 C 181.476562 373.488281 179.957031 375.003906 178.085938 375.003906 " fill-opacity="1" fill-rule="nonzero"/><path fill="#100f0d" d="M 300.082031 304.601562 C 299.507812 304.601562 298.925781 304.453125 298.390625 304.148438 L 280.3125 293.710938 L 54.390625 163.285156 C 52.769531 162.347656 52.210938 160.277344 53.148438 158.652344 C 54.085938 157.03125 56.15625 156.476562 57.78125 157.414062 L 75.859375 167.851562 L 283.703125 287.835938 L 301.78125 298.277344 C 303.402344 299.214844 303.960938 301.285156 303.023438 302.90625 C 302.394531 303.996094 301.253906 304.601562 300.082031 304.601562 " fill-opacity="1" fill-rule="nonzero"/><path fill="#100f0d" d="M 56.089844 304.601562 C 54.917969 304.601562 53.777344 303.996094 53.148438 302.90625 C 52.210938 301.285156 52.769531 299.214844 54.390625 298.277344 L 72.46875 287.835938 L 280.3125 167.851562 L 298.390625 157.414062 C 300.011719 156.476562 302.082031 157.03125 303.023438 158.652344 C 303.960938 160.277344 303.402344 162.347656 301.78125 163.285156 L 57.78125 304.148438 C 57.246094 304.453125 56.664062 304.601562 56.089844 304.601562 " fill-opacity="1" fill-rule="nonzero"/><path fill="#100f0d" d="M 264.9375 198.007812 C 260.824219 198.007812 257.480469 201.351562 257.480469 205.46875 C 257.480469 209.578125 260.824219 212.921875 264.9375 212.921875 C 269.050781 212.921875 272.398438 209.578125 272.398438 205.46875 C 272.398438 201.351562 269.050781 198.007812 264.9375 198.007812 Z M 264.9375 219.707031 C 257.085938 219.707031 250.695312 213.316406 250.695312 205.46875 C 250.695312 197.613281 257.085938 191.226562 264.9375 191.226562 C 272.789062 191.226562 279.175781 197.613281 279.175781 205.46875 C 279.175781 213.316406 272.789062 219.707031 264.9375 219.707031 " fill-opacity="1" fill-rule="nonzero"/><path fill="#100f0d" d="M 234.003906 221.929688 C 232.496094 221.929688 231.273438 223.15625 231.273438 224.660156 C 231.273438 226.167969 232.496094 227.390625 234.003906 227.390625 C 235.507812 227.390625 236.734375 226.167969 236.734375 224.660156 C 236.734375 223.15625 235.507812 221.929688 234.003906 221.929688 Z M 234.003906 234.167969 C 228.757812 234.167969 224.492188 229.902344 224.492188 224.660156 C 224.492188 219.417969 228.757812 215.148438 234.003906 215.148438 C 239.246094 215.148438 243.511719 219.417969 243.511719 224.660156 C 243.511719 229.902344 239.246094 234.167969 234.003906 234.167969 " fill-opacity="1" fill-rule="nonzero"/><path fill="#100f0d" d="M 264.9375 242.515625 C 263.433594 242.515625 262.207031 243.742188 262.207031 245.246094 C 262.207031 246.75 263.433594 247.976562 264.9375 247.976562 C 266.441406 247.976562 267.667969 246.75 267.667969 245.246094 C 267.667969 243.742188 266.441406 242.515625 264.9375 242.515625 Z M 264.9375 254.757812 C 259.695312 254.757812 255.429688 250.488281 255.429688 245.246094 C 255.429688 240.003906 259.695312 235.738281 264.9375 235.738281 C 270.183594 235.738281 274.449219 240.003906 274.449219 245.246094 C 274.449219 250.488281 270.183594 254.757812 264.9375 254.757812 " fill-opacity="1" fill-rule="nonzero"/><path fill="#100f0d" d="M 197.539062 262.0625 C 196.035156 262.0625 194.808594 263.285156 194.808594 264.789062 C 194.808594 266.296875 196.035156 267.523438 197.539062 267.523438 C 199.042969 267.523438 200.269531 266.296875 200.269531 264.789062 C 200.269531 263.285156 199.042969 262.0625 197.539062 262.0625 Z M 197.539062 274.300781 C 192.292969 274.300781 188.027344 270.035156 188.027344 264.789062 C 188.027344 259.546875 192.292969 255.28125 197.539062 255.28125 C 202.78125 255.28125 207.046875 259.546875 207.046875 264.789062 C 207.046875 270.035156 202.78125 274.300781 197.539062 274.300781 " fill-opacity="1" fill-rule="nonzero"/><path fill="#100f0d" d="M 215.332031 147.625 C 214.746094 147.625 214.160156 147.476562 213.636719 147.175781 C 212.589844 146.566406 211.945312 145.445312 211.945312 144.238281 L 211.945312 3.402344 C 211.945312 1.53125 213.460938 0.0117188 215.332031 0.0117188 C 234.792969 0.0117188 253.683594 3.832031 271.484375 11.355469 C 288.664062 18.625 304.085938 29.015625 317.320312 42.257812 C 326.289062 51.21875 334.007812 61.265625 340.269531 72.109375 C 341.203125 73.734375 340.648438 75.804688 339.03125 76.742188 L 272.945312 114.894531 C 271.324219 115.832031 269.25 115.273438 268.3125 113.652344 C 267.378906 112.03125 267.933594 109.957031 269.554688 109.023438 L 332.664062 72.585938 C 327.027344 63.363281 320.265625 54.785156 312.527344 47.050781 C 299.910156 34.429688 285.210938 24.523438 268.839844 17.601562 C 252.921875 10.867188 236.074219 7.25 218.722656 6.835938 L 218.722656 138.363281 L 226.1875 134.058594 C 227.808594 133.121094 229.882812 133.679688 230.820312 135.300781 C 231.753906 136.917969 231.199219 138.992188 229.578125 139.929688 L 217.027344 147.175781 C 216.503906 147.476562 215.917969 147.625 215.332031 147.625 " fill-opacity="1" fill-rule="nonzero"/><path fill="#100f0d" d="M 215.332031 147.625 C 214.746094 147.625 214.160156 147.476562 213.636719 147.175781 C 212.589844 146.566406 211.945312 145.445312 211.945312 144.238281 L 211.945312 24.265625 C 211.945312 22.394531 213.460938 20.875 215.332031 20.875 C 237.371094 20.875 259.003906 26.757812 277.890625 37.886719 C 296.21875 48.6875 311.539062 64.132812 322.191406 82.546875 C 322.640625 83.324219 322.765625 84.25 322.53125 85.117188 C 322.296875 85.988281 321.730469 86.730469 320.953125 87.179688 L 272.945312 114.894531 C 271.324219 115.832031 269.25 115.273438 268.3125 113.652344 C 267.378906 112.03125 267.933594 109.957031 269.554688 109.023438 L 314.578125 83.027344 C 294.003906 49.746094 257.796875 28.851562 218.722656 27.707031 L 218.722656 138.363281 L 226.1875 134.058594 C 227.808594 133.121094 229.882812 133.679688 230.820312 135.300781 C 231.753906 136.917969 231.199219 138.992188 229.578125 139.929688 L 217.027344 147.175781 C 216.503906 147.476562 215.917969 147.625 215.332031 147.625 " fill-opacity="1" fill-rule="nonzero"/><path fill="#100f0d" d="M 215.332031 147.628906 C 213.460938 147.628906 211.945312 146.113281 211.945312 144.238281 L 211.945312 3.402344 C 211.945312 1.53125 213.460938 0.015625 215.332031 0.015625 C 217.203125 0.015625 218.722656 1.53125 218.722656 3.402344 L 218.722656 144.238281 C 218.722656 146.113281 217.203125 147.628906 215.332031 147.628906 " fill-opacity="1" fill-rule="nonzero"/><path fill="#100f0d" d="M 215.335938 147.628906 C 214.164062 147.628906 213.023438 147.019531 212.394531 145.933594 C 211.460938 144.308594 212.015625 142.238281 213.636719 141.300781 L 226.1875 134.058594 C 227.808594 133.121094 229.882812 133.679688 230.820312 135.300781 C 231.753906 136.917969 231.199219 138.992188 229.578125 139.929688 L 217.027344 147.175781 C 216.496094 147.480469 215.910156 147.628906 215.335938 147.628906 " fill-opacity="1" fill-rule="nonzero"/><path fill="#100f0d" d="M 271.253906 115.347656 C 270.082031 115.347656 268.941406 114.738281 268.3125 113.652344 C 267.378906 112.03125 267.933594 109.957031 269.554688 109.023438 L 335.640625 70.871094 C 337.261719 69.933594 339.332031 70.488281 340.269531 72.109375 C 341.203125 73.730469 340.648438 75.804688 339.03125 76.742188 L 272.945312 114.894531 C 272.410156 115.203125 271.828125 115.347656 271.253906 115.347656 " fill-opacity="1" fill-rule="nonzero"/><path fill="#100f0d" d="M 240.90625 89.769531 C 236.792969 89.769531 233.449219 93.113281 233.449219 97.226562 C 233.449219 101.339844 236.792969 104.6875 240.90625 104.6875 C 245.019531 104.6875 248.363281 101.339844 248.363281 97.226562 C 248.363281 93.113281 245.019531 89.769531 240.90625 89.769531 Z M 240.90625 111.464844 C 233.054688 111.464844 226.664062 105.078125 226.664062 97.226562 C 226.664062 89.375 233.054688 82.984375 240.90625 82.984375 C 248.757812 82.984375 255.144531 89.375 255.144531 97.226562 C 255.144531 105.078125 248.757812 111.464844 240.90625 111.464844 " fill-opacity="1" fill-rule="nonzero"/><path fill="#100f0d" d="M 236.199219 46.648438 C 234.691406 46.648438 233.46875 47.875 233.46875 49.378906 C 233.46875 50.882812 234.691406 52.109375 236.199219 52.109375 C 237.703125 52.109375 238.925781 50.882812 238.925781 49.378906 C 238.925781 47.875 237.703125 46.648438 236.199219 46.648438 Z M 236.199219 58.890625 C 230.953125 58.890625 226.6875 54.621094 226.6875 49.378906 C 226.6875 44.136719 230.953125 39.871094 236.199219 39.871094 C 241.441406 39.871094 245.707031 44.136719 245.707031 49.378906 C 245.707031 54.621094 241.441406 58.890625 236.199219 58.890625 " fill-opacity="1" fill-rule="nonzero"/><path fill="#100f0d" d="M 277.371094 81.925781 C 275.867188 81.925781 274.640625 83.152344 274.640625 84.652344 C 274.640625 86.160156 275.867188 87.386719 277.371094 87.386719 C 278.875 87.386719 280.101562 86.160156 280.101562 84.652344 C 280.101562 83.152344 278.875 81.925781 277.371094 81.925781 Z M 277.371094 94.164062 C 272.128906 94.164062 267.859375 89.898438 267.859375 84.652344 C 267.859375 79.414062 272.128906 75.144531 277.371094 75.144531 C 282.613281 75.144531 286.882812 79.414062 286.882812 84.652344 C 286.882812 89.898438 282.613281 94.164062 277.371094 94.164062 " fill-opacity="1" fill-rule="nonzero"/><path fill="#100f0d" d="M 237.792969 169.632812 C 230.460938 169.632812 224.492188 163.667969 224.492188 156.335938 L 224.492188 135.925781 C 224.492188 134.050781 226.011719 132.53125 227.882812 132.53125 C 229.753906 132.53125 231.273438 134.050781 231.273438 135.925781 L 231.273438 156.335938 C 231.273438 159.925781 234.199219 162.855469 237.792969 162.855469 C 241.386719 162.855469 244.3125 159.925781 244.3125 156.335938 L 244.3125 154.148438 C 244.3125 146.816406 250.28125 140.847656 257.613281 140.847656 L 261.339844 140.847656 C 264.933594 140.847656 267.859375 137.925781 267.859375 134.328125 L 267.859375 111.957031 C 267.859375 110.082031 269.375 108.566406 271.25 108.566406 C 273.125 108.566406 274.640625 110.082031 274.640625 111.957031 L 274.640625 134.328125 C 274.640625 141.660156 268.675781 147.628906 261.339844 147.628906 L 257.613281 147.628906 C 254.019531 147.628906 251.09375 150.550781 251.09375 154.148438 L 251.09375 156.335938 C 251.09375 163.667969 245.128906 169.632812 237.792969 169.632812 " fill-opacity="1" fill-rule="nonzero"/></svg>