<svg xmlns="http://www.w3.org/2000/svg" xmlns:xlink="http://www.w3.org/1999/xlink" width="500" zoomAndPan="magnify" viewBox="0 0 375 374.999991" height="500" preserveAspectRatio="xMidYMid meet" version="1.0"><defs><clipPath id="48dc0fad11"><path d="M 16.273438 64.433594 L 359.023438 64.433594 L 359.023438 310.433594 L 16.273438 310.433594 Z M 16.273438 64.433594 " clip-rule="nonzero"/></clipPath></defs><g clip-path="url(#48dc0fad11)"><path fill="#000000" d="M 298.15625 225.914062 L 280.535156 161.300781 C 278.164062 152.566406 271.988281 145.5625 264.039062 142.558594 C 255.082031 139.179688 241.824219 136.648438 225.789062 135.074219 C 226.039062 132.878906 226.132812 130.789062 226.046875 129.023438 C 225.972656 127.335938 225.710938 125.671875 225.316406 124.039062 C 236.25 123.824219 242.398438 118.28125 242.710938 117.984375 C 244.203125 116.574219 244.625 114.363281 243.746094 112.5 C 240.613281 105.800781 235.015625 101.714844 230.484375 99.316406 C 236.414062 91.078125 235.992188 80.0625 235.960938 79.535156 C 235.84375 77.179688 234.023438 75.257812 231.664062 75.019531 C 231.125 74.960938 220.136719 73.980469 211.601562 79.445312 C 209.441406 74.800781 205.652344 69.003906 199.113281 65.523438 C 197.292969 64.554688 195.0625 64.851562 193.570312 66.273438 C 193.257812 66.566406 187.375 72.460938 186.625 83.433594 C 185.0625 82.980469 183.464844 82.664062 181.835938 82.503906 C 172.730469 81.582031 156.457031 83.160156 148.003906 103.304688 C 143.101562 115.003906 141.070312 126.417969 140.335938 136 C 127.007812 137.742188 115.550781 140.199219 107.222656 143.238281 C 99.0625 146.210938 92.746094 153.261719 90.328125 162.121094 L 72.65625 226.957031 C 46.8125 233.160156 16.265625 244.378906 16.265625 262.78125 C 16.265625 293.640625 104.574219 310.289062 187.652344 310.289062 C 270.726562 310.289062 359.035156 293.640625 359.035156 262.78125 C 359.035156 243.691406 326.59375 232.273438 298.15625 225.914062 Z M 232.796875 113.003906 C 230.199219 114.121094 226.015625 115.023438 220.5 114.121094 C 219.878906 113.300781 219.292969 112.460938 218.574219 111.707031 L 215.449219 108.414062 C 217.722656 107.933594 220.074219 107.257812 222.398438 106.109375 C 224.679688 106.941406 229.441406 109.03125 232.796875 113.003906 Z M 215.003906 88.808594 C 218.097656 85.878906 222.6875 84.886719 226.105469 84.578125 C 225.617188 87.976562 224.378906 92.503906 221.296875 95.429688 C 218.191406 98.371094 213.613281 99.355469 210.195312 99.664062 C 210.671875 96.265625 211.910156 91.746094 215.003906 88.808594 Z M 198.027344 76.410156 C 201.863281 80.007812 203.714844 84.949219 204.410156 87.230469 C 203.171875 89.449219 202.28125 91.722656 201.6875 93.925781 L 198.765625 90.851562 C 197.996094 90.042969 197.132812 89.363281 196.28125 88.660156 C 195.65625 83.070312 196.773438 78.945312 198.027344 76.410156 Z M 156.828125 106.996094 C 161.464844 95.9375 169.519531 90.902344 180.902344 92.003906 C 185.011719 92.410156 188.886719 94.335938 191.828125 97.421875 L 211.640625 118.285156 C 214.582031 121.371094 216.3125 125.339844 216.5 129.460938 C 217.011719 140.820312 211.546875 148.632812 200.246094 152.679688 C 177.65625 160.761719 155.976562 157.730469 150.207031 156.6875 C 149.472656 150.867188 147.582031 129.066406 156.828125 106.996094 Z M 99.550781 164.628906 C 101.152344 158.765625 105.25 154.117188 110.503906 152.207031 C 117.742188 149.566406 128.132812 147.3125 139.960938 145.6875 C 140.003906 151.722656 140.496094 156.378906 140.835938 158.777344 C 141.078125 160.542969 141.863281 162.15625 143.0625 163.410156 C 144.289062 164.714844 145.867188 165.582031 147.605469 165.917969 C 150.828125 166.546875 158.03125 167.699219 167.488281 167.699219 C 177.609375 167.699219 190.3125 166.375 203.46875 161.667969 C 214.640625 157.667969 220.359375 151.066406 223.277344 144.414062 C 239.21875 145.886719 252.175781 148.292969 260.652344 151.488281 C 265.753906 153.414062 269.734375 158.019531 271.3125 163.804688 L 275.007812 177.363281 C 264.367188 179.832031 256.390625 189.328125 256.390625 200.699219 L 256.390625 221.414062 C 256.390625 224.960938 253.507812 227.839844 249.957031 227.839844 C 246.410156 227.839844 243.527344 224.960938 243.527344 221.414062 L 243.527344 189.015625 C 243.527344 179.941406 236.125 172.554688 227.039062 172.554688 C 217.945312 172.554688 210.542969 179.941406 210.542969 189.015625 L 210.542969 221.707031 C 210.542969 227.292969 205.992188 231.839844 200.398438 231.839844 C 194.796875 231.839844 190.242188 227.292969 190.242188 221.707031 L 190.242188 194.671875 C 190.242188 183.816406 181.390625 174.988281 170.523438 174.988281 C 159.652344 174.988281 150.804688 183.816406 150.804688 194.671875 L 150.804688 222.289062 C 150.804688 227.246094 146.765625 231.269531 141.800781 231.269531 C 136.839844 231.269531 132.8125 227.246094 132.8125 222.289062 L 132.8125 182.746094 C 132.8125 174.136719 125.796875 167.136719 117.179688 167.136719 C 108.554688 167.136719 101.535156 174.136719 101.535156 182.746094 L 101.535156 193.644531 C 101.535156 199.207031 97.019531 203.71875 91.449219 203.71875 C 90.613281 203.71875 89.789062 203.589844 88.988281 203.390625 Z M 86.476562 212.601562 C 88.09375 213.027344 89.761719 213.277344 91.449219 213.277344 C 102.285156 213.277344 111.109375 204.464844 111.109375 193.648438 L 111.109375 182.746094 C 111.109375 179.40625 113.828125 176.683594 117.179688 176.683594 C 120.519531 176.683594 123.238281 179.40625 123.238281 182.746094 L 123.238281 222.289062 C 123.238281 232.515625 131.5625 240.828125 141.800781 240.828125 C 152.042969 240.828125 160.378906 232.515625 160.378906 222.289062 L 160.378906 194.671875 C 160.378906 189.082031 164.929688 184.535156 170.523438 184.535156 C 176.113281 184.535156 180.667969 189.082031 180.667969 194.671875 L 180.667969 221.707031 C 180.667969 232.5625 189.519531 241.398438 200.398438 241.398438 C 211.269531 241.398438 220.117188 232.5625 220.117188 221.707031 L 220.117188 189.015625 C 220.117188 185.203125 223.222656 182.101562 227.039062 182.101562 C 230.859375 182.101562 233.953125 185.203125 233.953125 189.015625 L 233.953125 221.414062 C 233.953125 230.230469 241.132812 237.398438 249.957031 237.398438 C 258.785156 237.398438 265.964844 230.230469 265.964844 221.414062 L 265.964844 200.699219 C 265.964844 193.730469 271.019531 188.179688 277.585938 186.816406 L 295.332031 251.894531 C 293.503906 258.058594 253.992188 269.691406 185.550781 269.691406 C 117.753906 269.691406 77.851562 258.511719 75.480469 252.949219 Z M 187.648438 300.726562 C 92.289062 300.726562 25.835938 280.734375 25.835938 262.777344 C 25.835938 255.996094 37.703125 246.03125 69.753906 237.605469 L 66.253906 250.433594 C 65.496094 253.195312 66.136719 256.074219 68.042969 258.570312 C 78.421875 272.140625 135.019531 279.253906 185.546875 279.253906 C 225.851562 279.253906 300.988281 273.726562 304.667969 253.226562 C 304.808594 252.824219 304.921875 252.425781 304.949219 251.992188 C 304.953125 251.886719 305.015625 251.796875 305.015625 251.691406 C 305.015625 251.457031 304.914062 251.253906 304.882812 251.027344 C 304.855469 250.828125 304.894531 250.632812 304.84375 250.433594 L 301.039062 236.488281 C 336.371094 245.097656 349.464844 255.832031 349.464844 262.777344 C 349.460938 280.734375 283.007812 300.726562 187.648438 300.726562 Z M 187.648438 300.726562 " fill-opacity="1" fill-rule="nonzero"/></g><path fill="#000000" d="M 173.160156 109.730469 C 174.339844 109.730469 175.53125 109.292969 176.453125 108.417969 L 179.058594 105.945312 C 180.972656 104.128906 181.054688 101.101562 179.230469 99.195312 C 177.398438 97.285156 174.375 97.214844 172.472656 99.023438 L 169.871094 101.492188 C 167.953125 103.3125 167.871094 106.335938 169.695312 108.242188 C 170.640625 109.234375 171.898438 109.730469 173.160156 109.730469 Z M 173.160156 109.730469 " fill-opacity="1" fill-rule="nonzero"/><path fill="#000000" d="M 188.152344 125.503906 C 189.332031 125.503906 190.523438 125.070312 191.445312 124.191406 L 194.046875 121.726562 C 195.960938 119.914062 196.042969 116.894531 194.222656 114.976562 C 192.414062 113.054688 189.367188 112.976562 187.464844 114.800781 L 184.859375 117.265625 C 182.945312 119.082031 182.863281 122.101562 184.683594 124.015625 C 185.617188 125.007812 186.890625 125.503906 188.152344 125.503906 Z M 188.152344 125.503906 " fill-opacity="1" fill-rule="nonzero"/><path fill="#000000" d="M 163.015625 149.320312 C 164.195312 149.320312 165.386719 148.890625 166.308594 148.011719 L 168.910156 145.542969 C 170.828125 143.730469 170.90625 140.710938 169.085938 138.792969 C 167.277344 136.878906 164.230469 136.800781 162.328125 138.621094 L 159.722656 141.085938 C 157.808594 142.898438 157.726562 145.917969 159.546875 147.835938 C 160.484375 148.824219 161.753906 149.320312 163.015625 149.320312 Z M 163.015625 149.320312 " fill-opacity="1" fill-rule="nonzero"/><path fill="#000000" d="M 167.078125 130.476562 C 168.257812 130.476562 169.449219 130.042969 170.371094 129.164062 L 172.972656 126.699219 C 174.890625 124.886719 174.972656 121.867188 173.148438 119.949219 C 171.339844 118.03125 168.304688 117.949219 166.390625 119.773438 L 163.785156 122.238281 C 161.871094 124.050781 161.789062 127.070312 163.613281 128.988281 C 164.546875 129.980469 165.816406 130.476562 167.078125 130.476562 Z M 167.078125 130.476562 " fill-opacity="1" fill-rule="nonzero"/><path fill="#000000" d="M 178.601562 144.761719 C 179.535156 145.753906 180.808594 146.25 182.070312 146.25 C 183.25 146.25 184.4375 145.816406 185.359375 144.9375 L 187.964844 142.472656 C 189.878906 140.660156 189.960938 137.640625 188.140625 135.722656 C 186.34375 133.808594 183.296875 133.730469 181.378906 135.546875 L 178.777344 138.011719 C 176.863281 139.824219 176.78125 142.84375 178.601562 144.761719 Z M 178.601562 144.761719 " fill-opacity="1" fill-rule="nonzero"/><path fill="#000000" d="M 203.140625 141.277344 C 204.320312 141.277344 205.511719 140.847656 206.433594 139.964844 L 209.039062 137.5 C 210.953125 135.6875 211.035156 132.667969 209.214844 130.75 C 207.402344 128.832031 204.355469 128.757812 202.453125 130.574219 L 199.851562 133.039062 C 197.933594 134.855469 197.851562 137.875 199.675781 139.789062 C 200.609375 140.78125 201.882812 141.277344 203.140625 141.277344 Z M 203.140625 141.277344 " fill-opacity="1" fill-rule="nonzero"/></svg>