<svg xmlns="http://www.w3.org/2000/svg" xmlns:xlink="http://www.w3.org/1999/xlink" width="500" zoomAndPan="magnify" viewBox="0 0 375 374.999991" height="500" preserveAspectRatio="xMidYMid meet" version="1.0"><defs><clipPath id="7bfd604490"><path d="M 0 2.109375 L 375 2.109375 L 375 372.609375 L 0 372.609375 Z M 0 2.109375 " clip-rule="nonzero"/></clipPath></defs><path fill="#231f20" d="M 126.320312 185.152344 L 127.246094 185.152344 C 146.757812 182.375 161.015625 174.523438 169.535156 161.777344 C 182.777344 141.972656 176.90625 117.890625 176.640625 116.875 C 176.511719 116.496094 176.347656 116.132812 176.148438 115.785156 C 175.949219 115.4375 175.722656 115.109375 175.460938 114.804688 C 175.203125 114.496094 174.917969 114.21875 174.605469 113.964844 C 174.292969 113.714844 173.960938 113.492188 173.609375 113.300781 C 173.253906 113.109375 172.886719 112.953125 172.503906 112.832031 C 172.121094 112.710938 171.730469 112.625 171.332031 112.578125 C 170.9375 112.527344 170.535156 112.515625 170.136719 112.542969 C 169.734375 112.566406 169.339844 112.628906 168.953125 112.726562 C 168.5625 112.828125 168.1875 112.960938 167.824219 113.132812 C 167.460938 113.300781 167.113281 113.503906 166.789062 113.734375 C 166.464844 113.96875 166.160156 114.230469 165.882812 114.523438 C 165.605469 114.8125 165.359375 115.125 165.140625 115.460938 C 164.921875 115.796875 164.738281 116.152344 164.585938 116.523438 C 164.433594 116.894531 164.316406 117.273438 164.234375 117.667969 C 164.152344 118.058594 164.109375 118.457031 164.101562 118.859375 C 164.097656 119.257812 164.125 119.65625 164.195312 120.050781 C 164.195312 120.050781 168.917969 139.722656 158.808594 154.71875 C 152.363281 164.246094 141.152344 170.246094 125.4375 172.363281 C 125.03125 172.410156 124.636719 172.496094 124.246094 172.617188 C 123.859375 172.738281 123.484375 172.898438 123.125 173.09375 C 122.765625 173.285156 122.429688 173.511719 122.113281 173.769531 C 121.800781 174.03125 121.511719 174.316406 121.25 174.628906 C 120.992188 174.941406 120.761719 175.277344 120.566406 175.636719 C 120.367188 175.992188 120.207031 176.363281 120.082031 176.753906 C 119.957031 177.140625 119.871094 177.535156 119.820312 177.941406 C 119.773438 178.34375 119.761719 178.75 119.789062 179.15625 C 119.816406 179.5625 119.882812 179.964844 119.988281 180.359375 C 120.09375 180.753906 120.234375 181.132812 120.410156 181.5 C 120.589844 181.867188 120.800781 182.214844 121.042969 182.539062 C 121.289062 182.867188 121.558594 183.167969 121.863281 183.441406 C 122.164062 183.714844 122.488281 183.960938 122.835938 184.171875 C 123.183594 184.386719 123.546875 184.5625 123.929688 184.707031 C 124.3125 184.847656 124.703125 184.953125 125.105469 185.023438 C 125.507812 185.089844 125.914062 185.121094 126.320312 185.109375 Z M 126.320312 185.152344 " fill-opacity="1" fill-rule="nonzero"/><path fill="#231f20" d="M 180.570312 86.132812 C 185.601562 87.070312 190.679688 87.539062 195.796875 87.542969 C 203.667969 87.664062 211.332031 86.472656 218.796875 83.972656 C 219.503906 83.710938 220.144531 83.335938 220.71875 82.847656 C 221.292969 82.359375 221.769531 81.789062 222.140625 81.132812 C 222.515625 80.480469 222.761719 79.78125 222.886719 79.035156 C 223.015625 78.292969 223.007812 77.550781 222.871094 76.808594 C 222.734375 76.066406 222.472656 75.375 222.089844 74.722656 C 221.707031 74.074219 221.222656 73.511719 220.640625 73.03125 C 220.058594 72.554688 219.410156 72.1875 218.699219 71.9375 C 217.988281 71.691406 217.253906 71.570312 216.5 71.578125 C 215.707031 71.578125 214.941406 71.726562 214.203125 72.019531 C 208.203125 73.917969 202.050781 74.816406 195.753906 74.710938 C 191.449219 74.71875 187.183594 74.324219 182.953125 73.519531 C 182.554688 73.476562 182.160156 73.476562 181.761719 73.519531 C 181.359375 73.511719 180.960938 73.539062 180.566406 73.605469 C 180.171875 73.671875 179.785156 73.773438 179.410156 73.910156 C 179.03125 74.050781 178.671875 74.222656 178.328125 74.429688 C 177.984375 74.632812 177.664062 74.871094 177.363281 75.136719 C 177.0625 75.402344 176.792969 75.695312 176.546875 76.011719 C 176.300781 76.332031 176.089844 76.667969 175.910156 77.027344 C 175.726562 77.382812 175.582031 77.753906 175.46875 78.140625 C 175.359375 78.523438 175.285156 78.917969 175.246094 79.316406 C 175.210938 79.714844 175.210938 80.113281 175.246094 80.511719 C 175.285156 80.910156 175.359375 81.304688 175.472656 81.6875 C 175.582031 82.074219 175.730469 82.445312 175.910156 82.800781 C 176.089844 83.160156 176.304688 83.496094 176.550781 83.816406 C 176.792969 84.132812 177.066406 84.425781 177.367188 84.691406 C 177.664062 84.957031 177.988281 85.195312 178.332031 85.398438 C 178.675781 85.605469 179.035156 85.777344 179.410156 85.914062 C 179.789062 86.054688 180.175781 86.15625 180.570312 86.222656 Z M 180.570312 86.132812 " fill-opacity="1" fill-rule="nonzero"/><g clip-path="url(#7bfd604490)"><path fill="#231f20" d="M 372.097656 190.886719 C 371.492188 190.34375 370.808594 189.925781 370.046875 189.636719 C 369.285156 189.347656 368.496094 189.207031 367.683594 189.210938 L 367.152344 189.210938 L 352.894531 190.578125 C 354.128906 188.523438 355.175781 186.375 356.035156 184.132812 C 356.894531 181.894531 357.558594 179.601562 358.019531 177.246094 C 358.484375 174.894531 358.738281 172.519531 358.789062 170.121094 C 358.839844 167.722656 358.6875 165.339844 358.324219 162.96875 C 353.601562 135.929688 328.882812 124.507812 313.125 121.464844 C 294.585938 48.773438 183.792969 4.445312 178.980469 2.550781 C 178.230469 2.25 177.449219 2.101562 176.640625 2.109375 C 176.03125 2.109375 175.429688 2.195312 174.84375 2.367188 C 174.257812 2.539062 173.707031 2.789062 173.191406 3.117188 C 172.671875 3.445312 172.214844 3.835938 171.808594 4.296875 C 171.40625 4.753906 171.074219 5.261719 170.816406 5.8125 C 155.277344 38.761719 124.777344 57.15625 94.980469 74.796875 L 70.617188 54.375 C 68.03125 52.1875 65.152344 50.507812 61.972656 49.339844 C 58.792969 48.171875 55.507812 47.585938 52.121094 47.582031 C 51.015625 47.582031 49.914062 47.582031 48.808594 47.582031 C 47.351562 47.746094 45.914062 48.015625 44.496094 48.398438 C 43.082031 48.777344 41.703125 49.261719 40.359375 49.851562 C 39.015625 50.441406 37.722656 51.128906 36.484375 51.914062 C 35.246094 52.699219 34.074219 53.574219 32.96875 54.539062 C 31.863281 55.503906 30.839844 56.546875 29.890625 57.664062 C 28.945312 58.785156 28.089844 59.96875 27.320312 61.21875 C 26.554688 62.46875 25.886719 63.769531 25.316406 65.121094 C 24.75 66.472656 24.285156 67.859375 23.925781 69.277344 C 23.570312 70.699219 23.320312 72.140625 23.183594 73.601562 C 23.042969 75.058594 23.015625 76.519531 23.097656 77.984375 C 23.183594 79.449219 23.375 80.898438 23.679688 82.332031 C 23.984375 83.765625 24.394531 85.167969 24.910156 86.539062 C 25.425781 87.910156 26.046875 89.238281 26.765625 90.515625 C 27.484375 91.792969 28.292969 93.007812 29.199219 94.164062 C 30.101562 95.320312 31.085938 96.398438 32.15625 97.402344 C 33.222656 98.410156 34.359375 99.328125 35.566406 100.160156 L 46.207031 107.480469 C 39.144531 113.5625 32.832031 120.339844 27.269531 127.816406 C 26.375 128.925781 25.53125 130.074219 24.734375 131.257812 C 23.9375 132.441406 23.195312 133.65625 22.5 134.902344 C 21.808594 136.148438 21.167969 137.417969 20.582031 138.71875 C 19.996094 140.019531 19.46875 141.34375 18.996094 142.6875 C 18.519531 144.03125 18.105469 145.394531 17.746094 146.773438 C 17.390625 148.15625 17.089844 149.546875 16.851562 150.953125 C 16.609375 152.359375 16.429688 153.773438 16.308594 155.191406 C 16.1875 156.613281 16.128906 158.035156 16.128906 159.460938 C 16.128906 160.886719 16.1875 162.308594 16.308594 163.730469 C 16.429688 165.152344 16.609375 166.566406 16.851562 167.96875 C 17.089844 169.375 17.390625 170.769531 17.746094 172.148438 C 18.105469 173.527344 18.519531 174.890625 18.996094 176.234375 C 19.46875 177.582031 19.996094 178.902344 20.582031 180.203125 C 21.167969 181.503906 21.808594 182.777344 22.5 184.023438 C 23.195312 185.269531 23.9375 186.484375 24.734375 187.667969 C 25.53125 188.847656 26.375 189.996094 27.269531 191.109375 C 20.738281 190.535156 14.027344 189.917969 7.714844 189.257812 L 7.1875 189.257812 C 6.371094 189.246094 5.582031 189.386719 4.820312 189.675781 C 4.058594 189.964844 3.375 190.382812 2.773438 190.933594 C 2.121094 191.542969 1.625 192.257812 1.277344 193.082031 C 0.929688 193.902344 0.765625 194.761719 0.785156 195.652344 C 0.816406 206.964844 1.875 218.183594 3.964844 229.304688 C 3.925781 230.292969 4.117188 231.234375 4.539062 232.128906 C 5.328125 236.105469 6.25 240.054688 7.296875 243.972656 C 8.347656 247.894531 9.523438 251.773438 10.828125 255.617188 C 12.128906 259.457031 13.558594 263.253906 15.109375 267 C 16.660156 270.75 18.332031 274.445312 20.125 278.085938 C 21.914062 281.726562 23.824219 285.300781 25.851562 288.816406 C 27.875 292.332031 30.015625 295.777344 32.265625 299.15625 C 34.515625 302.53125 36.875 305.828125 39.34375 309.050781 C 41.808594 312.273438 44.378906 315.410156 47.050781 318.464844 C 49.722656 321.519531 52.488281 324.484375 55.355469 327.359375 C 58.21875 330.234375 61.175781 333.011719 64.222656 335.691406 C 67.269531 338.371094 70.398438 340.953125 73.613281 343.429688 C 76.832031 345.90625 80.121094 348.273438 83.492188 350.535156 C 86.863281 352.800781 90.300781 354.949219 93.8125 356.988281 C 97.324219 359.023438 100.894531 360.945312 104.53125 362.75 C 108.167969 364.554688 111.859375 366.238281 115.605469 367.804688 C 119.351562 369.367188 123.144531 370.808594 126.984375 372.125 C 127.65625 372.351562 128.347656 372.46875 129.058594 372.476562 L 245.941406 372.476562 C 246.652344 372.46875 247.34375 372.347656 248.015625 372.125 C 251.863281 370.804688 255.660156 369.363281 259.410156 367.796875 C 263.160156 366.226562 266.855469 364.539062 270.496094 362.730469 C 274.136719 360.921875 277.710938 359 281.226562 356.957031 C 284.742188 354.914062 288.183594 352.761719 291.558594 350.492188 C 294.929688 348.226562 298.226562 345.851562 301.445312 343.371094 C 304.664062 340.890625 307.796875 338.304688 310.84375 335.617188 C 313.894531 332.933594 316.851562 330.148438 319.71875 327.269531 C 322.585938 324.390625 325.355469 321.417969 328.027344 318.359375 C 330.703125 315.296875 333.273438 312.152344 335.738281 308.925781 C 338.207031 305.695312 340.566406 302.390625 342.816406 299.007812 C 345.066406 295.625 347.207031 292.175781 349.230469 288.652344 C 351.257812 285.128906 353.164062 281.546875 354.953125 277.898438 C 356.746094 274.253906 358.414062 270.550781 359.964844 266.796875 C 361.511719 263.039062 362.9375 259.238281 364.238281 255.390625 C 365.539062 251.542969 366.710938 247.652344 367.757812 243.730469 C 368.804688 239.804688 369.71875 235.847656 370.507812 231.863281 C 370.691406 231.335938 370.808594 230.789062 370.859375 230.230469 C 373.054688 218.808594 374.175781 207.28125 374.214844 195.652344 C 374.210938 194.746094 374.023438 193.875 373.65625 193.046875 C 373.285156 192.21875 372.765625 191.5 372.097656 190.886719 Z M 37.773438 135.402344 C 43.410156 127.863281 49.886719 121.128906 57.195312 115.199219 L 121.949219 159.792969 C 123.039062 160.542969 124.246094 160.925781 125.570312 160.9375 C 126.257812 160.9375 126.925781 160.832031 127.578125 160.617188 C 128.230469 160.402344 128.832031 160.089844 129.386719 159.683594 C 129.9375 159.277344 130.414062 158.796875 130.8125 158.238281 C 131.210938 157.679688 131.511719 157.074219 131.714844 156.417969 C 131.921875 155.761719 132.015625 155.09375 132.007812 154.40625 C 131.996094 153.722656 131.882812 153.054688 131.65625 152.40625 C 131.433594 151.757812 131.117188 151.160156 130.703125 150.613281 C 130.289062 150.066406 129.796875 149.597656 129.234375 149.207031 L 42.894531 89.75 C 42.449219 89.441406 42.019531 89.113281 41.605469 88.761719 C 41.195312 88.40625 40.800781 88.035156 40.425781 87.644531 C 40.046875 87.253906 39.695312 86.84375 39.359375 86.414062 C 39.027344 85.988281 38.714844 85.546875 38.425781 85.085938 C 38.136719 84.628906 37.871094 84.15625 37.628906 83.667969 C 37.386719 83.183594 37.171875 82.6875 36.980469 82.179688 C 36.789062 81.671875 36.625 81.15625 36.484375 80.632812 C 36.347656 80.109375 36.234375 79.578125 36.148438 79.042969 C 36.0625 78.507812 36.007812 77.96875 35.976562 77.425781 C 35.945312 76.886719 35.941406 76.34375 35.964844 75.800781 C 35.988281 75.261719 36.039062 74.722656 36.117188 74.183594 C 36.195312 73.648438 36.300781 73.117188 36.433594 72.589844 C 36.566406 72.066406 36.722656 71.546875 36.910156 71.039062 C 37.09375 70.527344 37.300781 70.027344 37.539062 69.539062 C 37.773438 69.050781 38.03125 68.574219 38.316406 68.113281 C 38.597656 67.648438 38.902344 67.203125 39.230469 66.769531 C 40.554688 65.007812 42.175781 63.578125 44.097656 62.492188 C 46.015625 61.402344 48.070312 60.738281 50.265625 60.507812 L 52.078125 60.507812 C 53.964844 60.511719 55.792969 60.839844 57.566406 61.484375 C 59.339844 62.125 60.953125 63.050781 62.40625 64.257812 L 142.695312 131.519531 C 143.898438 132.527344 145.28125 133.027344 146.847656 133.019531 C 147.5 133.007812 148.132812 132.902344 148.753906 132.699219 C 149.375 132.492188 149.949219 132.199219 150.476562 131.820312 C 151.007812 131.441406 151.46875 130.988281 151.859375 130.46875 C 152.253906 129.949219 152.558594 129.378906 152.777344 128.765625 C 152.996094 128.152344 153.117188 127.519531 153.140625 126.867188 C 153.167969 126.21875 153.09375 125.578125 152.921875 124.949219 C 152.75 124.320312 152.492188 123.730469 152.140625 123.179688 C 151.789062 122.632812 151.363281 122.148438 150.863281 121.726562 L 105.398438 83.53125 C 134 66.503906 162.78125 48.246094 179.6875 16.753906 C 201.757812 26.457031 284.300781 66.109375 300.101562 122.917969 C 287.023438 126.921875 273.714844 129.9375 260.1875 131.960938 C 246.65625 133.988281 233.050781 135 219.371094 135.003906 C 214.957031 135.003906 210.542969 135.003906 205.773438 134.652344 L 205.375 134.652344 C 204.949219 134.644531 204.527344 134.675781 204.105469 134.75 C 203.683594 134.828125 203.273438 134.941406 202.875 135.097656 C 202.480469 135.253906 202.097656 135.445312 201.738281 135.675781 C 201.378906 135.90625 201.046875 136.167969 200.738281 136.464844 C 200.429688 136.761719 200.152344 137.082031 199.90625 137.433594 C 199.664062 137.785156 199.457031 138.15625 199.285156 138.546875 C 199.113281 138.9375 198.980469 139.339844 198.890625 139.757812 C 198.796875 140.175781 198.746094 140.597656 198.738281 141.023438 C 198.730469 141.453125 198.761719 141.875 198.835938 142.296875 C 198.914062 142.714844 199.027344 143.125 199.183594 143.523438 C 199.339844 143.921875 199.53125 144.300781 199.761719 144.660156 C 199.992188 145.019531 200.253906 145.355469 200.550781 145.664062 C 200.847656 145.96875 201.167969 146.246094 201.519531 146.492188 C 201.871094 146.734375 202.242188 146.945312 202.632812 147.117188 C 203.023438 147.289062 203.429688 147.417969 203.84375 147.511719 C 204.261719 147.601562 204.683594 147.652344 205.113281 147.664062 C 210.101562 147.925781 215 148.015625 219.765625 148.015625 C 234.824219 148.078125 249.792969 146.925781 264.660156 144.546875 C 279.53125 142.171875 294.113281 138.609375 308.402344 133.855469 C 314.714844 134.828125 341.199219 140.386719 345.566406 165.351562 C 345.847656 167.777344 345.851562 170.207031 345.582031 172.632812 C 345.3125 175.0625 344.773438 177.429688 343.96875 179.738281 C 343.160156 182.042969 342.109375 184.230469 340.804688 186.300781 C 339.503906 188.367188 337.984375 190.265625 336.253906 191.992188 C 286.816406 196.179688 236.9375 198.164062 187.058594 198.164062 C 139.828125 198.164062 92.640625 196.3125 45.808594 192.609375 C 26.695312 174.699219 23.828125 154.457031 37.773438 135.402344 Z M 358.984375 223.617188 C 302.089844 229.085938 244.792969 231.820312 187.5 231.820312 C 130.207031 231.820312 72.734375 229.085938 16.011719 223.617188 C 14.816406 216.679688 14.0625 209.695312 13.761719 202.664062 C 71.410156 208.308594 129.453125 211.132812 187.5 211.132812 C 245.542969 211.132812 303.589844 208.308594 361.238281 202.707031 C 360.890625 209.734375 360.140625 216.71875 358.984375 223.660156 Z M 244.839844 359.640625 L 130.074219 359.640625 C 126.671875 358.453125 123.308594 357.15625 119.984375 355.757812 C 116.664062 354.359375 113.386719 352.855469 110.160156 351.253906 C 106.929688 349.648438 103.753906 347.949219 100.632812 346.148438 C 97.507812 344.347656 94.445312 342.449219 91.441406 340.460938 C 88.4375 338.46875 85.496094 336.382812 82.621094 334.210938 C 79.75 332.035156 76.945312 329.773438 74.210938 327.425781 C 71.476562 325.078125 68.820312 322.644531 66.238281 320.128906 C 63.65625 317.617188 61.152344 315.023438 58.730469 312.355469 C 56.3125 309.683594 53.976562 306.941406 51.726562 304.128906 C 49.476562 301.3125 47.316406 298.429688 45.246094 295.480469 C 43.175781 292.53125 41.199219 289.519531 39.316406 286.445312 C 37.4375 283.375 35.652344 280.246094 33.964844 277.0625 C 32.277344 273.878906 30.6875 270.644531 29.203125 267.363281 C 27.71875 264.082031 26.335938 260.753906 25.054688 257.386719 C 23.777344 254.019531 22.605469 250.613281 21.539062 247.171875 C 20.472656 243.730469 19.511719 240.261719 18.664062 236.757812 C 74.675781 242.007812 131.089844 244.699219 187.5 244.699219 C 243.910156 244.699219 300.277344 241.964844 356.335938 236.714844 C 355.488281 240.21875 354.527344 243.691406 353.460938 247.136719 C 352.394531 250.578125 351.222656 253.984375 349.941406 257.355469 C 348.660156 260.726562 347.277344 264.054688 345.792969 267.339844 C 344.304688 270.621094 342.714844 273.855469 341.027344 277.042969 C 339.339844 280.226562 337.554688 283.359375 335.667969 286.433594 C 333.785156 289.507812 331.808594 292.519531 329.734375 295.46875 C 327.664062 298.421875 325.5 301.304688 323.25 304.121094 C 321 306.9375 318.660156 309.683594 316.238281 312.351562 C 313.816406 315.023438 311.3125 317.617188 308.726562 320.132812 C 306.144531 322.648438 303.484375 325.078125 300.746094 327.429688 C 298.011719 329.777344 295.207031 332.039062 292.328125 334.214844 C 289.449219 336.390625 286.507812 338.472656 283.5 340.464844 C 280.496094 342.457031 277.429688 344.351562 274.304688 346.152344 C 271.179688 347.953125 268 349.65625 264.769531 351.257812 C 261.539062 352.859375 258.257812 354.363281 254.933594 355.761719 C 251.609375 357.160156 248.246094 358.453125 244.839844 359.640625 Z M 244.839844 359.640625 " fill-opacity="1" fill-rule="nonzero"/></g></svg>