<svg xmlns="http://www.w3.org/2000/svg" xmlns:xlink="http://www.w3.org/1999/xlink" width="500" zoomAndPan="magnify" viewBox="0 0 375 374.999991" height="500" preserveAspectRatio="xMidYMid meet" version="1.0"><path fill="#000000" d="M 113.566406 259.585938 L 113.566406 289.445312 C 113.566406 290.851562 114.703125 292 116.117188 292 C 117.527344 292 118.667969 290.859375 118.667969 289.445312 L 118.667969 259.585938 C 118.667969 258.171875 117.527344 257.03125 116.117188 257.03125 C 114.703125 257.03125 113.566406 258.171875 113.566406 259.585938 Z M 113.566406 259.585938 " fill-opacity="1" fill-rule="nonzero"/><path fill="#000000" d="M 372.472656 169.277344 C 370.96875 166.613281 369.546875 164.097656 373.023438 158.347656 C 374.859375 155.296875 375.125 151.25 373.777344 146.960938 C 371.871094 140.894531 367.195312 135.316406 362.148438 133.078125 C 357.710938 131.105469 357.214844 127.742188 356.640625 123.851562 C 356.242188 121.109375 355.828125 118.28125 353.894531 116.070312 C 349.519531 111.050781 342.789062 111.144531 337.390625 111.214844 L 335.984375 111.230469 C 333.375 111.253906 332.046875 110.894531 331.222656 109.996094 C 330.628906 109.355469 330.21875 108.277344 329.78125 107.136719 C 329.285156 105.832031 328.714844 104.355469 327.703125 103.074219 C 325.921875 100.820312 323.136719 100.246094 320.890625 99.78125 C 319.707031 99.539062 318.585938 99.3125 317.839844 98.902344 C 316.421875 98.132812 315.15625 96.734375 313.816406 95.257812 C 312.027344 93.277344 310.003906 91.03125 307.148438 90 C 303.875 88.8125 300.414062 89.503906 297.371094 90.117188 C 293.699219 90.863281 291.371094 91.234375 289.855469 89.636719 C 289.378906 89.136719 288.96875 88.390625 288.53125 87.59375 C 288.113281 86.839844 287.652344 85.992188 287.03125 85.191406 C 283.621094 80.78125 277.445312 79.847656 270.109375 82.613281 C 269.378906 82.890625 268.644531 83.1875 267.90625 83.476562 C 264.085938 85.003906 260.484375 86.449219 257.234375 85.449219 C 255.808594 85.011719 254.394531 84.058594 252.90625 83.054688 C 250.84375 81.664062 248.707031 80.226562 246.023438 79.738281 C 242.886719 79.164062 239.929688 80.105469 237.308594 80.941406 C 235.058594 81.65625 232.921875 82.324219 231.039062 81.984375 C 228.953125 81.601562 226.976562 79.949219 224.882812 78.207031 C 222.183594 75.949219 219.117188 73.398438 215.128906 73.277344 C 211.710938 73.160156 208.949219 74.851562 206.460938 76.335938 C 204.847656 77.300781 203.316406 78.214844 201.792969 78.582031 C 198.5 79.398438 194.976562 77.765625 191.242188 76.035156 C 187.4375 74.277344 183.492188 72.445312 179.113281 72.769531 C 176.632812 72.949219 174.40625 73.789062 172.25 74.597656 C 170.179688 75.382812 168.214844 76.125 166.339844 76.125 C 166.308594 76.125 166.277344 76.125 166.238281 76.125 C 164.277344 76.101562 162.214844 75.25 160.035156 74.347656 C 157.132812 73.144531 153.84375 71.785156 150.265625 72.351562 C 146.722656 72.902344 143.847656 75.1875 141.316406 77.214844 C 138.84375 79.1875 136.421875 80.996094 134.136719 80.941406 C 133.140625 80.894531 132.027344 80.492188 130.851562 80.058594 C 129.902344 79.714844 128.921875 79.351562 127.851562 79.125 C 121.757812 76.066406 112.996094 75.03125 105.234375 86.722656 C 103.660156 89.082031 99.0625 87 98.011719 86.488281 C 94.339844 84.695312 89.308594 82.246094 84.949219 85.214844 C 82.328125 87.007812 81.207031 90.007812 80.21875 92.664062 L 79.777344 93.820312 C 78.859375 96.167969 77.472656 97.714844 76.554688 97.769531 C 75.957031 97.753906 75.054688 97.191406 74.175781 96.648438 C 72.597656 95.65625 70.636719 94.425781 68.160156 94.902344 C 64.691406 95.570312 63.238281 98.878906 62.070312 101.535156 C 61.898438 101.929688 61.734375 102.3125 61.5625 102.683594 C 60.234375 105.511719 57.324219 108.058594 54.972656 107.214844 C 54.46875 107.035156 53.992188 106.761719 53.503906 106.5 C 52.054688 105.707031 50.257812 104.71875 48.035156 105.195312 C 45.863281 105.675781 44.472656 107.375 43.613281 108.613281 C 42.386719 110.390625 41.460938 112.300781 40.574219 114.15625 C 40.019531 115.316406 39.453125 116.472656 38.824219 117.582031 C 37.226562 120.386719 35.351562 122.113281 33.570312 122.453125 C 32.839844 122.59375 31.96875 122.539062 31.035156 122.492188 C 29.316406 122.398438 27.363281 122.289062 25.402344 123.230469 C 21.730469 125.007812 20.648438 128.980469 19.691406 132.488281 C 19.292969 133.957031 18.914062 135.355469 18.390625 136.535156 C 17.933594 136.480469 17.378906 136.320312 16.804688 136.164062 C 15.34375 135.761719 13.539062 135.261719 11.59375 135.867188 C 7.804688 137.035156 5.890625 141.5 6.457031 147.800781 C 6.675781 150.253906 7.046875 154.355469 5.375 155.613281 C 5.066406 155.839844 4.707031 156.003906 4.355469 156.1875 C 3.191406 156.757812 1.617188 157.554688 0.816406 159.445312 C 0.226562 160.828125 0.34375 162.210938 0.488281 163.140625 C 0.808594 165.261719 1.601562 167.148438 2.371094 168.976562 C 3.335938 171.273438 4.15625 173.261719 3.882812 175.195312 C 3.757812 176.035156 3.40625 176.953125 3.027344 177.929688 C 2.320312 179.757812 1.515625 181.824219 1.929688 184.230469 C 2.355469 186.699219 3.875 188.394531 5.21875 189.894531 C 5.960938 190.734375 6.503906 191.378906 6.839844 191.960938 C 8.097656 208.574219 12.636719 230.953125 29.253906 251.492188 C 57.402344 286.300781 110.679688 303.949219 187.601562 303.949219 C 264.523438 303.949219 317.792969 286.300781 345.941406 251.492188 C 361.269531 232.53125 366.324219 212.007812 368.003906 195.898438 C 371.738281 189.257812 374.183594 181.855469 374.105469 173.914062 C 374.082031 172.121094 373.265625 170.675781 372.472656 169.277344 Z M 368.839844 177.402344 C 368.480469 181.253906 367.484375 184.945312 366.023438 188.449219 C 365.171875 190.5 364.171875 192.488281 363.042969 194.398438 C 352.414062 212.414062 331.253906 224.039062 331.003906 224.140625 C 326.996094 225.5 318.882812 231.398438 316.386719 235.351562 C 314.082031 239.015625 312.050781 239.023438 308.378906 239.03125 C 305.257812 239.039062 301.371094 239.046875 297.082031 241.84375 C 295.144531 243.109375 293.605469 244.796875 292.117188 246.433594 C 290.265625 248.460938 288.515625 250.382812 286.46875 250.871094 C 284.671875 251.296875 282.574219 250.605469 280.363281 249.875 C 277.898438 249.054688 275.105469 248.136719 272.132812 248.609375 C 269.042969 249.09375 266.546875 250.964844 264.335938 252.617188 C 262.375 254.085938 260.523438 255.46875 258.625 255.671875 C 256.703125 255.875 254.625 254.902344 252.402344 253.859375 C 249.765625 252.625 246.761719 251.226562 243.4375 251.59375 C 240.375 251.941406 237.90625 253.691406 235.730469 255.234375 C 234.351562 256.214844 233.050781 257.132812 231.714844 257.660156 C 228.011719 259.105469 223.683594 257.644531 219.109375 256.097656 C 213.703125 254.265625 207.558594 252.191406 201.917969 255.375 C 200.050781 256.425781 198.554688 257.894531 197.109375 259.328125 C 195.273438 261.132812 193.683594 262.699219 191.878906 262.925781 C 189.664062 263.207031 187.546875 261.472656 185.074219 259.460938 C 182.855469 257.652344 180.335938 255.609375 177.292969 254.871094 C 176.609375 254.707031 175.921875 254.636719 175.214844 254.636719 C 172.375 254.636719 169.371094 255.820312 166.453125 256.976562 C 164.410156 257.777344 162.300781 258.621094 160.789062 258.761719 C 157.289062 259.097656 154.046875 257.195312 150.636719 255.175781 C 146.546875 252.765625 141.910156 250.023438 136.316406 251.289062 C 134.464844 251.703125 132.703125 252.464844 130.984375 253.207031 C 127.460938 254.722656 125.1875 255.554688 123.398438 254.421875 C 122.527344 253.875 121.734375 252.796875 120.902344 251.648438 C 119.539062 249.773438 117.984375 247.640625 115.316406 246.871094 C 111.769531 245.835938 108.59375 247.917969 106.050781 249.589844 C 103.738281 251.113281 102.246094 251.996094 101.265625 251.421875 C 100.730469 251.105469 100.207031 250.320312 99.648438 249.488281 C 99.398438 249.113281 99.148438 248.734375 98.878906 248.371094 C 95.984375 244.4375 91.601562 242.425781 88.078125 240.8125 C 84.007812 238.953125 79.941406 238.769531 76.019531 238.597656 C 72.558594 238.449219 69.296875 238.300781 66.230469 237.003906 C 65.921875 236.4375 65.484375 235.132812 65.210938 234.324219 C 64.316406 231.691406 63.609375 229.609375 61.835938 228.792969 C 58.691406 227.351562 55.433594 225.859375 51.972656 224.910156 C 51.183594 224.691406 50.421875 224.28125 49.527344 223.808594 C 48.921875 223.488281 48.304688 223.164062 47.652344 222.875 C 33.089844 216.429688 12.191406 197.34375 12.285156 193.09375 C 12.285156 192.199219 12.105469 191.394531 11.832031 190.648438 C 11.210938 188.976562 10.066406 187.65625 9.070312 186.53125 C 9.054688 186.507812 9.03125 186.492188 9.015625 186.46875 C 8.003906 185.339844 7.132812 184.355469 6.949219 183.335938 C 6.777344 182.328125 7.242188 181.132812 7.78125 179.75 C 8.207031 178.652344 8.683594 177.402344 8.894531 176.042969 C 8.90625 175.996094 8.921875 175.949219 8.929688 175.902344 C 9.039062 175.128906 9.054688 174.375 9 173.644531 C 8.832031 171.273438 7.953125 169.097656 7.132812 167.125 C 7.109375 167.078125 7.09375 167.03125 7.070312 166.972656 C 6.394531 165.363281 5.757812 163.839844 5.523438 162.347656 C 5.421875 161.640625 5.5 161.425781 5.5 161.417969 C 5.570312 161.261719 6.230469 160.933594 6.628906 160.734375 C 7.1875 160.460938 7.820312 160.136719 8.433594 159.675781 C 9.1875 159.109375 9.734375 158.417969 10.191406 157.671875 C 10.378906 157.292969 10.582031 156.933594 10.78125 156.570312 C 12.066406 153.570312 11.753906 149.84375 11.523438 147.324219 C 11.21875 143.9375 11.894531 141.097656 13.09375 140.722656 C 13.621094 140.566406 14.503906 140.808594 15.4375 141.066406 C 16.960938 141.484375 18.859375 142.011719 20.882812 141.28125 L 21.722656 140.972656 L 22.1875 140.210938 C 23.386719 138.246094 24 135.992188 24.59375 133.816406 C 25.332031 131.121094 26.023438 128.574219 27.597656 127.8125 C 28.375 127.433594 29.472656 127.496094 30.738281 127.566406 C 31.882812 127.628906 33.167969 127.703125 34.503906 127.449219 C 37.828125 126.820312 40.851562 124.285156 43.242188 120.101562 C 43.933594 118.894531 44.554688 117.621094 45.15625 116.355469 C 46.003906 114.601562 46.796875 112.953125 47.792969 111.507812 C 48.609375 110.335938 49.03125 110.1875 49.109375 110.171875 C 49.433594 110.09375 50.335938 110.570312 51.039062 110.964844 C 51.699219 111.324219 52.4375 111.734375 53.261719 112.015625 C 58.570312 113.886719 63.867188 109.714844 66.152344 104.835938 C 66.339844 104.425781 66.527344 104.003906 66.714844 103.578125 C 67.367188 102.09375 68.261719 100.066406 69.101562 99.902344 C 69.679688 99.8125 70.589844 100.425781 71.460938 100.96875 C 72.78125 101.792969 74.417969 102.816406 76.421875 102.863281 C 76.46875 102.863281 76.515625 102.863281 76.5625 102.863281 C 79.863281 102.863281 82.6875 100.308594 84.5 95.65625 L 84.972656 94.433594 C 85.730469 92.398438 86.515625 90.289062 87.796875 89.417969 C 89.570312 88.207031 92.328125 89.386719 95.90625 91.132812 C 101.730469 93.96875 106.921875 93.355469 109.464844 89.535156 C 114.320312 82.214844 119.363281 80.445312 125.8125 83.800781 L 126.519531 84.042969 C 127.328125 84.199219 128.183594 84.507812 129.09375 84.835938 C 130.511719 85.355469 132.113281 85.945312 133.902344 86.023438 C 138.191406 86.203125 141.535156 83.550781 144.484375 81.191406 C 146.722656 79.40625 148.832031 77.726562 151.035156 77.378906 C 153.214844 77.050781 155.578125 78.023438 158.082031 79.054688 C 160.605469 80.097656 163.21875 81.175781 166.160156 81.214844 C 168.96875 81.222656 171.582031 80.296875 174.039062 79.367188 C 175.929688 78.652344 177.726562 77.976562 179.457031 77.851562 C 182.511719 77.609375 185.71875 79.101562 189.09375 80.664062 C 193.460938 82.683594 197.972656 84.773438 202.996094 83.53125 C 205.253906 82.984375 207.183594 81.828125 209.050781 80.710938 C 211.128906 79.472656 213.191406 78.339844 214.957031 78.371094 C 217.195312 78.441406 219.335938 80.226562 221.609375 82.117188 C 223.996094 84.105469 226.703125 86.371094 230.105469 86.992188 C 233.253906 87.570312 236.21875 86.628906 238.847656 85.796875 C 241.097656 85.082031 243.214844 84.40625 245.105469 84.75 C 246.738281 85.050781 248.347656 86.132812 250.050781 87.28125 C 251.785156 88.445312 253.578125 89.65625 255.730469 90.3125 C 260.6875 91.839844 265.511719 89.90625 269.78125 88.199219 C 270.496094 87.917969 271.191406 87.636719 271.890625 87.375 C 273.78125 86.667969 280.152344 84.632812 282.992188 88.296875 C 283.359375 88.773438 283.699219 89.386719 284.058594 90.039062 C 284.609375 91.03125 285.226562 92.160156 286.160156 93.136719 C 289.691406 96.84375 294.507812 95.878906 298.367188 95.09375 C 300.996094 94.566406 303.484375 94.070312 305.40625 94.769531 C 307.070312 95.375 308.511719 96.96875 310.035156 98.660156 C 311.59375 100.394531 313.21875 102.179688 315.40625 103.375 C 316.8125 104.136719 318.359375 104.457031 319.855469 104.757812 C 321.503906 105.09375 323.066406 105.417969 323.699219 106.21875 C 324.226562 106.886719 324.617188 107.882812 325.019531 108.945312 C 325.574219 110.40625 326.21875 112.066406 327.457031 113.425781 C 329.835938 116.023438 333.183594 116.316406 336.007812 116.316406 L 337.445312 116.300781 C 342.472656 116.238281 347.210938 116.167969 350.042969 119.410156 C 350.984375 120.488281 351.261719 122.382812 351.589844 124.582031 C 352.21875 128.816406 353.066406 134.617188 360.070312 137.726562 C 363.742188 139.363281 367.460938 143.878906 368.90625 148.484375 C 369.804688 151.359375 369.71875 153.921875 368.644531 155.699219 C 367.507812 157.585938 366.777344 159.28125 366.332031 160.820312 C 364.808594 166.046875 366.675781 169.394531 368.027344 171.792969 C 368.285156 172.238281 368.535156 172.695312 368.714844 173.097656 C 368.871094 173.433594 368.984375 173.738281 368.992188 173.953125 C 369.015625 175.113281 368.945312 176.261719 368.839844 177.402344 Z M 63.6875 273.746094 C 64.488281 273.3125 65.050781 272.496094 65.050781 271.523438 L 65.050781 242.023438 C 68.683594 243.382812 72.292969 243.546875 75.800781 243.707031 C 79.1875 243.855469 82.398438 244.035156 85.410156 245.269531 C 84.460938 245.636719 83.785156 246.558594 83.785156 247.632812 L 83.785156 283.152344 C 76.339844 280.308594 69.671875 277.148438 63.6875 273.746094 Z M 41.21875 253.605469 L 41.21875 225.324219 C 42.804688 226.214844 44.277344 226.976562 45.589844 227.558594 C 46.128906 227.800781 46.648438 228.070312 47.148438 228.335938 C 48.207031 228.894531 49.300781 229.476562 50.617188 229.835938 C 53.558594 230.644531 56.375 231.917969 59.355469 233.277344 C 59.664062 233.84375 60.101562 235.148438 60.382812 235.964844 C 60.808594 237.222656 61.199219 238.339844 61.671875 239.265625 C 60.675781 239.613281 59.945312 240.53125 59.945312 241.65625 L 59.945312 271.515625 C 59.945312 271.523438 59.953125 271.53125 59.953125 271.539062 C 52.027344 266.671875 45.390625 261.378906 39.835938 255.828125 C 40.652344 255.414062 41.21875 254.589844 41.21875 253.605469 Z M 36.511719 222.480469 C 36.292969 222.859375 36.128906 223.273438 36.128906 223.746094 L 36.128906 251.902344 C 21.972656 236.050781 15.925781 218.601562 13.359375 203.605469 C 19.316406 210.082031 28.570312 217.390625 36.511719 222.480469 Z M 151.851562 263.003906 C 150.4375 263.003906 149.300781 264.144531 149.300781 265.558594 L 149.300781 295.417969 C 149.300781 296.15625 149.625 296.808594 150.117188 297.273438 C 125.40625 295.085938 105.101562 290.71875 88.40625 284.847656 C 88.675781 284.449219 88.871094 283.984375 88.871094 283.464844 L 88.871094 247.625 C 88.871094 247.320312 88.792969 247.042969 88.699219 246.777344 C 91.011719 247.949219 93.261719 249.355469 94.769531 251.40625 C 94.988281 251.703125 95.203125 252.011719 95.40625 252.324219 C 96.222656 253.542969 97.140625 254.925781 98.683594 255.828125 C 102.472656 258.054688 106.011719 255.726562 108.84375 253.859375 C 110.679688 252.648438 112.585938 251.40625 113.894531 251.773438 C 114.894531 252.066406 115.8125 253.332031 116.785156 254.667969 C 117.8125 256.074219 118.980469 257.675781 120.667969 258.746094 C 124.863281 261.402344 129.1875 259.539062 132.992188 257.894531 C 134.5625 257.21875 136.035156 256.585938 137.425781 256.269531 C 141.039062 255.453125 144.289062 257.363281 148.03125 259.578125 C 151.8125 261.808594 156.070312 264.347656 161.257812 263.851562 C 163.484375 263.640625 165.933594 262.675781 168.304688 261.730469 C 171.078125 260.628906 174.21875 259.390625 176.085938 259.835938 C 178.007812 260.300781 179.875 261.824219 181.851562 263.429688 C 182.855469 264.246094 183.90625 265.101562 185.027344 265.847656 L 185.027344 295.410156 C 185.027344 296.824219 186.167969 297.964844 187.578125 297.964844 C 188.984375 297.964844 190.128906 296.824219 190.128906 295.410156 L 190.128906 267.96875 C 190.535156 268.023438 190.945312 268.0625 191.367188 268.0625 C 191.746094 268.0625 192.128906 268.039062 192.519531 267.992188 C 196.019531 267.546875 198.492188 265.109375 200.671875 262.972656 C 201.941406 261.722656 203.136719 260.542969 204.414062 259.828125 C 208.078125 257.761719 212.433594 259.230469 217.476562 260.9375 C 222.464844 262.625 228.136719 264.535156 233.566406 262.421875 C 235.480469 261.675781 237.105469 260.519531 238.683594 259.414062 C 240.519531 258.109375 242.257812 256.882812 244.007812 256.679688 C 245.929688 256.472656 248.019531 257.449219 250.246094 258.484375 C 252.152344 259.382812 254.238281 260.347656 256.515625 260.679688 L 256.515625 289.445312 C 256.515625 290.851562 257.652344 292 259.0625 292 C 260.46875 292 261.613281 290.859375 261.613281 289.445312 L 261.613281 260.175781 C 263.800781 259.390625 265.675781 257.984375 267.386719 256.710938 C 269.285156 255.289062 271.082031 253.945312 272.925781 253.652344 C 274.691406 253.378906 276.667969 254.03125 278.769531 254.730469 C 281.054688 255.484375 283.605469 256.316406 286.300781 256.058594 L 286.300781 283.472656 C 286.300781 283.992188 286.5 284.449219 286.765625 284.855469 C 270.070312 290.71875 249.773438 295.09375 225.054688 297.28125 C 225.550781 296.816406 225.878906 296.164062 225.878906 295.425781 L 225.878906 265.566406 C 225.878906 264.152344 224.742188 263.011719 223.328125 263.011719 C 221.917969 263.011719 220.777344 264.152344 220.777344 265.566406 L 220.777344 295.425781 C 220.777344 296.320312 221.265625 297.074219 221.964844 297.53125 C 211.308594 298.378906 199.894531 298.84375 187.585938 298.84375 C 175.277344 298.84375 163.855469 298.378906 153.199219 297.53125 C 153.898438 297.074219 154.394531 296.320312 154.394531 295.425781 L 154.394531 265.566406 C 154.402344 264.144531 153.253906 263.003906 151.851562 263.003906 Z M 315.226562 271.546875 C 315.226562 271.539062 315.234375 271.53125 315.234375 271.523438 L 315.234375 247.632812 C 315.234375 246.21875 314.097656 245.082031 312.6875 245.082031 C 311.28125 245.082031 310.136719 246.21875 310.136719 247.632812 L 310.136719 271.523438 C 310.136719 272.496094 310.699219 273.3125 311.5 273.746094 C 305.515625 277.148438 298.839844 280.296875 291.410156 283.152344 L 291.410156 254.101562 C 293.128906 252.898438 294.570312 251.335938 295.890625 249.882812 C 297.222656 248.421875 298.476562 247.035156 299.875 246.125 C 302.902344 244.152344 305.570312 244.144531 308.402344 244.136719 C 312.386719 244.128906 316.90625 244.121094 320.710938 238.078125 C 322.5 235.234375 329.65625 229.984375 332.644531 228.972656 C 332.996094 228.855469 333.703125 228.515625 334.667969 227.980469 C 334.246094 228.4375 333.96875 229.042969 333.96875 229.71875 L 333.96875 253.605469 C 333.96875 254.589844 334.535156 255.414062 335.351562 255.835938 C 329.789062 261.386719 323.152344 266.679688 315.226562 271.546875 Z M 339.054688 251.902344 L 339.054688 229.71875 C 339.054688 228.3125 337.914062 227.164062 336.503906 227.164062 C 336.269531 227.164062 336.0625 227.234375 335.851562 227.296875 C 341.429688 224.023438 352.65625 216.203125 361.523438 205.3125 C 358.792969 219.902344 352.679688 236.648438 339.054688 251.902344 Z M 339.054688 251.902344 " fill-opacity="1" fill-rule="nonzero"/><path fill="#000000" d="M 97.78125 116.417969 C 99.460938 116.660156 101.140625 116.777344 102.789062 116.777344 C 111.597656 116.777344 119.703125 113.425781 125.617188 107.34375 C 125.921875 107.027344 126.097656 106.652344 126.207031 106.265625 C 126.457031 105.394531 126.261719 104.410156 125.5625 103.734375 C 124.550781 102.753906 122.941406 102.777344 121.960938 103.78125 C 116.078125 109.832031 107.542969 112.652344 98.503906 111.375 C 97.109375 111.183594 95.820312 112.144531 95.617188 113.542969 C 95.492188 114.398438 95.84375 115.175781 96.425781 115.726562 C 96.800781 116.0625 97.25 116.339844 97.78125 116.417969 Z M 97.78125 116.417969 " fill-opacity="1" fill-rule="nonzero"/><path fill="#000000" d="M 240.761719 227.902344 C 235.605469 228.492188 230.71875 230.222656 225.832031 233.199219 C 221.382812 231.707031 215.492188 229.867188 208.476562 229.867188 C 202.019531 229.867188 195.964844 231.414062 190.449219 234.480469 C 187.996094 233.253906 185.453125 232.328125 182.878906 231.707031 C 180.390625 231.109375 177.8125 230.804688 175.214844 230.804688 C 169.582031 230.804688 164.695312 232.210938 160.90625 233.585938 C 156.707031 231.148438 149.058594 227.132812 139.164062 227.132812 C 136.460938 227.132812 133.746094 227.441406 131.085938 228.035156 C 130.96875 228.058594 130.851562 228.09375 130.738281 228.117188 C 128.035156 226.269531 125.066406 224.878906 121.929688 223.972656 C 116.941406 222.519531 111.589844 222.371094 106.414062 223.550781 C 103.203125 221.53125 100.214844 220.164062 97.980469 219.140625 C 91.8125 216.3125 86.023438 215.441406 81.886719 215.078125 C 79.179688 211.644531 75.785156 208.972656 71.777344 207.136719 C 70.488281 206.546875 68.976562 207.113281 68.394531 208.394531 C 68.394531 208.394531 68.394531 208.402344 68.394531 208.402344 C 67.820312 209.679688 68.378906 211.191406 69.648438 211.769531 C 73.210938 213.40625 76.183594 215.847656 78.484375 219.023438 L 79.179688 219.992188 L 80.367188 220.078125 C 84.140625 220.351562 89.84375 221.027344 95.867188 223.785156 C 98.167969 224.839844 101.320312 226.285156 104.5625 228.421875 L 105.511719 229.050781 L 106.617188 228.761719 C 111.246094 227.535156 116.046875 227.582031 120.527344 228.878906 C 123.476562 229.734375 126.238281 231.09375 128.722656 232.933594 L 129.710938 233.664062 L 130.898438 233.339844 C 131.328125 233.222656 131.777344 233.121094 132.222656 233.019531 C 134.503906 232.507812 136.851562 232.242188 139.179688 232.242188 C 148.578125 232.242188 155.882812 236.539062 159.390625 238.597656 L 160.441406 239.21875 L 161.585938 238.785156 C 165.109375 237.449219 169.847656 235.910156 175.238281 235.910156 C 177.433594 235.910156 179.609375 236.167969 181.703125 236.671875 C 184.292969 237.300781 186.855469 238.292969 189.3125 239.636719 L 190.597656 240.335938 L 191.855469 239.578125 C 192.144531 239.398438 192.449219 239.21875 192.757812 239.046875 C 197.550781 236.34375 202.84375 234.976562 208.492188 234.976562 C 215.144531 234.976562 220.898438 236.917969 225.101562 238.339844 L 225.933594 235.925781 L 225.351562 238.425781 L 226.523438 238.824219 L 227.558594 238.15625 C 232.117188 235.210938 236.625 233.523438 241.347656 232.980469 C 242.410156 232.863281 243.5 232.796875 244.589844 232.796875 C 245.953125 232.796875 247.039062 231.722656 247.109375 230.378906 C 247.109375 230.332031 247.132812 230.292969 247.132812 230.253906 C 247.132812 228.847656 245.992188 227.699219 244.582031 227.699219 C 243.296875 227.691406 242.015625 227.761719 240.761719 227.902344 Z M 240.761719 227.902344 " fill-opacity="1" fill-rule="nonzero"/><path fill="#000000" d="M 303.082031 215.363281 C 296.179688 215.953125 289.777344 218.136719 284.074219 221.859375 C 282.605469 222.820312 281.164062 223.917969 279.765625 225.121094 C 277.75 224.792969 275.75 224.625 273.796875 224.625 C 272.394531 224.625 271.246094 225.765625 271.246094 227.179688 C 271.246094 227.210938 271.261719 227.242188 271.269531 227.28125 C 271.324219 228.640625 272.425781 229.734375 273.796875 229.734375 C 275.828125 229.734375 277.929688 229.945312 280.042969 230.363281 L 281.304688 230.613281 L 282.253906 229.742188 C 283.730469 228.382812 285.28125 227.171875 286.851562 226.144531 C 291.917969 222.835938 297.363281 220.972656 303.507812 220.453125 C 304.910156 220.335938 305.953125 219.09375 305.835938 217.695312 C 305.789062 217.082031 305.492188 216.566406 305.097656 216.164062 C 304.582031 215.628906 303.867188 215.300781 303.082031 215.363281 Z M 303.082031 215.363281 " fill-opacity="1" fill-rule="nonzero"/><path fill="#000000" d="M 348.507812 155.039062 L 349.070312 153.207031 L 347.472656 152.15625 C 343.730469 149.695312 340.683594 146.550781 338.339844 142.804688 C 337.679688 141.757812 337.085938 140.667969 336.535156 139.519531 C 336.09375 138.59375 335.679688 137.640625 335.3125 136.652344 L 335.273438 136.550781 L 334.738281 135.101562 L 333.089844 134.992188 C 325.105469 134.460938 318.578125 131.480469 313.691406 126.136719 C 312.765625 125.125 311.234375 125.054688 310.191406 125.917969 C 310.160156 125.941406 310.121094 125.949219 310.089844 125.980469 C 309.054688 126.929688 308.984375 128.542969 309.933594 129.585938 C 310.90625 130.65625 311.957031 131.613281 313.039062 132.519531 C 314.402344 133.664062 315.847656 134.695312 317.371094 135.582031 C 317.605469 135.714844 317.832031 135.84375 318.066406 135.96875 C 315.972656 136.34375 313.949219 136.863281 312.003906 137.5 C 308.332031 138.710938 304.910156 140.28125 301.804688 141.875 C 297.851562 139.96875 293.363281 139.332031 289.03125 140.085938 C 287.644531 140.328125 286.71875 141.648438 286.953125 143.03125 C 287.023438 143.464844 287.226562 143.824219 287.480469 144.148438 C 288.035156 144.863281 288.9375 145.277344 289.894531 145.113281 C 292.257812 144.707031 294.570312 145.671875 296.894531 146.339844 C 298.4375 146.898438 300.535156 146.859375 301.75 147.667969 L 301.765625 147.667969 L 302.996094 147.015625 C 308.914062 143.894531 315.398438 140.949219 322.734375 140.515625 C 323.582031 140.46875 324.273438 139.984375 324.695312 139.316406 C 324.804688 139.140625 324.925781 138.992188 324.996094 138.796875 C 326.949219 139.339844 329.003906 139.730469 331.144531 139.953125 C 331.269531 140.25 331.4375 140.507812 331.5625 140.808594 C 334.1875 146.726562 338.042969 151.621094 343.132812 155.351562 C 341.132812 163.132812 341.730469 170.933594 344.890625 178.582031 C 344.90625 178.621094 344.914062 178.660156 344.929688 178.691406 C 345.203125 179.34375 345.714844 179.796875 346.316406 180.042969 C 346.363281 180.066406 346.410156 180.097656 346.46875 180.113281 C 346.726562 180.207031 347 180.261719 347.28125 180.261719 C 347.613281 180.261719 347.941406 180.199219 348.261719 180.066406 C 349.566406 179.523438 350.179688 178.03125 349.628906 176.726562 C 346.648438 169.566406 346.269531 162.277344 348.507812 155.039062 Z M 348.507812 155.039062 " fill-opacity="1" fill-rule="nonzero"/><path fill="#000000" d="M 153.5625 102.863281 C 157.796875 104.300781 161.816406 105.023438 165.894531 105.078125 C 171.777344 105.078125 176.53125 103.78125 179.820312 102.652344 C 184.488281 104.804688 191.304688 107.757812 199.949219 107.757812 C 202.898438 107.757812 205.835938 107.40625 208.683594 106.707031 C 210.109375 106.351562 211.539062 105.902344 212.949219 105.378906 C 217.070312 107.960938 221.28125 109.628906 225.785156 110.460938 C 230.71875 111.382812 235.859375 111.207031 241.277344 109.910156 C 243.765625 111.292969 246.207031 112.355469 248.730469 113.125 C 252.199219 114.195312 255.824219 114.726562 259.503906 114.726562 C 260.914062 114.726562 262.054688 113.589844 262.054688 112.175781 C 262.054688 112.128906 262.027344 112.089844 262.027344 112.039062 C 261.957031 110.699219 260.867188 109.621094 259.511719 109.621094 C 256.339844 109.621094 253.21875 109.15625 250.230469 108.238281 C 247.789062 107.484375 245.40625 106.414062 242.949219 104.96875 L 242.03125 104.425781 L 241.003906 104.695312 C 235.914062 106.039062 231.246094 106.265625 226.710938 105.417969 C 222.480469 104.640625 218.535156 102.988281 214.652344 100.371094 L 213.515625 99.609375 L 212.25 100.136719 C 210.683594 100.789062 209.074219 101.324219 207.464844 101.722656 C 205.019531 102.328125 202.492188 102.628906 199.949219 102.628906 C 191.972656 102.628906 185.515625 99.640625 181.027344 97.558594 L 180.070312 97.109375 L 179.082031 97.472656 C 175.898438 98.628906 171.527344 99.949219 165.902344 99.949219 C 162.410156 99.902344 158.902344 99.265625 155.179688 98 C 153.859375 97.550781 152.402344 98.265625 151.945312 99.59375 C 151.679688 100.378906 151.851562 101.171875 152.28125 101.816406 C 152.597656 102.296875 153.011719 102.675781 153.5625 102.863281 Z M 153.5625 102.863281 " fill-opacity="1" fill-rule="nonzero"/><path fill="#000000" d="M 69.03125 171.695312 C 65.3125 170.785156 60.839844 171.726562 56.585938 174.289062 C 53.089844 172.632812 49.480469 171.035156 45.652344 170.480469 C 40.835938 169.773438 36.425781 170.933594 32.824219 173.8125 C 32.792969 171.648438 32.574219 169.480469 32.140625 167.3125 C 32.957031 165.589844 33.640625 163.753906 34.171875 161.835938 L 37.703125 160.546875 L 42.519531 152.679688 C 43.34375 151.335938 44.074219 149.9375 44.765625 148.40625 C 45.054688 147.761719 45.054688 147.0625 44.820312 146.449219 C 44.585938 145.84375 44.128906 145.328125 43.484375 145.035156 C 42.207031 144.460938 40.691406 145.035156 40.121094 146.316406 C 39.523438 147.644531 38.886719 148.855469 38.183594 150.015625 L 34.300781 156.359375 L 29.875 157.96875 L 29.5625 159.3125 C 29.019531 161.640625 28.21875 163.824219 27.207031 165.804688 L 26.785156 166.628906 L 26.988281 167.53125 C 27.828125 171.242188 27.992188 174.949219 27.433594 178.769531 L 27.277344 179.65625 L 27.71875 180.449219 C 28.746094 182.320312 29.546875 184.269531 30.09375 186.25 C 30.40625 187.382812 31.4375 188.121094 32.550781 188.121094 C 32.777344 188.121094 33.003906 188.089844 33.230469 188.023438 C 33.269531 188.015625 33.296875 187.984375 33.335938 187.976562 C 33.71875 187.84375 34.039062 187.632812 34.316406 187.359375 C 34.949219 186.730469 35.265625 185.808594 35.003906 184.882812 C 34.675781 183.679688 34.246094 182.5 33.765625 181.332031 C 33.40625 180.457031 33.027344 179.585938 32.589844 178.746094 C 32.597656 178.652344 32.605469 178.558594 32.613281 178.460938 C 33.53125 178.972656 34.699219 178.910156 35.53125 178.171875 C 37.210938 176.695312 39.140625 175.863281 41.257812 175.554688 C 42.425781 175.390625 43.644531 175.328125 44.9375 175.515625 C 48.476562 176.035156 52.148438 177.792969 55.691406 179.5 L 57.019531 180.136719 L 58.234375 179.304688 C 59.765625 178.25 61.363281 177.480469 62.902344 177.007812 C 64.699219 176.449219 66.417969 176.300781 67.828125 176.648438 C 69.203125 176.984375 70.582031 176.144531 70.914062 174.777344 C 71.234375 173.417969 70.394531 172.035156 69.03125 171.695312 Z M 69.03125 171.695312 " fill-opacity="1" fill-rule="nonzero"/><path fill="#000000" d="M 98.714844 157.011719 C 102.875 156.40625 107.535156 157.5625 110.027344 160.136719 C 110.53125 160.65625 111.199219 160.917969 111.855469 160.917969 C 112.5 160.917969 113.136719 160.679688 113.628906 160.191406 C 114.640625 159.210938 114.664062 157.601562 113.683594 156.585938 C 112.601562 155.472656 111.269531 154.558594 109.808594 153.820312 C 109.308594 153.5625 108.78125 153.347656 108.246094 153.136719 C 107.28125 152.761719 106.277344 152.460938 105.242188 152.234375 C 101.109375 151.351562 96.558594 151.675781 92.832031 153.5 C 91.570312 154.113281 91.042969 155.644531 91.65625 156.910156 C 92.273438 158.171875 93.796875 158.707031 95.058594 158.085938 C 96.175781 157.546875 97.421875 157.199219 98.714844 157.011719 Z M 98.714844 157.011719 " fill-opacity="1" fill-rule="nonzero"/><path fill="#000000" d="M 154.785156 200.910156 C 154.054688 202.113281 154.441406 203.6875 155.648438 204.417969 C 156.0625 204.667969 156.511719 204.785156 156.964844 204.785156 C 157.828125 204.785156 158.667969 204.347656 159.148438 203.558594 C 159.828125 202.429688 161.15625 201.605469 162.695312 201.367188 C 164.222656 201.132812 165.746094 201.507812 166.734375 202.382812 L 168.328125 203.78125 L 169.988281 202.460938 C 173.292969 199.851562 178.21875 200.054688 180.550781 202.921875 C 180.808594 203.246094 181.136719 203.457031 181.492188 203.613281 C 182.335938 203.992188 183.367188 203.921875 184.125 203.285156 C 185.21875 202.398438 185.382812 200.785156 184.496094 199.695312 C 182.660156 197.4375 180.015625 196.085938 177.167969 195.671875 C 174.257812 195.246094 171.128906 195.789062 168.414062 197.367188 C 166.507812 196.339844 164.222656 195.953125 161.910156 196.316406 C 158.863281 196.792969 156.261719 198.46875 154.785156 200.910156 Z M 154.785156 200.910156 " fill-opacity="1" fill-rule="nonzero"/><path fill="#000000" d="M 120.226562 130.71875 C 120.1875 130.726562 120.148438 130.742188 120.109375 130.75 C 118.707031 130.984375 117.410156 131.480469 116.273438 132.179688 C 115.761719 132.496094 115.308594 132.863281 114.871094 133.257812 C 114.195312 133.871094 113.574219 134.539062 113.105469 135.316406 C 113.011719 135.464844 112.988281 135.636719 112.929688 135.804688 C 112.539062 136.917969 112.914062 138.183594 113.96875 138.820312 C 114.382812 139.070312 114.828125 139.191406 115.285156 139.191406 C 116.148438 139.191406 116.988281 138.75 117.464844 137.964844 C 118.085938 136.933594 119.246094 136.1875 120.613281 135.875 C 120.746094 135.84375 120.871094 135.796875 121.011719 135.769531 C 121.828125 135.644531 122.628906 135.699219 123.359375 135.90625 C 124 136.085938 124.589844 136.375 125.050781 136.785156 L 126.652344 138.183594 L 128.316406 136.863281 C 128.707031 136.550781 129.125 136.28125 129.5625 136.054688 C 129.601562 136.039062 129.632812 136.015625 129.664062 136 C 132.222656 134.671875 135.289062 134.757812 137.457031 136.125 C 137.980469 136.453125 138.476562 136.839844 138.875 137.328125 C 139.761719 138.417969 141.371094 138.59375 142.453125 137.695312 C 142.929688 137.3125 143.191406 136.777344 143.308594 136.226562 C 143.457031 135.503906 143.324219 134.726562 142.820312 134.113281 C 142.6875 133.949219 142.515625 133.824219 142.375 133.664062 C 141.332031 132.535156 140.082031 131.660156 138.703125 131.050781 C 135.304688 130.992188 131.957031 130.9375 128.644531 130.882812 C 127.996094 131.136719 127.351562 131.425781 126.738281 131.789062 C 125.875 131.324219 124.933594 131.007812 123.945312 130.8125 C 122.753906 130.570312 121.507812 130.523438 120.226562 130.71875 Z M 120.226562 130.71875 " fill-opacity="1" fill-rule="nonzero"/><path fill="#000000" d="M 274.164062 193.4375 C 274.109375 192.519531 273.59375 191.65625 272.691406 191.246094 C 266.242188 188.347656 258.261719 189.730469 252.644531 194.546875 C 246.699219 191.710938 239.875 192.128906 234.109375 195.703125 C 232.003906 194.5 229.464844 193.949219 226.890625 194.171875 C 223.605469 194.460938 220.597656 195.992188 218.644531 198.367188 C 217.75 199.449219 217.898438 201.0625 218.992188 201.957031 C 219.46875 202.351562 220.042969 202.539062 220.605469 202.539062 C 221.34375 202.539062 222.074219 202.222656 222.574219 201.613281 C 223.667969 200.285156 225.40625 199.425781 227.335938 199.253906 C 229.269531 199.082031 231.136719 199.625 232.445312 200.738281 L 233.992188 202.058594 L 235.621094 200.847656 C 239.546875 197.925781 244.277344 197.132812 248.582031 198.46875 C 249.664062 198.804688 250.730469 199.238281 251.746094 199.851562 L 253.492188 200.910156 L 254.90625 199.433594 C 259 195.144531 265.605469 193.660156 270.613281 195.90625 C 271.898438 196.480469 273.40625 195.90625 273.976562 194.617188 C 274.140625 194.234375 274.179688 193.832031 274.164062 193.4375 Z M 274.164062 193.4375 " fill-opacity="1" fill-rule="nonzero"/><path fill="#000000" d="M 131.800781 177.300781 C 126.738281 176.089844 121.183594 177.667969 117.558594 181.464844 C 117.386719 181.644531 117.277344 181.863281 117.167969 182.078125 C 116.664062 183.058594 116.808594 184.269531 117.636719 185.070312 C 118.132812 185.542969 118.769531 185.777344 119.402344 185.777344 C 120.078125 185.777344 120.746094 185.511719 121.246094 184.992188 C 123.828125 182.289062 128.097656 181.285156 131.601562 182.554688 L 133.132812 183.105469 L 134.277344 181.953125 C 137.933594 178.257812 143.167969 177.253906 147.921875 179.3125 C 149.214844 179.875 150.714844 179.273438 151.269531 177.984375 C 151.835938 176.6875 151.238281 175.1875 149.945312 174.628906 C 145.714844 172.789062 141.121094 172.765625 137.015625 174.289062 C 135.148438 174.988281 133.375 175.972656 131.800781 177.300781 Z M 131.800781 177.300781 " fill-opacity="1" fill-rule="nonzero"/><path fill="#000000" d="M 248.222656 133.398438 C 247.070312 133.996094 245.953125 134.695312 244.925781 135.558594 C 242.03125 134.867188 238.980469 135.121094 236.210938 136.148438 C 234.148438 136.917969 232.234375 138.105469 230.679688 139.730469 C 229.707031 140.753906 229.746094 142.363281 230.757812 143.339844 C 231.253906 143.808594 231.886719 144.046875 232.523438 144.046875 C 233.199219 144.046875 233.863281 143.777344 234.367188 143.261719 C 236.949219 140.558594 241.199219 139.550781 244.722656 140.824219 L 246.253906 141.375 L 247.398438 140.21875 C 251.0625 136.527344 256.285156 135.519531 261.039062 137.578125 C 262.328125 138.144531 263.832031 137.539062 264.390625 136.257812 C 264.453125 136.101562 264.453125 135.945312 264.492188 135.785156 C 264.703125 134.820312 264.351562 133.847656 263.566406 133.242188 C 263.410156 133.125 263.261719 132.980469 263.074219 132.894531 C 258.175781 130.757812 252.773438 131.039062 248.222656 133.398438 Z M 248.222656 133.398438 " fill-opacity="1" fill-rule="nonzero"/><path fill="#000000" d="M 249.710938 164.230469 C 248.488281 164.921875 248.058594 166.480469 248.746094 167.707031 C 249.4375 168.929688 250.992188 169.363281 252.222656 168.664062 C 257.832031 165.488281 264.570312 166.09375 269.804688 170.257812 L 271.199219 171.367188 L 272.722656 170.441406 C 276.910156 167.871094 282.464844 168.144531 286.222656 171.101562 L 287.925781 172.4375 L 289.519531 170.972656 C 290.945312 169.667969 292.875 169.007812 294.703125 169.191406 C 295.820312 169.308594 297.386719 169.789062 298.570312 171.429688 C 299.066406 172.121094 299.851562 172.492188 300.644531 172.492188 C 301.160156 172.492188 301.679688 172.332031 302.125 172.011719 C 303.269531 171.1875 303.53125 169.597656 302.707031 168.453125 C 301.492188 166.761719 299.851562 165.542969 297.984375 164.820312 C 297.105469 164.484375 296.195312 164.214844 295.230469 164.113281 C 292.601562 163.847656 289.964844 164.5 287.722656 165.9375 C 284.503906 163.996094 280.722656 163.257812 277.027344 163.699219 C 275.171875 163.917969 273.335938 164.414062 271.609375 165.246094 C 264.988281 160.78125 256.570312 160.34375 249.710938 164.230469 Z M 249.710938 164.230469 " fill-opacity="1" fill-rule="nonzero"/><path fill="#000000" d="M 208.792969 165.890625 C 209.6875 165.890625 210.558594 165.417969 211.027344 164.578125 C 211.710938 163.34375 211.261719 161.789062 210.03125 161.113281 C 208.597656 160.3125 206.957031 159.707031 205.214844 159.265625 C 203.558594 158.847656 201.808594 158.574219 199.988281 158.480469 C 197.832031 158.371094 195.589844 158.488281 193.359375 158.867188 C 187.773438 155.101562 180.195312 154.511719 174.117188 157.472656 C 172.851562 158.09375 172.328125 159.621094 172.9375 160.882812 C 173.003906 161.011719 173.105469 161.097656 173.191406 161.207031 C 173.984375 161.585938 174.804688 161.929688 175.667969 162.234375 C 175.90625 162.195312 176.132812 162.164062 176.351562 162.054688 C 181.074219 159.753906 187.039062 160.367188 191.195312 163.578125 L 191.695312 163.972656 L 192.113281 164.296875 L 193.257812 164.058594 C 195.453125 163.613281 197.691406 163.46875 199.816406 163.578125 C 202.75 163.738281 205.480469 164.398438 207.558594 165.558594 C 207.953125 165.789062 208.367188 165.890625 208.792969 165.890625 Z M 208.792969 165.890625 " fill-opacity="1" fill-rule="nonzero"/><path fill="#000000" d="M 190.558594 134.144531 C 190.699219 134.074219 190.859375 134.035156 190.992188 133.933594 C 193.039062 132.367188 196.246094 132.519531 198.261719 134.105469 C 198.539062 134.324219 198.796875 134.570312 199.023438 134.84375 C 199.527344 135.449219 200.257812 135.761719 200.984375 135.761719 C 201.558594 135.761719 202.140625 135.574219 202.617188 135.175781 C 202.980469 134.867188 203.199219 134.476562 203.347656 134.066406 C 203.644531 133.242188 203.550781 132.296875 202.945312 131.582031 C 202.921875 131.558594 202.898438 131.542969 202.875 131.519531 C 199.230469 127.207031 192.402344 126.445312 187.90625 129.878906 C 187.34375 130.308594 187.011719 130.9375 186.933594 131.597656 C 186.855469 132.234375 187.011719 132.902344 187.429688 133.453125 C 187.664062 133.761719 187.960938 133.980469 188.277344 134.152344 C 189.039062 134.152344 189.796875 134.144531 190.558594 134.144531 Z M 190.558594 134.144531 " fill-opacity="1" fill-rule="nonzero"/><path fill="#000000" d="M 95.757812 197.871094 C 96.238281 198.289062 96.832031 198.492188 97.421875 198.492188 C 98.136719 198.492188 98.847656 198.191406 99.351562 197.605469 C 100.269531 196.535156 100.152344 194.925781 99.085938 194.003906 C 96.023438 191.363281 91.492188 190.695312 87.796875 192.332031 C 86.507812 192.90625 85.929688 194.414062 86.5 195.695312 C 87.066406 196.984375 88.570312 197.566406 89.859375 197 C 91.765625 196.148438 94.179688 196.511719 95.757812 197.871094 Z M 95.757812 197.871094 " fill-opacity="1" fill-rule="nonzero"/><path fill="#000000" d="M 314.617188 190.320312 C 314.480469 190.34375 314.347656 190.351562 314.214844 190.382812 C 312.84375 190.6875 311.972656 192.046875 312.277344 193.421875 C 312.582031 194.796875 313.941406 195.671875 315.3125 195.363281 C 318.152344 194.734375 321.324219 195.664062 323.378906 197.722656 C 323.871094 198.21875 324.53125 198.46875 325.183594 198.46875 C 325.835938 198.46875 326.484375 198.21875 326.988281 197.722656 C 327.425781 197.28125 327.644531 196.707031 327.695312 196.125 C 327.757812 195.402344 327.535156 194.664062 326.988281 194.105469 C 323.769531 190.910156 319.070312 189.488281 314.617188 190.320312 Z M 314.617188 190.320312 " fill-opacity="1" fill-rule="nonzero"/><path fill="#000000" d="M 293.753906 197.949219 C 294.242188 198.460938 294.902344 198.6875 295.542969 198.6875 C 296.203125 198.6875 296.871094 198.460938 297.355469 197.949219 C 298.351562 196.960938 298.351562 195.347656 297.355469 194.351562 C 296.359375 193.351562 294.757812 193.351562 293.761719 194.351562 C 292.757812 195.347656 292.757812 196.960938 293.753906 197.949219 Z M 293.753906 197.949219 " fill-opacity="1" fill-rule="nonzero"/><path fill="#000000" d="M 132.992188 203.921875 C 133.476562 204.410156 134.136719 204.660156 134.773438 204.660156 C 135.4375 204.660156 136.097656 204.402344 136.585938 203.921875 C 137.574219 202.921875 137.574219 201.296875 136.585938 200.300781 C 135.589844 199.308594 133.988281 199.308594 132.992188 200.300781 C 132.003906 201.296875 132.003906 202.929688 132.992188 203.921875 Z M 132.992188 203.921875 " fill-opacity="1" fill-rule="nonzero"/><path fill="#000000" d="M 63.328125 139.070312 C 63.984375 139.070312 64.644531 138.8125 65.136719 138.332031 C 65.445312 138.019531 65.625 137.632812 65.742188 137.242188 C 66 136.367188 65.820312 135.410156 65.152344 134.726562 C 65.144531 134.726562 65.144531 134.71875 65.144531 134.710938 C 64.148438 133.710938 62.550781 133.710938 61.554688 134.710938 C 61.429688 134.835938 61.363281 134.992188 61.269531 135.136719 C 60.753906 135.921875 60.714844 136.902344 61.160156 137.726562 C 61.269531 137.941406 61.378906 138.152344 61.554688 138.324219 C 62.03125 138.820312 62.691406 139.070312 63.328125 139.070312 Z M 63.328125 139.070312 " fill-opacity="1" fill-rule="nonzero"/><path fill="#000000" d="M 81.191406 139.070312 C 81.855469 139.070312 82.515625 138.8125 83.003906 138.332031 C 83.605469 137.71875 83.792969 136.894531 83.667969 136.117188 C 83.589844 135.605469 83.394531 135.101562 83.003906 134.710938 C 82.003906 133.710938 80.40625 133.710938 79.410156 134.710938 C 78.960938 135.160156 78.742188 135.738281 78.695312 136.335938 C 78.648438 137.050781 78.859375 137.78125 79.410156 138.332031 C 79.886719 138.820312 80.554688 139.070312 81.191406 139.070312 Z M 81.191406 139.070312 " fill-opacity="1" fill-rule="nonzero"/><path fill="#000000" d="M 198.484375 186.039062 C 198.96875 186.523438 199.628906 186.777344 200.296875 186.777344 C 200.929688 186.777344 201.597656 186.515625 202.109375 186.039062 C 203.105469 185.039062 203.105469 183.4375 202.109375 182.414062 C 201.085938 181.425781 199.480469 181.425781 198.492188 182.414062 C 197.488281 183.429688 197.488281 185.039062 198.484375 186.039062 Z M 198.484375 186.039062 " fill-opacity="1" fill-rule="nonzero"/><path fill="#000000" d="M 285.445312 120.417969 C 286.445312 119.441406 286.445312 117.816406 285.445312 116.820312 C 284.449219 115.820312 282.828125 115.820312 281.832031 116.820312 C 280.84375 117.816406 280.84375 119.449219 281.832031 120.417969 C 282.339844 120.929688 282.976562 121.179688 283.636719 121.179688 C 284.300781 121.179688 284.9375 120.929688 285.445312 120.417969 Z M 285.445312 120.417969 " fill-opacity="1" fill-rule="nonzero"/><path fill="#000000" d="M 166.347656 122.789062 C 165.351562 121.792969 163.753906 121.792969 162.757812 122.789062 C 161.761719 123.789062 161.761719 125.390625 162.757812 126.390625 C 163.265625 126.898438 163.902344 127.128906 164.570312 127.128906 C 165.203125 127.128906 165.871094 126.898438 166.347656 126.390625 C 167.347656 125.390625 167.347656 123.789062 166.347656 122.789062 Z M 166.347656 122.789062 " fill-opacity="1" fill-rule="nonzero"/><path fill="#000000" d="M 154.449219 156.203125 C 155.445312 155.203125 155.445312 153.601562 154.449219 152.601562 C 153.453125 151.605469 151.851562 151.605469 150.855469 152.601562 C 149.859375 153.601562 149.859375 155.203125 150.855469 156.203125 C 151.339844 156.710938 152 156.964844 152.644531 156.964844 C 153.304688 156.964844 153.960938 156.703125 154.449219 156.203125 Z M 154.449219 156.203125 " fill-opacity="1" fill-rule="nonzero"/></svg>