<svg xmlns="http://www.w3.org/2000/svg" xmlns:xlink="http://www.w3.org/1999/xlink" width="500" zoomAndPan="magnify" viewBox="0 0 375 374.999991" height="500" preserveAspectRatio="xMidYMid meet" version="1.0"><defs><clipPath id="790f25ee4c"><path d="M 15 2 L 360.515625 2 L 360.515625 363 L 15 363 Z M 15 2 " clip-rule="nonzero"/></clipPath></defs><g clip-path="url(#790f25ee4c)"><path fill="#000000" d="M 266.144531 2.007812 C 266.007812 2.007812 265.894531 2.007812 265.757812 2.027344 C 264.648438 2.0625 263.628906 2.621094 262.957031 3.503906 L 257.28125 10.957031 L 234.949219 40.25 L 228.082031 49.257812 L 205.769531 78.566406 L 199.382812 86.945312 C 198.132812 88.59375 198.441406 90.949219 200.109375 92.214844 C 225.492188 111.480469 261.460938 107.207031 280.28125 82.496094 C 299.101562 57.789062 293.617188 22.039062 268.234375 2.773438 C 267.621094 2.3125 266.890625 2.046875 266.144531 2.007812 Z M 266.46875 11.324219 C 286.132812 28.613281 289.855469 57.558594 274.316406 77.953125 C 258.796875 98.332031 229.847656 102.507812 207.898438 88.210938 L 209.585938 85.984375 C 221.15625 93.441406 234.949219 95.242188 247.398438 91.890625 C 247.457031 91.871094 247.515625 91.871094 247.574219 91.851562 C 250.777344 90.96875 253.902344 89.742188 256.878906 88.191406 C 256.992188 88.152344 257.089844 88.09375 257.203125 88.035156 C 257.644531 87.804688 258.085938 87.539062 258.527344 87.308594 C 258.738281 87.191406 258.910156 87.078125 259.101562 86.980469 C 259.429688 86.753906 259.773438 86.542969 260.101562 86.351562 C 260.367188 86.195312 260.65625 86.023438 260.886719 85.871094 C 261.117188 85.753906 261.269531 85.640625 261.441406 85.488281 C 262.113281 85.046875 262.785156 84.546875 263.4375 84.050781 C 263.648438 83.878906 263.820312 83.78125 264.015625 83.609375 C 264.339844 83.398438 264.628906 83.128906 264.933594 82.859375 C 265.144531 82.6875 265.375 82.476562 265.585938 82.304688 C 265.855469 82.09375 266.144531 81.824219 266.410156 81.558594 C 266.640625 81.347656 266.910156 81.136719 267.140625 80.886719 C 267.351562 80.675781 267.640625 80.445312 267.851562 80.195312 C 268.136719 79.929688 268.40625 79.640625 268.636719 79.390625 C 268.847656 79.179688 269.078125 78.949219 269.289062 78.703125 C 269.558594 78.375 269.882812 78.050781 270.171875 77.703125 C 270.324219 77.492188 270.5 77.339844 270.652344 77.148438 C 271.09375 76.613281 271.554688 76.074219 271.976562 75.5 C 272.015625 75.480469 272.015625 75.460938 272.015625 75.460938 C 272.03125 75.460938 272.03125 75.441406 272.03125 75.441406 C 272.472656 74.886719 272.839844 74.332031 273.222656 73.773438 C 273.335938 73.5625 273.453125 73.410156 273.605469 73.21875 C 273.835938 72.835938 274.105469 72.453125 274.355469 72.070312 C 274.527344 71.800781 274.679688 71.53125 274.851562 71.265625 C 275.0625 70.9375 275.238281 70.632812 275.410156 70.324219 C 275.5625 70 275.734375 69.710938 275.890625 69.40625 C 276.0625 69.136719 276.214844 68.828125 276.332031 68.523438 C 276.503906 68.195312 276.65625 67.871094 276.828125 67.5625 C 276.925781 67.277344 277.039062 67.007812 277.210938 66.757812 C 277.367188 66.375 277.539062 66.050781 277.691406 65.6875 C 277.808594 65.476562 277.921875 65.1875 277.960938 64.957031 C 278.191406 64.363281 278.460938 63.75 278.652344 63.15625 C 278.765625 62.773438 278.863281 62.40625 279.035156 62.0625 C 279.09375 61.832031 279.1875 61.566406 279.246094 61.335938 C 279.363281 60.894531 279.476562 60.472656 279.628906 60.03125 C 279.667969 59.859375 279.6875 59.648438 279.746094 59.476562 C 279.859375 58.996094 279.957031 58.460938 280.128906 57.941406 C 280.148438 57.828125 280.167969 57.730469 280.1875 57.558594 C 280.878906 54.28125 281.222656 50.964844 281.222656 47.648438 C 281.183594 34.707031 275.734375 21.867188 265.414062 12.664062 Z M 140.945312 13.21875 C 138.605469 13.203125 135.957031 13.640625 132.984375 14.695312 C 126.578125 17.015625 123.199219 20.925781 121.800781 24.550781 C 120.378906 28.152344 120.1875 30.875 119.632812 31.738281 C 118.808594 33.058594 117.214844 34.324219 115.179688 35.898438 C 113.148438 37.488281 110.613281 39.480469 109.15625 42.796875 C 107.910156 45.65625 108.0625 48.453125 108.429688 50.542969 C 108.8125 52.632812 109.214844 54.164062 109.214844 55.257812 C 109.214844 55.640625 109.195312 55.96875 109.097656 56.332031 C 108.886719 57.558594 107.8125 59.207031 106.492188 61.355469 C 105.1875 63.480469 103.554688 66.375 103.84375 70.035156 C 104.128906 73.679688 106.316406 76.230469 107.988281 77.914062 C 109.65625 79.582031 110.863281 80.734375 111.285156 81.710938 C 111.324219 81.75 111.324219 81.824219 111.34375 81.941406 C 111.726562 82.898438 111.671875 84.527344 111.726562 86.828125 C 111.785156 89.109375 112.167969 92.273438 114.433594 94.957031 C 116.792969 97.734375 119.898438 98.675781 122.296875 99.347656 C 124.695312 100.035156 126.5 100.554688 127.496094 101.339844 C 128.074219 101.78125 128.457031 102.242188 128.878906 102.949219 C 128.878906 102.949219 128.878906 102.949219 128.878906 102.96875 C 130.011719 104.828125 131.140625 109.179688 135.726562 111.769531 C 138.835938 113.550781 142.019531 113.628906 144.53125 113.703125 C 147.066406 113.742188 149.003906 113.855469 150.347656 114.46875 C 155.527344 116.75 157.960938 115.851562 166.230469 119.570312 L 173.097656 138.910156 C 173.75 140.941406 175.9375 142.015625 177.933594 141.308594 C 179.949219 140.597656 180.964844 138.375 180.179688 136.398438 L 173.308594 117.058594 C 177.472656 108.605469 179.8125 108.011719 182.382812 102.949219 C 183.054688 101.628906 184.496094 100.285156 186.394531 98.617188 C 188.292969 96.949219 190.691406 94.878906 191.996094 91.523438 C 193.875 86.636719 192.015625 82.535156 191.707031 80.367188 C 191.59375 79.527344 191.59375 78.914062 191.746094 78.222656 C 192.035156 76.976562 193.128906 75.40625 194.546875 73.351562 C 195.964844 71.300781 197.769531 68.597656 197.847656 64.9375 C 197.90625 61.449219 196.195312 58.746094 194.816406 56.945312 C 193.414062 55.125 192.378906 53.898438 192.054688 52.917969 L 192.054688 52.898438 C 192.035156 52.863281 192.015625 52.804688 191.996094 52.6875 C 191.726562 51.671875 191.9375 50.003906 192.148438 47.628906 C 192.378906 45.269531 192.496094 41.917969 190.382812 38.90625 C 188.3125 35.878906 185.222656 34.691406 182.863281 33.867188 C 180.484375 33.042969 178.664062 32.445312 177.703125 31.660156 C 177.414062 31.449219 177.148438 31.164062 176.9375 30.914062 C 176.246094 30.050781 175.632812 28.613281 174.59375 26.773438 C 173.558594 24.914062 171.890625 22.652344 169.128906 21.234375 C 165.886719 19.585938 162.679688 19.660156 160.109375 19.738281 C 157.539062 19.796875 155.507812 19.851562 154.046875 19.355469 C 153.222656 19.085938 151.613281 17.113281 148.253906 15.117188 C 146.585938 14.121094 144.457031 13.414062 141.90625 13.238281 C 141.578125 13.238281 141.273438 13.21875 140.925781 13.21875 Z M 260.734375 18.835938 C 267.984375 25.488281 272.1875 34.152344 273.242188 43.296875 L 244.90625 39.636719 Z M 217.242188 19.660156 C 215.957031 19.660156 214.691406 19.871094 213.464844 20.140625 C 209.53125 21.078125 205.675781 23.207031 202.585938 26.273438 C 199.515625 29.339844 197.710938 32.945312 197.425781 36.585938 C 197.15625 40.210938 198.480469 43.8125 201.050781 46.382812 C 203.640625 48.933594 207.226562 50.273438 210.871094 49.988281 C 214.519531 49.71875 218.125 47.917969 221.214844 44.847656 C 224.300781 41.78125 226.449219 37.96875 227.390625 34.039062 C 228.332031 30.128906 228.0625 25.660156 224.953125 22.574219 C 223.402344 21.023438 221.519531 20.179688 219.523438 19.851562 C 218.777344 19.738281 218.007812 19.679688 217.242188 19.679688 Z M 140.832031 20.5625 C 141.042969 20.542969 141.214844 20.542969 141.367188 20.5625 C 142.710938 20.621094 143.574219 21.042969 144.4375 21.558594 C 146.164062 22.59375 147.757812 25.164062 151.667969 26.484375 C 154.949219 27.578125 157.960938 27.308594 160.359375 27.234375 C 162.757812 27.195312 164.464844 27.269531 165.75 27.921875 C 166.824219 28.480469 167.324219 29.128906 168.054688 30.433594 C 168.800781 31.738281 169.550781 33.65625 171.140625 35.628906 C 171.679688 36.261719 172.273438 36.914062 173.003906 37.488281 C 175.613281 39.597656 178.394531 40.25 180.445312 40.957031 C 182.5 41.667969 183.613281 42.242188 184.246094 43.164062 C 184.878906 44.082031 184.917969 44.964844 184.722656 46.882812 C 184.511719 48.816406 183.9375 51.5 184.78125 54.683594 C 184.78125 54.683594 184.78125 54.683594 184.78125 54.703125 C 184.839844 54.914062 184.898438 55.125 185.011719 55.355469 C 186.011719 58.265625 187.832031 60.070312 188.925781 61.507812 C 190.019531 62.925781 190.421875 63.652344 190.402344 64.785156 C 190.382812 65.953125 189.730469 67.199219 188.445312 69.058594 C 187.160156 70.898438 185.28125 73.179688 184.511719 76.496094 C 184.074219 78.28125 184.128906 79.964844 184.339844 81.386719 C 184.898438 85.140625 185.78125 86.925781 185.050781 88.804688 C 184.550781 90.125 183.324219 91.371094 181.519531 92.964844 C 179.699219 94.554688 177.320312 96.433594 175.746094 99.539062 C 174.574219 101.839844 172.695312 103.910156 170.164062 107.933594 L 164.8125 92.847656 C 164.734375 92.273438 164.542969 91.71875 164.214844 91.21875 L 161.664062 84.011719 L 173.234375 69.195312 C 175.265625 66.664062 173.347656 62.925781 170.105469 63.097656 C 169.011719 63.15625 167.976562 63.691406 167.304688 64.574219 L 158.671875 75.613281 L 153.339844 60.585938 L 164.925781 45.789062 C 166.941406 43.257812 165.042969 39.519531 161.800781 39.671875 C 160.6875 39.730469 159.667969 40.269531 159 41.148438 L 150.363281 52.191406 L 144.878906 36.742188 C 144.339844 35.148438 142.789062 34.113281 141.097656 34.210938 C 138.566406 34.34375 136.898438 36.894531 137.78125 39.25 L 145.320312 60.453125 C 145.394531 60.988281 145.570312 61.507812 145.855469 61.96875 L 146.835938 64.6875 L 133.175781 61.660156 C 132.925781 61.621094 132.675781 61.601562 132.429688 61.601562 C 127.84375 61.46875 127.054688 68.082031 131.546875 69.039062 L 149.789062 73.085938 L 153.875 84.566406 C 153.875 84.585938 153.894531 84.605469 153.894531 84.625 L 155.140625 88.113281 L 141.484375 85.085938 C 141.253906 85.046875 141.003906 85.027344 140.753906 85.027344 C 136.148438 84.875 135.363281 91.523438 139.851562 92.464844 L 158.117188 96.507812 L 163.105469 110.578125 C 158.652344 109.101562 155.8125 108.664062 153.472656 107.628906 C 150.289062 106.226562 147.257812 106.285156 144.859375 106.226562 C 142.441406 106.171875 140.734375 105.996094 139.527344 105.269531 C 137.800781 104.292969 137.378906 102.355469 135.421875 99.097656 L 135.402344 99.097656 C 134.671875 97.871094 133.65625 96.546875 132.199219 95.417969 C 129.492188 93.328125 126.59375 92.769531 124.445312 92.15625 C 122.277344 91.542969 120.992188 91.007812 120.265625 90.125 C 119.535156 89.28125 119.402344 88.457031 119.34375 86.636719 C 119.304688 84.835938 119.554688 82.285156 118.480469 79.390625 C 118.480469 79.371094 118.480469 79.371094 118.480469 79.351562 C 118.421875 79.140625 118.308594 78.96875 118.269531 78.738281 L 118.25 78.71875 C 116.925781 75.710938 114.757812 74.023438 113.398438 72.664062 C 112.035156 71.28125 111.515625 70.59375 111.441406 69.480469 C 111.382812 68.351562 111.882812 67.179688 112.992188 65.320312 C 114.125 63.480469 115.871094 61.199219 116.5625 57.902344 C 116.773438 57.003906 116.832031 56.101562 116.773438 55.277344 C 116.773438 52.746094 116.121094 50.792969 115.871094 49.316406 C 115.660156 47.839844 115.601562 46.996094 116.101562 45.863281 C 116.675781 44.542969 117.945312 43.375 119.84375 41.878906 C 121.742188 40.402344 124.234375 38.695312 126.078125 35.761719 C 128.1875 32.371094 128.035156 29.378906 128.839844 27.328125 C 129.644531 25.277344 130.664062 23.589844 135.59375 21.828125 C 137.953125 20.964844 139.601562 20.621094 140.867188 20.601562 Z M 85.40625 22.097656 C 84.675781 22.078125 83.96875 22.269531 83.355469 22.652344 C 76.390625 26.714844 73.472656 34.976562 74.914062 42.492188 C 73.894531 42.816406 72.878906 43.238281 71.882812 43.910156 C 69.734375 45.347656 68.027344 47.648438 66.796875 50.734375 C 63.652344 58.652344 64.285156 64.304688 61.292969 82.554688 C 61.117188 83.472656 60.964844 84.414062 60.792969 85.371094 C 59.257812 94.035156 56.957031 103.007812 53.214844 111.730469 L 53.214844 111.75 C 49.914062 119.589844 45.332031 127.332031 40.878906 134.5 C 36.371094 141.730469 32.304688 148.113281 29.597656 153.210938 C 28.238281 155.761719 27.199219 157.964844 26.625 160.074219 C 26.335938 161.128906 26.125 162.164062 26.183594 163.351562 C 26.242188 164.558594 26.742188 166.074219 27.871094 167.164062 C 29.175781 168.390625 30.730469 168.546875 31.824219 168.488281 C 32.9375 168.429688 33.878906 168.105469 34.835938 167.777344 C 36.792969 167.03125 38.902344 165.863281 41.339844 164.269531 C 46.210938 161.070312 52.273438 156.183594 58.816406 149.875 L 58.835938 149.875 C 65.609375 143.359375 72.765625 135.117188 78.769531 125.011719 C 85.425781 113.703125 89.609375 101.703125 91.796875 90.316406 C 92.023438 89.089844 92.234375 87.882812 92.429688 86.695312 C 95.574219 67.027344 93.253906 54.796875 90.757812 49.199219 C 89.359375 46.039062 87.324219 43.777344 84.886719 42.664062 C 84.082031 42.28125 83.277344 42.070312 82.492188 41.917969 C 81.378906 37.21875 83.21875 31.410156 87.152344 29.128906 C 90.472656 27.253906 89.207031 22.191406 85.386719 22.097656 Z M 217.511719 27.175781 C 218.585938 27.234375 219.296875 27.5 219.660156 27.867188 C 220.214844 28.441406 220.65625 29.917969 220.101562 32.273438 C 219.523438 34.652344 217.972656 37.46875 215.917969 39.5 C 213.867188 41.550781 211.890625 42.355469 210.296875 42.472656 C 208.722656 42.585938 207.457031 42.089844 206.363281 41.035156 C 205.269531 39.941406 204.8125 38.714844 204.925781 37.144531 C 205.039062 35.589844 205.847656 33.636719 207.898438 31.585938 C 209.953125 29.550781 212.8125 28 215.207031 27.445312 C 216.109375 27.214844 216.878906 27.15625 217.511719 27.214844 Z M 240.1875 46.613281 L 256.226562 48.683594 L 273.242188 50.867188 C 272.820312 56.695312 270.957031 62.332031 267.773438 67.546875 L 252.925781 56.273438 Z M 80.09375 49.257812 C 80.859375 49.238281 81.398438 49.316406 81.78125 49.46875 C 82.316406 49.699219 83.007812 50.179688 83.910156 52.230469 C 84.582031 53.742188 85.539062 57.214844 86.039062 62.425781 C 85.464844 62.195312 84.832031 62.042969 84.082031 61.984375 C 81.648438 61.8125 80.035156 62.964844 79.210938 63.480469 C 79.039062 63.597656 78.941406 63.652344 78.828125 63.710938 C 78.769531 63.652344 78.617188 63.539062 78.441406 63.425781 C 77.695312 62.808594 76.292969 61.429688 73.839844 61.257812 C 73.070312 61.21875 72.378906 61.296875 71.765625 61.488281 C 72.207031 58.421875 72.746094 56.042969 73.761719 53.511719 C 74.605469 51.386719 75.375 50.601562 76.027344 50.160156 C 76.695312 49.738281 77.539062 49.488281 78.960938 49.335938 C 79.25 49.316406 79.515625 49.296875 79.726562 49.296875 C 79.84375 49.296875 79.957031 49.296875 80.054688 49.296875 Z M 235.621094 52.59375 L 263.226562 73.546875 C 259.046875 77.992188 254.078125 81.269531 248.570312 83.261719 Z M 230.152344 58.996094 L 238.078125 77.722656 L 241.261719 85.277344 C 232.167969 86.714844 222.671875 84.949219 214.328125 79.792969 Z M 317.460938 66.511719 C 299.5625 66.511719 284.964844 81.078125 284.964844 98.980469 C 284.964844 116.867188 299.5625 131.433594 317.460938 131.433594 C 335.359375 131.453125 349.960938 116.867188 349.960938 98.980469 C 349.960938 81.078125 335.359375 66.511719 317.460938 66.511719 Z M 73.339844 68.964844 C 73.378906 69.019531 73.550781 69.136719 73.703125 69.230469 C 74.472656 69.863281 75.871094 71.246094 78.328125 71.398438 C 80.765625 71.570312 82.355469 70.402344 83.179688 69.902344 C 83.355469 69.789062 83.449219 69.730469 83.566406 69.691406 C 83.621094 69.730469 83.777344 69.84375 83.949219 69.960938 C 84.429688 70.34375 85.214844 71.089844 86.386719 71.589844 C 86.328125 75.671875 85.886719 80.3125 85.082031 85.527344 C 84.90625 86.636719 84.695312 87.789062 84.484375 88.9375 C 82.453125 99.519531 78.539062 110.734375 72.378906 121.21875 C 66.777344 130.589844 60.082031 138.335938 53.695312 144.488281 C 47.421875 150.527344 41.589844 155.183594 37.292969 158.003906 C 36.410156 158.578125 35.988281 158.710938 35.257812 159.132812 C 35.640625 158.289062 35.738281 157.792969 36.292969 156.757812 C 38.769531 152.117188 42.796875 145.753906 47.34375 138.488281 L 47.34375 138.46875 C 51.832031 131.222656 56.628906 123.191406 60.199219 114.699219 L 60.199219 114.679688 C 64.207031 105.269531 66.664062 95.742188 68.273438 86.714844 L 68.253906 86.714844 C 68.429688 85.71875 68.640625 84.738281 68.753906 83.761719 C 69.675781 78.125 70.230469 73.964844 70.691406 70.363281 C 71.726562 70 72.496094 69.5 72.996094 69.195312 C 73.148438 69.136719 73.261719 69.019531 73.378906 68.964844 Z M 317.460938 74.023438 C 331.292969 74.023438 342.441406 85.140625 342.441406 98.980469 C 342.441406 112.804688 331.292969 123.921875 317.460938 123.921875 C 303.628906 123.921875 292.484375 112.804688 292.484375 98.980469 C 292.484375 85.140625 303.628906 74.023438 317.460938 74.023438 Z M 317.460938 78.816406 C 306.375 78.816406 297.28125 87.882812 297.28125 98.980469 C 297.28125 110.0625 306.375 119.148438 317.460938 119.148438 C 328.570312 119.148438 337.644531 110.0625 337.644531 98.980469 C 337.644531 87.882812 328.570312 78.816406 317.460938 78.816406 Z M 317.460938 86.332031 C 324.503906 86.332031 330.125 91.945312 330.125 98.980469 C 330.125 105.996094 324.503906 111.613281 317.460938 111.613281 C 310.441406 111.613281 304.800781 105.996094 304.800781 98.980469 C 304.800781 91.945312 310.441406 86.332031 317.460938 86.332031 Z M 106.316406 102.816406 C 106.105469 102.835938 105.78125 102.835938 105.550781 102.875 C 101.386719 103.199219 97.207031 105.230469 93.597656 108.816406 C 90.011719 112.382812 87.480469 116.886719 86.386719 121.429688 C 85.292969 125.972656 85.636719 131.03125 89.109375 134.484375 C 92.582031 137.933594 97.644531 138.277344 102.210938 137.1875 C 106.777344 136.113281 111.285156 133.601562 114.894531 130.015625 C 118.480469 126.433594 120.550781 122.292969 120.878906 118.132812 C 121.203125 113.972656 119.6875 109.890625 116.734375 106.976562 C 113.992188 104.234375 110.210938 102.738281 106.316406 102.816406 Z M 261.789062 106.457031 C 258.890625 106.402344 256.378906 106.898438 254.230469 107.78125 C 249.355469 109.773438 246.554688 112.417969 244.542969 112.765625 C 241.875 113.261719 238.710938 112.667969 235.027344 112.015625 C 231.363281 111.347656 227.066406 110.65625 222.5 112.171875 C 218.605469 113.472656 216.015625 116.082031 214.210938 118.398438 C 212.386719 120.738281 211.101562 122.789062 209.683594 124.074219 C 209.203125 124.515625 208.722656 124.898438 208.128906 125.242188 C 206.132812 126.414062 203.101562 126.871094 199.574219 127.523438 C 196.042969 128.175781 191.785156 129.171875 188.503906 132.660156 C 185.242188 136.132812 184.6875 140.425781 184.511719 143.78125 C 184.339844 147.152344 184.339844 149.835938 183.496094 151.714844 C 183.4375 151.886719 183.402344 152.003906 183.285156 152.097656 C 182.363281 153.863281 180.390625 155.53125 178.046875 157.773438 C 175.726562 160.015625 173.003906 163.121094 172.425781 167.664062 C 171.8125 172.378906 173.636719 176.308594 175.246094 179.511719 C 176.839844 182.730469 178.203125 185.414062 178.394531 187.773438 C 178.507812 189.074219 178.335938 190.1875 177.953125 191.492188 C 177.339844 193.597656 175.84375 196.320312 175.152344 199.675781 C 161.089844 199.945312 147.046875 200.632812 133.023438 201.785156 C 132.984375 201.457031 132.90625 201.152344 132.867188 200.828125 C 129.222656 180.660156 112.476562 164.117188 92.253906 160.742188 C 87.515625 159.84375 82.722656 159.691406 78 160.1875 C 63.824219 161.722656 50.433594 169.3125 42.183594 181.179688 C 34.03125 192.335938 31.210938 206.671875 33.78125 220.015625 C 28.503906 221.664062 23.230469 223.464844 18.050781 225.613281 C 17.226562 225.785156 16.476562 226.261719 15.941406 226.914062 C 15.921875 226.933594 15.902344 226.953125 15.882812 226.972656 C 15.882812 226.992188 15.863281 226.992188 15.84375 227.011719 C 14.980469 228.121094 14.828125 229.617188 15.402344 230.882812 C 21.90625 260.289062 37.136719 287.8125 58.855469 309.722656 C 101.136719 353.449219 168.800781 372.386719 229.480469 357.875 C 294.132812 343.632812 347.023438 292.183594 359.972656 230.59375 C 360.761719 228.507812 359.570312 226.207031 357.421875 225.628906 C 351.128906 222.871094 344.722656 220.4375 338.21875 218.289062 C 339.234375 214.167969 338.546875 209.796875 336.300781 206.15625 C 333.863281 202.226562 329.835938 199.542969 325.230469 198.8125 C 320.628906 198.085938 315.523438 199.253906 310.632812 202.265625 C 307.582031 204.140625 304.894531 206.519531 302.710938 209.203125 C 299.46875 208.570312 296.226562 208.015625 292.984375 207.457031 C 294.152344 206.40625 295.6875 205.332031 297.414062 204.066406 C 300.136719 202.054688 303.378906 199.214844 304.472656 194.558594 C 305.566406 189.898438 304.03125 185.816406 302.613281 182.519531 C 301.195312 179.222656 299.90625 176.460938 299.773438 174.144531 C 299.734375 173.472656 299.773438 172.859375 299.832031 172.207031 C 300.101562 170.308594 301.117188 168.105469 302.058594 165.304688 C 302.976562 162.507812 303.726562 158.921875 302.632812 154.957031 C 301.386719 150.335938 298.410156 147.152344 295.820312 144.449219 C 293.230469 141.746094 290.988281 139.464844 289.914062 136.976562 C 289.03125 134.980469 289.414062 130.976562 288.242188 125.820312 C 287.054688 120.679688 283.46875 114.890625 274.988281 110.347656 C 270.480469 107.953125 266.507812 106.785156 263.054688 106.496094 C 262.613281 106.457031 262.191406 106.4375 261.789062 106.4375 Z M 106.894531 110.328125 C 108.660156 110.347656 110.15625 111.019531 111.441406 112.304688 C 112.898438 113.761719 113.550781 115.46875 113.378906 117.558594 C 113.222656 119.625 112.148438 122.15625 109.578125 124.707031 C 107.027344 127.257812 103.496094 129.152344 100.464844 129.882812 C 97.453125 130.589844 95.34375 130.09375 94.421875 129.171875 C 93.484375 128.234375 92.984375 126.183594 93.695312 123.171875 C 94.421875 120.183594 96.339844 116.695312 98.914062 114.144531 C 101.464844 111.59375 103.996094 110.523438 106.105469 110.347656 C 106.394531 110.347656 106.664062 110.328125 106.894531 110.328125 Z M 261.75 113.800781 C 262.019531 113.800781 262.289062 113.820312 262.554688 113.839844 C 264.800781 114.066406 267.601562 114.949219 271.457031 117.019531 C 278.535156 120.796875 280.109375 124.054688 280.914062 127.542969 C 281.722656 131.050781 280.953125 135.289062 283.027344 140.003906 C 284.867188 144.238281 287.9375 147.113281 290.390625 149.683594 C 292.867188 152.253906 294.710938 154.4375 295.378906 156.96875 C 295.976562 159.113281 295.667969 160.761719 294.957031 162.96875 C 294.210938 165.171875 292.925781 167.777344 292.425781 171.113281 C 292.253906 172.207031 292.214844 173.375 292.253906 174.601562 C 292.484375 179.011719 294.421875 182.519531 295.707031 185.511719 C 296.972656 188.5 297.644531 190.722656 297.144531 192.890625 C 296.664062 195.054688 295.304688 196.300781 292.945312 198.046875 C 290.605469 199.792969 287.324219 201.667969 285.019531 205.3125 C 284.847656 205.578125 284.695312 205.847656 284.578125 206.058594 C 284.578125 206.078125 284.558594 206.078125 284.558594 206.097656 C 284.175781 206.808594 283.871094 207.515625 283.601562 208.246094 C 283.238281 208.800781 283.027344 209.453125 282.988281 210.140625 C 282.429688 212.230469 282.238281 214.207031 281.953125 215.875 C 281.453125 218.578125 280.933594 220.261719 279.285156 221.699219 C 277.597656 223.175781 275.160156 223.734375 271.839844 224.15625 C 268.523438 224.59375 264.457031 224.804688 260.523438 226.992188 C 258.394531 228.160156 256.800781 229.695312 255.554688 231.191406 C 252.214844 235.175781 250.949219 238.417969 247.515625 239.738281 C 245.117188 240.660156 242.238281 240.488281 238.710938 240.066406 C 235.179688 239.625 231.035156 238.972656 226.585938 240.179688 C 221.960938 241.425781 217.261719 241.082031 208.265625 242.976562 L 220.675781 219.824219 L 249.03125 217.828125 C 254 217.597656 253.730469 210.199219 248.761719 210.316406 C 248.6875 210.316406 248.628906 210.316406 248.550781 210.332031 L 224.917969 211.984375 L 237.867188 187.828125 L 266.21875 185.816406 C 271.226562 185.625 270.941406 178.148438 265.953125 178.304688 C 265.875 178.304688 265.796875 178.320312 265.742188 178.320312 L 242.105469 179.988281 L 262.191406 142.496094 C 263.609375 139.945312 261.710938 136.839844 258.816406 136.917969 C 257.433594 136.9375 256.1875 137.722656 255.554688 138.949219 L 242.738281 162.890625 L 230.996094 142.324219 C 230.324219 141.078125 229.003906 140.328125 227.582031 140.386719 C 224.722656 140.484375 223.015625 143.589844 224.476562 146.042969 L 238.535156 170.710938 L 232.261719 182.40625 L 232.261719 182.425781 L 225.585938 194.882812 L 213.867188 174.316406 C 213.175781 173.089844 211.851562 172.339844 210.433594 172.378906 C 207.59375 172.476562 205.867188 175.582031 207.324219 178.054688 L 221.386719 202.703125 L 215.4375 213.804688 C 215.113281 214.207031 214.863281 214.667969 214.710938 215.164062 L 201.722656 239.433594 C 198.25 230.730469 195.410156 227.222656 193.894531 222.660156 C 193.835938 222.449219 193.664062 222.390625 193.664062 222.160156 L 193.703125 222.160156 C 193.605469 221.949219 193.472656 221.777344 193.339844 221.585938 C 191.785156 217.828125 189.347656 214.953125 187.257812 212.5 C 184.9375 209.777344 183.210938 207.496094 182.652344 205.003906 C 181.847656 201.421875 183.84375 198.5625 185.300781 193.597656 L 185.300781 193.582031 C 185.855469 191.722656 186.257812 189.535156 186.066406 187.121094 C 185.683594 182.636719 183.632812 179.144531 182.132812 176.136719 C 180.65625 173.144531 179.753906 170.828125 180.042969 168.585938 C 180.3125 166.417969 181.445312 165.058594 183.421875 163.160156 C 185.414062 161.242188 188.234375 159.132812 190.097656 155.550781 C 190.269531 155.28125 190.382812 154.992188 190.480469 154.746094 L 190.5 154.726562 C 192.246094 150.796875 191.996094 147.019531 192.148438 144.105469 C 192.300781 141.171875 192.570312 139.371094 194.105469 137.742188 C 195.640625 136.132812 197.867188 135.441406 201.070312 134.847656 C 204.273438 134.253906 208.246094 133.886719 212.042969 131.664062 C 213.117188 131.03125 214.058594 130.324219 214.882812 129.574219 C 217.375 127.292969 218.816406 124.800781 220.253906 122.960938 C 221.675781 121.121094 222.882812 119.953125 225.011719 119.242188 C 227.488281 118.417969 230.324219 118.746094 233.835938 119.359375 C 237.347656 119.972656 241.433594 120.929688 246 120.105469 C 251.199219 119.1875 254.078125 115.964844 257.203125 114.679688 C 258.585938 114.125 260.023438 113.703125 261.867188 113.742188 Z M 142.980469 125.011719 C 139.21875 124.957031 135.382812 125.609375 131.679688 127.101562 C 116.886719 133.0625 109.734375 150.007812 115.757812 164.808594 C 116.523438 166.726562 118.710938 167.644531 120.648438 166.878906 L 134.421875 161.320312 C 135.496094 167.128906 137.261719 173.339844 139.296875 178.339844 C 141.695312 184.246094 144.054688 187.753906 147.546875 189.421875 C 151.015625 191.070312 154.46875 189.957031 156.832031 188.980469 C 159.171875 188.019531 162.453125 186.46875 163.792969 182.847656 C 165.136719 179.222656 164.371094 175.0625 161.972656 169.160156 C 159.9375 164.15625 156.886719 158.5 153.605469 153.574219 L 167.363281 148.035156 C 169.300781 147.25 170.222656 145.0625 169.433594 143.128906 C 164.925781 132.046875 154.277344 125.203125 142.980469 124.996094 Z M 142.921875 132.507812 C 150.039062 132.625 156.464844 136.589844 160.398438 142.765625 L 122.050781 158.214844 C 119.957031 148.246094 124.753906 138.011719 134.539062 134.082031 C 137.28125 132.96875 140.140625 132.46875 142.921875 132.507812 Z M 333.25 141.058594 C 332.0625 141.019531 330.851562 141.078125 329.664062 141.210938 C 326.460938 141.59375 323.292969 142.628906 320.339844 144.335938 C 308.523438 151.160156 304.472656 166.417969 311.324219 178.265625 C 312.359375 180.066406 314.660156 180.679688 316.445312 179.644531 L 326.515625 173.816406 C 328.070312 178.339844 330.160156 183 332.328125 186.757812 C 335.015625 191.433594 337.433594 194.214844 340.75 195.265625 C 344.089844 196.320312 347.023438 194.882812 348.886719 193.792969 C 350.746094 192.71875 353.492188 190.898438 354.238281 187.503906 C 354.988281 184.089844 353.796875 180.601562 351.074219 175.925781 C 348.90625 172.167969 345.914062 168.046875 342.765625 164.445312 L 352.855469 158.617188 C 354.640625 157.582031 355.273438 155.28125 354.238281 153.480469 C 349.730469 145.714844 341.632812 141.25 333.25 141.039062 Z M 332.636719 148.535156 C 337.355469 148.570312 341.84375 150.738281 345.203125 154.359375 L 316.597656 170.882812 C 314.238281 163.292969 316.980469 154.972656 324.101562 150.851562 C 326.171875 149.644531 328.378906 148.9375 330.601562 148.648438 C 331.292969 148.589844 331.964844 148.550781 332.636719 148.550781 Z M 146.488281 156.46875 C 149.789062 161.183594 153.089844 167.203125 155.046875 171.996094 C 157.136719 177.171875 157.023438 179.605469 156.792969 180.238281 C 156.5625 180.871094 156.042969 181.214844 154.046875 182.023438 C 152.074219 182.828125 151.441406 182.921875 150.824219 182.636719 C 150.191406 182.367188 148.410156 180.679688 146.316406 175.503906 C 144.359375 170.710938 142.539062 164.097656 141.617188 158.445312 Z M 83.390625 167.453125 C 85.925781 167.453125 88.4375 167.664062 90.914062 168.144531 L 90.949219 168.144531 L 90.988281 168.164062 C 107.929688 170.960938 122.472656 185.335938 125.503906 202.207031 L 125.503906 202.246094 L 125.519531 202.300781 C 128.839844 218.75 121.398438 236.671875 107.371094 245.929688 C 107.125 246.082031 106.894531 246.277344 106.683594 246.503906 C 81.894531 243.226562 62.308594 238.875 48.113281 235.023438 C 47.996094 234.773438 47.882812 234.542969 47.726562 234.3125 C 37.867188 220.128906 38.117188 199.523438 48.304688 185.585938 L 48.34375 185.546875 L 48.363281 185.511719 C 56.132812 174.316406 69.789062 167.492188 83.390625 167.453125 Z M 336.128906 168.277344 C 339.253906 171.726562 342.496094 176.117188 344.570312 179.683594 C 346.871094 183.6875 346.949219 185.585938 346.890625 185.894531 C 346.832031 186.21875 346.660156 186.429688 345.125 187.292969 C 343.609375 188.175781 343.339844 188.214844 343.054688 188.117188 C 342.765625 188.058594 341.15625 187.003906 338.832031 183.019531 C 336.761719 179.433594 334.59375 174.410156 333.175781 169.984375 Z M 83.355469 179.164062 C 81.242188 179.164062 79.132812 179.394531 77.0625 179.816406 C 74.988281 180.179688 73.609375 182.195312 74.03125 184.265625 C 74.453125 186.335938 76.503906 187.65625 78.578125 187.179688 C 81.703125 186.527344 85.003906 186.527344 88.128906 187.179688 C 90.203125 187.65625 92.234375 186.335938 92.675781 184.265625 C 93.097656 182.195312 91.71875 180.179688 89.644531 179.816406 C 87.574219 179.375 85.464844 179.164062 83.355469 179.164062 Z M 98.703125 183.824219 C 94.941406 183.804688 93.464844 188.671875 96.609375 190.722656 C 99.125 192.429688 101.3125 194.617188 103.019531 197.125 C 104.148438 198.949219 106.546875 199.445312 108.3125 198.257812 C 110.078125 197.070312 110.5 194.652344 109.253906 192.929688 C 107.007812 189.613281 104.128906 186.738281 100.8125 184.511719 C 100.199219 184.074219 99.449219 183.84375 98.703125 183.824219 Z M 67.890625 183.84375 C 67.179688 183.863281 66.492188 184.089844 65.894531 184.496094 C 62.578125 186.738281 59.71875 189.613281 57.472656 192.929688 C 56.207031 194.632812 56.648438 197.070312 58.414062 198.257812 C 60.179688 199.445312 62.578125 198.929688 63.710938 197.125 C 65.398438 194.617188 67.585938 192.429688 70.117188 190.722656 C 73.28125 188.636719 71.707031 183.6875 67.910156 183.824219 Z M 83.355469 195.632812 C 75.257812 195.632812 68.601562 202.28125 68.601562 210.371094 C 68.601562 218.460938 75.257812 225.113281 83.355469 225.113281 C 91.449219 225.113281 98.105469 218.460938 98.105469 210.371094 C 98.105469 202.28125 91.449219 195.632812 83.355469 195.632812 Z M 56.417969 201.035156 C 54.636719 201.054688 53.101562 202.339844 52.773438 204.085938 C 51.929688 208.226562 51.929688 212.519531 52.773438 216.660156 C 53.136719 218.730469 55.152344 220.109375 57.226562 219.6875 C 59.296875 219.265625 60.621094 217.214844 60.140625 215.144531 C 59.488281 212.019531 59.488281 208.722656 60.140625 205.597656 C 60.660156 203.222656 58.835938 201 56.417969 201.035156 Z M 110.191406 201.035156 C 107.8125 201.074219 106.066406 203.28125 106.585938 205.597656 C 107.21875 208.722656 107.21875 212.019531 106.585938 215.144531 C 106.105469 217.214844 107.410156 219.265625 109.503906 219.6875 C 111.574219 220.109375 113.589844 218.75 113.953125 216.660156 C 114.796875 212.519531 114.796875 208.226562 113.953125 204.085938 C 113.609375 202.300781 112.015625 201 110.191406 201.035156 Z M 83.355469 203.144531 C 87.382812 203.144531 90.585938 206.347656 90.585938 210.371094 C 90.585938 214.398438 87.402344 217.597656 83.355469 217.597656 C 79.324219 217.597656 76.140625 214.398438 76.140625 210.371094 C 76.140625 206.328125 79.324219 203.144531 83.355469 203.144531 Z M 322.027344 206.175781 C 322.738281 206.136719 323.429688 206.175781 324.082031 206.289062 C 326.632812 206.652344 328.589844 207.976562 329.933594 210.160156 C 331.273438 212.328125 331.5625 214.648438 330.777344 217.101562 C 329.988281 219.554688 328.011719 222.21875 324.347656 224.460938 C 320.703125 226.722656 316.175781 227.96875 312.453125 227.96875 C 308.753906 227.96875 306.316406 226.800781 305.375 225.246094 C 304.417969 223.714844 304.453125 221.03125 306.125 217.734375 C 307.792969 214.4375 310.9375 210.949219 314.601562 208.683594 C 317.328125 207 319.859375 206.269531 322.027344 206.175781 Z M 175.34375 207.191406 C 176.457031 211.5625 179.140625 214.703125 181.445312 217.40625 C 183.824219 220.207031 185.835938 222.582031 186.664062 225.074219 C 186.71875 225.285156 186.816406 225.34375 186.875 225.574219 L 186.855469 225.574219 C 186.910156 225.707031 186.988281 225.824219 187.066406 225.957031 C 189.558594 232.644531 192.800781 234.851562 196.984375 248.078125 L 195.121094 251.546875 C 192.648438 251.585938 190.171875 251.605469 187.640625 251.605469 C 161.089844 251.605469 137.609375 250.070312 117.214844 247.789062 C 127.996094 238.070312 134.117188 223.769531 133.808594 209.296875 C 147.601562 208.148438 161.453125 207.457031 175.324219 207.191406 Z M 154.046875 210.507812 C 153.183594 210.507812 152.320312 210.542969 151.496094 210.71875 C 147.007812 211.484375 143.132812 214.167969 140.8125 218.058594 C 136.207031 225.839844 139.410156 236.269531 148.964844 242.039062 C 153.761719 244.914062 159.246094 246.410156 164.390625 246.351562 C 169.511719 246.292969 174.730469 244.570312 177.414062 240.046875 C 180.101562 235.503906 179.140625 230.117188 176.761719 225.535156 C 174.402344 220.953125 170.488281 216.792969 165.710938 213.898438 C 161.816406 211.5625 157.828125 210.410156 154.046875 210.488281 Z M 289.777344 214.589844 C 292.734375 215.085938 295.667969 215.566406 298.605469 216.121094 C 296.875 220.417969 296.492188 225.191406 298.988281 229.214844 C 301.828125 233.796875 307.199219 235.484375 312.492188 235.484375 C 317.789062 235.484375 323.429688 233.875 328.320312 230.863281 C 331.007812 229.214844 333.191406 227.277344 334.863281 225.132812 C 338.929688 226.453125 342.957031 227.894531 346.910156 229.445312 C 340.789062 231.839844 330.871094 235.234375 316.464844 238.683594 C 292.253906 244.492188 255.648438 250.339844 204.445312 251.394531 C 217.414062 247.75 221.003906 249.515625 228.5625 247.445312 C 231.09375 246.753906 234.183594 247.117188 237.847656 247.503906 C 241.492188 247.941406 245.769531 248.421875 250.199219 246.714844 C 256.683594 244.242188 259.027344 238.703125 261.308594 235.980469 C 261.328125 235.980469 261.328125 235.980469 261.328125 235.980469 C 262.191406 234.925781 263.035156 234.160156 264.167969 233.527344 C 266.21875 232.378906 269.230469 232.03125 272.800781 231.574219 C 276.367188 231.132812 280.648438 230.460938 284.234375 227.335938 C 287.6875 224.328125 288.78125 220.339844 289.355469 217.15625 C 289.511719 216.238281 289.683594 215.375 289.777344 214.550781 Z M 154.699219 218.019531 C 156.753906 218.078125 159.171875 218.769531 161.816406 220.359375 C 165.367188 222.488281 168.4375 225.824219 170.085938 229.003906 C 171.738281 232.1875 171.8125 234.773438 170.949219 236.230469 C 170.085938 237.6875 167.824219 238.820312 164.292969 238.855469 C 160.761719 238.894531 156.390625 237.765625 152.859375 235.617188 C 145.78125 231.363281 144.800781 226.109375 147.296875 221.910156 C 148.542969 219.804688 150.347656 218.558594 152.742188 218.136719 C 153.359375 218.039062 154.011719 217.980469 154.683594 218.039062 Z M 60.523438 221.910156 C 57.492188 221.949219 55.746094 225.34375 57.472656 227.816406 C 59.699219 231.132812 62.578125 234.007812 65.894531 236.25 C 67.621094 237.457031 70 237.015625 71.171875 235.273438 C 72.34375 233.527344 71.863281 231.171875 70.097656 230.019531 C 67.585938 228.3125 65.398438 226.128906 63.691406 223.617188 C 63 222.542969 61.789062 221.910156 60.523438 221.910156 Z M 106.085938 221.910156 C 104.839844 221.949219 103.6875 222.582031 103.019531 223.617188 C 101.3125 226.128906 99.125 228.3125 96.609375 230.019531 C 94.84375 231.152344 94.347656 233.527344 95.535156 235.273438 C 96.707031 237.015625 99.085938 237.457031 100.8125 236.25 C 104.128906 234.007812 107.007812 231.132812 109.234375 227.816406 C 111 225.304688 109.15625 221.855469 106.066406 221.910156 Z M 35.777344 227.296875 C 36.351562 228.890625 37.003906 230.480469 37.734375 232.015625 C 34.511719 231.015625 31.863281 230.136719 29.542969 229.332031 C 31.59375 228.621094 33.683594 227.949219 35.777344 227.296875 Z M 77.828125 233.488281 C 73.222656 233.414062 72.535156 240.101562 77.0625 240.945312 C 81.207031 241.789062 85.503906 241.789062 89.644531 240.945312 C 91.679688 240.523438 93.003906 238.550781 92.582031 236.5 C 92.160156 234.46875 90.183594 233.164062 88.128906 233.585938 C 85.003906 234.21875 81.722656 234.21875 78.578125 233.585938 C 78.328125 233.527344 78.078125 233.507812 77.828125 233.527344 Z M 24.246094 235.425781 C 42.757812 242.078125 98.71875 259.097656 187.679688 259.097656 C 248.320312 259.097656 290.796875 252.582031 318.210938 245.988281 C 333.808594 242.25 344.609375 238.433594 351.015625 235.847656 C 336.398438 291.265625 287.207031 337.519531 227.832031 350.59375 C 227.832031 350.59375 227.8125 350.613281 227.792969 350.613281 C 169.761719 364.46875 104.535156 346.144531 64.285156 304.550781 C 64.265625 304.53125 64.265625 304.53125 64.246094 304.511719 C 45.023438 285.128906 31.132812 261.09375 24.265625 235.425781 Z M 54.636719 255.304688 C 52.101562 255.285156 50.261719 257.699219 50.96875 260.117188 C 52.257812 264.753906 54 269.238281 56.074219 273.554688 C 56.957031 275.46875 59.257812 276.292969 61.15625 275.375 C 63.058594 274.433594 63.804688 272.132812 62.847656 270.253906 C 60.945312 266.34375 59.375 262.28125 58.203125 258.101562 C 57.78125 256.472656 56.324219 255.324219 54.636719 255.304688 Z M 66.546875 280.300781 C 63.515625 280.394531 61.867188 283.847656 63.652344 286.28125 C 81.089844 310.585938 108.121094 326 136.1875 333.78125 C 139.546875 334.71875 142.941406 335.5625 146.335938 336.3125 C 148.371094 336.753906 150.382812 335.46875 150.824219 333.4375 C 151.265625 331.40625 149.980469 329.390625 147.949219 328.949219 C 144.667969 328.242188 141.425781 327.4375 138.203125 326.535156 C 111.402344 319.097656 85.925781 304.433594 69.769531 281.890625 C 69.042969 280.855469 67.832031 280.242188 66.546875 280.28125 Z M 66.546875 280.300781 " fill-opacity="1" fill-rule="nonzero"/></g></svg>