<svg xmlns="http://www.w3.org/2000/svg" xmlns:xlink="http://www.w3.org/1999/xlink" width="500" zoomAndPan="magnify" viewBox="0 0 375 374.999991" height="500" preserveAspectRatio="xMidYMid meet" version="1.0"><defs><clipPath id="6903e0cdcc"><path d="M 25 76 L 358 76 L 358 358.5 L 25 358.5 Z M 25 76 " clip-rule="nonzero"/></clipPath></defs><g clip-path="url(#6903e0cdcc)"><path fill="#000000" d="M 303.175781 166.972656 C 316.152344 156.308594 329.570312 145.277344 340.914062 132.4375 C 348.261719 124.113281 365.378906 95.414062 352.484375 81.46875 C 352.359375 81.335938 352.230469 81.207031 352.09375 81.082031 C 351.96875 80.964844 351.839844 80.855469 351.726562 80.769531 C 351.5 80.550781 351.171875 80.28125 350.757812 80.011719 C 335.675781 68.925781 308.925781 88.257812 301.328125 96.25 C 289.523438 108.675781 279.714844 123.003906 270.226562 136.859375 C 264.269531 145.558594 258.109375 154.554688 251.625 162.792969 C 241.660156 175.453125 232.304688 186.847656 223.0625 197.589844 L 180.574219 197.589844 C 180.574219 197.589844 180.570312 197.589844 180.570312 197.589844 L 43.269531 197.589844 C 38.640625 197.589844 34.269531 199.574219 30.957031 203.175781 C 27.003906 207.46875 25.042969 213.5 25.570312 219.726562 C 26.328125 228.617188 26.464844 229.390625 26.550781 229.863281 C 34.4375 273.964844 58.207031 308.699219 91.769531 325.160156 C 98.6875 328.550781 105.777344 330.753906 112.480469 332.699219 C 112.675781 334.085938 112.851562 335.5625 113 336.78125 C 113.148438 338.011719 113.269531 339.019531 113.359375 339.546875 C 115.144531 350.53125 123.253906 358.5 132.632812 358.5 L 228.511719 358.5 C 237.894531 358.5 246 350.53125 247.789062 339.550781 C 247.875 339.019531 248 338.011719 248.148438 336.78125 C 248.292969 335.5625 248.46875 334.085938 248.667969 332.699219 C 255.371094 330.753906 262.460938 328.550781 269.375 325.160156 C 302.9375 308.695312 326.707031 273.960938 334.597656 229.851562 C 334.679688 229.390625 334.816406 228.617188 335.574219 219.722656 C 336.101562 213.5 334.140625 207.46875 330.1875 203.171875 C 326.878906 199.574219 322.503906 197.589844 317.875 197.589844 L 268.652344 197.589844 C 272.039062 194.324219 275.476562 191.046875 278.960938 187.777344 C 286.601562 180.59375 295.027344 173.667969 303.175781 166.972656 Z M 319.296875 213.171875 C 320.175781 214.128906 321.042969 216.023438 320.835938 218.472656 C 320.371094 223.882812 320.160156 226.046875 320.078125 226.84375 L 261.75 226.84375 C 258.945312 226.84375 256.667969 229.121094 256.667969 231.921875 C 256.667969 234.726562 258.945312 237.003906 261.75 237.003906 L 317.925781 237.003906 C 309.378906 271.734375 289.675781 298.738281 262.855469 311.898438 C 256.792969 314.867188 250.175781 316.886719 243.910156 318.695312 C 243.324219 318.863281 242.761719 319.078125 242.210938 319.320312 L 206.042969 319.320312 C 202.976562 319.320312 200.496094 321.804688 200.496094 324.863281 C 200.496094 327.921875 202.976562 330.40625 206.042969 330.40625 L 234.054688 330.40625 C 233.832031 331.96875 233.625 333.640625 233.460938 335.023438 C 233.347656 335.980469 233.257812 336.761719 233.1875 337.179688 C 232.503906 341.394531 229.988281 343.726562 228.515625 343.726562 L 132.632812 343.726562 C 131.15625 343.726562 128.644531 341.394531 127.957031 337.175781 C 127.890625 336.761719 127.800781 335.976562 127.6875 335.023438 C 127.519531 333.644531 127.316406 331.972656 127.089844 330.40625 L 188.292969 330.40625 C 191.359375 330.40625 193.839844 327.921875 193.839844 324.863281 C 193.839844 321.804688 191.359375 319.320312 188.292969 319.320312 L 119.027344 319.320312 C 119 319.320312 118.976562 319.332031 118.949219 319.332031 C 118.394531 319.085938 117.824219 318.867188 117.230469 318.695312 C 110.972656 316.886719 104.351562 314.871094 98.289062 311.898438 C 71.441406 298.726562 51.722656 271.683594 43.207031 237.003906 L 65.117188 237.003906 C 67.925781 237.003906 70.203125 234.730469 70.203125 231.925781 C 70.203125 229.121094 67.925781 226.847656 65.117188 226.847656 L 41.070312 226.847656 C 40.972656 225.96875 40.761719 223.777344 40.308594 218.476562 C 40.101562 216.027344 40.96875 214.128906 41.847656 213.171875 C 42.183594 212.804688 42.707031 212.367188 43.269531 212.367188 L 317.871094 212.367188 C 318.4375 212.367188 318.960938 212.804688 319.296875 213.171875 Z M 250.148438 197.589844 L 240.042969 197.589844 C 247.097656 189.1875 254.277344 180.34375 261.800781 170.785156 C 268.550781 162.207031 274.832031 153.03125 280.910156 144.160156 C 290.109375 130.722656 299.625 116.828125 310.71875 105.152344 C 319.523438 95.882812 338.121094 86.570312 343.171875 90.484375 C 343.179688 90.492188 343.191406 90.5 343.199219 90.507812 C 347.042969 95.632812 339.519531 114.476562 331.210938 123.882812 C 320.546875 135.953125 307.539062 146.648438 294.953125 156.992188 C 286.640625 163.824219 278.046875 170.886719 270.089844 178.363281 C 263.238281 184.796875 256.550781 191.253906 250.148438 197.589844 Z M 250.148438 197.589844 " fill-opacity="1" fill-rule="nonzero"/></g><path fill="#000000" d="M 166 105.140625 C 161.609375 125.027344 169.464844 138.960938 177.882812 151.523438 C 178.863281 152.988281 180.472656 153.777344 182.117188 153.777344 C 183.085938 153.777344 184.070312 153.5 184.9375 152.917969 C 187.273438 151.359375 187.898438 148.207031 186.335938 145.875 C 178.550781 134.261719 172.394531 123.34375 175.929688 107.328125 C 178.273438 96.71875 182.179688 85.46875 185.886719 78.664062 C 197.011719 58.242188 195.628906 30.132812 182.195312 3.460938 C 180.933594 0.953125 177.871094 -0.0546875 175.367188 1.207031 C 172.859375 2.46875 171.847656 5.523438 173.113281 8.027344 C 185.050781 31.722656 186.484375 56.3125 176.957031 73.808594 C 171.949219 82.996094 168.015625 96.015625 166 105.140625 Z M 166 105.140625 " fill-opacity="1" fill-rule="nonzero"/><path fill="#000000" d="M 115.285156 77.160156 C 112.539062 81.144531 109.699219 85.265625 107.671875 90.746094 C 102.070312 105.878906 105.582031 121.824219 117.296875 134.484375 C 118.300781 135.570312 119.664062 136.117188 121.035156 136.117188 C 122.265625 136.117188 123.507812 135.671875 124.484375 134.769531 C 126.546875 132.863281 126.671875 129.652344 124.765625 127.589844 C 119.460938 121.855469 111.421875 109.90625 117.210938 94.269531 C 118.800781 89.976562 121.164062 86.550781 123.660156 82.917969 C 127.855469 76.832031 132.609375 69.929688 133.019531 58.832031 C 133.527344 45.089844 126.976562 34.398438 120.792969 25.460938 C 119.199219 23.15625 116.027344 22.574219 113.71875 24.171875 C 111.410156 25.765625 110.828125 28.925781 112.425781 31.234375 C 118.144531 39.507812 123.246094 47.816406 122.855469 58.460938 C 122.558594 66.605469 119.183594 71.496094 115.285156 77.160156 Z M 115.285156 77.160156 " fill-opacity="1" fill-rule="nonzero"/><path fill="#000000" d="M 243.527344 136.117188 C 244.683594 136.117188 245.847656 135.726562 246.800781 134.921875 C 248.949219 133.117188 249.222656 129.914062 247.414062 127.765625 C 241.945312 121.28125 233.5 108.230469 238.414062 93.671875 C 239.886719 89.308594 242.460938 85.867188 245.1875 82.222656 C 249.566406 76.367188 254.535156 69.730469 254.902344 58.820312 C 255.363281 45.191406 249.414062 34.546875 243.800781 25.644531 C 242.304688 23.269531 239.167969 22.554688 236.789062 24.050781 C 234.410156 25.546875 233.695312 28.683594 235.195312 31.054688 C 240.429688 39.367188 245.101562 47.714844 244.742188 58.480469 C 244.480469 66.203125 241.035156 70.808594 237.042969 76.144531 C 234.101562 80.074219 230.769531 84.527344 228.777344 90.429688 C 224.027344 104.503906 227.988281 120.5 239.636719 134.3125 C 240.640625 135.503906 242.082031 136.117188 243.527344 136.117188 Z M 243.527344 136.117188 " fill-opacity="1" fill-rule="nonzero"/><path fill="#000000" d="M 87.363281 226.84375 L 84.550781 226.84375 C 81.742188 226.84375 79.46875 229.117188 79.46875 231.921875 C 79.46875 234.726562 81.742188 237 84.550781 237 L 87.363281 237 C 90.167969 237 92.445312 234.726562 92.445312 231.921875 C 92.445312 229.117188 90.167969 226.84375 87.363281 226.84375 Z M 87.363281 226.84375 " fill-opacity="1" fill-rule="nonzero"/><path fill="#000000" d="M 98.515625 231.921875 C 98.515625 234.726562 100.789062 237.003906 103.597656 237.003906 L 244.226562 237.003906 C 247.035156 237.003906 249.3125 234.726562 249.3125 231.921875 C 249.3125 229.121094 247.035156 226.84375 244.226562 226.84375 L 103.597656 226.84375 C 100.789062 226.84375 98.515625 229.117188 98.515625 231.921875 Z M 98.515625 231.921875 " fill-opacity="1" fill-rule="nonzero"/><path fill="#000000" d="M 272.238281 293.085938 C 273.144531 293.085938 274.054688 292.789062 274.820312 292.1875 C 279.355469 288.59375 283.558594 284.5625 287.320312 280.195312 C 292.1875 274.542969 298.628906 265.277344 302.042969 257.316406 C 302.945312 255.207031 301.96875 252.765625 299.855469 251.863281 C 297.742188 250.960938 295.296875 251.933594 294.394531 254.046875 C 291.347656 261.148438 285.320312 269.773438 281.007812 274.777344 C 277.597656 278.742188 273.773438 282.40625 269.652344 285.671875 C 267.851562 287.097656 267.550781 289.710938 268.976562 291.511719 C 269.796875 292.546875 271.011719 293.085938 272.238281 293.085938 Z M 272.238281 293.085938 " fill-opacity="1" fill-rule="nonzero"/><path fill="#000000" d="M 249.195312 302.273438 C 249.886719 303.816406 251.402344 304.730469 252.992188 304.730469 C 253.5625 304.730469 254.136719 304.613281 254.6875 304.367188 C 257.195312 303.25 259.671875 302.011719 262.054688 300.6875 C 264.066406 299.574219 264.789062 297.046875 263.675781 295.039062 C 262.5625 293.03125 260.027344 292.308594 258.019531 293.421875 C 255.839844 294.628906 253.578125 295.761719 251.289062 296.78125 C 249.195312 297.71875 248.253906 300.179688 249.195312 302.273438 Z M 249.195312 302.273438 " fill-opacity="1" fill-rule="nonzero"/></svg>