<svg xmlns="http://www.w3.org/2000/svg" xmlns:xlink="http://www.w3.org/1999/xlink" width="500" zoomAndPan="magnify" viewBox="0 0 375 374.999991" height="500" preserveAspectRatio="xMidYMid meet" version="1.0"><defs><clipPath id="fee86f63bd"><path d="M 52 10 L 325.457031 10 L 325.457031 366.9375 L 52 366.9375 Z M 52 10 " clip-rule="nonzero"/></clipPath></defs><g clip-path="url(#fee86f63bd)"><path fill="#000000" d="M 314.207031 215.347656 C 319.453125 205.140625 322.214844 193.773438 322.214844 182.195312 C 322.214844 165.957031 316.855469 150.953125 307.8125 138.851562 C 307.746094 138.757812 307.679688 138.667969 307.601562 138.582031 C 299.015625 127.207031 287.160156 118.449219 273.445312 113.695312 L 287.34375 40.242188 C 287.519531 39.308594 287.21875 38.351562 286.539062 37.691406 C 278.003906 29.375 268.101562 27.5 257.125 32.113281 C 256.25 32.480469 255.621094 33.261719 255.445312 34.191406 L 253.96875 41.980469 C 253.96875 41.980469 253.96875 41.984375 253.96875 41.984375 C 253.96875 41.984375 253.96875 41.988281 253.96875 41.988281 L 247.769531 74.765625 L 244.847656 90.21875 C 244.847656 90.21875 244.847656 90.222656 244.847656 90.222656 C 244.847656 90.222656 244.847656 90.226562 244.847656 90.226562 L 241.058594 110.253906 C 233.25 111.199219 225.738281 113.398438 218.769531 116.714844 L 232.722656 20.761719 C 232.859375 19.824219 232.519531 18.878906 231.808594 18.246094 C 222.929688 10.304688 212.960938 8.851562 202.1875 13.929688 C 201.328125 14.335938 200.730469 15.140625 200.597656 16.078125 L 182.527344 140.324219 C 180.910156 140.222656 179.285156 140.152344 177.640625 140.152344 C 161.207031 140.152344 145.957031 145.304688 133.390625 154.0625 L 87.511719 78.378906 C 84.878906 74.035156 80.710938 70.980469 75.785156 69.773438 C 70.855469 68.566406 65.75 69.355469 61.410156 71.988281 C 52.457031 77.433594 49.597656 89.160156 55.03125 98.125 L 107.464844 184.621094 C 103.042969 193.929688 100.425781 204.25 100.039062 215.132812 C 92.585938 215.273438 86.558594 221.367188 86.558594 228.859375 L 86.558594 230.199219 C 86.558594 237.152344 91.761719 242.859375 98.464844 243.769531 L 104.945312 293.601562 C 104.945312 293.617188 104.933594 293.628906 104.933594 293.644531 C 104.871094 294.121094 104.964844 294.5625 105.125 294.976562 L 111.621094 344.9375 C 107.089844 346.140625 103.726562 350.234375 103.726562 355.140625 L 103.726562 356.09375 C 103.726562 361.929688 108.472656 366.683594 114.304688 366.683594 L 297.804688 366.683594 C 303.636719 366.683594 308.378906 361.929688 308.378906 356.09375 L 308.378906 355.140625 C 308.378906 350.238281 305.015625 346.140625 300.488281 344.9375 L 313.644531 243.769531 C 320.34375 242.859375 325.546875 237.152344 325.546875 230.199219 L 325.546875 228.859375 C 325.550781 222.097656 320.640625 216.492188 314.207031 215.347656 Z M 307.902344 215.105469 L 255.242188 215.105469 C 254.371094 190.769531 242.296875 169.246094 224.019531 155.578125 C 223.972656 155.539062 223.949219 155.480469 223.894531 155.441406 C 223.835938 155.402344 223.773438 155.398438 223.714844 155.359375 C 215.601562 149.355469 206.285156 144.898438 196.199219 142.414062 C 199.214844 138.339844 202.660156 134.683594 206.421875 131.453125 C 207.011719 132.535156 207.738281 133.539062 208.644531 134.4375 C 212.542969 138.292969 220.105469 139.222656 231.113281 137.191406 C 234.035156 136.65625 236.90625 138.539062 237.648438 141.480469 C 240.824219 154.082031 246.875 161.195312 255.152344 162.058594 C 255.941406 162.140625 256.695312 162.179688 257.417969 162.179688 C 264.9375 162.179688 268.980469 157.972656 271.078125 154.25 C 272.363281 151.980469 275.328125 151.011719 277.972656 152.003906 C 285.382812 154.773438 292.328125 154.800781 298.042969 152.074219 C 301.0625 150.636719 303.597656 148.460938 305.675781 145.660156 C 312.558594 156.167969 316.574219 168.714844 316.574219 182.195312 C 316.582031 193.773438 313.5625 205.105469 307.902344 215.105469 Z M 116.761719 169.71875 L 69.183594 91.234375 C 68.71875 90.472656 68.582031 89.578125 68.792969 88.707031 C 69.003906 87.839844 69.539062 87.109375 70.300781 86.648438 C 71.0625 86.1875 71.953125 86.050781 72.824219 86.257812 C 73.691406 86.472656 74.417969 87.007812 74.878906 87.769531 L 121.347656 164.425781 C 119.742188 166.121094 118.210938 167.886719 116.761719 169.71875 Z M 118.78125 176.433594 C 119.851562 178.171875 121.226562 179.59375 122.976562 180.605469 C 128.699219 183.914062 139.113281 182.300781 153.933594 175.804688 C 157.71875 174.140625 162.183594 174.875 165.292969 177.671875 C 170.261719 182.132812 176.011719 184.441406 182.078125 184.441406 C 183.0625 184.441406 184.054688 184.382812 185.046875 184.261719 C 195.105469 183.027344 200.050781 175.917969 202.429688 170.167969 C 203.472656 167.628906 205.980469 165.96875 208.6875 166.019531 C 214.386719 166.140625 219.199219 164.5625 222.519531 161.570312 C 238.363281 174.25 248.765625 193.464844 249.601562 215.109375 L 105.679688 215.109375 C 106.234375 200.746094 111.003906 187.457031 118.78125 176.433594 Z M 219.441406 72.921875 L 218.210938 81.371094 C 212.515625 75.867188 205.871094 72.273438 198.359375 70.664062 L 199.808594 60.679688 C 207.476562 62.386719 213.929688 66.421875 219.441406 72.921875 Z M 200.621094 55.09375 L 202.347656 43.230469 C 210.015625 44.9375 216.46875 48.96875 221.976562 55.472656 L 220.472656 65.800781 C 214.78125 60.292969 208.132812 56.703125 200.621094 55.09375 Z M 217.175781 88.488281 L 215.671875 98.820312 C 209.976562 93.3125 203.332031 89.71875 195.820312 88.113281 L 197.546875 76.246094 C 205.214844 77.953125 211.667969 81.988281 217.175781 88.488281 Z M 214.636719 105.941406 L 213.410156 114.386719 C 207.714844 108.882812 201.070312 105.289062 193.554688 103.679688 L 195.007812 93.699219 C 202.675781 95.40625 209.128906 99.441406 214.636719 105.941406 Z M 223.011719 48.351562 C 217.316406 42.84375 210.667969 39.25 203.160156 37.640625 L 204.609375 27.660156 C 212.28125 29.367188 218.734375 33.40625 224.242188 39.90625 Z M 192.742188 109.265625 C 200.058594 110.894531 206.265625 114.640625 211.601562 120.625 C 209.773438 121.765625 208.007812 123.015625 206.28125 124.316406 C 206.273438 124.320312 206.269531 124.328125 206.261719 124.332031 C 205.417969 124.96875 204.578125 125.609375 203.765625 126.285156 C 199.855469 123.855469 195.585938 122.140625 191.011719 121.15625 Z M 302.160156 140.777344 C 300.457031 143.597656 298.289062 145.710938 295.625 146.976562 C 290.183594 149.566406 284.09375 148.261719 279.949219 146.714844 C 274.640625 144.730469 268.851562 146.734375 266.175781 151.472656 C 264.003906 155.320312 260.582031 156.941406 255.734375 156.441406 C 248.523438 155.691406 244.894531 147.144531 243.117188 140.101562 C 241.648438 134.285156 235.933594 130.5625 230.097656 131.640625 C 221.386719 133.242188 215.007812 132.800781 212.605469 130.421875 C 211.847656 129.671875 211.316406 128.816406 210.953125 127.851562 C 222.113281 119.832031 235.628906 115.363281 249.832031 115.363281 C 271.027344 115.363281 289.925781 125.3125 302.160156 140.777344 Z M 258.964844 45.9375 C 266.554688 47.972656 272.828125 52.277344 278.054688 59.007812 L 276.472656 67.394531 C 271.015625 61.648438 264.527344 57.777344 257.089844 55.851562 Z M 273.195312 84.71875 C 267.738281 78.972656 261.25 75.101562 253.8125 73.175781 L 256.042969 61.390625 C 263.632812 63.425781 269.910156 67.730469 275.132812 74.464844 Z M 252.761719 78.71875 C 260.355469 80.753906 266.628906 85.058594 271.855469 91.789062 L 270.273438 100.175781 C 264.816406 94.433594 258.332031 90.558594 250.890625 88.632812 Z M 281.511719 40.726562 L 279.394531 51.933594 C 273.9375 46.191406 267.449219 42.316406 260.011719 40.390625 L 260.691406 36.777344 C 268.46875 33.945312 275.304688 35.242188 281.511719 40.726562 Z M 249.839844 94.175781 C 257.429688 96.210938 263.707031 100.519531 268.933594 107.25 L 268.027344 112.035156 C 262.210938 110.523438 256.117188 109.714844 249.839844 109.714844 C 248.851562 109.714844 247.867188 109.769531 246.882812 109.808594 Z M 226.917969 21.492188 L 225.277344 32.78125 C 219.582031 27.277344 212.9375 23.683594 205.425781 22.074219 L 205.957031 18.429688 C 213.601562 15.277344 220.484375 16.285156 226.917969 21.492188 Z M 190.203125 126.746094 C 193.464844 127.480469 196.550781 128.628906 199.414062 130.222656 C 196.023438 133.527344 192.933594 137.1875 190.191406 141.183594 C 189.511719 141.074219 188.828125 140.976562 188.144531 140.882812 Z M 217.855469 158.113281 C 215.636719 159.664062 212.53125 160.46875 208.808594 160.371094 C 203.871094 160.328125 199.148438 163.335938 197.21875 168.007812 C 194.601562 174.351562 190.277344 177.929688 184.367188 178.652344 C 178.796875 179.324219 173.648438 177.589844 169.058594 173.46875 C 164.300781 169.199219 157.480469 168.085938 151.671875 170.632812 C 139.144531 176.128906 129.707031 177.980469 125.796875 175.71875 C 124.300781 174.851562 123.28125 173.414062 122.652344 171.414062 C 135.878906 155.761719 155.617188 145.800781 177.644531 145.800781 C 192.523438 145.800781 206.363281 150.339844 217.855469 158.113281 Z M 59.851562 95.195312 C 56.027344 88.886719 58.039062 80.644531 64.339844 76.816406 C 67.390625 74.960938 70.976562 74.40625 74.441406 75.257812 C 77.910156 76.105469 80.839844 78.257812 82.6875 81.3125 L 128.855469 157.464844 C 127.703125 158.402344 126.570312 159.355469 125.472656 160.355469 L 79.699219 84.839844 C 77.128906 80.605469 71.597656 79.25 67.375 81.820312 C 63.144531 84.394531 61.796875 89.929688 64.359375 94.164062 L 113.148438 174.640625 C 112.234375 176 111.375 177.398438 110.546875 178.816406 Z M 117.257812 344.550781 L 112.636719 309.023438 C 122.257812 308.792969 129.871094 302.460938 137.910156 295.730469 C 146.976562 288.132812 157.25 279.523438 171.496094 279.523438 C 183.75 279.523438 190.867188 285.390625 199.875 292.816406 C 209.109375 300.433594 219.578125 309.0625 236.078125 309.0625 C 253.917969 309.0625 265.34375 300.953125 275.421875 293.800781 C 281.835938 289.25 287.371094 285.320312 292.816406 285.320312 C 296.0625 285.320312 299.210938 286.238281 302.21875 287.945312 L 294.859375 344.550781 Z M 292.816406 279.675781 C 285.574219 279.675781 279.355469 284.085938 272.160156 289.191406 C 262.765625 295.859375 252.121094 303.417969 236.074219 303.417969 C 221.597656 303.417969 212.375 295.8125 203.457031 288.460938 C 194.363281 280.960938 185.777344 273.875 171.496094 273.875 C 155.203125 273.875 144.089844 283.183594 134.292969 291.394531 C 126.59375 297.847656 119.945312 303.414062 112.117188 303.414062 C 112.046875 303.414062 111.980469 303.410156 111.910156 303.410156 L 111.078125 297.015625 C 111.429688 297.023438 111.761719 297.078125 112.117188 297.078125 C 117.648438 297.078125 123.480469 292.191406 130.230469 286.535156 C 140.332031 278.070312 152.90625 267.539062 171.5 267.539062 C 188.054688 267.539062 198.375 276.050781 207.484375 283.5625 C 215.910156 290.515625 223.867188 297.082031 236.082031 297.082031 C 250.109375 297.082031 259.460938 290.445312 268.503906 284.023438 C 275.90625 278.769531 283.558594 273.335938 292.820312 273.335938 C 296.636719 273.335938 300.332031 274.066406 303.847656 275.421875 L 302.996094 281.976562 C 299.730469 280.46875 296.328125 279.675781 292.816406 279.675781 Z M 304.597656 269.652344 C 300.816406 268.355469 296.867188 267.695312 292.816406 267.695312 C 281.753906 267.695312 273.355469 273.65625 265.238281 279.421875 C 256.152344 285.867188 248.308594 291.4375 236.074219 291.4375 C 225.886719 291.4375 219.34375 286.039062 211.0625 279.207031 C 201.222656 271.09375 190.070312 261.894531 171.492188 261.894531 C 150.855469 261.894531 137.414062 273.160156 126.609375 282.207031 C 120.945312 286.953125 115.59375 291.433594 112.113281 291.433594 C 111.496094 291.433594 110.929688 291.359375 110.332031 291.328125 L 104.171875 243.953125 L 307.933594 243.953125 Z M 302.746094 355.144531 L 302.746094 356.09375 C 302.746094 358.824219 300.527344 361.039062 297.808594 361.039062 L 114.304688 361.039062 C 111.582031 361.039062 109.371094 358.820312 109.371094 356.09375 L 109.371094 355.144531 C 109.371094 352.417969 111.585938 350.199219 114.304688 350.199219 L 297.808594 350.199219 C 300.53125 350.199219 302.746094 352.417969 302.746094 355.144531 Z M 319.914062 230.203125 C 319.914062 234.671875 316.277344 238.3125 311.8125 238.3125 L 100.296875 238.3125 C 95.832031 238.3125 92.199219 234.671875 92.199219 230.203125 L 92.199219 228.863281 C 92.199219 224.390625 95.832031 220.753906 100.296875 220.753906 L 309.535156 220.753906 C 309.542969 220.753906 309.550781 220.753906 309.554688 220.753906 C 309.5625 220.753906 309.570312 220.753906 309.578125 220.753906 L 311.8125 220.753906 C 316.28125 220.753906 319.914062 224.390625 319.914062 228.863281 Z M 319.914062 230.203125 " fill-opacity="1" fill-rule="nonzero"/></g><path fill="#000000" d="M 173.933594 163.929688 C 174.382812 164.1875 174.871094 164.3125 175.351562 164.3125 C 176.320312 164.3125 177.265625 163.808594 177.789062 162.910156 L 182.613281 154.617188 C 183.394531 153.265625 182.9375 151.539062 181.59375 150.753906 C 180.246094 149.96875 178.523438 150.425781 177.738281 151.773438 L 172.914062 160.066406 C 172.132812 161.417969 172.589844 163.148438 173.933594 163.929688 Z M 173.933594 163.929688 " fill-opacity="1" fill-rule="nonzero"/><path fill="#000000" d="M 148.824219 166.585938 C 149.382812 167.25 150.179688 167.59375 150.988281 167.59375 C 151.625 167.59375 152.269531 167.375 152.800781 166.933594 C 153.992188 165.929688 154.148438 164.148438 153.144531 162.953125 L 148.390625 157.285156 C 147.390625 156.09375 145.609375 155.9375 144.417969 156.9375 C 143.226562 157.9375 143.070312 159.71875 144.070312 160.914062 Z M 148.824219 166.585938 " fill-opacity="1" fill-rule="nonzero"/><path fill="#000000" d="M 152.667969 197.050781 C 153.019531 197.050781 153.375 196.984375 153.722656 196.84375 L 168.222656 191 C 169.667969 190.414062 170.367188 188.769531 169.785156 187.324219 C 169.203125 185.878906 167.570312 185.179688 166.117188 185.761719 L 151.617188 191.609375 C 150.171875 192.191406 149.472656 193.835938 150.054688 195.28125 C 150.496094 196.382812 151.554688 197.050781 152.667969 197.050781 Z M 152.667969 197.050781 " fill-opacity="1" fill-rule="nonzero"/><path fill="#000000" d="M 259.0625 136.105469 C 259.515625 136.378906 260.011719 136.507812 260.511719 136.507812 C 261.464844 136.507812 262.402344 136.019531 262.929688 135.140625 L 268.308594 126.175781 C 269.109375 124.839844 268.675781 123.105469 267.339844 122.300781 C 266.007812 121.496094 264.277344 121.929688 263.472656 123.269531 L 258.09375 132.234375 C 257.292969 133.566406 257.722656 135.300781 259.0625 136.105469 Z M 259.0625 136.105469 " fill-opacity="1" fill-rule="nonzero"/><path fill="#000000" d="M 280.710938 157.273438 C 279.164062 157.101562 277.78125 158.253906 277.625 159.804688 L 276.371094 172.460938 C 276.214844 174.007812 277.347656 175.394531 278.898438 175.546875 C 278.988281 175.554688 279.085938 175.5625 279.179688 175.5625 C 280.609375 175.5625 281.835938 174.476562 281.980469 173.019531 L 283.234375 160.363281 C 283.390625 158.8125 282.261719 157.429688 280.710938 157.273438 Z M 280.710938 157.273438 " fill-opacity="1" fill-rule="nonzero"/><path fill="#000000" d="M 255.34375 178.785156 C 254.097656 177.847656 252.332031 178.097656 251.394531 179.34375 C 250.460938 180.585938 250.710938 182.355469 251.953125 183.292969 L 264.195312 192.515625 C 264.703125 192.894531 265.296875 193.082031 265.886719 193.082031 C 266.742188 193.082031 267.589844 192.691406 268.140625 191.957031 C 269.078125 190.710938 268.828125 188.941406 267.582031 188.003906 Z M 255.34375 178.785156 " fill-opacity="1" fill-rule="nonzero"/></svg>