<svg xmlns="http://www.w3.org/2000/svg" xmlns:xlink="http://www.w3.org/1999/xlink" width="500" zoomAndPan="magnify" viewBox="0 0 375 374.999991" height="500" preserveAspectRatio="xMidYMid meet" version="1.0"><path fill="#000000" d="M 298.515625 375 L 134.457031 375 C 131.359375 375 128.792969 372.585938 128.609375 369.496094 L 127.730469 354.824219 C 127.535156 351.597656 129.996094 348.824219 133.226562 348.628906 C 136.464844 348.433594 139.234375 350.898438 139.425781 354.125 L 139.976562 363.289062 L 293 363.289062 L 309.875 82.203125 L 123.101562 82.203125 L 133.230469 250.890625 C 133.425781 254.121094 130.964844 256.894531 127.734375 257.085938 C 124.5 257.285156 121.726562 254.820312 121.535156 251.59375 L 111.03125 76.699219 C 110.933594 75.085938 111.507812 73.507812 112.613281 72.332031 C 113.722656 71.15625 115.265625 70.492188 116.878906 70.492188 L 316.09375 70.492188 C 317.710938 70.492188 319.253906 71.15625 320.359375 72.332031 C 321.46875 73.507812 322.039062 75.085938 321.945312 76.699219 L 304.367188 369.496094 C 304.179688 372.585938 301.617188 375 298.515625 375 Z M 298.515625 375 " fill-opacity="1" fill-rule="nonzero"/><path fill="#000000" d="M 299.921875 351.578125 L 139.671875 351.578125 C 136.4375 351.578125 133.8125 348.953125 133.8125 345.71875 C 133.8125 342.488281 136.4375 339.863281 139.671875 339.863281 L 299.921875 339.863281 C 303.160156 339.863281 305.78125 342.488281 305.78125 345.71875 C 305.78125 348.953125 303.160156 351.578125 299.921875 351.578125 Z M 299.921875 351.578125 " fill-opacity="1" fill-rule="nonzero"/><path fill="#000000" d="M 259.125 166.195312 C 250.285156 166.195312 241.605469 165.5 233.117188 164.109375 C 224.273438 162.660156 217.023438 160.703125 210.015625 158.8125 C 199.566406 155.992188 189.695312 153.328125 175.125 152.464844 C 157.886719 151.445312 140.351562 153.347656 123.007812 158.121094 C 119.886719 158.980469 116.660156 157.148438 115.800781 154.03125 C 114.941406 150.914062 116.773438 147.6875 119.894531 146.828125 C 138.476562 141.714844 157.292969 139.675781 175.820312 140.773438 C 191.585938 141.707031 202.507812 144.65625 213.070312 147.507812 C 219.796875 149.320312 226.753906 151.199219 235.011719 152.550781 C 258.511719 156.402344 283.703125 154.484375 309.882812 146.851562 C 312.992188 145.949219 316.246094 147.730469 317.148438 150.835938 C 318.054688 153.941406 316.273438 157.191406 313.167969 158.097656 C 294.664062 163.488281 276.578125 166.195312 259.125 166.195312 Z M 259.125 166.195312 " fill-opacity="1" fill-rule="nonzero"/><path fill="#000000" d="M 214.15625 159.714844 C 213.347656 159.714844 212.527344 159.546875 211.746094 159.195312 C 208.796875 157.863281 207.488281 154.394531 208.816406 151.449219 L 243.847656 73.9375 L 275.597656 3.664062 C 276.292969 2.128906 277.613281 0.96875 279.226562 0.476562 C 280.835938 -0.015625 282.582031 0.207031 284.015625 1.09375 L 348.46875 40.847656 C 351.222656 42.546875 352.078125 46.15625 350.378906 48.90625 C 348.679688 51.660156 345.066406 52.515625 342.3125 50.8125 L 283.535156 14.558594 L 254.527344 78.757812 L 219.496094 156.269531 C 218.519531 158.433594 216.386719 159.714844 214.15625 159.714844 Z M 214.15625 159.714844 " fill-opacity="1" fill-rule="nonzero"/><path fill="#000000" d="M 109.339844 375 C 103.542969 375 97.863281 374.0625 92.425781 372.207031 C 86.988281 374.0625 81.308594 375 75.507812 375 C 45.25 375 23.132812 321.800781 23.132812 294.113281 C 23.132812 265.246094 46.628906 241.761719 75.507812 241.761719 C 81.308594 241.761719 86.988281 242.699219 92.425781 244.554688 C 97.859375 242.699219 103.542969 241.761719 109.339844 241.761719 C 138.222656 241.761719 161.71875 265.246094 161.71875 294.113281 C 161.71875 308.363281 156.09375 327.964844 147.390625 344.042969 C 136.578125 364.003906 123.070312 375 109.339844 375 Z M 92.425781 360.117188 C 93.148438 360.117188 93.871094 360.25 94.554688 360.519531 C 99.265625 362.355469 104.242188 363.289062 109.339844 363.289062 C 118.429688 363.289062 128.542969 354.242188 137.082031 338.46875 C 144.808594 324.199219 150 306.371094 150 294.113281 C 150 271.703125 131.761719 253.472656 109.339844 253.472656 C 104.242188 253.472656 99.265625 254.40625 94.554688 256.246094 C 93.183594 256.777344 91.664062 256.777344 90.296875 256.242188 C 85.582031 254.40625 80.609375 253.472656 75.507812 253.472656 C 53.089844 253.472656 34.851562 271.703125 34.851562 294.113281 C 34.851562 306.371094 40.042969 324.199219 47.769531 338.46875 C 56.308594 354.242188 66.417969 363.289062 75.507812 363.289062 C 80.609375 363.289062 85.582031 362.355469 90.296875 360.519531 C 90.980469 360.25 91.703125 360.117188 92.425781 360.117188 Z M 92.425781 360.117188 " fill-opacity="1" fill-rule="nonzero"/><path fill="#000000" d="M 92.425781 256.644531 C 89.1875 256.644531 86.566406 254.023438 86.566406 250.789062 C 86.566406 242.601562 82.410156 235.132812 75.453125 230.808594 C 72.707031 229.101562 71.863281 225.492188 73.570312 222.742188 C 75.277344 220 78.890625 219.15625 81.640625 220.863281 C 92.0625 227.335938 98.285156 238.523438 98.285156 250.789062 C 98.285156 254.023438 95.660156 256.644531 92.425781 256.644531 Z M 92.425781 256.644531 " fill-opacity="1" fill-rule="nonzero"/><path fill="#000000" d="M 263.363281 240.3125 C 253.667969 240.3125 245.785156 232.433594 245.785156 222.746094 C 245.785156 213.058594 253.667969 205.175781 263.363281 205.175781 C 273.054688 205.175781 280.9375 213.058594 280.9375 222.746094 C 280.9375 232.433594 273.054688 240.3125 263.363281 240.3125 Z M 263.363281 216.890625 C 260.132812 216.890625 257.503906 219.515625 257.503906 222.746094 C 257.503906 225.972656 260.132812 228.601562 263.363281 228.601562 C 266.59375 228.601562 269.222656 225.972656 269.222656 222.746094 C 269.222656 219.515625 266.59375 216.890625 263.363281 216.890625 Z M 263.363281 216.890625 " fill-opacity="1" fill-rule="nonzero"/><path fill="#000000" d="M 263.363281 287.160156 C 253.667969 287.160156 245.785156 279.28125 245.785156 269.59375 C 245.785156 259.90625 253.667969 252.023438 263.363281 252.023438 C 273.054688 252.023438 280.9375 259.90625 280.9375 269.59375 C 280.9375 279.28125 273.054688 287.160156 263.363281 287.160156 Z M 263.363281 263.738281 C 260.132812 263.738281 257.503906 266.363281 257.503906 269.59375 C 257.503906 272.820312 260.132812 275.449219 263.363281 275.449219 C 266.59375 275.449219 269.222656 272.820312 269.222656 269.59375 C 269.222656 266.363281 266.59375 263.738281 263.363281 263.738281 Z M 263.363281 263.738281 " fill-opacity="1" fill-rule="nonzero"/><path fill="#000000" d="M 228.207031 263.738281 C 218.515625 263.738281 210.628906 255.855469 210.628906 246.167969 C 210.628906 236.484375 218.515625 228.601562 228.207031 228.601562 C 237.898438 228.601562 245.785156 236.484375 245.785156 246.167969 C 245.785156 255.855469 237.898438 263.738281 228.207031 263.738281 Z M 228.207031 240.3125 C 224.976562 240.3125 222.347656 242.941406 222.347656 246.167969 C 222.347656 249.398438 224.976562 252.023438 228.207031 252.023438 C 231.4375 252.023438 234.066406 249.398438 234.066406 246.167969 C 234.066406 242.941406 231.4375 240.3125 228.207031 240.3125 Z M 228.207031 240.3125 " fill-opacity="1" fill-rule="nonzero"/></svg>