<svg xmlns="http://www.w3.org/2000/svg" xmlns:xlink="http://www.w3.org/1999/xlink" width="500" zoomAndPan="magnify" viewBox="0 0 375 374.999991" height="500" preserveAspectRatio="xMidYMid meet" version="1.0"><defs><clipPath id="3889358b7b"><path d="M 0.1875 18.066406 L 374.761719 18.066406 L 374.761719 356.96875 L 0.1875 356.96875 Z M 0.1875 18.066406 " clip-rule="nonzero"/></clipPath></defs><g clip-path="url(#3889358b7b)"><path fill="#000000" d="M 336.992188 241.863281 L 328.671875 241.863281 C 326.183594 241.863281 324.394531 240.179688 323.558594 237.96875 C 315.996094 218.03125 299.953125 202.519531 282.070312 191.578125 C 242.34375 167.242188 191.289062 161.613281 146.167969 171.003906 C 108.398438 178.875 65.75 199.566406 51.1875 237.96875 C 50.347656 240.167969 48.585938 241.863281 46.070312 241.863281 C 40.796875 241.863281 35.355469 241.453125 30.226562 242.910156 C 21.929688 245.269531 14.992188 251.707031 12.089844 259.851562 C 6.546875 275.378906 19.753906 286.691406 32.761719 292.375 C 34.210938 293.011719 35.691406 293.582031 37.1875 294.125 C 38.042969 294.148438 38.886719 294.414062 39.625 294.972656 C 55.585938 300.109375 73.675781 300.085938 89.605469 295.6875 C 102.910156 292.003906 120.878906 283.15625 121.351562 267.191406 C 121.550781 260.355469 131.761719 260.371094 131.964844 267.191406 C 132.683594 291.621094 168.796875 298.773438 187.367188 298.773438 C 205.953125 298.773438 242.066406 291.621094 242.78125 267.191406 C 242.992188 260.355469 253.191406 260.371094 253.390625 267.191406 C 253.800781 281.0625 267.894531 289.75 279.566406 293.925781 C 296.3125 299.925781 315.347656 300.390625 332.476562 295.6875 C 333.402344 295.421875 334.371094 295.144531 335.335938 294.839844 C 336 294.402344 336.726562 294.175781 337.46875 294.125 C 348.664062 290.230469 361.117188 283.007812 363.765625 271.113281 C 367.289062 255.375 351.3125 242.246094 336.992188 241.863281 Z M 328.316406 307.316406 C 322.964844 308.441406 317.8125 309.09375 313.242188 309.292969 C 292.441406 310.207031 260.558594 303.699219 248.066406 284.347656 C 236.222656 302.523438 207.210938 309.355469 187.367188 309.382812 C 167.417969 309.410156 138.195312 302.429688 126.480469 284.015625 C 120.855469 292.425781 111.617188 298.601562 102.148438 302.535156 C 84.792969 309.769531 64.941406 311.039062 46.546875 307.542969 C 53.09375 320.484375 59.644531 333.414062 66.1875 346.355469 L 308.550781 346.355469 C 315.136719 333.347656 321.71875 320.324219 328.316406 307.316406 Z M 342.1875 303.355469 L 316.394531 354.34375 C 315.558594 355.972656 313.585938 356.96875 311.808594 356.96875 L 62.9375 356.96875 C 61.160156 356.96875 59.1875 355.972656 58.355469 354.34375 C 49.832031 337.492188 41.308594 320.644531 32.78125 303.808594 C 21.890625 299.847656 11.664062 293.488281 5.210938 283.9375 C -3.445312 271.113281 -0.269531 254.660156 9.816406 243.574219 C 18.789062 233.714844 30.179688 231.585938 42.527344 231.292969 C 51.191406 211.328125 66.753906 195.511719 85.035156 183.828125 C 127.488281 156.710938 182.742188 150.65625 231.402344 160.777344 C 271.964844 169.203125 315.042969 191.617188 332.210938 231.253906 L 336.992188 231.253906 C 354.292969 231.730469 369.914062 243.203125 373.875 260.421875 C 378.90625 282.386719 361.699219 296.214844 342.1875 303.355469 Z M 215.09375 205.25 C 218.933594 200.148438 222.789062 195.035156 226.632812 189.933594 C 228.355469 187.644531 226.988281 184 224.722656 182.675781 C 222.007812 181.085938 219.199219 182.277344 217.464844 184.582031 C 213.625 189.683594 209.769531 194.796875 205.925781 199.910156 C 204.203125 202.1875 205.554688 205.832031 207.835938 207.15625 C 210.550781 208.746094 213.359375 207.554688 215.09375 205.25 Z M 186.175781 205.25 C 190.03125 200.148438 193.871094 195.035156 197.726562 189.933594 C 199.449219 187.644531 198.085938 184 195.820312 182.675781 C 193.101562 181.085938 190.296875 182.277344 188.558594 184.582031 C 184.71875 189.683594 180.863281 194.796875 177.023438 199.910156 C 175.285156 202.1875 176.652344 205.832031 178.929688 207.15625 C 181.644531 208.746094 184.453125 207.554688 186.175781 205.25 Z M 157.269531 205.25 C 161.125 200.148438 164.964844 195.035156 168.820312 189.933594 C 170.542969 187.644531 169.179688 184 166.914062 182.675781 C 164.199219 181.085938 161.390625 182.277344 159.65625 184.582031 C 155.8125 189.683594 151.957031 194.796875 148.101562 199.910156 C 146.382812 202.1875 147.746094 205.832031 150.011719 207.15625 C 152.726562 208.746094 155.546875 207.554688 157.269531 205.25 Z M 229.546875 19.578125 C 216.910156 31.722656 212.683594 51.355469 222.128906 66.617188 C 226.167969 73.125 232.605469 77.699219 236.195312 84.484375 C 239.203125 90.148438 239.945312 96.523438 238.472656 102.746094 C 237.03125 108.839844 233.851562 115.054688 229.546875 119.65625 C 224.871094 124.632812 232.367188 132.152344 237.042969 127.160156 C 248.980469 114.429688 253.882812 94.960938 245.363281 79.132812 C 238.726562 66.796875 224.394531 59.296875 227.917969 43.253906 C 229.242188 37.273438 232.621094 31.335938 237.042969 27.082031 C 241.984375 22.339844 234.472656 14.84375 229.546875 19.578125 Z M 183.617188 19.578125 C 170.980469 31.722656 166.753906 51.355469 176.214844 66.617188 C 180.242188 73.125 186.691406 77.699219 190.28125 84.484375 C 193.277344 90.148438 194.015625 96.523438 192.546875 102.746094 C 191.101562 108.839844 187.9375 115.054688 183.617188 119.65625 C 178.957031 124.632812 186.441406 132.152344 191.128906 127.160156 C 203.050781 114.429688 207.953125 94.960938 199.4375 79.132812 C 192.8125 66.796875 178.464844 59.296875 182.003906 43.253906 C 183.3125 37.273438 186.691406 31.335938 191.128906 27.082031 C 196.058594 22.339844 188.546875 14.84375 183.617188 19.578125 Z M 137.691406 19.578125 C 142.617188 14.84375 150.128906 22.339844 145.203125 27.082031 C 140.777344 31.335938 137.386719 37.277344 136.074219 43.253906 C 132.539062 59.296875 146.882812 66.796875 153.519531 79.132812 C 162.039062 94.960938 157.136719 114.429688 145.203125 127.160156 C 140.511719 132.152344 133.027344 124.632812 137.691406 119.65625 C 142.007812 115.054688 145.1875 108.839844 146.632812 102.746094 C 148.101562 96.523438 147.347656 90.148438 144.355469 84.484375 C 140.765625 77.699219 134.3125 73.125 130.28125 66.617188 C 120.832031 51.355469 125.0625 31.722656 137.691406 19.578125 " fill-opacity="1" fill-rule="nonzero"/></g></svg>